<?xml version="1.0" encoding="utf-8"?>
<svg xmlns="http://www.w3.org/2000/svg" viewBox="0 0 500 500" xmlns:bx="https://boxy-svg.com" width="500px" height="500px"><defs><bx:grid x="0" y="0" width="50.065" height="50.049"/><pattern x="0" y="0" width="25" height="25" patternUnits="userSpaceOnUse" viewBox="0 0 100 100" id="pattern-0"><rect x="0" y="0" width="50" height="100" style="fill: black;"/></pattern><pattern id="pattern-0-0" href="#pattern-0" patternTransform="matrix(1, 0, 0, 1, 195.397991, 217.111996)"/><linearGradient id="color-0" gradientUnits="userSpaceOnUse" bx:pinned="true"><stop style="stop-color: rgb(37, 12, 0);"/></linearGradient><linearGradient id="color-1" bx:pinned="true" gradientUnits="userSpaceOnUse" gradientTransform="matrix(1, 0, 0, 1, -61.131929, -63.560346)"><stop style="stop-color: rgb(152, 45, 0);"/></linearGradient><path id="path-0" d="M 153.078 209.426 C 176.475 168.741 189.62 157.228 220.533 157.228 C 251.056 157.228 269.491 160.699 292.807 168.471 C 312.313 178.625 325.475 190.16 340.187 198.986 L 340.99 200.592 C 342.248 200.592 346.611 205.114 346.611 205.411" style="fill: none;"/><path id="text-path-0" d="M 105.48979949951172 213.46126053550026 Q 219.37122344970703 190.76565551757812 333.25264739990234 213.46126053550026"/><path id="text-path-1" d="M 143.915 208.572 C 186.5 119.797 315.085 102.768 367.036 224.632"/><path id="text-path-2" d="M 178.417 349.979 C 199.486 378.923 316.4 382.152 353.972 343.069"/><style bx:fonts="Abril Fatface">@import url(https://fonts.googleapis.com/css2?family=Abril+Fatface%3Aital%2Cwght%400%2C400&amp;display=swap);</style><bx:export><bx:file format="svg"/></bx:export></defs><circle style="stroke-width: 4.6447px; stroke: url(&quot;#color-0&quot;); fill: url(&quot;#color-1&quot;);" transform="matrix(4.306665, 0, 0, 4.305292, -2861.240479, -1109.047485)" cx="722.5" cy="315.726" r="46.5"><title>Green outer circle</title></circle><circle style="stroke-width: 7.68497px; fill: rgb(152, 45, 0); stroke: url(&quot;#color-0&quot;);" cx="207.898" cy="229.612" r="57.703" transform="matrix(2.602898, 0, 0, 2.602065, -290.812286, -347.220367)"><title>Red inner circle</title></circle><circle style="fill-opacity: 0; stroke-width: 3.07399px; stroke-dasharray: 37; stroke: url(&quot;#color-1&quot;);" cx="207.898" cy="229.612" r="57.703" transform="matrix(2.602898, 0, 0, 2.602065, -291.259888, -346.717834)"><title>Green inner stripes</title></circle><circle style="fill-opacity: 0; stroke-width: 11.5141px; fill-rule: nonzero; fill: url(&quot;#pattern-0-0&quot;); stroke: url(&quot;#color-0&quot;); stroke-dasharray: 29;" cx="207.898" cy="229.612" r="57.703" transform="matrix(3.062246, 0, 0, 3.017245, -386.557495, -442.071228)"><title>Black outer stripes</title></circle><text style="fill: url(&quot;#color-0&quot;); font-family: &quot;Abril Fatface&quot;; font-size: 117px; font-weight: 700; white-space: pre;" x="144.196" y="295.903">402</text><g><title>Dice dots</title><g><title>2</title><circle style="stroke: rgb(0, 0, 0); stroke-width: 0px; fill: url(&quot;#color-1&quot;);" cx="342.021" cy="106.639" r="3.674"/><circle style="stroke: rgb(0, 0, 0); stroke-width: 0px; fill: url(&quot;#color-1&quot;);" cx="362.864" cy="107.438" r="3.674"/></g><g transform="matrix(1, 0, 0, 1, 32.430962, -23.854177)"><title>4</title><circle style="stroke: rgb(0, 0, 0); stroke-width: 0px; fill: url(&quot;#color-1&quot;); transform-box: fill-box; transform-origin: 50% 50%;" cx="126.566" cy="111.137" r="3.674" transform="matrix(0.642788, 0.766044, -0.766044, 0.642788, 12.047274, -1.785744)"/><circle style="stroke: rgb(0, 0, 0); stroke-width: 0px; fill: url(&quot;#color-1&quot;); transform-box: fill-box; transform-origin: 50% 50%;" cx="147.409" cy="111.936" r="3.674" transform="matrix(0.642788, 0.766044, -0.766044, 0.642788, -0.098916, 9.17772)"/><circle style="stroke: rgb(0, 0, 0); stroke-width: 0px; fill: url(&quot;#color-1&quot;); transform-box: fill-box; transform-origin: 50% 50%;" cx="125.866" cy="130.082" r="3.674" transform="matrix(0.642788, 0.766044, -0.766044, 0.642788, -0.642778, -10.66198)"/><circle style="stroke: rgb(0, 0, 0); stroke-width: 0px; fill: url(&quot;#color-1&quot;); transform-box: fill-box; transform-origin: 50% 50%;" cx="146.709" cy="130.881" r="3.674" transform="matrix(0.642788, 0.766044, -0.766044, 0.642788, -10.587325, -0.32755)"/></g><g transform="matrix(-0.207912, 0.978148, -0.978148, -0.207912, 161.523178, 206.01062)" style="transform-origin: 260.783px 76.5709px;"><title>6</title><circle style="stroke: rgb(0, 0, 0); stroke-width: 0px; fill: url(&quot;#color-1&quot;); transform-origin: 126.566px 111.137px;" cx="126.566" cy="111.137" r="3.674" transform="matrix(-0.069756, 0.997564, -0.997564, -0.069756, 141.271062, -34.552125)"/><circle style="stroke: rgb(0, 0, 0); stroke-width: 0px; fill: url(&quot;#color-1&quot;); transform-origin: 147.409px 111.936px;" cx="147.409" cy="111.936" r="3.674" transform="matrix(-0.069756, 0.997564, -0.997564, -0.069756, 120.12799, -24.616632)"/><circle style="stroke: rgb(0, 0, 0); stroke-width: 0px; fill: url(&quot;#color-1&quot;); transform-origin: 125.866px 130.082px;" cx="125.866" cy="130.082" r="3.674" transform="matrix(-0.069756, 0.997564, -0.997564, -0.069756, 128.036175, -54.479136)"/><circle style="stroke: rgb(0, 0, 0); stroke-width: 0px; fill: url(&quot;#color-1&quot;); transform-origin: 146.709px 130.881px;" cx="146.709" cy="130.881" r="3.674" transform="matrix(-0.069756, 0.997564, -0.997564, -0.069756, 106.222312, -44.543415)"/><circle style="stroke: rgb(0, 0, 0); stroke-width: 0px; fill: url(&quot;#color-1&quot;); transform-origin: 126.566px 111.137px;" cx="126.566" cy="111.137" r="3.674" transform="matrix(-0.069756, 0.997564, -0.997564, -0.069756, 142.068394, -44.776273)"/><circle style="stroke: rgb(0, 0, 0); stroke-width: 0px; fill: url(&quot;#color-1&quot;); transform-origin: 126.566px 111.137px;" cx="126.566" cy="111.137" r="3.674" transform="matrix(-0.069756, 0.997564, -0.997564, -0.069756, 127.534436, -45.314553)"/></g><g transform="matrix(1, 0, 0, 1, -50.988422, 306.859985)"><title>3</title><circle style="stroke: rgb(0, 0, 0); stroke-width: 0px; fill: url(&quot;#color-1&quot;);" cx="349.852" cy="103.457" r="3.674"/><circle style="stroke: rgb(0, 0, 0); stroke-width: 0px; fill: url(&quot;#color-1&quot;);" cx="362.864" cy="107.438" r="3.674"/><circle style="stroke: rgb(0, 0, 0); stroke-width: 0px; fill: url(&quot;#color-1&quot;);" cx="376.314" cy="112.623" r="3.674"/></g><g transform="matrix(0.906308, -0.422618, 0.422618, 0.906308, -224.943542, 277.95224)" style="transform-origin: 363.083px 108.04px;"><title>5</title><circle style="stroke: rgb(0, 0, 0); stroke-width: 0px; fill: url(&quot;#color-1&quot;);" cx="349.852" cy="103.457" r="3.674"/><circle style="stroke: rgb(0, 0, 0); stroke-width: 0px; fill: url(&quot;#color-1&quot;);" cx="362.864" cy="107.438" r="3.674"/><circle style="stroke: rgb(0, 0, 0); stroke-width: 0px; fill: url(&quot;#color-1&quot;);" cx="376.314" cy="112.623" r="3.674"/><circle style="stroke: rgb(0, 0, 0); stroke-width: 0px; fill: url(&quot;#color-1&quot;);" cx="368.584" cy="94.55" r="3.674"/><circle style="stroke: rgb(0, 0, 0); stroke-width: 0px; fill: url(&quot;#color-1&quot;);" cx="359.102" cy="119.918" r="3.674"/></g><g transform="matrix(1, 0, 0, 1, -346.511261, -43.053207)" style="transform-origin: 276.283px 258.972px;"><title>1</title><circle style="stroke: rgb(0, 0, 0); stroke-width: 0px; fill: url(&quot;#color-1&quot;);" cx="376.314" cy="112.623" r="3.674" transform="matrix(0.906308, -0.422618, 0.422618, 0.906308, 34.092545, 331.13723)"/></g></g><text style="fill: rgb(197, 174, 174); font-family: &quot;Abril Fatface&quot;; font-size: 28px; letter-spacing: 3.8px; white-space: pre; visibility: hidden;" transform="matrix(1, 0, 0, 1, 0, 4)"><textPath href="#text-path-1">INTERNATIONAL</textPath></text><text style="fill: rgb(197, 174, 174); font-family: &quot;Abril Fatface&quot;; font-size: 28px; letter-spacing: 7px; white-space: pre; visibility: hidden;" transform="matrix(1, 0, 0, 1, 2.764107, 1.382053)"><textPath href="#text-path-2">AGENCY</textPath></text></svg>