<?xml version="1.0" encoding="UTF-8"?>
<svg id="b" data-name="Layer 2" xmlns="http://www.w3.org/2000/svg" width="515.708" height="500" viewBox="0 0 515.708 500">
  <g id="c" data-name="Layer 2">
    <path d="m277.501,455.434l.891-2.932c-.002,3.754-.241,7.508-.72,11.231.214-3.712.149-4.594-.171-8.299Zm-19.707-49.258c-7.682,1.129-15.626.255-22.889-2.486,11.949,8.995,33.823,8.999,45.778,0-7.263,2.741-15.207,3.615-22.889,2.486Zm-23.6-223.484c-.01-.005-.02-.011-.031-.016.017.033.031.067.049.1-.007-.028-.012-.056-.018-.084Zm48.257,133.481c.078.014.157.022.235.036-.084-.029-.187-.071-.275-.103.014.022.027.045.04.067Zm-46.294-.19c.033-.04.064-.077.096-.115-.133.054-.268.108-.4.161.102-.015.203-.033.304-.047Zm45.237-133.29c-.007.028-.012.056-.018.083.017-.033.031-.067.049-.1-.01.005-.02.011-.03.016ZM514.645,15.28c-8.461,37.598-16.893,75.389-29.753,111.773,13.006,7.263-10.899,43.156-21.224,62.838-26.733,37.802-88.205,7.715-123.296,32.393.702,3.479,1.253,7.377,1.581,11.088-.14-.069-3.744-1.84-3.888-1.91.883,3.395,2.386,9.821,3.026,13.682l-2.843.315c6.137,9.702,12.792,27.031,13.051,39.741l-3.334-1.853c4.323,12.604,6.59,21.679,8.426,40.183-.669-.408-4.451-2.71-5.208-3.171.558,7.15,1.556,23.337.871,31.582-.002-.002-3.936-3.925-3.936-3.926-.529,8.78-2.447,21.889-.385,30.012-2.372-.843-4.609-2.186-5.829-4.657-.354,14.183-2.342,31.51-7.04,45.357,0,0-2.091-4.303-4.087-6.611-2.577,6.283-8.087,16.223-12.792,22.155-.186-1.254-.559-3.78-.745-5.034-.16.205-1.751,2.248-1.86,2.388l-1.628-7.009s-9.595,19.683-12.278,25.149c-.395-1.253-1.439-4.559-1.848-5.855-1.031,3.068-9.026,19.979-12.929,24.245l-1.916-5.053c-1.385,4.279-5.984,12.774-9.882,17.734l-.257-3.653-.019-.276-7.48,10.468-.324-3.14c-1.274,2.21-7.612,13.313-9.027,15.768-1.415-2.455-7.753-13.557-9.027-15.768l-.324,3.14-7.48-10.468-.019.276-.256,3.653c-3.898-4.96-8.497-13.455-9.882-17.734l-1.916,5.053c-3.902-4.265-11.897-21.177-12.929-24.245-.409,1.296-1.452,4.603-1.848,5.855-2.683-5.466-12.278-25.148-12.278-25.149l-1.628,7.009c-.109-.14-1.7-2.183-1.86-2.388-.186,1.255-.56,3.78-.745,5.034-4.705-5.932-10.215-15.872-12.792-22.155-1.996,2.308-4.087,6.611-4.087,6.611-4.699-13.847-6.686-31.174-7.04-45.357-1.22,2.471-3.457,3.814-5.829,4.657,2.062-8.142.144-21.213-.385-30.012,0,0-3.935,3.925-3.936,3.926-.685-8.245.313-24.432.871-31.582-.757.461-4.539,2.764-5.208,3.171,1.837-18.503,4.103-27.578,8.426-40.183l-3.334,1.853c.259-12.71,6.914-30.039,13.051-39.741l-2.843-.315c.64-3.861,2.144-10.287,3.026-13.682-.15.074-3.743,1.839-3.888,1.91.328-3.712.879-7.61,1.581-11.088-35.069-24.672-96.58,5.404-123.297-32.391-10.323-19.684-34.229-55.577-21.222-62.84C17.65,88.35,7.155,48.208,0,8.118,1.296.422,12.741-.052,14.673,7.495c0,0,18.92,67.722,18.92,67.722-1.26-6.114-7.288-29.846,5.495-23.814.505-1.406-1.261-38.11.05-47.792,1.071-4.381,5.57-4.68,8.283-1.414,5.962,6.929,14.3,54.428,20.176,17.658,1.694-6.152.538-14.705,6.579-15.198,4.922.333,4.641,7.683,7.244,10.973,5.962,9.386,6.38,3.103,11.964,2.92,9.313,1.186,7.028,17.132,8.398,23.634,14.099-15.259,12.317,17.785,13.357,25.416,15.969-12.492,6.414,41.984,4.203,48.5-3.993,20.352-10.887,38.081,5.705,54.039,7.148-19.713,6.85-40.903,4.985-61.44-.758-17.763,16.752-19.707,15.974,2.737.8,17.281,1.232,34.582,1.502,51.878,2.005-2.513,3.896-5.101,5.7-7.758-.942-8.755.385-17.454,4.603-25.141,2.09,2.021,4.545,3.636,6.994,5.197,5.673-10.003,10.686-26.064,20.691-31.181,5.411-2.566,9.182,1.81,8.893,7.12-1.284,11.348-9.02,21.942-13.879,32.194,14.111,5.277,26.237,15.826,32.382,29.684.374-2.954.442-5.947.194-8.914,2.79,1.601,6.089,2.298,9.288,1.964-1.362-1.439-2.005-3.527-1.69-5.483,10.976,3.878,23.46,4.45,32.073,13.468,8.375,4.973,14.85-5.996,22.146-7.563,6.486-2.509,13.434-3.615,20.001-5.905.316,1.956-.328,4.044-1.69,5.483,3.199.335,6.498-.363,9.288-1.964-.248,2.967-.18,5.96.194,8.914,6.146-13.858,18.271-24.407,32.382-29.684-4.857-10.246-12.597-20.852-13.88-32.194-.288-5.311,3.483-9.686,8.894-7.12,10.006,5.117,15.018,21.178,20.691,31.181,2.448-1.561,4.904-3.176,6.994-5.197,4.218,7.687,5.545,16.386,4.603,25.141,1.803,2.657,3.695,5.245,5.7,7.758.269-17.296.701-34.598,1.502-51.878-.778-22.444,16.732-20.5,15.973-2.737-1.865,20.535-2.162,41.73,4.986,61.44,16.603-15.995,9.694-33.661,5.702-54.039-2.209-6.538-11.767-60.973,4.206-48.5,1.036-7.59-.74-40.697,13.357-25.416,1.357-6.495-.901-22.454,8.397-23.634,5.585.184,6.002,6.467,11.965-2.919,2.597-3.289,2.326-10.642,7.243-10.973,6.042.493,4.886,9.046,6.58,15.198,5.882,36.767,14.209-10.728,20.176-17.658,2.713-3.266,7.212-2.967,8.283,1.414,1.311,9.682-.455,46.387.05,47.792,12.782-6.012,6.759,17.663,5.495,23.814,0,0,18.92-67.723,18.92-67.723.263-.942.701-1.812,1.289-2.576,7.68-7.899,16.612,1.234,12.44,10.361Zm-117.235,56.451s-5.703,5.453-.453,28.165c0,0-.985-20.05,1.474-20.687l1.695,3.307s.739-10.449-2.716-10.786Zm-281.948,10.786l1.695-3.307c2.459.637,1.474,20.687,1.474,20.687,5.25-22.712-.453-28.165-.453-28.165-3.455.337-2.716,10.786-2.716,10.786Zm263.01,99.757c12.085-2.517,22.636-11.776,26.685-23.44-5.792,10.69-15.333,19.08-26.685,23.44Zm28.659-22.57c-6.066,11.29-16.07,20.087-28.052,24.64,12.696-2.697,23.745-12.393,28.052-24.64Zm-10.389,16.46c-4.983,4.373-10.731,7.898-17.055,10.25,13.308-2.878,24.855-13.011,29.419-25.841-3.151,5.966-7.385,11.211-12.364,15.591Zm-22.084-75.091c7.232.623,1.534,24.345,3.013,29.233-2.985,11.636-1.497,24.628,4.028,35.29-3.7-11.279-5.052-23.123-4.019-34.944.738,24.74,7.145,37.23,7.145,37.23-2.914-10.342-4.031-54.211-4.391-62.849-.36-8.638-5.776-3.962-5.776-3.962Zm5.051,65.357c-3.923-11.862-5.306-24.326-4.099-36.761-3.142,12.117-1.628,25.632,4.099,36.761Zm-27.773-28.222c.735,1.654,1.556,3.269,2.461,4.836,1.812-2.355,3.415-5.434,2.369-8.433l-4.83,3.597Zm22.647,36.315c-26.552-14.238-25.798-49.529-47.983-67.507,10.941,12.134,13.48,22.81,18.457,37.972-4.566-7.232-8.117-15.072-10.496-23.33,1.472,13.237,9.58,24.138,16.435,35.062-8.543-10.083-14.893-21.867-18.542-34.597,2.585,20.092,22.015,46.277,42.129,52.4Zm-21.217,4.48c-3.037,4.579-7.044,9.22-11.095,13.123,4.611-1.327,9.189-2.438,13.865-3.382-.744-3.347-1.605-6.434-2.771-9.742Zm-46.627.437c2.599-3.651,5.314-7.219,8.14-10.698-2.808,3.912-4.348,8.568-5.849,13.143,2.484-3.708,5.405-7.1,8.319-10.481-1.992,4.015-3.941,8.05-5.848,12.106,2.707-3.27,5.414-6.54,8.121-9.81-2.324,4.206-4.694,8.55-5.24,13.323,3.875-7.946,8.55-15.502,13.932-22.515-3.755,6.265-7.391,12.751-9.633,19.732,4.803-8.298,8.679-17.293,15.655-24.035-5.961,7.392-10.642,15.919-13.679,24.901,6.585-10.392,10.865-23.055,20.386-31.087l-4.204-6.995c-13.38,7.573-26.44,16.386-30.099,32.414Zm7.597,48.983c3.432-1.667,7.084-2.851,10.798-3.574-11.991-4.349-26.841,6.489-32.132,17.654,2.172-2.337,4.642-4.362,7.322-6.003-3.971,3.991-6.101,9.955-5.446,15.293,1.93-7.967,6.828-14.874,13.243-19.616-4.112,3.445-7.054,8.338-8.065,13.574,1.155-3.347,2.943-6.378,5.211-8.985-.158.269-.311.541-.453.818,1.332-1.162,2.689-2.228,4.078-3.216-3.449,3.109-5.916,7.42-6.752,11.94,1.554-4.392,4.294-8.224,7.861-11.142-1.222,1.215-2.237,2.625-2.979,4.146.306-.254.613-.502.92-.746-1.886,2.439-3.195,5.35-3.718,8.301,3.776-10.702,15.316-17.043,26.375-14.512-3.066-1.264-6.621-1.675-9.98-1.191.347-.14.698-.278,1.053-.413-1.568-.098-3.169.06-4.717.458,4.554-1.656,9.516-2,14.288-.912-4.603-1.851-9.988-1.96-14.735-.375,1.525-.715,3.102-1.362,4.746-1.944-.184-.007-.368-.011-.553-.012,3.683-.666,7.466-.606,11.186.272-5.554-2.183-11.997-2.086-17.552.186Zm-3.929,88.489c4.215,4.38,6.809,10.286,7.183,16.353,4.977-12.869-3.629-26.251-13.734-33.966.02.065-.792-.591-1.604-1.247,3.864,4.597,6.966,9.834,9.14,15.433-2.763-3.465-6.739-5.943-11.068-6.898,4.949,6.593,7.612,14.577,10.196,22.405-3.526-5.302-7.231-10.777-12.693-14.05,1.311,2.012,9.423,16.507,11.121,29.682,1.007-5.292.549-10.854-1.31-15.91,2.294,3.072,5.297,8.625,5.232,12.452.63-8.007,1.257-17.004-2.465-24.254Zm-4.695,83.677c1.467,1.548,2.934,3.097,4.4,4.645-.364-7.235-2.71-14.214-5.29-20.982.773,4.39,1.679,9.974,2.267,15.592-1.557-2.829-4.213-4.673-7.015-6.166,2.636,6.16,3.61,12.88,4.56,19.513.992-4.137,1.987-8.446,1.078-12.602Zm-2.828-59.447c1.903,4.188,2.069,11.107,2.643,13.117,1.152-16.645-2.369-28.629-15.849-38.614.083.013.151.018.239.032-7.961-8.801-19.164-15.205-23.766-26.144,2.301.521,6.491,4.452,8.842,4.647-2.338-2.316-4.72-5.396-6.907-8.772,7.007,7.854,16.213,12.969,24.67,22.603-6.389-12.458-21.201-19.059-26.361-32.312,1.363,1.916,3.066,3.589,5.005,4.918-9.363-12.181-14.723-28.472-9.799-43.451-1.554,1.502-2.93,3.188-4.09,5.011-.93-2.432-2.288-4.699-3.994-6.666,2.96,15.61.81,32.444-9.332,45.105,1.939-1.33,3.642-3.002,5.005-4.918-5.16,13.252-19.971,19.854-26.361,32.312,7.278-8.232,17.588-15.671,25.127-23.889-1.508,3.417-3.085,6.72-4.672,9.802,2.234-.957,4.344-2.202,6.262-3.695-12.068,23.07-43.656,33.048-39.488,64.029.575-2.009.74-8.929,2.643-13.117-1.167,6.784-.988,13.656.082,19.848.298-2.49.996-3.675,2.534-7.014.005,4.389.041,8.934,1.858,12.93.029-2.125.563-4.241,1.545-6.126-.526,3.295-.112,6.735,1.181,9.811.296-6.768,1.743-13.484,4.26-19.774-1.089,1.434-2.067,2.954-2.921,4.54.586-4.669,1.63-9.28,3.114-13.746-2.174,3.422-5.493,10.837-6.528,14.757.487-5.629,3.574-21.102,4.857-24.031-4.171,5.189-6.52,13.172-8.544,19.814-2.756-19.436,14.958-33.88,32.555-37.249-2.252,2.403-4.012,5.264-5.141,8.358,2.53-2.698,5.527-4.957,8.817-6.646-.372,3.254-.744,6.508-1.116,9.761,1.693-2.866,3.386-5.732,5.08-8.599,1.357,3.732,2.433,7.566,3.215,11.459,1.644-3.697,2.896-7.568,3.726-11.527,2.06,2.064,3.511,4.728,4.127,7.578.216-2.959.321-5.926.316-8.892,3.594,1.38,6.914,3.468,9.715,6.109-1.174-2.705-2.84-5.196-4.891-7.315,5.183,1.591,10.155,3.868,14.746,6.751-.27-.723-.575-1.431-.895-2.132,12.802,5.946,18.449,18.382,17.051,32.344-2.024-6.642-4.373-14.625-8.544-19.814,1.283,2.929,4.37,18.402,4.857,24.031-1.036-3.92-4.354-11.335-6.528-14.757,1.484,4.466,2.529,9.077,3.114,13.746-.854-1.586-1.831-3.106-2.921-4.54,2.517,6.289,3.964,13.006,4.26,19.774,1.293-3.076,1.707-6.516,1.181-9.811.982,1.884,1.516,4.001,1.545,6.126,1.817-3.996,1.853-8.54,1.858-12.93,1.538,3.339,2.236,4.524,2.534,7.014,1.07-6.192,1.249-13.064.082-19.848Zm-15.507,55.979c6.12-2.847,7.698-10.203,8.56-16.314-.474,1.458-1.505,2.727-2.835,3.489,1.477-9.526-.869-19.59-6.406-27.481,4.421,7.597,7.417,26.467-3.266,29.89,3.942,2.677-4.114,5.41-6.135,6.654,4.653-.532,8.009-4.337,12.062-5.91-3.173,3.36-7.044,6.088-11.389,7.959,4.506-1.044,8.775-3.415,12.093-6.682-2.542,4.276-6.961,6.765-11.42,8.732,1.501-.519,2.884.588,4.272,1.023-7.851,5.716-42.399,5.711-50.24,0,1.25-.451,2.713-1.519,4.155-1.051.002-.004.004-.011.008-.021-4.422-1.96-8.789-4.443-11.311-8.684,3.318,3.267,7.587,5.638,12.093,6.682-4.346-1.871-8.216-4.599-11.389-7.959,4.051,1.572,7.412,5.379,12.062,5.91-2.01-1.235-10.085-3.983-6.135-6.654-10.684-3.423-7.687-22.292-3.266-29.89-5.537,7.891-7.883,17.955-6.406,27.481-1.33-.762-2.362-2.031-2.835-3.489.862,6.111,2.44,13.467,8.56,16.314-.817.235-1.714.185-2.5-.14.693,2.627,3.425,4.149,5.82,5.277,5.194,18.32,47.321,18.336,52.527,0,2.396-1.128,5.128-2.65,5.82-5.277-.786.325-1.682.375-2.5.14Zm-69.031,11.156c.396-4.98.792-9.961,1.545-14.292-2.925,6.635-4.255,13.966-3.849,21.206,2.168-3.015,4.481-5.925,6.929-8.717-1.659.203-3.266.829-4.624,1.803Zm20.58-78.956c.366-.003.731-.006,1.096-.009-3.923-4.08-13.706-5.475-14.61,1.878,4.842-4.049,13.925-.352,13.188,6.299-.417-3.878-5.229-5.965-8.72-6.185,8.152,3.067,8.281,12.555-.847,13.968,3.008.607,6.944.976,8.937-1.843.053,1.428-.191,2.866-.713,4.197,2.258-1.987,3.675-4.901,3.844-7.904.681.68,1.093,1.577,1.49,2.453,1.106-4.527-.339-9.591-3.667-12.853Zm-4.367,54.45c-5.889-4.58-5.815-12.413-4.223-19.081-3.559,6.422-3.341,15.788,4.223,19.081Zm-5.112-2.69c-3.076-5.19-2.395-11.477-1.143-17.116-3.979,7.361-3.323,17.74,5.092,21.623-1.562-1.289-2.941-2.793-3.949-4.507Zm47.214-51.76c-3.328,3.263-4.772,8.326-3.667,12.853.398-.876.809-1.773,1.49-2.453.169,3.003,1.586,5.917,3.844,7.904-.522-1.33-.766-2.769-.713-4.197,1.993,2.819,5.928,2.451,8.937,1.843-9.128-1.414-8.998-10.901-.847-13.968-3.491.22-8.303,2.307-8.72,6.185-.736-6.652,8.347-10.347,13.188-6.299-.904-7.353-10.687-5.958-14.61-1.878.365.003.731.006,1.096.009Zm8.591,35.369c1.591,6.668,1.666,14.502-4.223,19.081,7.564-3.294,7.782-12.659,4.223-19.081Zm.889,16.391c-1.008,1.714-2.387,3.218-3.949,4.507,8.415-3.883,9.071-14.262,5.092-21.623,1.253,5.639,1.933,11.926-1.143,17.116Zm11.101,27.195c-1.359-.974-2.965-1.6-4.624-1.803,2.448,2.792,4.761,5.703,6.929,8.717.406-7.24-.925-14.571-3.849-21.206.753,4.331,1.149,9.311,1.545,14.292Zm-87.366-7.688c-.91,4.156.086,8.465,1.078,12.602.95-6.632,1.924-13.353,4.56-19.513-2.802,1.493-5.458,3.337-7.015,6.166.588-5.618,1.494-11.202,2.267-15.592-2.58,6.769-4.926,13.747-5.29,20.982,1.467-1.548,2.934-3.097,4.4-4.645Zm-1.927-71.874c-1.858,5.056-2.316,10.618-1.31,15.91,1.698-13.175,9.81-27.67,11.121-29.682-5.461,3.273-9.167,8.749-12.693,14.05,2.584-7.829,5.247-15.812,10.196-22.405-4.328.955-8.304,3.433-11.068,6.898,2.174-5.598,5.276-10.835,9.14-15.433-.812.656-1.624,1.312-1.604,1.247-10.103,7.711-18.712,21.101-13.734,33.966.374-6.067,2.968-11.973,7.183-16.353-3.721,7.25-3.095,16.247-2.465,24.254-.065-3.826,2.938-9.38,5.232-12.452Zm-6.697-100.292c-5.555-2.272-11.998-2.369-17.552-.186,3.72-.878,7.504-.938,11.186-.272-.185.002-.369.005-.553.012,1.644.583,3.221,1.23,4.746,1.944-4.747-1.585-10.132-1.477-14.735.375,4.772-1.088,9.734-.744,14.288.912-1.548-.398-3.149-.555-4.717-.458.355.135.706.273,1.053.413-3.358-.484-6.914-.073-9.98,1.191,11.059-2.531,22.599,3.81,26.375,14.512-.523-2.951-1.832-5.862-3.718-8.301.307.244.613.492.92.746-.742-1.521-1.757-2.931-2.979-4.146,3.567,2.918,6.308,6.75,7.861,11.142-.837-4.521-3.304-8.831-6.752-11.94,1.39.988,2.746,2.054,4.078,3.216-.142-.276-.295-.548-.453-.818,2.268,2.607,4.056,5.638,5.211,8.985-1.01-5.236-3.953-10.129-8.065-13.574,6.415,4.742,11.313,11.649,13.243,19.616.655-5.338-1.475-11.302-5.446-15.293,2.679,1.641,5.149,3.666,7.322,6.003-5.279-11.157-20.151-22.009-32.132-17.654,3.714.723,7.366,1.907,10.798,3.574Zm20.984,33.953c-.103-3.422,5.205-4.056,2.747-9.469-.435,7.869-11.28.958-14.807,11.692,1.741-1.59,3.832-2.795,6.08-3.504-3.527,2.94-6.073,7.037-7.147,11.502,2.744-3.508,6.38-6.313,10.471-8.076-2.156,2.168-3.591,5.042-4.029,8.068,3.268-4.262,7.471-7.698,11.634-11.092-1.599.347-3.437.405-4.949.879Zm18.527-7.653c.934-3.79.753-7.847-.473-10.901-1.074,8.068-5.061,15.716-11.06,21.217,3.798-1.877,7.113-4.72,9.548-8.187-1.466,5.272-3.98,10.251-7.353,14.561,3.322-1.95,6.088-4.834,7.898-8.234-1.545,5.316-4.144,10.323-7.602,14.645,12.06-8.18,16.914-26.769,11.368-40.036.754,5.717-.058,11.632-2.325,16.935Zm.977,17.452c1.53-.863,2.945-1.927,4.199-3.157-7.374,12.298-26.739,16.264-26.9,32.73,2.283-6.592,7.558-13.51,15.134-13.393-5.176,1.291-6.125,7.952-9.973,10.927,5.835-4.695,13.682-7.977,16.306-15.523-2.479,1.067-5.114,1.773-7.795,2.087,8.965-3.097,15.744-11.738,16.619-21.182-.217.725-.772,1.342-1.471,1.635,3.894-5.838,2.861-20.518-.565-26.42.199.759.398,1.519.649,1.645,2.033,10.419,1.659,22.689-6.203,30.652Zm-25.889,10.797c-.918,2.601-1.506,5.473-3.442,7.436,2.914-1.355,5.147-3.664,6.77-6.345-1.653,3.956-3.145,8.288-2.139,12.456,1.996-7.934,6.06-15.647,12.732-20.381-3.329.549-7.177,1.373-9.06,4.455,1.317-5.32,5.365-9.49,9.463-13.128-6.61,2.939-11.918,8.684-14.325,15.506Zm-8.915-1.231c-1.41,1.732-2.285,3.893-2.478,6.117,2.589-4.426,5.871-8.447,9.687-11.872-2.257,1.135-4.587,2.515-6.74,4.132.684-1.542,1.688-2.941,2.929-4.083-5.049,2.1-9.234,6.2-11.437,11.204,2.38-2.226,5.101-4.088,8.039-5.499Zm-18.642,59.86c-2.683,8.299-4.435,17.608-2.286,26.312-.272-8.952,1.496-17.541,2.286-26.312Zm-1.06,19.584c.092,2.176.385,4.343.911,6.436-.208-8.649,1.494-17.004,2.263-25.592-1.969,6.147-3.451,12.636-3.174,19.155Zm2.039-98.339c-1.176-1.096-2.399-2.695-3.725-5.611.428,9.102,10.394,11.539,18.253,7.867-4.568,1.102-9.026,1.354-12.508-.694-.176-.425-.325-.86-.451-1.303,3.406,2.229,7.932,1.772,12.357-.076-4.885,1.158-9.602,1.316-12.746-1.952-.043-.423-.064-.847-.062-1.272,2.938,3.624,7.635,3.03,12.207,1.153-3.872.871-7.675,1.248-10.268-1.074,3.996,1.62,12.828,1.279,14.208-3.313-1.171.803-2.475,1.412-3.842,1.793.516-.397.902-.96,1.637-1.843-6.046,4.234-15.178.587-16.642-6.648-2.602,3.893-.731,9.336,1.583,12.973Zm4.224-10.712c1.142,1.022,2.582,1.813,4.172,1.871,6.57-8.853-14.049-12.383-4.172-1.871Zm6.31,2.784c.738-.328,1.369-.894,1.773-1.593.227.587.454,1.174.681,1.76.999-2.621.222-6.351-2.271-7.878,1.777,2.16,1.282,5.522-.184,7.711Zm-16.908-18.253c1.678-.4,3.464-.34,5.112.172-3.098,1.032-5.226,4.414-4.817,7.654.968-1.566,2.564-2.731,4.35-3.175-.871.622-1.422,1.671-1.439,2.741,3.374-2.279,8.093-2.364,11.548-.21-1.395-1.022,1.484.432,3.487,2.685-.293-4.362-4.344-7.387-8.382-8.217,4.768-.151,9.526,2.467,11.949,6.577-.055-2.465-.985-4.851-2.488-6.811,1.383.894,2.755,1.868,4.138,2.959-3.222-7.917-18.202-11.593-23.459-4.376Zm.771,150.52c1.029-4.662,4.597-8.36,7.008-12.387-2.364,1.711-4.505,3.728-6.356,5.984-.384-6.834-.393-13.689-.72-18.339-2.633,7.967-2.609,16.788.067,24.741Zm8.853-44.726c-2.561,8.008-4.344,16.612-2.239,24.871-.142-8.346,1.491-16.467,2.239-24.871Zm10.129-52.484c-2.914,1.503-5.385,3.851-7.034,6.684.99-2.966,1.577-6.066,1.741-9.189-1.238,1.813-2.96,3.291-4.94,4.238,1.161-3.602,1.975-7.315,2.428-11.073-1.018,2.062-2.384,3.951-4.023,5.563.356-4.854-.443-9.788-2.312-14.282,1.001,8.563,1.468,17.44-1.254,25.62,1.124-1.965,2.247-3.93,3.371-5.895-.84,3.764-1.681,7.529-2.521,11.293,1.464-2.852,3.307-5.508,5.467-7.876-2.05,4.397-2.606,9.4-3.507,14.139,3.511-6.773,7.788-13.315,12.584-19.224Zm-9.88,34.212c2.71-9.193,7.672-17.712,14.332-24.604-1.777.923-3.454,2.038-4.992,3.32,2.435-3.701,5.241-7.157,8.362-10.301-.879.458-1.758.916-1.23.479-9.675,6.503-15.64,19.676-16.471,31.106Zm74.876-82.663c.251-.126.45-.885.649-1.645-3.426,5.902-4.459,20.582-.565,26.42-.699-.292-1.254-.909-1.471-1.635.875,9.444,7.654,18.085,16.619,21.182-2.681-.314-5.316-1.019-7.795-2.087,2.624,7.546,10.471,10.828,16.306,15.523-3.848-2.976-4.797-9.636-9.973-10.927,7.579-.115,12.849,6.799,15.134,13.393-.165-16.47-19.522-20.427-26.9-32.73,1.254,1.23,2.669,2.294,4.199,3.157-7.861-7.963-8.236-20.233-6.203-30.652Zm4.855-3.735c-5.544,13.266-.694,31.854,11.368,40.036-3.458-4.323-6.057-9.33-7.602-14.645,1.81,3.4,4.576,6.284,7.898,8.234-3.373-4.309-5.887-9.288-7.353-14.561,2.435,3.467,5.75,6.309,9.548,8.187-5.999-5.501-9.986-13.149-11.06-21.217-1.226,3.053-1.407,7.111-.473,10.901-2.266-5.302-3.078-11.218-2.325-16.935Zm20.851,24.587c-1.512-.473-3.35-.531-4.949-.879,4.163,3.394,8.366,6.83,11.634,11.092-.437-3.026-1.872-5.9-4.028-8.068,4.09,1.763,7.727,4.568,10.471,8.076-1.073-4.464-3.619-8.562-7.147-11.502,2.249.709,4.339,1.914,6.08,3.504-3.527-10.735-14.372-3.824-14.807-11.692-2.458,5.412,2.85,6.047,2.747,9.469Zm19.542-4.011c-1.368-.382-2.672-.99-3.842-1.793,1.381,4.592,10.213,4.933,14.208,3.313-2.593,2.321-6.396,1.945-10.268,1.074,4.572,1.877,9.268,2.471,12.207-1.153.002.425-.018.849-.062,1.272-3.144,3.269-7.862,3.11-12.746,1.952,4.425,1.848,8.951,2.305,12.357.076-.125.443-.275.878-.451,1.303-3.482,2.048-7.94,1.796-12.508.694,7.859,3.672,17.824,1.235,18.253-7.867-1.327,2.915-2.549,4.515-3.725,5.611,2.314-3.637,4.185-9.08,1.583-12.973-1.464,7.235-10.597,10.882-16.642,6.648.735.883,1.121,1.447,1.637,1.843Zm2.705-11.157c-2.493,1.528-3.27,5.257-2.271,7.878.227-.587.454-1.174.681-1.76.405.699,1.035,1.265,1.773,1.593-1.465-2.188-1.961-5.551-.184-7.711Zm2.322,6.798c4.126.344,11.15-8.845,3.445-8.382-3.814.504-6.265,5.425-3.445,8.382Zm11.661,113.908c2.15-8.704.398-18.013-2.286-26.312.789,8.772,2.558,17.36,2.286,26.312Zm-4.4-25.884c.768,8.588,2.471,16.943,2.263,25.592,2.127-8.482.36-17.439-2.263-25.592Zm-19.926-65.993c1.241,1.142,2.245,2.541,2.929,4.083-2.153-1.617-4.483-2.997-6.74-4.132,3.817,3.425,7.098,7.446,9.688,11.872-.193-2.225-1.068-4.386-2.478-6.117,2.937,1.412,5.658,3.273,8.039,5.499-2.203-5.005-6.388-9.104-11.437-11.204Zm-19.841-8.57c4.098,3.639,8.145,7.809,9.463,13.128-1.883-3.082-5.73-3.906-9.06-4.455,6.673,4.734,10.737,12.447,12.732,20.381,1.006-4.168-.486-8.5-2.139-12.456,1.623,2.681,3.857,4.989,6.77,6.345-4.903-8.977-6.798-18.643-17.767-22.943Zm37.404,56.721c-.832-11.43-6.794-24.602-16.471-31.106.529.438-.351-.02-1.23-.479,3.121,3.144,5.927,6.6,8.362,10.301-1.538-1.282-3.215-2.397-4.992-3.32,6.659,6.892,11.622,15.411,14.332,24.604Zm2.704-14.988c-.901-4.739-1.457-9.743-3.507-14.139,2.16,2.368,4.003,5.025,5.467,7.876-.84-3.764-1.681-7.529-2.521-11.293,1.124,1.965,2.247,3.93,3.371,5.895-2.722-8.18-2.255-17.057-1.254-25.62-1.869,4.494-2.668,9.428-2.312,14.282-1.639-1.612-3.005-3.502-4.022-5.563.453,3.757,1.267,7.471,2.428,11.073-1.98-.948-3.702-2.426-4.94-4.238.163,3.122.751,6.223,1.741,9.189-1.649-2.833-4.12-5.182-7.034-6.684,4.796,5.909,9.073,12.451,12.584,19.224Zm-2.455,33.259c.748,8.404,2.382,16.526,2.239,24.871,2.104-8.259.321-16.863-2.239-24.871Zm1.845,32.339c2.411,4.027,5.979,7.725,7.008,12.387,2.677-7.953,2.701-16.774.067-24.741-.326,4.65-.336,11.504-.72,18.339-1.85-2.256-3.992-4.273-6.356-5.984Zm2.667-137.961c1.648-.512,3.434-.572,5.112-.172-5.26-7.214-20.232-3.544-23.459,4.376,1.382-1.091,2.755-2.065,4.138-2.959-1.502,1.96-2.432,4.345-2.488,6.811,2.423-4.109,7.181-6.728,11.949-6.577-4.038.83-8.089,3.855-8.382,8.217,2.003-2.253,4.882-3.707,3.487-2.685,3.454-2.155,8.174-2.069,11.548.21-.017-1.07-.567-2.12-1.439-2.741,1.786.444,3.382,1.609,4.35,3.175.41-3.24-1.718-6.622-4.817-7.654Zm-33.914-32.605c-2.361.732-4.589,1.895-6.54,3.413,7.514-1.686,15.352-1.91,22.95-.656-2.643-2.092-5.939-3.346-9.304-3.541,1.813-.793,3.738-1.331,5.7-1.591-4.197-1.205-15.209-1.075-19.831,2.893,2.322-.449,4.659-.664,7.024-.517Zm-86.93-11.852c5.928-2.959,9.012-3.987,14.105-1.091-6.055-.85-12.215,3.261-13.755,9.178,11.395-9.411,23.91-3.667,32.71,10.9.049.515.095,1.023.138,1.522-1.854-1.358-3.901-2.452-6.076-3.196,1.715,2.532,3.05,5.297,4.005,8.192-2.776-3.871-7.007-6.718-11.69-7.641,2.968,2.427,5.01,5.96,5.631,9.743-2.797-4.373-7.777-7.269-12.961-7.538,2.569,2.48,4.684,5.429,6.21,8.657-5.036-5.089-13.044-6.994-19.832-4.718,9.983,1.821,16.911,5.488,21.043,11.591-4.509-4.569-10.531-7.631-17.08-8.045,8.882,2.177,18.702,8.085,20.892,17.367-3.705-8.33-11.896-14.698-21.214-15.233,7.707,1.669,14.362,6.55,18.568,13.034-5.464-5.14-10.617-10.787-18.889-10.901,5.384,1.234,10.16,4.066,13.836,7.933-1.147-.368-2.25-.464-3.203-.142,8.618,3.491,11.872,14.172,9.634,22.822,4.905-8.169,6.233-21.063.957-31.028,4.615,3.645,6.085,8.41,7.393,12.596.301-5.107.8-10.72-2.206-16.594,4.691,4.319,7.84,11.549,9.634,15.985.764-3.151.872-6.383.513-9.594,0,0,3.884,9.994,3.805,10.281,2.721-2.407,4.727-5.612,5.701-9.11.992,2.084,1.897,4.234,3.191,6.564,1.293-2.329,2.199-4.48,3.191-6.564.975,3.499,2.981,6.704,5.701,9.11l.794-11.517,3.524,10.83c1.794-4.437,4.943-11.666,9.634-15.985-3.007,5.874-2.507,11.487-2.206,16.594,1.308-4.186,2.778-8.951,7.393-12.596-5.276,9.966-3.948,22.86.957,31.028-2.238-8.65,1.016-19.331,9.634-22.822-.953-.322-2.057-.225-3.203.142,3.676-3.867,8.452-6.699,13.836-7.933-8.272.114-13.425,5.76-18.889,10.901,4.206-6.484,10.861-11.365,18.568-13.034-9.318.535-17.508,6.903-21.213,15.233,2.19-9.282,12.01-15.19,20.892-17.367-6.549.414-12.572,3.476-17.08,8.045,4.132-6.103,11.059-9.771,21.043-11.591-6.788-2.276-14.796-.371-19.832,4.718,1.526-3.228,3.642-6.177,6.21-8.657-5.184.269-10.164,3.165-12.961,7.538.62-3.784,2.662-7.317,5.631-9.743-4.569.901-8.706,3.632-11.483,7.359.964-3.265,2.411-6.381,4.326-9.208-2.506.857-4.851,2.168-6.912,3.831.421-2.4,2.614-3.84,3.708-5.895-.004.012-.009.024-.012.036,12.513-14.177,19.714-12.243,29.462-5.9-1.54-5.917-7.7-10.027-13.755-9.178,5.093-2.896,8.177-1.868,14.105,1.091-8.474-8.474-17.15-5.235-24.121.206,2.065-6.889,9.275-9.515,15.301-12.206-5.217-.882-10.712-.035-15.423,2.376,1.349-2.373,3.034-4.554,4.989-6.459-4.889.545-9.597,2.61-13.31,5.836,1.816-3.413,4.617-6.294,7.977-8.206-5.518,1.065-10.388,4.141-14.214,8.322.234-1.019.483-2.034.767-3.041-1.847,1.026-3.567,2.28-5.109,3.725.049-1.798.33-3.589.833-5.315-3.001,2.572-6.827,6.693-8.75,10.844-1.922-4.151-5.748-8.273-8.75-10.844.503,1.726.784,3.518.833,5.315-1.542-1.445-3.262-2.699-5.109-3.725.283,1.006.533,2.022.767,3.041-3.826-4.18-8.695-7.256-14.214-8.322,3.36,1.912,6.161,4.793,7.977,8.206-3.713-3.227-8.421-5.291-13.31-5.836,1.955,1.905,3.64,4.086,4.989,6.459-4.71-2.411-10.205-3.258-15.423-2.376,6.025,2.69,13.236,5.318,15.301,12.206-6.972-5.441-15.647-8.68-24.122-.206Zm10.288,11.068c-3.365.195-6.661,1.449-9.304,3.541,7.598-1.253,15.436-1.029,22.95.656-1.951-1.518-4.178-2.681-6.54-3.413,2.365-.147,4.703.068,7.024.517-4.614-3.966-15.644-4.098-19.831-2.893,1.962.26,3.887.798,5.7,1.591Zm-38.271-56.422l-4.205,6.995c9.522,8.032,13.8,20.693,20.386,31.087-3.038-8.982-7.718-17.509-13.679-24.901,6.976,6.742,10.852,15.736,15.655,24.035-2.242-6.981-5.878-13.467-9.633-19.732,5.382,7.013,10.057,14.569,13.932,22.515-.547-4.774-2.917-9.118-5.24-13.323,2.707,3.27,5.414,6.54,8.121,9.81-1.906-4.056-3.856-8.092-5.848-12.106,2.914,3.381,5.835,6.772,8.319,10.481-1.5-4.576-3.041-9.231-5.849-13.143,2.826,3.478,5.541,7.047,8.14,10.698-3.658-16.029-16.719-24.842-30.099-32.414Zm-17.56-3.981c.905-1.567,1.727-3.182,2.461-4.836l-4.83-3.597c-1.046,2.999.557,6.078,2.369,8.433Zm-20.185,31.479c20.115-6.123,39.544-32.308,42.129-52.4-3.649,12.73-9.999,24.514-18.542,34.597,6.854-10.922,14.965-21.828,16.435-35.062-2.379,8.258-5.93,16.098-10.496,23.33,4.975-15.165,7.524-25.85,18.457-37.972-22.185,17.978-21.431,53.269-47.983,67.507Zm21.217,4.48c-1.165,3.308-2.027,6.395-2.771,9.742,4.676.943,9.254,2.054,13.865,3.382-4.051-3.904-8.057-8.545-11.095-13.123Zm-22.245-49.333c1.207,12.435-.176,24.899-4.099,36.761,5.727-11.129,7.241-24.644,4.099-36.761Zm-9.215,38.214s6.407-12.491,7.145-37.23c1.033,11.82-.319,23.665-4.019,34.944,5.525-10.662,7.013-23.655,4.029-35.29,1.477-4.951-4.221-28.592,3.012-29.233,0,0-5.416-4.676-5.776,3.962-.36,8.638-1.477,52.507-4.391,62.849Zm-20.332-9.049c4.049,11.664,14.6,20.923,26.685,23.44-11.352-4.359-20.892-12.75-26.685-23.44Zm26.077,25.51c-11.982-4.553-21.986-13.35-28.052-24.64,4.306,12.247,15.355,21.943,28.052,24.64Zm-17.663-8.18c-4.978-4.379-9.213-9.625-12.364-15.591,4.564,12.83,16.111,22.963,29.419,25.841-6.324-2.352-12.072-5.877-17.055-10.25ZM38.938,106.77C32.583,85.091,8.36-24.548,4.099,14.47,8.66-4.371,31.422,92.759,38.938,106.77Zm-5.087,23.654c11.974,32.906,37.963,54.099,36.677-2.861-4.941,51.133-19.568,29.315-36.677,2.861Zm27.372,35.309s-6.985,1.752-13.516-7.258c0,0,2.545,11.017,13.516,7.258Zm20.123,37.235c-13.138-2.897-23.808-12.166-30.114-23.853,4.692,12.841,16.276,22.795,30.114,23.853Zm.395-2.121c-12.508-2.799-22.522-11.569-28.565-22.668,4.383,12.197,15.42,21.748,28.565,22.668Zm8.232-59.584l4.413,13.117c-1.519-9.631-2.738-16.925-2.738-16.925l7.079,19.906c-3.09-14.536-6.226-28.218-6.226-28.218l9.674,22.796c-4.235-15.477-8.821-31.107-8.821-31.107l12.555,25.246c-5.428-16.129-11.702-33.557-11.702-33.557l14.564,25.342c-5.286-15.348-14.07-33.799-13.711-33.653l10.84,16.498c-3.917-14.535-10.727-29.39-10.727-29.39,0,0,13.337,10.651,14.847,9.544,1.51-1.107-9.206-21.239-9.206-21.239,5.954,4.781,10.971,9.006,10.971,9.006.157-7.338-1.908-72.679-12.909-27.085l-6.37-21.107c5.503,6.708,2.909-1.15.188-10.063-2.721-8.914-6.172,1.014-6.172,1.014-9.988-13.08-10.396-17.964-12.426-12.163-4.482,11.284,1.187,22.195,6.713,31.905-3.902-5.911-7.674-11.931-11.308-18.037-.128.3-.258.598-.389.891,3.418,6.009,6.702,12.093,9.833,18.232-3.626-5.49-7.138-11.076-10.531-16.737-.145.296-.291.587-.439.869,3.158,5.594,6.195,11.25,9.105,16.954-3.384-5.125-6.669-10.334-9.852-15.608-.266.45-.535.871-.805,1.255,3.458,6.072,6.778,12.22,9.943,18.426-3.74-5.666-7.36-11.432-10.854-17.278-.198.215-.395.406-.592.573,3.328,5.866,6.528,11.802,9.582,17.791-3.708-5.614-7.296-11.329-10.76-17.121-.302.09-.604.073-.935-.023,3.418,6.01,6.7,12.092,9.831,18.231-7.382-11.995-16.788-24.751-21.811-37.815-2.455-6.622-5.03-2.326-5.03-2.326l-2.504,39.307c-5.967-3.103-6.303,5.411-5.366,8.777,2.574,9.245,5.297,23.69,8.092,38.029,3.204,11.419,8.063,22.307,14.455,32.319-5.242-6.232-9.438-13.504-12.256-21.224,1.486,8.223,6.312,15.379,10.518,22.502-3.212-3.833-6.034-8.036-8.404-12.492.775,5.184,4.055,9.349,6.666,13.769-1.806-2.162-3.491-4.438-5.046-6.806,11.22,47.595,17.475-12.996,16.255-19.188,4.558,2.732,7.461,15.108,9.686,27.004.966-4.848,1.577-7.998,1.577-7.998.108.657.521,20.612.797,21.221,1.306-10.229,2.338-18.349,2.338-18.349l2.314,18.046c.439-8.788.822-15.38.822-15.38l4.667,20.377c-.328-10.093-.436-18.057-.436-18.057Zm57.715,66.071c-17.182-2.106-34.597-3.29-51.906-3.507,17.181,2.114,34.597,3.283,51.906,3.507Zm.145-2.152c-17.182-2.107-34.597-3.29-51.906-3.507,17.181,2.114,34.597,3.283,51.906,3.507Zm40.749,18.933c-1.863-3.342-4.28-6.374-7.124-8.934,3.935.937,7.795,2.187,11.532,3.734-2.256-2.712-4.757-5.222-7.461-7.488,3.999.752,7.969,1.657,11.899,2.712-2.956-2.663-6.029-3.811-9.482-5.784.046.01.253.02.236.031l11.48.781c-13.521-4.545-27.453-7.869-41.57-9.917,8.707,2.522,17.112,6.088,24.977,10.596-4.896-1.919-10.083-2.958-15.24-3.988,3.489,1.567,6.816,3.494,9.911,5.739-4.599-1.234-9.273-2.183-13.989-2.841,8.482,4.779,16.768,9.904,24.832,15.359Zm-19.207,55.954c1.251-1.272,2.502-2.543,3.752-3.815-2.093,5.735-3.258,11.807-3.438,17.909,3.259-8.883,6.558-17.85,11.69-25.8-3.44.979-7.064,2.068-9.486,4.7.377-6.557,2.049-13.038,5.373-18.672-5.814,6.967-7.447,16.832-7.892,25.677Zm6.171,36.003c-2.307,3.032-4.33,6.28-6.035,9.687.686-6.986,1.631-13.946,2.831-20.862-2.624,1.328-4.791,3.542-6.062,6.195.709-3.862,1.763-7.66,3.175-11.097-3.601,4.892-4.659,11.145-5.614,17.144.893-1.101,1.785-2.202,2.678-3.302.114,9.785.229,19.57.343,29.355,2.347-9.203,5.248-18.265,8.683-27.12Zm4.174,34.933c-2.516,1.042-4.625,3.032-5.811,5.484.495-6.839,1.577-13.635,3.231-20.289-1.134.895-2.11,1.991-2.867,3.221.314-4.452,1.323-8.854,2.98-12.999-6.772,9.693-5.683,32.118-5.329,44.133,1.655-6.842,4.289-13.447,7.797-19.55Zm16.834,77.745c-2.184-6.689-2.417-14.003-.663-20.818-1.745,1.751-2.97,4.014-3.481,6.433-.095-6.644,1.106-13.305,3.513-19.498-2.871,3.403-5.006,7.424-6.218,11.708-1.407-6.45-1.632-13.157-.66-19.687-3.694,3.244-6.405,7.64-7.428,12.448-1.94-9.33-3.701-18.698-5.108-26.189.866,12.996,2.507,25.941,4.911,38.742,1.028-4.128,2.518-8.141,4.434-11.939-.107,10.407,4.785,20.235,10.699,28.799Zm3.069-50.223c-.057,1.953-.013,3.909.141,5.857,2.032-4.457,5.123-8.428,8.944-11.492-.689.31.494-.617,1.817-1.26-3.534,1.349-6.715,3.609-9.151,6.502-.266-.686-.523-1.375-.772-2.068,1.623-3.813,3.684-7.372,6.602-10.301-3.855,3.031-7.14,7.052-9.525,11.553-.385-4.738-.77-9.492-.544-14.24-2.659,7.685-2.749,16.235-.254,23.975.836-2.841,1.699-5.73,2.742-8.527Zm14.421,64.278c-5.246-11.809-8.75-24.302-12.235-36.744-1.068,2.588-1.847,5.295-2.319,8.055-.663-5.238-1.326-10.477-.114-16.709-1.795,8.509-1.524,17.446.783,25.831.379-2.265.866-4.513,1.458-6.732,2.674,9.347,7.574,17.876,12.428,26.299Zm3.74-25.057c-.986.747-1.85,1.649-2.568,2.656-.097-1.45-.193-2.902-.286-4.358-.457,2.839-.356,5.69-1.601,8.328-.195-2.801-.381-5.607-.555-8.428-.441,2.837-.669,5.717-.684,8.602-1.688-2.588-1.126-5.75-1.471-8.702-.223,1.455-.391,2.922-.506,4.394-.648-1.61-1.2-3.217-1.649-4.779.346,10.459,2.982,14.089,6.106,20.66.094-6.636,1.682-9.577,3.213-18.373Zm13.232,40.898c-4.219-7.94-6.172-17.479-3.399-26.033-1.674,2.904-3.103,5.95-4.267,9.093.328-7.302.26-14.937,2.804-21.87-1.893,1.526-3.429,3.494-4.45,5.701.197-4.445,1.359-8.844,3.382-12.806-5.161,7.604-7.662,16.977-6.974,26.142.514-3.175,1.503-6.273,2.924-9.159,1.069,11.208.15,24.293,7.504,33.514-1.918-3.454-2.52-8.207-3.092-12.858,1.105,3.175,3.043,6.055,5.567,8.275Zm51.886-22.824c1.37,3.453,2.111,7.154,2.177,10.868,2.223-8.985,1.241-18.728-2.728-27.089.947,4.183,1.595,8.993,1.683,13.814-1.371-2.52-3.121-4.833-5.173-6.838,1.344,5.119,1.886,10.447,1.603,15.731-.927-3.519-2.415-6.89-4.39-9.947,1.478,6.291,2.247,12.745,2.312,19.206-.491-4.819-3.026-15.424-5.784-17.988,1.762,4.731,3.398,9.557,3.078,14.654-.955-4.833-2.663-9.503-5.034-13.746,1.607,4.269,2.797,8.659,3.569,13.111-2.122-3.939-3.283-8.336-5.527-12.201.816,2.186,1.519,4.404,2.111,6.646-.125-.142-.251-.284-.38-.421,1.68,7.404,2.004,15.113.952,22.632-1.207-4.893-2.382-9.448-1.74-14.546-.237,2.015-.492,4.029-.763,6.039-.009-.019-.632,9.007-2.809,12.932.921-6.339,1.398-12.737,1.419-19.102-.922,7.781-2.098,15.53-3.524,23.23-.496-7.65,1.885-15.581,1.369-23.361-2.321,13.411-3.741,27.169-7.531,40.297-3.791-13.128-5.21-26.886-7.531-40.297-.515,7.78,1.866,15.71,1.369,23.361-1.426-7.7-2.602-15.449-3.524-23.23.021,6.365.497,12.762,1.419,19.102-2.177-3.924-2.048-8.649-2.783-12.989-.008.019-.551-3.967-.788-5.982.641,5.099-.532,9.652-1.74,14.546-1.051-7.519-.727-15.228.953-22.632-.13.138-.255.28-.38.421.592-2.242,1.295-4.46,2.111-6.646-2.243,3.866-3.405,8.262-5.526,12.201.772-4.451,1.962-8.841,3.569-13.111-2.371,4.243-4.079,8.913-5.034,13.746-.32-5.098,1.316-9.923,3.078-14.654-.813,1.465-5.302,9.691-5.784,17.988.065-6.461.835-12.916,2.312-19.206-1.975,3.057-3.462,6.428-4.39,9.947-.283-5.285.26-10.613,1.603-15.731-2.052,2.005-3.802,4.318-5.173,6.838.088-4.82.736-9.63,1.683-13.814-3.97,8.361-4.951,18.104-2.728,27.089.066-3.714.808-7.415,2.177-10.868-.261,12.263,1.908,24.605,6.64,35.922-1.777-5.589-.031-11.526,2.68-16.531-1.965,8.519,1.976,18.083,7.067,24.84-1.598-3.908-2.618-8.053-3.015-12.257,4.114,9.145,6.885,14.75,11.737,22.768,4.858-8.029,7.617-13.612,11.737-22.768-.397,4.204-1.417,8.348-3.015,12.257,5.091-6.757,9.032-16.321,7.067-24.84,2.711,5.005,4.457,10.942,2.68,16.531,4.732-11.316,6.9-23.659,6.64-35.922Zm7.598-23.09c2.023,3.962,3.185,8.362,3.382,12.806-1.021-2.208-2.556-4.175-4.45-5.701,2.544,6.933,2.476,14.568,2.804,21.87-1.164-3.144-2.593-6.189-4.267-9.093,2.773,8.553.82,18.092-3.399,26.033,2.524-2.22,4.462-5.101,5.567-8.275-.572,4.65-1.174,9.404-3.092,12.858,7.354-9.221,6.435-22.305,7.504-33.514,1.421,2.886,2.41,5.984,2.924,9.159.687-9.164-1.813-18.538-6.974-26.142Zm13.873,16.424s3.305-8.977,2.749-13.696c-.449,1.562-1.001,3.169-1.649,4.779-.115-1.472-.282-2.939-.506-4.394-.344,2.952.217,6.114-1.471,8.702-.015-2.885-.243-5.765-.684-8.602-.174,2.821-.36,5.627-.555,8.428-1.245-2.637-1.144-5.489-1.601-8.328-.093,1.456-.189,2.908-.286,4.358-.717-1.007-1.582-1.909-2.568-2.656,1.534,8.806,3.117,11.727,3.213,18.373,1.192-2.285,2.36-4.59,3.357-6.965Zm11.839-31.75c1.212,6.232.549,11.471-.115,16.709-.472-2.76-1.252-5.467-2.319-8.055-3.486,12.442-6.989,24.936-12.235,36.744,4.854-8.423,9.754-16.953,12.428-26.299.592,2.219,1.078,4.467,1.458,6.732,2.306-8.385,2.577-17.322.783-25.831Zm2.494-10.353c2.495-7.74,2.405-16.29-.254-23.975.226,4.748-.159,9.502-.544,14.24-2.385-4.501-5.671-8.522-9.525-11.553,2.917,2.929,4.978,6.487,6.602,10.301-.248.693-.505,1.382-.772,2.068-2.436-2.893-5.617-5.154-9.151-6.502,1.323.642,2.507,1.57,1.817,1.26,3.822,3.065,6.912,7.035,8.944,11.492.154-1.948.198-3.904.141-5.857,1.043,2.798,1.906,5.686,2.742,8.527Zm20.371-13.907c-1.406,7.491-3.167,16.858-5.108,26.189-1.023-4.808-3.734-9.204-7.428-12.448.973,6.53.748,13.237-.66,19.687-1.212-4.284-3.347-8.305-6.218-11.708,2.408,6.193,3.608,12.854,3.513,19.498-.511-2.419-1.736-4.682-3.481-6.433,1.754,6.815,1.521,14.128-.663,20.818,5.914-8.563,10.806-18.392,10.7-28.799,1.916,3.798,3.406,7.811,4.434,11.939,2.404-12.802,4.044-25.746,4.911-38.742Zm-.743-46.725c1.657,4.144,2.666,8.547,2.98,12.999-.757-1.23-1.733-2.326-2.867-3.221,1.653,6.654,2.736,13.45,3.231,20.289-1.185-2.451-3.295-4.442-5.811-5.484,3.507,6.103,6.141,12.708,7.796,19.55.354-12.015,1.443-34.44-5.329-44.133Zm7.797-26.428c1.412,3.437,2.467,7.235,3.176,11.097-1.271-2.652-3.438-4.866-6.062-6.195,1.201,6.916,2.145,13.876,2.831,20.862-1.705-3.407-3.728-6.655-6.035-9.687,3.435,8.855,6.336,17.916,8.683,27.12.114-9.785.229-19.57.343-29.355.893,1.101,1.785,2.202,2.678,3.302-.955-5.999-2.012-12.253-5.614-17.144Zm-11.923-31.631c5.132,7.95,8.431,16.916,11.69,25.8-.18-6.102-1.346-12.174-3.438-17.909,1.251,1.272,2.502,2.543,3.753,3.815-.445-8.845-2.077-18.71-7.892-25.677,3.324,5.634,4.996,12.114,5.373,18.672-2.422-2.632-6.046-3.721-9.486-4.7Zm-1.688-58.517c7.865-4.508,16.269-8.074,24.977-10.596-14.117,2.048-28.049,5.371-41.57,9.917l11.48-.781c-.017-.01.19-.021.236-.031-3.454,1.973-6.527,3.121-9.482,5.784,3.93-1.055,7.9-1.96,11.899-2.712-2.704,2.266-5.205,4.776-7.461,7.488,3.737-1.547,7.598-2.797,11.532-3.734-2.844,2.56-5.261,5.592-7.124,8.934,8.064-5.455,16.35-10.58,24.832-15.359-4.715.658-9.39,1.607-13.989,2.841,3.096-2.245,6.423-4.172,9.911-5.739-5.156,1.03-10.344,2.069-15.24,3.988Zm35.234-4.664c17.309-.224,34.725-1.393,51.906-3.507-17.309.216-34.724,1.4-51.906,3.507Zm52.052-1.354c-17.309.216-34.724,1.4-51.906,3.507,17.309-.224,34.725-1.393,51.906-3.507Zm13.176-67.549s1.032,8.12,2.338,18.349c.283-.627.685-20.563.797-21.221,0,0,.611,3.15,1.577,7.998,2.225-11.896,5.127-24.272,9.686-27.004-1.219,6.192,5.036,66.783,16.255,19.188-1.555,2.369-3.24,4.644-5.046,6.806,2.611-4.42,5.891-8.585,6.666-13.769-2.371,4.456-5.192,8.659-8.404,12.492,4.205-7.123,9.032-14.279,10.518-22.502-2.818,7.72-7.014,14.992-12.256,21.224,6.392-10.011,11.25-20.899,14.455-32.319,2.795-14.34,5.518-28.784,8.092-38.029.937-3.366.601-11.881-5.366-8.777l-2.504-39.307s-2.575-4.296-5.03,2.326c-5.023,13.064-14.429,25.82-21.811,37.815,3.131-6.139,6.413-12.221,9.831-18.231-.331.097-.633.113-.935.023-3.464,5.792-7.053,11.507-10.76,17.121,3.055-5.989,6.254-11.926,9.582-17.791-.197-.166-.394-.357-.592-.573-3.494,5.846-7.114,11.612-10.854,17.278,3.165-6.205,6.485-12.354,9.943-18.426-.27-.384-.539-.806-.805-1.255-3.182,5.274-6.468,10.483-9.852,15.608,2.909-5.704,5.947-11.36,9.105-16.954-.147-.283-.294-.573-.439-.869-3.393,5.661-6.906,11.247-10.531,16.737,3.131-6.139,6.415-12.223,9.833-18.232-.131-.294-.261-.591-.389-.891-3.634,6.107-7.406,12.126-11.308,18.037,5.525-9.707,11.196-20.624,6.712-31.905-2.029-5.8-2.437-.917-12.425,12.163,0,0-3.451-9.928-6.172-1.014-2.721,8.914-5.315,16.771.188,10.063l-6.37,21.107c-10.975-45.628-13.088,19.889-12.908,27.085,0,0,5.017-4.225,10.971-9.006,0,0-10.716,20.132-9.206,21.239,1.51,1.107,14.847-9.544,14.847-9.544,0,0-6.81,14.855-10.727,29.39l10.84-16.498c.359-.146-8.426,18.305-13.711,33.653l14.564-25.342s-6.274,17.428-11.702,33.557l12.555-25.246s-4.586,15.63-8.821,31.107l9.674-22.796s-3.136,13.682-6.226,28.218l7.079-19.906s-1.219,7.294-2.738,16.925l4.413-13.117s-.109,7.965-.436,18.057l4.667-20.377s.382,6.593.822,15.38l2.314-18.046Zm.865,64.569c13.146-.92,24.181-10.471,28.565-22.668-6.043,11.099-16.057,19.87-28.565,22.668Zm30.509-21.732c-6.305,11.687-16.976,20.957-30.114,23.853,13.838-1.059,25.422-11.012,30.114-23.853Zm3.525-20.64c-6.531,9.009-13.516,7.258-13.516,7.258,10.971,3.76,13.516-7.258,13.516-7.258Zm13.857-28.051c-17.218,26.654-31.745,48.106-36.677-2.861-1.285,56.96,24.703,35.767,36.677,2.861Zm26.07-125.095c-5.546-.643-24.363,75.665-31.158,101.441,7.516-14.011,30.279-111.141,34.839-92.299,0,0,1.088-8.588-3.682-9.142ZM237.196,452.503c.002,3.754.241,7.508.72,11.231-.627-4.181.992-7.257-.72-11.231Zm15.099-234.201c.624-1.764,1.56-3.417,2.751-4.86.691,1.979,1.383,3.959,2.074,5.938.44-2.475,1.331-4.869,2.614-7.031.15,1.847.3,3.694.449,5.542,1.854-5.685,12.387-18.055,12.387-18.055,0,0-11.564,6.733-11.194,7.709-.512-1.349-.677-3.981-1.189-5.331-.641,1.963-2.481,3.828-3.457,5.648-1.931-2.244-2.95-4.348-5.098-6.385.795,1.857,1.318,3.831,1.546,5.838-3.433-4.083-7.768-7.404-12.604-9.656,4.001,6.733,9.771,12.951,11.719,20.644Z" fill="#363436"/>
  </g>
</svg>