<?xml version="1.0" encoding="UTF-8"?>
<svg id="b" data-name="Layer 2" xmlns="http://www.w3.org/2000/svg" width="481.18" height="500" viewBox="0 0 481.18 500">
  <g id="c" data-name="Layer 5">
    <g>
      <path d="m228.565,123.555c-2.188-11.601-10.31-22.397-18.73-30.889,8.609,1.501,15.778,7.09,22.231,12.343.373-6.031-3.784-13.189-7.781-18.083,9.717,1.502,16.304,15.351,16.304,15.351,0,0,6.587-13.85,16.304-15.351-3.997,4.894-8.154,12.051-7.781,18.083,6.453-5.253,13.622-10.842,22.231-12.343-8.42,8.492-16.542,19.287-18.73,30.889,27.703-39.657,60.486-41.087,60.486-41.087,0,0-23.246-16.332-48.599-1.866,1.072-3.051,2.346-6.002,4.57-8.876-9.038.071-20.77,5.673-28.481,10.528-7.711-4.856-19.443-10.457-28.481-10.528,2.224,2.874,3.498,5.825,4.57,8.876-25.353-14.466-48.599,1.866-48.599,1.866,0,0,32.783,1.43,60.486,41.087Z" fill="#363436"/>
      <path d="m193.471,124.549c-1.281-5.385-2.676-10.562-5.245-13.59,6.897,2.202,10.371,5.603,17.873,13.978-5.237-31.025-31.702-35.912-31.702-35.912,0,0,11.1,8.367,10.848,10.967-11.921-5.126-26.991-3.882-34.214-2.265,23.365,6.676,28.968,9.656,42.439,26.822Z" fill="#363436"/>
      <path d="m104.776,246.624c4.98-6.912,12.271-9.83,19.205-13.68-16.224,1.352-35.496,15.558-42.262,29.923.673.484,8.569-8.205,15.875-10.031-9.583,9.689-14.811,23.254-20.675,34.725,10.061-5.94,16.412-18.498,24.442-27.289,5.16-6.077,11.489-10.874,22.987-16.892-6.291-1.445-13.224,2.697-19.572,3.244Z" fill="#363436"/>
      <path d="m184.82,122.259c-18.982-15.507-49.405-14.996-70.505.74,8.074-1.962,15.69-2.742,22.557-1.589,0,0-20.003,13.523-22.69,23.791,0,0,11.179-9.087,17.24-12.66,15.493-11.125,35.741-13.466,53.398-10.282Z" fill="#363436"/>
      <path d="m253.794,158.834c1.19-13.2,9.822-24.212,14.767-35.663-13.732,7.873-25.411,23.884-27.971,40.244-2.56-16.36-14.238-32.371-27.971-40.244,4.945,11.451,13.576,22.463,14.767,35.663-7.392-9.019-16.777-18.615-27.688-22.908,14.419,16.103,21.668,32.135,26.007,59.85,2.815-13.172,1.742-23.305-1.142-28.937,3.272,2.282,8.249,11.234,8.249,11.234.477-5.007.596-10.014-.405-17.599,6.166,16.906,8.184,26.519,8.184,26.519,0,0,2.019-9.613,8.184-26.519-1.001,7.585-.882,12.592-.405,17.599,0,0,4.977-8.953,8.249-11.234-2.884,5.632-3.957,15.765-1.142,28.937,4.338-27.716,11.587-43.747,26.007-59.85-10.911,4.293-20.296,13.889-27.688,22.908Z" fill="#363436"/>
      <path d="m95.423,199.897c4.894-3.274,20.7-5.971,20.7-5.971,0,0-4.898-2.545-12.373-4.057,5.009-2.18,15.425-1.981,23.964-.702-32.623-18.396-52.906,11.421-52.906,11.421,0,0,9.209-4.628,14.063-4.568-10.288,5.928-23.304,30.084-23.304,30.084,0,0,22.691-24.217,53.64-24.217-7.13-3.715-14.561-3.781-23.784-1.99Z" fill="#363436"/>
      <path d="m226.089,402.537c3.405.771,1.54-6.551,1.342-6.592-.357,1.904-4.068,5.454-1.342,6.592Z" fill="#363436"/>
      <path d="m214.239,400.676c.927.238,1.376-.23.988-1.198-2.578-6.328-4.698-20.795-4.698-20.795,0,0-4.426,18.919,3.71,21.993Z" fill="#363436"/>
      <path d="m306.782,89.024s-26.465,4.888-31.702,35.912c7.502-8.375,10.976-11.775,17.873-13.978-2.569,3.028-3.965,8.205-5.245,13.59,13.471-17.166,19.074-20.147,42.439-26.822-7.223-1.617-22.292-2.861-34.214,2.265-.251-2.601,10.848-10.967,10.848-10.967Z" fill="#363436"/>
      <path d="m265.985,245.393c-1.312-.154-1.865-.39-3.393-1.396-6.398,5.106-10.108,9.076-22.002,9.076s-15.604-3.97-22.002-9.076c-1.529,1.005-2.081,1.242-3.393,1.396-2.523.068-5.475-2.995-7.843.28,3.835,1.396,8.287,1.815,11.349,3.875-4.705,1.111-11.943.097-14.81,4.505,8.907-1.948,18.93,4.217,36.699,4.217s27.793-6.164,36.699-4.217c-2.867-4.407-10.105-3.394-14.81-4.505,3.062-2.06,7.514-2.479,11.349-3.875-2.368-3.275-5.32-.212-7.843-.28Z" fill="#363436"/>
      <path d="m399.46,262.867c-6.766-14.365-26.038-28.571-42.262-29.923,6.934,3.851,14.225,6.769,19.205,13.68-6.347-.547-13.281-4.689-19.572-3.244,11.498,6.018,17.827,10.815,22.987,16.892,8.031,8.79,14.381,21.348,24.442,27.289-5.865-11.471-11.092-25.036-20.675-34.725,7.306,1.826,15.202,10.516,15.875,10.031Z" fill="#363436"/>
      <path d="m76.07,237.113c7.743,2.061,16.965-13,27.315-14.194-11.743,8.957-10.35,14.198-10.35,14.198,13.07-13.8,20.501-14.066,30.266-12.796-4.236-3.515-10.92-5.427-16.528-6.799,1.704-4.814,13.663-5.418,26.726-3.12-30.711-19.018-51.172,20.648-57.429,22.71Z" fill="#363436"/>
      <path d="m347.681,214.403c13.063-2.299,25.023-1.694,26.726,3.12-5.608,1.372-12.292,3.283-16.528,6.799,9.765-1.27,17.195-1.004,30.266,12.796,0,0,1.393-5.241-10.35-14.198,10.35,1.194,19.572,16.255,27.315,14.194-6.257-2.061-26.718-41.728-57.429-22.71Z" fill="#363436"/>
      <path d="m377.429,189.869c-7.475,1.512-12.373,4.057-12.373,4.057,0,0,15.807,2.697,20.7,5.971-9.222-1.791-16.653-1.725-23.784,1.99,30.949,0,53.64,24.217,53.64,24.217,0,0-13.016-24.156-23.304-30.084,4.854-.06,14.063,4.568,14.063,4.568,0,0-20.283-29.817-52.906-11.421,8.539-1.279,18.955-1.478,23.964.702Z" fill="#363436"/>
      <path d="m266.941,400.676c8.135-3.074,3.71-21.993,3.71-21.993,0,0-2.12,14.467-4.698,20.795-.388.968.061,1.435.988,1.198Z" fill="#363436"/>
      <path d="m480.574,50.366c-4.234-23.99-18.211-40.174-37.066-46.813-33.906-11.374-63.745,8.201-63.745,8.201l.239-2.313c-8.48,3.316-17.17,8.901-22.841,16.63l-1.323-.84c-7.522,5.212-13.54,11.782-18.171,19.607-2.46-1.591-8.247-3.06-8.247-3.06l2.813-.757s-13.876-12.68-37.014-10.69c-18.856-13.292-54.63-3.267-54.63-3.267,0,0-35.774-10.024-54.63,3.267-23.138-1.99-37.014,10.69-37.014,10.69l2.813.757s-5.787,1.469-8.247,3.06c-4.631-7.825-10.649-14.396-18.171-19.607l-1.323.84c-5.671-7.729-14.36-13.313-22.841-16.63l.239,2.313S80.171,3.206,69.685,1.072C35.612-4.286,6.999,14.138.606,50.366c-2.368,16.575,2.971,28.204,2.971,28.204-2.498,10.154,2.948,22.94,8.959,28.349,5.828,33.187,35.835,42.628,34.952,42.54-2.614,3.7-5.836,20.221-4.856,20.94l1.319,1.485s-11.895,31.81-9.334,45.04l3.221-1.918c-11.614,20.412-9.873,46.226-9.873,46.226,0,0,3.833-3.131,6.255-3.836,0,0-4.155,8.465-4.386,19.669-.054,10.277,6.632,18.386,11.042,21.373.508-1.08,2.899-3.769,4.029-5.037-.368,4.968-1.326,17.983,4.087,25.244,0,0,2.745-5.745,5.803-6.96-2.395,7.381.456,20.349,4.433,21.607l2.488-4.735c.146,20.233,10.379,39.854,20.268,57.243,5.228,6.705,8.716,18.664,10.967,26.728,5.714-4.335,7.692-8.348,8.305-12.044,5.182,3.587,6.867,11.847,11.005,26.231.791.003,7.007-4.462,7.106-4.121,1.67,6.071,5.89,10.737,10.246,15.071,4.651,4.388,6.885,7.966,10.431,22.942,4.532-2.365,8.619-8.109,8.507-11.996,5.729,2.392,7.824,14.054,8.241,19.681,5.714-2.365,8.196-6.764,9.285-10.251,4.235,1.497,16.33,11.828,26.182,21.877,0,0,2.612-4.424,2.803-7.694,2.969,1.709,12.369,8.482,20.842,18.925,0,0,2.358-4.938,2.002-9.365,10.411,4.242,14.549,10.153,22.682,18.216,8.132-8.063,12.27-13.974,22.682-18.216-.355,4.427,2.002,9.365,2.002,9.365,8.473-10.443,17.873-17.216,20.842-18.925.191,3.27,2.803,7.694,2.803,7.694,9.852-10.049,21.947-20.379,26.182-21.877,1.09,3.487,3.571,7.887,9.285,10.251.417-5.627,2.512-17.289,8.241-19.681-.112,3.887,3.975,9.632,8.507,11.996,3.547-14.975,5.781-18.553,10.431-22.942,4.356-4.334,8.575-9,10.246-15.071.099-.341,6.315,4.124,7.106,4.121,4.138-14.384,5.823-22.644,11.005-26.231.613,3.695,2.591,7.709,8.305,12.044,2.25-8.064,5.738-20.023,10.967-26.728,9.889-17.389,20.122-37.01,20.268-57.243l2.488,4.735c3.977-1.258,6.828-14.226,4.433-21.607,3.058,1.216,5.803,6.96,5.803,6.96,5.412-7.261,4.454-20.276,4.087-25.244,1.13,1.268,3.521,3.958,4.029,5.037,4.41-2.987,11.096-11.096,11.042-21.373-.23-11.204-4.386-19.669-4.386-19.669,2.422.705,6.255,3.836,6.255,3.836,0,0,1.741-25.815-9.873-46.226l3.221,1.918c2.561-13.23-9.334-45.04-9.334-45.04l1.319-1.485c.98-.718-2.241-17.239-4.856-20.94-.883.088,29.124-9.353,34.952-42.54,6.011-5.409,11.457-18.195,8.959-28.349,0,0,5.339-11.63,2.971-28.204Zm-100.983-31.297c-.267,1.142-.534,2.283-.801,3.425,7.664-6.246,31.427-17.573,58.58-12.916-12.994,2.263-27.701,4.885-39.797,10.142,6.814-.665,13.74-.17,20.39,1.457-10.138,1.254-20.17,3.363-29.955,6.296,5.496.286,18.694,1.701,18.694,1.701,0,0-9.442,3.864-12.39,4.482,4.221.457,7.294,1.494,14.411,3.691-17.069-.474-34.886-.264-52.739,2.237,6.868-12.694,23.607-20.216,23.607-20.515Zm-26.346,25.83s14.67-2.687,25.798.665c-5.177.623-10.933,2.504-15.618,4.944l9.175,7.808s-13.381-.15-13.469,0c3.428,4.627,12.614,13.219,12.614,13.219,0,0-6.66-1.312-12.907-2.873,4.93,5.793,10.541,11.81,17.766,20.778-13.276-6.04-28.307-18.924-30.502-22.053-5.027-6.728.243-19.319,7.144-22.488Zm-16.954,6.097c-1.659,3.611-2.05,7.125-2.147,12.493,0,0-7.32-7.906-25.279-10.248,4.461-1.922,12.848-2.345,17.978-1.64-2.166-1.581-4.997-2.654-4.997-2.654,0,0,10.966-.75,14.445,2.05Zm-141.233-16.397s-2.827-1.724-4.49-3.221c14.64-5.257,31.916-5.368,50.022.52,18.106-5.889,35.383-5.777,50.022-.52-1.663,1.497-4.49,3.221-4.49,3.221,0,0,24.519.261,37.187,6.344,0,0-10.932-.781-26.087,5.428,2.507-2.187,4.283-4.618,7.152-6.697-12.051-1.343-23.831,1.218-35.625,1.952,2.44-2.44,4.63-3.242,7.125-5.075-5.752.114-16.495,1.562-16.495,1.562,0,0,3.864-2.1,9.858-5.954-9.586-.558-20.911,3.065-28.647,8.394-7.736-5.329-19.061-8.952-28.647-8.394,5.994,3.853,9.858,5.954,9.858,5.954,0,0-10.743-1.447-16.495-1.562,2.495,1.833,4.685,2.635,7.125,5.075-11.794-.734-23.574-3.295-35.625-1.952,2.869,2.079,4.645,4.51,7.152,6.697-15.155-6.209-26.087-5.428-26.087-5.428,12.668-6.083,37.187-6.344,37.187-6.344Zm-35.723,14.348s-2.831,1.074-4.997,2.654c5.13-.704,13.517-.282,17.978,1.64-17.959,2.342-25.279,10.248-25.279,10.248-.098-5.368-.488-8.882-2.147-12.493,3.479-2.8,14.445-2.05,14.445-2.05Zm-31.399-4.047c6.901,3.169,12.171,15.76,7.144,22.488-2.195,3.129-17.226,16.013-30.502,22.053,7.225-8.968,12.836-14.985,17.766-20.778-6.247,1.562-12.907,2.873-12.907,2.873,0,0,9.186-8.592,12.614-13.219-.088-.15-13.469,0-13.469,0l9.175-7.808c-4.685-2.44-10.44-4.321-15.618-4.944,11.128-3.352,25.798-.665,25.798-.665Zm-25.545-22.405c-.267-1.142-.534-2.283-.801-3.425,0,.299,16.738,7.821,23.607,20.515-17.853-2.501-35.67-2.711-52.739-2.237,7.118-2.197,10.19-3.234,14.411-3.691-2.948-.617-12.39-4.482-12.39-4.482,0,0,13.197-1.415,18.694-1.701-9.785-2.933-19.817-5.042-29.955-6.296,6.65-1.627,13.576-2.122,20.39-1.457-12.096-5.257-26.804-7.879-39.797-10.142,27.153-4.657,50.916,6.67,58.58,12.916Zm-45.382,142.106l-8.758-.73s10.881-7.165,21.368-13.47c-4.583,6.238-7.17,7.831-11.416,11.347,2.72-.464,6.237-1.526,6.237-1.526,0,0-11.288,22.67-17.803,29.532,6.524-15.665,10.372-25.153,10.372-25.153Zm-16.674,125.252s-10.273-22.567,6.751-47.319c-2.692,9.377-3,9.808-4.538,21.035,4.139-5.639,6.421-7.078,6.421-7.078-5.184,10.116-7.63,22.053-8.633,33.362Zm19.063,32.715s-2.706-16.357.369-25.95c-3.004,1.99-9.248,9.367-9.248,9.367-2.208-8.997-1.821-18.002,1.006-27.014,0,0,.059,11.441,2.769,15.925,4.431-3.29,9.716-6.334,9.716-6.334,0,0-3.386,12.001-.43,20.6,2.365-1.58,7.133-2.521,7.133-2.521-4.601,3.612-8.511,8.64-11.315,15.927Zm32.499,68.952c-14.07-22.112-15.037-60.145-15.037-60.145,0,0-3.331,9.347-1.153,28.323-9.582-16.741-6.275-44.339,10.984-54.468-1.77,6.953-4.585,13.541-5.406,21.483,2.988-3.934,4.867-5.238,8.025-6.392-4.07,8.797-6.618,14.274-6.754,17.786-.755,9.813,2.576,13.895,2.576,13.895,0,0,.752-9.025,4.727-12.678-2.149,10.529-3.256,19.563-.107,29.761.529-6.116,2.041-13,3.932-19.714.671,7.448-.989,35.758-1.787,42.148Zm21.617,21.561c-10.979-19.006-4.829-34.815-4.829-34.815,0,0-.216,10.747,5.144,15.344.033,4.118-1.869,5.614-.314,19.471Zm-10.694-39.667c-1.356-22.378-1.604-24.273-2.34-32.135-.736-7.862-7.411-39.427,7.696-51.406-3.888,15.395-4.349,28.395.378,47.734,2.29-14.289,9.139-25.549,9.139-25.549,0,0-1.833,15.772-.37,23.75,11.752-24.308,31.015-24.73,31.015-24.73,0,0-18.296,10.413-27.965,32.761,3.428-6.549,14.678-14.488,14.678-14.488-9.306,11.373-14.678,22.546-16.611,38.877-1.612-5.05-5.372-14.289-3.116-22.992-6.713,5.239-9.631,20.106-12.503,28.18Zm23.277,3.644s-4.276,6.807-8.718,16.001c-1.094-6.828,12.017-34.037,17.531-40.974-1.292,19.071-4.526,38.178-3.117,57.295-3.136-3.6-4.563-14.133-4.563-14.133-1.569,2.143-1.951,4.181-2.703,6.158-2.443-5.323-.208-18.532,1.571-24.348Zm.175,28.449s6.021,11.083,9.163,15.01c.119-.092-.319-13.283-.319-13.283,0,0,5.468,12.672,6.777,33.791-13.019-11.791-15.621-35.518-15.621-35.518Zm33.802,50.195c-3.171-17.644-3.886-18.465-6.313-25.335-.746,4.125.105,8.621-1.308,12.403-3.246-9.613-6.202-20.056-10.324-29.417-7.191-18.178-3.116-47.728-1.049-57.845,3.431,58.028,24.297,76.543,18.994,100.194Zm-6.245-89.338c3.423-8.156,8.833-8.799,8.833-8.799-4.525,6.894-7.921,20.401-9.861,42.444,0,0-10.356-49.584,3.898-55.074-2.152,8.56-3.456,14.691-2.87,21.429Zm21.313-4.84c-4.809,6.278-8.325,12.904-10.472,19.897l.262-8.116-5.149,8.639c1.222-19.024,10.821-22.951,10.821-22.951l-3.491,8.029,8.029-5.498Zm-11.244,22.85c-.799,4.464-.974,6.559-.974,9.7,1.92-6.981,3.84-11.17,6.976-13.815-6.365,18.178-6.526,31.205-7.162,40.528-8.366-18.86-.477-37.161,1.16-36.414Zm4.54,19.466c.723-2.075-6.474,31.512,17.781,63.279-4.589-.9-30.888-25.658-17.781-63.279Zm11.154,46.435c-6.824-13.161-13.072-35.012-.49-45.982-4.048,12.471-3.54,19.908-.383,30.885.774-7.287,1.309-8.901,3.845-10.531-.819,11.325-.354,15.68,9.42,36.188-5.149-2.967-9.949-5.847-12.392-10.559Zm30.981,13.283c-1.121,4.49,1.191,9.521,3.414,13.509,0,0-31.34-19.898-24.99-47.768,3.337,19.231,10.056,28.045,16.776,34.241-.175-4.887-2.581-15.103,2.939-15.695,6.312,17.79,15.308,24.358,15.864,24.14,1.269-2.947-2.695-11.232,2.55-15.486-2.113,11.387,5.617,25.164,11.547,34.705-9.114-7.553-21.171-17.947-28.099-27.646Zm-16.818-43.323c2.301,4.06,5.107,7.264,4.925,12.049-.227,4.248,1.723,7.508,2.859,11.496-8.025-4.95-7.068-15.126-7.785-23.544Zm18.01-6.454c-.381-.142,6.506,6.641,20.706,11.215-3.486.167-7.38-.319-12.32-1.603,3.891,3.022,8.158,5.072,12.45,7.093-5.903.402-17.031-3.446-17.031-3.446,0,0,2.171,2.682,5.132,7.563-6.347-1.891-10.804-4.929-14.836-9.227-1.282,9.218,11.135,13.877,11.947,23.096-5.657-4.877-12.664-9.275-14.711-17.078-8.52-17.724,7.513-31.727-11.351-18.306,4.224-12.924,5.638-14.073-6.908-5.567.571-6.483,9.585-14.886-3.404-8.866.454-3.134,2.661-5.471,3.033-8.943-4.205,2.241-6.277,5.718-8.631,8.978.292-5.183,3.193-10.545,3.584-15.206-4.474,1.905-6.417,7.899-8.996,11.838-.368-6.007,4.092-11.677,5.047-17.179-.618-1.752,2.686-2.273,3.894-3.574.089,1.215-1.079,2.169-.304,2.782.943.746,1.721-.433,2.481-.88,16.167-10.617,7.491,22.971,30.254,29.122,11.412,2.878,13.499,2.898,28.79,2.898s17.378-.02,28.79-2.898c22.764-6.152,14.087-39.739,30.254-29.122.76.447,1.537,1.627,2.481.88.775-.613-.393-1.567-.304-2.782,1.208,1.302,4.512,1.823,3.894,3.574.955,5.502,5.415,11.173,5.047,17.179-2.578-3.939-4.522-9.933-8.996-11.838.392,4.661,3.293,10.024,3.584,15.206-2.354-3.259-4.425-6.737-8.631-8.978.372,3.471,2.579,5.809,3.033,8.943-12.989-6.02-3.975,2.383-3.404,8.866-12.546-8.506-11.132-7.357-6.908,5.567-18.864-13.421-2.831.582-11.351,18.306-2.047,7.803-9.054,12.201-14.711,17.078.811-9.219,13.229-13.878,11.947-23.096-4.032,4.298-8.489,7.336-14.836,9.227,2.961-4.881,5.132-7.563,5.132-7.563,0,0-11.128,3.848-17.031,3.446,4.292-2.021,8.56-4.071,12.45-7.093-4.94,1.284-8.834,1.77-12.32,1.603,14.2-4.574,21.087-11.356,20.706-11.215-9.23,3.835-19.031,5.761-28.827,5.762-9.796-.001-19.597-1.927-28.827-5.762Zm-15.118-44.94c-.192,1.386-.525,2.637-1.25,4.111-1.395-2.335-1.129-3.094,1.25-4.111Zm7.441,18.568c-4.646-.116-6.459-9.313-6.223-12.432.167-3.684.813-7.348,3.068-7.797,2.111.728,3.473,3.217,2.983,5.437-.395,4.773,0,9.909.172,14.793Zm61.305-2.711c-1.579,3.317-.918,10.231-6.073,7.41-4.268,1.219-5.391-2.847-8.637,1.243-.511.499-1.155.74-1.747.313-3.077-2.323-5.137.288-8.344-.146-3.207.434-5.267-2.177-8.344.146-.592.427-1.236.186-1.747-.313-3.246-4.09-4.369-.024-8.637-1.243-5.155,2.821-4.494-4.093-6.073-7.41-2.587-5.817,14.539-5.749,17.928-4.11,1.675.54,4.29,2.115,6.874,2.115s5.199-1.575,6.874-2.115c3.388-1.639,20.514-1.707,17.928,4.11Zm5.385-11.28c2.39,7.203,2.504,14.816,2.377,22.326.132,5.129-11.479,10.661-10.019,2.575,3.077-8.143,4.926-16.649,7.641-24.901Zm-11.348,20.488c3.997-.305,2.325,4.582.12,4.922-1.871-.21-3.197-5.006-.12-4.922Zm-2.191,8.772c-5.798,4.799-8.934-3.906-3.639-9.281,1.212,2.381,5.574,6.444,3.639,9.281Zm-15.109,1.341c-.409-3.71-1.676-12.088,4.568-9.498,2.227,3.64-.181,9.254-4.568,9.498Zm-3.077,0c-4.388-.244-6.795-5.858-4.568-9.498,6.244-2.59,4.977,5.788,4.568,9.498Zm-11.47-10.622c5.295,5.375,2.158,14.08-3.639,9.281-1.935-2.837,2.428-6.9,3.639-9.281Zm-5.95,5.431c-2.206-.34-3.878-5.227.12-4.922,3.078-.084,1.751,4.712-.12,4.922Zm-3.588-.509c1.46,8.086-10.151,2.554-10.019-2.575-.127-7.51-.013-15.123,2.377-22.326,2.715,8.251,4.565,16.758,7.641,24.901Zm59.222-25.703c-.49-2.219.872-4.709,2.983-5.437,2.254.45,2.901,4.113,3.068,7.797.237,3.12-1.577,12.317-6.223,12.432.173-4.883.567-10.019.172-14.793Zm7.269-3.775c2.379,1.017,2.645,1.775,1.25,4.111-.724-1.474-1.058-2.725-1.25-4.111Zm26.043-9.847s9.599,3.927,10.821,22.951l-5.149-8.639.262,8.116c-2.148-6.993-5.663-13.619-10.472-19.897l8.029,5.498-3.491-8.029Zm13.905-14.058c14.254,5.49,3.898,55.074,3.898,55.074-1.94-22.043-5.336-35.55-9.861-42.444,0,0,5.41.643,8.833,8.799.585-6.738-.718-12.869-2.87-21.429Zm-37.056,75.3c-.717,8.418.24,18.594-7.785,23.544,1.137-3.987,3.087-7.248,2.859-11.496-.181-4.784,2.624-7.989,4.925-12.049Zm-20.232,56.832c2.223-3.988,4.534-9.019,3.414-13.509-6.928,9.698-18.985,20.092-28.099,27.646,5.931-9.541,13.661-23.318,11.547-34.705,5.244,4.254,1.281,12.539,2.55,15.486.556.218,9.552-6.35,15.864-24.14,5.519.592,3.113,10.808,2.939,15.695,6.72-6.196,13.439-15.01,16.776-34.241,6.35,27.87-24.99,47.768-24.99,47.768Zm22.002-16.232c9.774-20.508,10.238-24.863,9.42-36.188,2.536,1.63,3.071,3.244,3.845,10.531,3.157-10.976,3.665-18.413-.383-30.885,12.582,10.97,6.335,32.82-.49,45.982-2.443,4.712-7.243,7.592-12.392,10.559Zm5.765,6.284c24.255-31.766,17.058-65.354,17.781-63.279,13.106,37.621-13.192,62.379-17.781,63.279Zm23.481-46.33c-.636-9.323-.797-22.35-7.162-40.528,3.136,2.644,5.056,6.833,6.976,13.815,0-3.142-.175-5.236-.974-9.7,1.637-.747,9.526,17.554,1.16,36.414Zm10.286,21.981c-1.414-3.783-.562-8.279-1.308-12.403-2.428,6.87-3.142,7.691-6.313,25.335-5.303-23.65,15.563-42.166,18.994-100.194,2.067,10.118,6.143,39.668-1.049,57.845-4.121,9.361-7.078,19.803-10.324,29.417Zm10.559-1.745c1.309-21.119,6.777-33.791,6.777-33.791,0,0-.438,13.191-.319,13.283,3.142-3.927,9.163-15.01,9.163-15.01,0,0-2.602,23.727-15.621,35.518Zm24.514-47.967c-4.442-9.194-8.718-16.001-8.718-16.001,1.779,5.816,4.014,19.024,1.571,24.348-.752-1.976-1.135-4.014-2.703-6.158,0,0-1.426,10.533-4.563,14.133,1.409-19.118-1.826-38.224-3.117-57.295,5.514,6.937,18.625,34.146,17.531,40.974Zm3.865,20.023c1.554-13.857-.348-15.352-.314-19.471,5.359-4.597,5.144-15.344,5.144-15.344,0,0,6.15,15.809-4.829,34.815Zm13.034-71.802c-.736,7.862-.983,9.758-2.34,32.135-2.872-8.073-5.79-22.941-12.503-28.18,2.256,8.703-1.504,17.942-3.116,22.992-1.934-16.331-7.306-27.504-16.611-38.877,0,0,11.25,7.94,14.678,14.488-9.669-22.347-27.965-32.761-27.965-32.761,0,0,19.263.421,31.015,24.73,1.463-7.978-.37-23.75-.37-23.75,0,0,6.849,11.26,9.139,25.549,4.727-19.339,4.266-32.338.378-47.734,15.107,11.979,8.432,43.544,7.696,51.406Zm24.773,18.419c2.178-18.976-1.153-28.323-1.153-28.323,0,0-.967,38.033-15.037,60.145-.798-6.39-2.459-34.7-1.787-42.148,1.891,6.714,3.403,13.598,3.932,19.714,3.148-10.198,2.041-19.232-.107-29.761,3.975,3.653,4.727,12.678,4.727,12.678,0,0,3.331-4.083,2.576-13.895-.136-3.513-2.683-8.989-6.754-17.786,3.159,1.154,5.037,2.458,8.025,6.392-.821-7.943-3.635-14.53-5.406-21.483,17.259,10.129,20.566,37.727,10.984,54.468Zm25.188-53.714s-6.244-7.377-9.248-9.367c3.075,9.593.369,25.95.369,25.95-2.804-7.287-6.714-12.315-11.315-15.927,0,0,4.768.941,7.133,2.521,2.956-8.599-.43-20.6-.43-20.6,0,0,5.285,3.044,9.716,6.334,2.71-4.483,2.769-15.925,2.769-15.925,2.827,9.012,3.214,18.016,1.006,27.014Zm10.184-16.131c-1.003-11.309-3.449-23.246-8.633-33.362,0,0,2.281,1.44,6.421,7.078-1.539-11.228-1.846-11.658-4.538-21.035,17.024,24.752,6.751,47.319,6.751,47.319Zm-6.303-100.099c-6.515-6.861-17.803-29.532-17.803-29.532,0,0,3.516,1.062,6.237,1.526-4.246-3.516-6.834-5.109-11.416-11.347,10.488,6.305,21.368,13.47,21.368,13.47l-8.758.73s3.848,9.488,10.372,25.153Zm30.164-86.331s-9.187,33.121-39.165,41.582c0,0-11.662-3.32-24.174-13.59-2.4-1.128-11.74-4.853-11.74-4.853,0,0,13.903,18.625,12.869,21.635-6.985-3.956-22.835-12.026-23.356-11.214-.415.646,14.055,14.731,17.368,23.252-12.955-5.525-23.056-5.87-32.782-.201,24.152,5.827,38.296,18.214,50.36,33.56-1.725-7.763-7.033-17.847-10.399-22.607,3.294.397,12.589,10.002,12.589,10.002,0,0-6.47-13.544-7.39-15.299,7.706,5.37,13.633,21.124,17.544,29.887-3.187-3.442-7.633-6.162-7.633-6.162,0,0,12.275,29.707,16.85,42.006-5.106-4.056-12.073-7.97-12.073-7.97,0,0,5.861,19.557,5.69,22.376-7.88-8.376-16.605-12.708-16.605-12.708,0,0,13.503,16.407,17.499,33.366-5.857-4.63-13.725-8.855-13.725-8.855,0,0,4.674,16.05,6.887,28.226-4.465-3.153-10.675-9.995-15.349-12.249,2.312,5.546,6.14,14.25,6.125,25.532-9.13-4.423-7.005-.382-7.379,6.703-5.645-8.26-28.965-43.259-43.639-50.516-4.902-9.47-16.774-7.86-23.741-13.138,2.884,6.675,14.665,10.003,18.14,17.741-6.806-2.474-11.389-4.19-16.611-4.283-.285.919,17.107,11.379,21.983,19.439-16.438-9.57-23.987-12.233-23.987-12.233,0,0,1.21,3.308,5.723,15.663-11.603-6.124-28.579-23.314-28.579-23.314,0,0,14.055,33.977,14.587,37.184-3.92-1.159-12.584-9.938-12.584-9.938,0,0,6.925,20.69,9.291,29.798-12.396-13.362-18.88-32.495-28.037-47.203,1.567,10.861,8.77,33.024,8.77,33.024,0,0-5.094-5.161-8.454-6.842,8.832,12.395,12.667,23.187,13.584,26.714,2.975,11.44,6.944,25.05-3.357,33.324-19.305,19.913-46.204,1.665-69.216,2.858-23.012-1.193-49.912,17.055-69.216-2.858-10.302-8.274-6.332-21.885-3.357-33.324.917-3.527,4.752-14.319,13.584-26.714-3.36,1.681-8.454,6.842-8.454,6.842,0,0,7.203-22.163,8.77-33.024-9.157,14.707-15.641,33.841-28.037,47.203,2.366-9.109,9.291-29.798,9.291-29.798,0,0-8.665,8.779-12.584,9.938.532-3.207,14.587-37.184,14.587-37.184,0,0-16.975,17.19-28.579,23.314,4.512-12.355,5.723-15.663,5.723-15.663,0,0-7.549,2.663-23.987,12.233,4.876-8.06,22.268-18.521,21.983-19.439-5.223.093-9.805,1.809-16.611,4.283,3.476-7.738,15.256-11.066,18.14-17.741-6.967,5.278-18.839,3.668-23.741,13.138-14.673,7.257-37.994,42.256-43.639,50.516-.374-7.085,1.751-11.126-7.379-6.703-.015-11.282,3.813-19.986,6.125-25.532-4.674,2.253-10.884,9.096-15.349,12.249,2.214-12.176,6.887-28.226,6.887-28.226,0,0-7.869,4.225-13.725,8.855,3.996-16.96,17.499-33.366,17.499-33.366,0,0-8.726,4.331-16.605,12.708-.17-2.819,5.69-22.376,5.69-22.376,0,0-6.966,3.914-12.073,7.97,4.575-12.299,16.85-42.006,16.85-42.006,0,0-4.445,2.72-7.633,6.162,3.91-8.763,9.837-24.517,17.544-29.887-.919,1.756-7.39,15.299-7.39,15.299,0,0,9.295-9.604,12.589-10.002-3.366,4.76-8.674,14.845-10.399,22.607,12.064-15.346,26.207-27.733,50.36-33.56-9.726-5.669-19.827-5.324-32.782.201,3.313-8.521,17.783-22.606,17.368-23.252-.521-.812-16.372,7.259-23.356,11.214-1.034-3.01,12.869-21.635,12.869-21.635,0,0-9.34,3.724-11.74,4.853-12.512,10.27-24.174,13.59-24.174,13.59-29.978-8.461-39.165-41.582-39.165-41.582-9.429-10.396-7.978-26.11-7.978-26.11C-4.802,37.18,29.527,14.455,29.527,14.455c-6.848,9.379-11.019,17.554-13.348,25.153,3.57-3.344,6.569-5.045,6.569-5.045-4.054,6.423-6.853,11.791-8.76,15.904-.026.259-.057.519-.079.778,4.814-5.658,9.896-8.533,9.896-8.533-4.96,7.86-8.043,14.136-9.902,18.458.013.168.022.337.036.505,4.566-5.065,9.112-7.646,9.112-7.646-3.641,5.77-6.281,10.704-8.165,14.633,4.339-4.6,8.467-6.937,8.467-6.937-3.076,4.875-5.439,9.154-7.235,12.735,3.648-4.327,7.396-6.302,7.396-6.302-2.542,5.897-4.312,10.905-5.556,14.956,3.925-5.19,8.382-7.539,8.382-7.539-3.011,6.985-4.946,12.733-6.193,17.099,4.168-6.546,9.725-9.469,9.725-9.469-3.114,7.223-5.083,13.136-6.323,17.55,4.175-6.613,9.784-9.568,9.784-9.568-2.704,6.272-4.547,11.561-5.798,15.737,3.844-5.573,8.384-7.09,8.384-7.09-2.343,5.434-3.386,10.03-3.731,13.771,3.833-5.509,8.33-7.013,8.33-7.013-1.229,2.85-2.095,5.466-2.696,7.853,2.284-1.119,4.302-2.783,5.807-4.835-2.084,6.301,2.038,14.549,9.4,10.818-.907,2.175-1.786,4.799-3.188,6.966,7.498-5.231,13.58-11.23,13.58-11.23-3.058,6.849-7.136,12.122-11.303,16.142,15.863-8.268,31.733-23.923,31.733-23.923-4.339,9.717-10.016,17.361-15.902,23.332,16.525-8.003,34.017-29.339,34.017-29.339.559,1.839-3.624,12.636-3.624,12.636,0,0,8.746-13.382,10.35-14.202-.261,1.807-1.826,15.755-1.826,15.755,9.892-13.574,21.945-26.28,36.243-34.824-2.988,5.871-6.023,11.217-6.97,20.457,10.126-23.188,29.676-39.043,46.793-41.968,0,0-3.44-1.335-9.66-.375,18.412-8.621,43.407,3.871,44.722,3.05-4.875-4.121-9.571-7.802-15.259-10.566,12.192-.134,34.849,9.683,34.849,9.683,0,0-3.937-7.927-16.216-11.384,8.583-4.172,19.224-.438,19.224-.438,0,0,10.64-3.734,19.224.438-12.279,3.457-16.216,11.384-16.216,11.384,0,0,22.657-9.817,34.849-9.683-5.689,2.764-10.384,6.444-15.259,10.566,1.314.82,26.31-11.671,44.722-3.05-6.22-.96-9.66.375-9.66.375,17.117,2.925,36.667,18.78,46.793,41.968-.947-9.24-3.982-14.586-6.97-20.457,14.298,8.545,26.351,21.25,36.243,34.824,0,0-1.565-13.949-1.826-15.755,1.603.82,10.35,14.202,10.35,14.202,0,0-4.183-10.798-3.624-12.636,0,0,17.492,21.336,34.017,29.339-5.886-5.971-11.563-13.615-15.902-23.332,0,0,15.87,15.655,31.733,23.923-4.168-4.02-8.245-9.293-11.303-16.142,0,0,6.082,5.999,13.58,11.23-1.403-2.168-2.282-4.792-3.188-6.966,7.362,3.73,11.484-4.518,9.4-10.818,1.505,2.052,3.523,3.716,5.807,4.835-.602-2.388-1.468-5.003-2.696-7.853,0,0,4.497,1.504,8.33,7.013-.344-3.741-1.388-8.337-3.731-13.771,0,0,4.54,1.517,8.384,7.09-1.251-4.176-3.094-9.465-5.798-15.737,0,0,5.61,2.955,9.784,9.568-1.241-4.415-3.209-10.327-6.323-17.55,0,0,5.556,2.924,9.725,9.469-1.247-4.365-3.182-10.114-6.193-17.099,0,0,4.457,2.35,8.382,7.539-1.244-4.051-3.014-9.06-5.556-14.956,0,0,3.748,1.976,7.396,6.302-1.796-3.58-4.158-7.86-7.235-12.735,0,0,4.128,2.337,8.467,6.937-1.884-3.929-4.524-8.862-8.165-14.633,0,0,4.546,2.58,9.112,7.646.014-.168.023-.337.036-.505-1.859-4.322-4.942-10.597-9.902-18.458,0,0,5.082,2.875,9.896,8.533-.022-.258-.053-.519-.079-.778-1.907-4.113-4.707-9.48-8.76-15.904,0,0,3,1.701,6.569,5.045-2.329-7.599-6.5-15.773-13.348-25.153,0,0,34.329,22.725,21.033,62.857,0,0,1.451,15.714-7.978,26.11Z" fill="#363436"/>
      <path d="m344.308,121.41c6.867-1.153,14.483-.373,22.557,1.589-21.1-15.736-51.523-16.247-70.505-.74,17.657-3.184,37.905-.843,53.398,10.282,6.061,3.573,17.24,12.66,17.24,12.66-2.687-10.268-22.69-23.791-22.69-23.791Z" fill="#363436"/>
      <path d="m297.338,312.242s-6.211,6.6-9.292,7.402c3.039-4.28,5.528-8.695,6.447-14.001-1.137,1.139-1.625,1.813-3.037,2.264.147-2.82,2.425-7.373-.287-9.022.168,14.039-16.798,28.692-30.712,21.99,0,0,2.524,3.366,7.833,5.319-2.466,1.793-8.22.023-8.22.023,1.691,2.904,4.426,3.872,5.595,4.595-4.619.75-6.597,1.002-11.763-.467,3.81,3.514,7.408,4.321,11.883,6.601-3.652.314-26.075-4.162-19.983-9.814,8.133-1.418,8.318-7.921,9.243-15.214-.005-3.524,5.886-3.086,5.886-3.086,0,0-1.936-1.357-2.742-2.824,5.843-.027,10.402-1.594,10.402-1.594,0,0-4.012-.368-8.125-2.962,3.146-.477,6.385-3.338,6.385-3.338,0,0-6.016,1.178-9.183-.391,3.932-11.005,20.732-6.108,21.341,3.883.21,3.45.102,7.022-5.271,14.238,14.496-3.439,14.145-20.893,5.903-28.164-6.714-6.614-18.286-3.212-25.968-.831,2.74-4.63,6.279-8.236,11.057-10.522-6.336-1.873-18.496,3.075-24.141,6.678-5.644-3.603-17.805-8.55-24.141-6.678,4.778,2.286,8.317,5.892,11.057,10.522-7.682-2.381-19.254-5.784-25.968.831-8.242,7.271-8.593,24.725,5.903,28.164-5.374-7.216-5.482-10.789-5.271-14.238.609-9.992,17.409-14.888,21.341-3.883-3.166,1.569-9.183.391-9.183.391,0,0,3.24,2.861,6.385,3.338-4.113,2.594-8.125,2.962-8.125,2.962,0,0,4.559,1.568,10.402,1.594-.806,1.466-2.742,2.824-2.742,2.824,0,0,5.891-.438,5.886,3.086.925,7.293,1.11,13.796,9.243,15.214,6.092,5.652-16.331,10.128-19.983,9.814,4.475-2.28,8.074-3.087,11.883-6.601-5.166,1.469-7.143,1.217-11.763.467,1.169-.723,3.904-1.69,5.595-4.595,0,0-5.755,1.771-8.22-.023,5.309-1.953,7.833-5.319,7.833-5.319-13.914,6.702-30.881-7.952-30.712-21.99-2.712,1.649-.434,6.202-.287,9.022-1.412-.452-1.901-1.126-3.037-2.264.919,5.306,3.408,9.721,6.447,14.001-3.081-.802-9.292-7.402-9.292-7.402,0,0,.405,8.297,8.942,14.901-5.291-.897-14.264-8.151-14.264-8.151,0,0,.296,3.23,4.255,10.76-.135.302-5.007-1.683-5.007-1.683,0,0,1.136,3.282,3.17,6.434-1.984-1.087-5.045-2.858-6.788-3.944.987,5.625,1.382,6.217,3.345,10.623-3.049-1.248-5.417-3.715-8.689-9.145,1.664,34.051,51.047,20.735,71.784,13.976,20.736,6.759,70.119,20.075,71.784-13.976-3.271,5.43-5.64,7.897-8.689,9.145,1.963-4.406,2.358-4.998,3.345-10.623-1.742,1.086-4.803,2.857-6.788,3.944,2.034-3.153,3.17-6.434,3.17-6.434,0,0-4.872,1.985-5.007,1.683,3.959-7.53,4.255-10.76,4.255-10.76,0,0-8.974,7.254-14.264,8.151,8.537-6.604,8.942-14.901,8.942-14.901Z" fill="#363436"/>
      <path d="m184.326,255.508c5.788-11.274,8.449-25.305,12.159-37.939,1.96,3.029,7.169,5.024,7.169,5.024,0,0-1.371-4.152-1.289-5.345,2.39,1.96,3.829,2.231,3.829,2.231,0,0-3.991-7.872-4.622-10.232-2.022-5.452-2.438-13.89,1.971-17.635,4.046,2.605,6.318,6.263,8.85,12.23.295-8.24-.201-11.55-1.174-16.281,3.615,5.443,4.783,6.486,9.04,20,.962-13.573-3.948-28.718-11.858-40.425-10.207-14.343-29.466-27.387-46.759-31.383,0,0,7.391,5.841,9.046,11.086-9.167-4.398-20.609-6.794-33.842-1.549,0,0,7.749.596,18.478,12.875-15.378-2.027-20.743.477-20.743.477,0,0,15.974,1.55,28.253,12.668.659.596-.047-1.794-3.175-6.909,3.204.37,11.863,2.777,11.863,2.777,0,0-3.8-10.324-14.29-16.523,11.823,1.581,37.303,13.849,37.807,27.869-9.196-11.06-15.514-12.252-15.514-12.252,0,0,5.807,9.074,6.812,12.707-4.801-2.512-9.47-3.323-14.391-3.472-.039,1.214,28.202,9.124,19.894,41.08-.804-2.117,1.054-5.543-1.208-7.017-.923-1.231.111-2.217-.517-4.411-2.226,3.778-3.085,8.867-7.569,10.496,1.109-3.376,3.764-8.08,4.855-12.634-.636-12.091-10.864-23.42-23.353-24.189,2.092,2.317,4.768,3.037,6.546,5.616-6.889-2.003-20.074-1.285-20.074-1.285,0,0,8.823,2.069,12.182,4.716-1.494,1.254-9.314,1.574-9.314,1.574,0,0,1.707,1.692,2.417,2.387-12.726-1.223-20.897,2.839-20.897,2.839,0,0,1.008.65,1.234,1.457-7.281,3.538-10.353,5.844-10.353,5.844,0,0,4.335.093,11.865-.795-.116,1.138,4.15,11.323,18.108,12.158-4.536-2.277-6.774-4.173-9.109-8.346,3.675,1.888,5.904,2.119,5.904,2.119,0,0-3.215-2.423-3.215-5.163.814-.525,1.221.056,1.654.309,13.746,9.651,20.422,9.012,33.766-.486-.742,7.192-18.184,18.435-33.425,25.418,10.752-.831,17.422-3.954,17.422-3.954l-12.7,15.318s15.072-7.202,20.516-11.905c-2.026,6.021-7.986,19.096-7.986,19.096,0,0,8.742-7.027,13.366-11.902-1.743,5.04-5.678,16.513-5.678,16.513,0,0,7.925-7.26,10.477-12.352-.512,5.855-.944,8.694-2.427,17.5Zm-28.615-57.129c5.692-4.808,12.418-4.217,19.328-1.839.311,6.568-12.262,11.695-19.328,1.839Z" fill="#363436"/>
      <path d="m255.09,402.537c2.727-1.138-.985-4.689-1.342-6.592-.199.041-2.064,7.364,1.342,6.592Z" fill="#363436"/>
      <path d="m355.391,201.979s-3.071-2.306-10.353-5.844c.226-.807,1.234-1.457,1.234-1.457,0,0-8.172-4.063-20.897-2.839.71-.695,2.417-2.387,2.417-2.387,0,0-7.82-.319-9.314-1.574,3.359-2.647,12.182-4.716,12.182-4.716,0,0-13.185-.718-20.074,1.285,1.778-2.579,4.454-3.299,6.546-5.616-12.489.769-22.717,12.097-23.353,24.189,1.091,4.555,3.746,9.258,4.855,12.634-4.485-1.629-5.343-6.718-7.569-10.496-.628,2.194.406,3.18-.517,4.411-2.262,1.474-.404,4.9-1.208,7.017-8.308-31.956,19.934-39.866,19.894-41.08-4.921.15-9.591.96-14.391,3.472,1.005-3.633,6.812-12.707,6.812-12.707,0,0-6.318,1.192-15.514,12.252.503-14.02,25.984-26.288,37.807-27.869-10.491,6.199-14.29,16.523-14.29,16.523,0,0,8.658-2.407,11.863-2.777-3.128,5.115-3.833,7.506-3.175,6.909,12.278-11.118,28.253-12.668,28.253-12.668,0,0-5.364-2.503-20.743-.477,10.729-12.279,18.478-12.875,18.478-12.875-13.232-5.245-24.674-2.849-33.842,1.549,1.655-5.244,9.046-11.086,9.046-11.086-17.294,3.995-36.553,17.04-46.759,31.383-7.91,11.707-12.82,26.852-11.858,40.425,4.257-13.513,5.425-14.557,9.04-20-.974,4.731-1.469,8.041-1.174,16.281,2.532-5.967,4.804-9.625,8.85-12.23,4.409,3.745,3.993,12.183,1.971,17.635-.63,2.359-4.622,10.232-4.622,10.232,0,0,1.438-.271,3.829-2.231.083,1.193-1.289,5.345-1.289,5.345,0,0,5.21-1.995,7.169-5.024,3.71,12.633,6.371,26.665,12.159,37.939-1.483-8.806-1.915-11.645-2.427-17.5,2.551,5.092,10.477,12.352,10.477,12.352,0,0-3.935-11.472-5.678-16.513,4.625,4.874,13.366,11.902,13.366,11.902,0,0-5.96-13.076-7.986-19.096,5.444,4.703,20.516,11.905,20.516,11.905l-12.7-15.318s6.67,3.123,17.422,3.954c-15.241-6.983-32.682-18.226-33.425-25.418,13.344,9.498,20.02,10.137,33.766.486.433-.253.84-.834,1.654-.309,0,2.74-3.215,5.163-3.215,5.163,0,0,2.229-.231,5.904-2.119-2.335,4.173-4.573,6.07-9.109,8.346,13.958-.836,18.224-11.02,18.108-12.158,7.531.888,11.865.795,11.865.795Zm-49.251-5.439c6.911-2.378,13.637-2.969,19.328,1.839-7.067,9.856-19.639,4.729-19.328-1.839Z" fill="#363436"/>
    </g>
  </g>
</svg>