<?xml version="1.0" encoding="UTF-8"?>
<svg id="b" data-name="Layer 2" xmlns="http://www.w3.org/2000/svg" width="378.071" height="500" viewBox="0 0 378.071 500">
  <g id="c" data-name="hippo">
    <g>
      <path d="m269.364,337.566c.041-1.889-3.244-1.396-3.14.314-.113,2.251,3.257,1.878,3.14-.314Z" fill="#363436"/>
      <path d="m256.974,343.486c-.108-2.584-4.035-2.517-4.043.075-.083,2.754,4.214,2.65,4.043-.075Z" fill="#363436"/>
      <path d="m241.63,362.172c-.251,2.277,3.318,2.482,3.429.228.033-2.175-3.263-2.407-3.429-.228Z" fill="#363436"/>
      <path d="m250.617,358.688c.147,3.296,5.135,3.428,5.263.022.21-3.511-5.398-3.426-5.263-.022Z" fill="#363436"/>
      <path d="m238.551,350.542c-.237,1.999,3.034,2.277,3.024.154.089-1.916-2.881-2.007-3.024-.154Z" fill="#363436"/>
      <path d="m270.23,355.848c12.122-9.893,11.79-25.456,11.79-25.456,0,0-12.067,24.429-11.79,25.456Z" fill="#363436"/>
      <path d="m276.676,324.957c-.013-3.217-5.124-3.106-5.033.09.021,3.2,5.14,3.129,5.033-.09Z" fill="#363436"/>
      <path d="m265.608,374.641c-2.542-.031-2.745,3.894-.121,3.918,2.338-.02,2.55-3.854.121-3.918Z" fill="#363436"/>
      <path d="m265.471,363.256c-3.238-.131-3.25,5.042-.027,4.883,3.018-.085,3.178-4.88.027-4.883Z" fill="#363436"/>
      <path d="m197.809,350.391c-3.1.059-3.396,4.479-.099,4.376,3.345.062,3.513-4.54.099-4.376Z" fill="#363436"/>
      <path d="m249.019,284.663c-2.539,2.781-5.525,4.457-8.917,5.462-3.349.992-6.728,1.818-10.314,2.5.658-2.297,2.629-3.508,3.135-5.756-1.903.283-2.915,1.74-4.593,2.001,1.709-2.694,3.418-5.388,5.337-8.415-3.619.589-5.293,3.315-7.675,5.001,3.546-7.497,10.382-10.65,18.172-13.236-2.638-1.863-4.864-.808-7.573-.526-9.314,2.024-16.469,6.675-19.385,16.297-1.996,7.932-9.919,39.109,6.351,20.461,4.773-6.882,13.03-9.084,19.39-14.012,2.584-2.215,6.62-6.061,6.071-9.778Z" fill="#363436"/>
      <path d="m238.511,189.984c-3.564-4.265-23.493-20.275-20.834-48.656-2.466,4.994-2.844,10.342-3.636,15.62-1.519-7.046-1.242-14.262-2.304-21.352-2.16,3.231-2.308,7.015-3.323,10.552-1.543-5.595-1.899-11.34-3.514-16.855-.966,13.75-2.388,29.775,5.772,41.714,6.945,9.004,16.536,17.058,27.839,18.977Z" fill="#363436"/>
      <path d="m218.969,353.544c-.182,2.464,3.534,2.706,3.698.246.148-2.261-3.54-2.492-3.698-.246Z" fill="#363436"/>
      <path d="m263.132,251.192c-17.486-20.768-19.993-37.663-20.857-37.585-1.209,7.084.008,27.336,20.857,37.585Z" fill="#363436"/>
      <path d="m206.191,350.65c.152-1.32-2.146-1.714-2.31-.164-.277,1.624,2.363,1.767,2.31.164Z" fill="#363436"/>
      <path d="m232.532,193.122c-20.965-11.218-27.091-21.941-31.568-31.807-.194,11.789,7.726,28.183,31.568,31.807Z" fill="#363436"/>
      <path d="m228.251,347.008c-3.981-3.559-7.502-7.492-10.65-11.808-2.364-3.017-4.795-5.984-7.272-8.91-.833-.984-1.874-2.083-3.343-1.483-1.51.616-1.169,2.157-1.28,3.318.258,10.873,10.248,17.396,19.727,20.039.993.309,3.868.656,2.817-1.156Z" fill="#363436"/>
      <path d="m230.968,365.352c-.717.204-.478,1.445.302,1.266.961-.073.583-1.579-.302-1.266Z" fill="#363436"/>
      <path d="m224.266,360.724c-1.931-.088-1.992,2.97-.015,2.903,1.934.043,1.977-3.016.015-2.903Z" fill="#363436"/>
      <path d="m276.554,374.111c-.002,1.922,2.982,1.933,3.168.098.314-2.116-3.348-2.348-3.168-.098Z" fill="#363436"/>
      <path d="m276.285,356.453c11.531-7.684,11.844-25.313,11.844-25.313,0,0-12.158,24.885-11.844,25.313Z" fill="#363436"/>
      <path d="m281.8,71.096c-16.658-.058-48.288-17.352-48.288-17.352,0,0,4.717,8.231,17.294,15.306-5.734-.508-11.19-1.34-24.078-6.422,12.147,11.925,42.39,16.734,55.071,8.468Z" fill="#363436"/>
      <path d="m261.628,85.281c-16.925-1.017-31.537-7.861-43.738-12.863,4.525,4.909,24.871,19.059,43.738,12.863Z" fill="#363436"/>
      <path d="m265.79,81.027c-14.494-3.983-27.746-7.214-43.403-14.108.995,1.468,19.912,16.605,43.403,14.108Z" fill="#363436"/>
      <path d="m329.136,63.87c-3.895-1.657-6.219-1.823-7.367-4.425-2.161-4.902-1.26-8.935,1.23-14.662-2.164,1.281-4.655,2.573-6.32,4.268-.05-5.142,3.525-9.13,4.992-13.647-3.195,2.115-6.889,5.395-8.973,8.004-2.885-4.802,7.665-13.178,10.218-17.715-4.553,1.466-9.624,4.304-12.809,7.449,2.966-6.59,8.263-11.442,12.809-17.326-11.863,4.335-29.503,21.539-18.211,34.153,2.212,2.606,4.21,5.36,6.075,8.219,6.326,10.084,16.037,6.764,18.355,5.681Z" fill="#363436"/>
      <path d="m363.492,275.109c-1.707-5.424.269-6.687,2.25-11.223,5.529-14.133,11.777-28.602,12.329-43.969-1.558-24.357-14.388-46.423-24.36-68.213-5.206-10.733-12.348-20.316-19.359-29.911-1.98-2.341.054-5.082.237-7.702,1.637-10.008,2.696-21.271-4.664-29.352,46.358-40.27,18.631-111.008-25.385-74.679-7.73,7.743-14.205,16.641-22.207,24.124-3.19,2.656-6.743,6.843-11.278,6.477-2.906-.556-5.627-1.262-7.886-3.626-9.95-10.417-26.922-24.466-74.132-24.466s-64.183,14.049-74.132,24.466c-2.258,2.364-4.979,3.071-7.886,3.626-4.535.366-8.088-3.821-11.278-6.477-8.003-7.482-14.478-16.381-22.207-24.124C29.516-26.27,1.788,44.468,48.147,84.738c-7.361,8.082-6.302,19.344-4.664,29.352.183,2.62,2.217,5.361.237,7.702-7.012,9.594-14.153,19.178-19.359,29.911C14.388,173.493,1.558,195.56,0,219.916c.552,15.367,6.8,29.836,12.329,43.969,1.981,4.536,3.957,5.799,2.25,11.223-5.458,20.318-10.515,40.949-11.022,62.09-2.543,99.116,106.041,162.801,185.479,162.801s188.022-63.685,185.479-162.801c-.507-21.141-5.564-41.772-11.022-62.09Zm-67.788-232.881c.722-7.095,2.886-12.327,10.519-18.597,0,0-1.92.197-3.327.592,38.377-45.577,57.703,15.029,32.251,45.325.724-2.126.784-3.449.905-5.914-5.998,8.199-7.989,11.444-13.301,12.772-4.38-4.065-13.457-7.48-13.944-10.79-1.077-5.47-13.685-17.659-13.103-23.389ZM42.019,63.634c.12,2.465.18,3.788.905,5.914-25.452-30.296-6.125-90.902,32.251-45.325-1.407-.396-3.327-.592-3.327-.592,7.632,6.27,9.797,11.501,10.519,18.597.583,5.73-12.026,17.919-13.103,23.389-.487,3.31-9.564,6.725-13.944,10.79-5.312-1.328-7.303-4.573-13.301-12.772Zm310.716,326.224c.743-4.26-.761-15.345-.761-15.345-2.625,15.149-10.933,36.843-25.896,56.585,0,0,17.364-34.19,18.431-50.644-.644.563-3.378,8.064-4.113,8.303.903-5.486,2.132-12.389,1.81-18.03-9.518,45.119-27.255,61.918-27.255,61.918,0,0,13.823-28.302,17.973-42.095-25.4,58.395-88.989,84.083-143.889,84.083s-118.488-25.688-143.889-84.083c4.149,13.793,17.973,42.095,17.973,42.095,0,0-17.737-16.799-27.255-61.918-.322,5.642.907,12.545,1.81,18.03-.736-.239-3.469-7.739-4.113-8.303,1.066,16.453,18.431,50.644,18.431,50.644-14.963-19.742-23.27-41.436-25.896-56.585,0,0-1.504,11.086-.761,15.345-21.79-39.701,2.684-83.414,19.84-119.915-9.043,7.679-20.562,31.081-21.557,30.949,3.186-9.281,7.452-18.082,10.386-27.399-3.813,4.999-6.737,10.537-10.237,15.75,1.727-6.486,3.454-12.972,5.181-19.457-.168-.058-4.522,7.443-6.69,11.198,1.843-8.904,3.264-17.866,5.608-26.645,4.932-17.605,13.148-34.299,19.954-50.896-3.138,2.044-10.621,16.573-15.302,23.644,7.137-23.733,6.453-47.015,6.281-47.05-2.608,9.83-8.164,29.412-8.334,29.372.813-5.896,1.04-18.624,1.04-18.624,0,0-6.432,23.294-7.998,24.98.745-5.847,1.439-11.297,2.133-16.748-.17-.038-5.526,13.665-8.117,20.538,2.138-12.334,1.795-19.081,7.683-37.101-7.088,9.024-11.611,29.91-15.376,39.395,1.303-25.917,13.517-50.004,25.186-72.703,6.816-13.447,15.821-26.296,20.203-40.712-1.604.502-3.55,2.458-3.55,2.458-7.058-13.896,6.391-32.411,17.591-36.075.054,1.942-.307,5.965-.307,5.965,1.518-1.381,2.512-2.802,3.293-4.314,3.235-6.266,6.98-18.487,18.454-21.906,19.432-5.79,31.752-5.909,50.942-12.517,7.176-2.296,32.472-7.095,32.472-7.095,0,0-17.615-1.62-32.559,1.411,7.875-3.45,14.612-5.272,24.356-7.539-10.739-.14-17.073.083-25.604,1.384,7.644-4.761,29.413-9.255,48.732-9.146,19.319-.109,41.088,4.384,48.732,9.146-8.531-1.301-14.865-1.524-25.604-1.384,9.743,2.267,16.481,4.089,24.356,7.539-14.945-3.031-32.559-1.411-32.559-1.411,0,0,25.296,4.799,32.472,7.095,19.19,6.609,31.51,6.728,50.942,12.517,11.474,3.419,15.219,15.64,18.454,21.906.781,1.513,1.775,2.933,3.293,4.314,0,0-.361-4.023-.307-5.965,11.2,3.664,24.649,22.179,17.591,36.075,0,0-1.946-1.956-3.55-2.458,4.382,14.416,13.387,27.264,20.203,40.712,11.668,22.699,23.882,46.786,25.186,72.703-3.765-9.484-8.288-30.37-15.376-39.395,5.888,18.02,5.545,24.767,7.683,37.101-2.592-6.872-7.947-20.575-8.117-20.538.694,5.45,1.388,10.901,2.133,16.748-1.566-1.686-7.998-24.98-7.998-24.98,0,0,.227,12.728,1.04,18.624-.17.039-5.726-19.542-8.334-29.372-.171.035-.856,23.316,6.281,47.05-4.681-7.071-12.165-21.601-15.302-23.644,6.806,16.597,15.022,33.29,19.954,50.896,2.345,8.778,3.765,17.741,5.608,26.645-2.168-3.756-6.522-11.256-6.69-11.198,1.727,6.486,3.454,12.972,5.181,19.457-3.5-5.214-6.424-10.752-10.237-15.75,2.934,9.318,7.2,18.118,10.386,27.399-.995.132-12.514-23.27-21.557-30.949,17.156,36.501,41.63,80.214,19.84,119.915Z" fill="#363436"/>
      <path d="m333.383,354.854c-.221-18.859.19-41.138-15.543-54.37-.865-.729,2.529-6.33-6.849-22.823-5.831-9.45-17.677-13.565-21.663-24.135-1.641-4.129-3.189-8.542-3.398-12.961,9.699,10.509,21.292,21.365,36.807,21.388-2.055-2.907-4.904-4.075-6.402-6.908-6.997-15.031-.342-35.641-.342-35.641,0,0-4.294,1.718-7.095,10.499-.25-3.22-.492-6.344-.734-9.468-2.747,5.336-3.979,7.986-3.126,16.702-3.786-10.651-2.197-20.959,2.369-31.295-6.809,3.544-9.738,12.542-11.497,19.561-1.376-13.273,2.407-20.313,17.325-46.533-20.858,17.131-28.3,45.237-29.035,45.885-1.151-16.585,13.687-28.181,20.672-49.687-15.501,19.788-22.521,31.036-23.499,30.883.627-11.668,6.337-22.154,6.337-22.154,0,0-23.243,20.433-13.962,57.464-13.718-20.428-19.147-58.208-19.977-58.139-2.256,14.024.18,27.698,1.787,38.494-3.551-5.09-5.117-9.442-7.907-16.308-2.219,17.6,14.952,40.867,24.444,49.405-6.855-.229-13.526-1.278-19.88,2.146,21.064,2.933,43.473,8.228,53.627,28.539,3.697,6.202.794,15.909-1.61,21.836-1.377-3.399-.645-12.188-6.698-18.08,3.953,17.613,2.418,35.231-2.533,52.495,9.022-5.709,14.809-18.963,16.258-19.566-1.142,6.66-4.404,12.204-7.007,18.008,5.525-5.572,10.496-11.3,13.49-19.029,1.1,4.16.058,23.511-30.731,44.142,15.704-4.936,24.632-14.395,29.747-19.213.132.399-.264,2.381-.264,2.381,0,0,5.22-3.216,7.27-6.802,1.388,14.978-37.236,35.687-37.247,36.63,11.068-3.771,19.194-6.572,26.597-13.187.548.696-.879,3.21-.879,3.21,0,0,6.794-2.718,11.344-7.93-6.043,31.52-57.624,29.772-70.599,27.82,6.857-1.515,13.728-2.177,19.819-5.772-11.044.01-21.893,1.441-32.706-.457,6.492-1.174,13.058-1.969,19.209-4.535-13.159.341-26.269.388-39.351-.966,6.791-.902,13.571-1.734,20.161-3.626-15.581-.267-33.554,2.487-46.748-8.196-1.283-1.075-3.27-1.642-4.327-1.705-1.056.064-3.043.631-4.327,1.705-13.194,10.683-31.167,7.929-46.748,8.196,6.59,1.893,13.37,2.725,20.161,3.626-13.082,1.354-26.192,1.307-39.351.966,6.151,2.566,12.716,3.361,19.209,4.535-10.814,1.898-21.662.467-32.706.457,6.091,3.595,12.962,4.257,19.819,5.772-12.975,1.952-64.555,3.7-70.598-27.82,4.55,5.212,11.344,7.93,11.344,7.93,0,0-1.427-2.514-.879-3.21,7.403,6.615,15.529,9.416,26.597,13.187-.01-.943-38.634-21.652-37.247-36.63,2.05,3.586,7.27,6.802,7.27,6.802,0,0-.396-1.982-.264-2.381,5.115,4.818,14.043,14.277,29.747,19.213-30.789-20.631-31.831-39.983-30.731-44.142,2.994,7.729,7.965,13.457,13.49,19.029-2.603-5.803-5.865-11.348-7.007-18.008,1.449.603,7.235,13.857,16.258,19.566-4.951-17.264-6.486-34.882-2.533-52.495-6.053,5.892-5.322,14.681-6.698,18.08-2.404-5.928-5.307-15.634-1.61-21.836,10.154-20.311,32.562-25.606,53.627-28.539-6.354-3.425-13.024-2.376-19.88-2.146,9.492-8.538,26.663-31.805,24.444-49.405-2.79,6.865-4.356,11.217-7.907,16.308,1.607-10.796,4.044-24.47,1.787-38.494-.83-.069-6.26,37.711-19.977,58.139,9.281-37.031-13.962-57.464-13.962-57.464,0,0,5.71,10.486,6.337,22.154-.978.153-7.998-11.096-23.499-30.883,6.985,21.505,21.823,33.102,20.672,49.687-.735-.648-8.177-28.754-29.035-45.885,14.918,26.22,18.702,33.26,17.325,46.533-1.759-7.019-4.688-16.017-11.497-19.561,4.566,10.336,6.154,20.644,2.369,31.295.853-8.716-.38-11.366-3.126-16.702-.242,3.124-.484,6.248-.734,9.468-2.801-8.782-7.095-10.499-7.095-10.499,0,0,6.655,20.61-.342,35.641-1.498,2.833-4.348,4.002-6.402,6.908,15.515-.022,27.107-10.879,36.807-21.388-.209,4.419-1.758,8.832-3.398,12.961-3.986,10.57-15.832,14.684-21.663,24.135-9.377,16.494-5.983,22.094-6.849,22.823-15.733,13.232-15.322,35.511-15.543,54.37.292,11.364-2.329,24.219,6.045,33.423,5.966,7.408,19.704,11.031,24.916,18.221-6.283-2.292-12.161-4.716-18.283-7.361,25.581,46.951,78.927,70.429,131.67,70.404,52.743.025,106.089-23.453,131.67-70.404-6.122,2.645-12,5.069-18.283,7.361,5.212-7.189,18.95-10.812,24.916-18.221,8.374-9.204,5.753-22.059,6.045-33.423Zm-262.334,34.607c-.555-.613-1.294-1.119-1.533-2.301,13.781,6.831,28.344,9.705,43.714,10.656-14.019,3.489-31.747,2.956-42.181-8.355Zm203.045,39.235c-12.182,10.516-31.991,24.883-85.058,24.883s-72.877-14.367-85.058-24.883c-.503-.404-1.2-.668-1.359-1.585,24.109,10.389,52.549,22.827,78.923,17.241-28.714-4.177-40.542-7.169-55.951-14.64,17.431,2.989,35.066,5.221,52.753,3.643-20.608-2.369-34.964-4.908-52.01-9.903,14.079.296,41.113,2.626,44.851-1.771-12.919-.636-25.859-.49-38.652-2.654,10.046-1.858,25.933-2.242,32.609-7.976-8.505,1.04-16.566,2.338-24.779,2.633,3.491-1.99,7.281-3.477,10.42-6.769-1.479-.176-22.368,6.168-32.286,5.276,25.058-7.212,42.39-27.581,70.54-26.732,28.15-.85,45.482,19.519,70.54,26.732-9.917.892-30.807-5.452-32.286-5.276,3.139,3.291,6.929,4.779,10.42,6.769-8.212-.296-16.274-1.593-24.779-2.633,6.675,5.734,22.563,6.118,32.609,7.976-12.793,2.163-25.733,2.018-38.652,2.654,3.739,4.397,30.772,2.067,44.851,1.771-17.046,4.995-31.402,7.534-52.01,9.903,17.687,1.578,35.321-.654,52.753-3.643-15.409,7.471-27.237,10.463-55.951,14.64,26.374,5.587,54.814-6.851,78.923-17.241-.16.917-.857,1.181-1.359,1.585Zm32.928-39.235c-10.434,11.311-28.162,11.845-42.181,8.355,15.37-.951,29.933-3.825,43.714-10.656-.24,1.182-.978,1.687-1.533,2.301Z" fill="#363436"/>
      <path d="m189.035,390.592c-14.592,0-26.014,8.098-27.001,10.082,11.504-3.011,19.055-5.039,27.001-5.002,7.946-.037,15.497,1.99,27.001,5.002-.987-1.984-12.41-10.082-27.001-10.082Z" fill="#363436"/>
      <path d="m335.096,51.907c4.172-3.222,6.662-5.961,7.272-12.139.302-9.758-2.519-17.477-8.028-20.401,4.762,18.196,2.438,23.176.756,32.54Z" fill="#363436"/>
      <path d="m345.377,334.884c6.141,10.316,5.908,22.16,5.998,34.23,1.341-6.07,1.213-11.668,1.662-17.216.968,6.765,1.462,13.544,1.404,20.595,6.87-23.958-.03-57.318-21.209-79.263,0,0,2.727,7.083,2.967,8.149-1.386-1.205-4.792-4.485-8.147-5.872,14.248,19.972,14.203,30.853,17.325,39.376Z" fill="#363436"/>
      <path d="m253.453,138.505c9.408,2.424,22.194,2.245,27.443-1.096-4.597-.606-5.972-.876-9.275-2.014,15.785-4.06,27.262,2.056,34.971-17.001,2.299-5.643,14.203-4.452,14.054-16.09-7.044,8.682-14.112,8.401-21.553,9.064,4.907-3.994,14.163-3.209,15.724-10.706,1.101-5.398-2.832-11.422-7.52-14.67,1.885,3.787,1.688,7.582.727,11.941-.834-5.403-3.006-6.976-3.006-6.976,0,0-.484,6.371-2.941,9.007-.373-1.291-.24-2.806-1.434-5.019-.701,2.937-2.555,7.949-5.106,9.851-4.099,3.058-8.478,6.164-11.539,10.209-2.401,3.173-3.237,3.508-5.802,3.396-2.565-.112-11.821-2.286-21.209-6.146,3.661,4.559,6.991,6.815,13.77,9.739-4.01-.383-11.027-2.941-11.027-2.941,0,0,2.073,2.75,4.608,4.471-4.96-1.07-13.761-5.411-13.761-5.411,0,0,1.357,2.52,3.34,4.365-6.292-3.081-7.671-5.246-18.538-14.294.936,3.062,3.075,5.583,4.676,8.316-5.051-2.212-7.748-4.232-14.272-9.138,2.565,9.089,14.506,17.263,17.906,20.101-10.605-4.616-13.947-6.885-31.347-24.098,2.623,16.934,28.693,32.629,41.113,35.141Zm49.212-21.744c-2.891,11.065-11.634,12.262-20.167,10.916-2.835-.678-4.08,1.543-5.822.583,8.106-5.194,15.935-10.77,25.989-11.499Z" fill="#363436"/>
      <path d="m262.501,162.749c-3.333-13.879-15.142-24.886-29.447-25.507,9.175,6.196,11.107,8.571,15.212,12.425-6.093-1.824-14.011-1.936-14.011-1.936,0,0,16.839,5.687,22.998,24.657,1.261-4.849.198-9.316-1.171-13.78,4.014,5.636,5.357,12.181,6.653,18.748,1.273-4.961.913-9.83-.234-14.608Z" fill="#363436"/>
      <path d="m244.967,311.337c10.4-2.948,16.469-11.93,19.725-14.93-2.66,6.735-8.365,13.813-24.407,26.618,8.424-4.088,16.123-8.881,23.048-15.107-5.415,11.45-14.215,18.127-25.956,22.525,20.647,1.199,40.866-23.211,43.19-43.94,1.221,1.569,2.965,4.796,4.768,9.263,1.135-.249,1.161-25.742-18.547-29.815,1.659,3.201,3.285,6.57,4.013,8.607,3.749,10.463-25.826,35.8-25.834,36.779Z" fill="#363436"/>
      <path d="m289.854,320.72c-2.535.022-2.192,3.941.184,3.863,2.5-.106,2.277-3.903-.184-3.863Z" fill="#363436"/>
      <path d="m267.196,154.544c-4.782,8.746,3.726,24.642,3.726,24.642,0,0,1.585-2.514,1.727-7.241.192-9.993,2.311-13.81,6.274-19.868.9-1.918,2.505-4.01,2.919-7.4-5.767,2.331-11.625,4.873-14.646,9.867Z" fill="#363436"/>
      <path d="m280.792,359.17c6.61-3.774,14.617-19.658,13.527-27.608-.385.049-13.797,27.063-13.527,27.608Z" fill="#363436"/>
      <path d="m306.134,133.027c-3.569,7.978-7.533,15.561-11.939,23.064-1.106,1.925-2.117,4.578-1.727,7.979,7.695-5.799,20.197-16.675,23.088-28.606,1.049-5.678,3.276-13.885-.475-18.923-.748,8.969-3.492,16.957-8.273,24.341-.173-2.67.284-5.298-.675-7.854Z" fill="#363436"/>
      <path d="m206.375,364.397c1.93.26,2.314-3.018.256-3.104-2.065-.175-2.268,2.947-.256,3.104Z" fill="#363436"/>
      <path d="m280.465,365.119c.311-1.869-2.737-1.747-2.634.02-.038,1.465,2.578,1.408,2.634-.02Z" fill="#363436"/>
      <path d="m67.29,58.189c1.865-2.859,3.864-5.613,6.075-8.219,11.292-12.614-6.348-29.818-18.211-34.153,4.546,5.885,9.843,10.737,12.809,17.326-3.185-3.145-8.256-5.983-12.809-7.449,2.554,4.537,13.104,12.913,10.218,17.715-2.084-2.609-5.779-5.889-8.973-8.004,1.468,4.517,5.042,8.505,4.992,13.647-1.666-1.695-4.156-2.987-6.32-4.268,2.49,5.727,3.392,9.76,1.23,14.662-1.147,2.602-3.471,2.768-7.367,4.425,2.318,1.082,12.029,4.402,18.355-5.681Z" fill="#363436"/>
      <path d="m35.703,39.767c.61,6.178,3.1,8.917,7.272,12.139-1.682-9.364-4.006-14.344.756-32.54-5.509,2.924-8.331,10.643-8.028,20.401Z" fill="#363436"/>
      <path d="m41.872,301.379c.24-1.067,2.967-8.149,2.967-8.149-21.179,21.945-28.079,55.305-21.209,79.263-.058-7.052.436-13.831,1.404-20.595.449,5.548.321,11.146,1.662,17.216.09-12.07-.143-23.914,5.998-34.23,3.122-8.524,3.077-19.404,17.325-39.376-3.356,1.386-6.761,4.667-8.147,5.872Z" fill="#363436"/>
      <path d="m135.796,213.607c-.865-.078-3.371,16.816-20.857,37.585,20.85-10.249,22.066-30.501,20.857-37.585Z" fill="#363436"/>
      <path d="m120.817,172.39c6.158-18.97,22.998-24.657,22.998-24.657,0,0-7.918.112-14.011,1.936,4.105-3.854,6.037-6.229,15.212-12.425-14.305.62-26.114,11.627-29.447,25.507-1.147,4.779-1.507,9.647-.234,14.608,1.296-6.567,2.639-13.112,6.653-18.748-1.369,4.465-2.432,8.931-1.171,13.78Z" fill="#363436"/>
      <path d="m106.427,325.047c.091-3.196-5.02-3.306-5.033-.09-.107,3.218,5.012,3.29,5.033.09Z" fill="#363436"/>
      <path d="m171.695,364.397c2.012-.157,1.809-3.279-.256-3.104-2.058.086-1.674,3.365.256,3.104Z" fill="#363436"/>
      <path d="m174.189,350.486c-.164-1.55-2.462-1.155-2.31.164-.053,1.602,2.587,1.46,2.31-.164Z" fill="#363436"/>
      <path d="m107.84,355.848c.276-1.027-11.79-25.456-11.79-25.456,0,0-.331,15.563,11.79,25.456Z" fill="#363436"/>
      <path d="m83.751,331.562c-1.09,7.95,6.918,23.834,13.527,27.608.269-.544-13.142-27.558-13.527-27.608Z" fill="#363436"/>
      <path d="m88.217,320.72c-2.461-.04-2.684,3.757-.184,3.863,2.376.078,2.719-3.841.184-3.863Z" fill="#363436"/>
      <path d="m182.096,292.604c-5.529-16.599-13.703-35.697-33.609-37.61-.33-.049-.684-.118-1.168.51,3.012,2.084,6.316,3.791,9.166,6.382-.774.445-1.279.047-1.786-.118-6.164-1.58-13.314-3.515-19.389-.559.675.671,1.355.747,1.979.86,13.703,1.45,25.973,7.094,31.264,20.621,5.363,13.119,20.165,43.973,20.483,43.532.318.441,15.12-30.412,20.482-43.532,5.291-13.527,17.561-19.171,31.264-20.621.624-.114,1.304-.189,1.979-.86-6.075-2.956-13.225-1.021-19.389.559-.507.166-1.012.563-1.786.118,2.85-2.591,6.154-4.298,9.166-6.382-.484-.629-.838-.559-1.168-.51-19.906,1.913-28.08,21.011-33.609,37.61.306-4.921,1.271-9.673,2.37-14.473.22-.84.653-1.764-.373-2.995-5.003,7.888-8.937,25.217-8.937,25.217,0,0-3.934-17.328-8.937-25.217-1.026,1.231-.594,2.155-.373,2.995,1.099,4.801,2.064,9.552,2.37,14.473Z" fill="#363436"/>
      <path d="m71.479,118.395c7.709,19.057,19.186,12.941,34.971,17.001-3.302,1.138-4.677,1.408-9.275,2.014,5.249,3.341,18.035,3.52,27.443,1.096,12.421-2.511,38.49-18.207,41.113-35.141-17.4,17.213-20.742,19.482-31.347,24.098,3.4-2.837,15.341-11.012,17.906-20.101-6.524,4.907-9.221,6.927-14.272,9.138,1.6-2.734,3.74-5.255,4.676-8.316-10.867,9.047-12.246,11.213-18.538,14.294,1.983-1.845,3.34-4.365,3.34-4.365,0,0-8.802,4.341-13.761,5.411,2.535-1.721,4.608-4.471,4.608-4.471,0,0-7.017,2.559-11.027,2.941,6.78-2.924,10.11-5.179,13.77-9.739-9.388,3.86-18.644,6.035-21.209,6.146-2.565.112-3.401-.223-5.802-3.396-3.061-4.046-7.44-7.152-11.539-10.209-2.551-1.903-4.405-6.914-5.106-9.851-1.194,2.212-1.061,3.727-1.434,5.019-2.457-2.636-2.941-9.007-2.941-9.007,0,0-2.172,1.572-3.006,6.976-.96-4.359-1.158-8.154.727-11.941-4.688,3.248-8.621,9.272-7.52,14.67,1.56,7.497,10.816,6.711,15.724,10.706-7.441-.663-14.509-.382-21.553-9.064-.149,11.638,11.755,10.447,14.054,16.09Zm29.916,9.865c-1.741.96-2.987-1.261-5.822-.583-8.533,1.346-17.276.149-20.167-10.916,10.054.729,17.882,6.305,25.989,11.499Z" fill="#363436"/>
      <path d="m89.942,331.14s.313,17.629,11.844,25.313c.314-.428-11.844-25.313-11.844-25.313Z" fill="#363436"/>
      <path d="m96.228,144.676c.414,3.391,2.019,5.482,2.919,7.4,3.963,6.058,6.082,9.874,6.274,19.868.142,4.727,1.727,7.241,1.727,7.241,0,0,8.507-15.896,3.726-24.642-3.022-4.995-8.88-7.536-14.646-9.867Z" fill="#363436"/>
      <path d="m145.539,193.122c23.842-3.624,31.761-20.018,31.568-31.807-4.477,9.866-10.602,20.589-31.568,31.807Z" fill="#363436"/>
      <path d="m62.989,116.54c-3.751,5.039-1.524,13.245-.475,18.923,2.891,11.931,15.393,22.807,23.088,28.606.39-3.401-.621-6.054-1.727-7.979-4.406-7.503-8.37-15.085-11.939-23.064-.959,2.556-.502,5.184-.675,7.854-4.781-7.384-7.524-15.372-8.273-24.341Z" fill="#363436"/>
      <path d="m155.684,66.919c-15.657,6.894-28.909,10.125-43.403,14.108,23.491,2.497,42.408-12.64,43.403-14.108Z" fill="#363436"/>
      <path d="m160.393,141.328c2.66,28.381-17.269,44.391-20.834,48.656,11.303-1.919,20.894-9.973,27.839-18.977,8.159-11.94,6.737-27.964,5.772-41.714-1.614,5.515-1.971,11.26-3.514,16.855-1.016-3.537-1.163-7.321-3.323-10.552-1.062,7.09-.785,14.306-2.304,21.352-.792-5.278-1.17-10.625-3.636-15.62Z" fill="#363436"/>
      <path d="m160.181,72.419c-12.201,5.002-26.814,11.845-43.738,12.863,18.867,6.197,39.214-7.954,43.738-12.863Z" fill="#363436"/>
      <path d="m151.341,62.628c-12.887,5.081-18.344,5.914-24.078,6.422,12.578-7.074,17.294-15.306,17.294-15.306,0,0-31.63,17.295-48.288,17.352,12.681,8.266,42.924,3.457,55.071-8.468Z" fill="#363436"/>
      <path d="m154.513,308.452c16.27,18.648,8.346-12.529,6.351-20.461-2.915-9.622-10.071-14.273-19.385-16.297-2.71-.282-4.936-1.337-7.573.526,7.79,2.585,14.626,5.738,18.172,13.236-2.382-1.686-4.056-4.412-7.675-5.001,1.919,3.026,3.628,5.721,5.337,8.415-1.678-.261-2.69-1.718-4.593-2.001.507,2.247,2.478,3.459,3.135,5.756-3.587-.682-6.965-1.508-10.314-2.5-3.392-1.004-6.378-2.681-8.917-5.462-.549,3.716,3.488,7.562,6.071,9.778,6.36,4.928,14.618,7.13,19.39,14.012Z" fill="#363436"/>
      <path d="m153.819,363.627c1.977.068,1.917-2.991-.015-2.903-1.962-.113-1.92,2.946.015,2.903Z" fill="#363436"/>
      <path d="m146.801,366.618c.78.179,1.018-1.062.302-1.266-.884-.313-1.263,1.193-.302,1.266Z" fill="#363436"/>
      <path d="m136.496,350.696c-.01,2.123,3.262,1.845,3.024-.154-.143-1.853-3.114-1.762-3.024.154Z" fill="#363436"/>
      <path d="m114.738,307.918c6.925,6.226,14.624,11.019,23.048,15.107-16.042-12.805-21.748-19.883-24.407-26.618,3.256,3,9.325,11.982,19.725,14.93-.007-.979-29.583-26.316-25.833-36.779.728-2.037,2.354-5.406,4.013-8.607-19.708,4.073-19.681,29.566-18.547,29.815,1.803-4.467,3.547-7.693,4.768-9.263,2.324,20.729,22.543,45.138,43.19,43.94-11.741-4.398-20.541-11.075-25.956-22.525Z" fill="#363436"/>
      <path d="m100.239,365.139c.104-1.767-2.944-1.889-2.634-.02.056,1.428,2.671,1.485,2.634.02Z" fill="#363436"/>
      <path d="m180.361,354.767c3.297.104,3.001-4.317-.099-4.376-3.414-.164-3.246,4.438.099,4.376Z" fill="#363436"/>
      <path d="m172.364,328.125c-.11-1.161.23-2.701-1.28-3.318-1.469-.6-2.51.498-3.343,1.483-2.476,2.926-4.907,5.893-7.272,8.91-3.148,4.316-6.669,8.248-10.65,11.808-1.051,1.812,1.824,1.465,2.817,1.156,9.479-2.642,19.469-9.165,19.727-20.039Z" fill="#363436"/>
      <path d="m155.404,353.79c.164,2.461,3.881,2.218,3.698-.246-.158-2.246-3.846-2.015-3.698.246Z" fill="#363436"/>
      <path d="m112.462,374.641c-2.428.064-2.216,3.899.121,3.918,2.624-.024,2.421-3.949-.121-3.918Z" fill="#363436"/>
      <path d="m133.012,362.4c.11,2.254,3.679,2.049,3.429-.228-.166-2.179-3.461-1.947-3.429.228Z" fill="#363436"/>
      <path d="m101.516,374.111c.18-2.25-3.482-2.017-3.168.098.185,1.835,3.17,1.824,3.168-.098Z" fill="#363436"/>
      <path d="m108.707,337.566c-.117,2.192,3.253,2.564,3.14.314.104-1.709-3.181-2.203-3.14-.314Z" fill="#363436"/>
      <path d="m112.6,363.256c-3.151.003-2.992,4.797.027,4.883,3.223.159,3.211-5.014-.027-4.883Z" fill="#363436"/>
      <path d="m127.453,358.688c.135-3.404-5.473-3.489-5.263.022.128,3.406,5.116,3.274,5.263-.022Z" fill="#363436"/>
      <path d="m125.14,343.561c-.007-2.592-3.935-2.659-4.043-.075-.171,2.725,4.126,2.829,4.043.075Z" fill="#363436"/>
    </g>
  </g>
</svg>