<?xml version="1.0" encoding="UTF-8"?>
<svg id="b" data-name="Layer 2" xmlns="http://www.w3.org/2000/svg" width="500" height="411.885" viewBox="0 0 500 411.885">
  <g id="c" data-name="raccoon">
    <path d="m314.365,285.164c-2.19-.231-4.363.732-6.433-.703,3.624-2.545,11.857-2.293,11.857-2.293,0,0-.602,8.454-10.071,8.8,3.814-3.308,3.849-4.193,4.648-5.805Zm-24.762-8.25c.271.138,5.762-6.412,9.655-4.744-.282.859-.282,1.248-2.224,2.477,2.915,1.068,5.11.635,6.252.755.23,1.563-1.119,2.57-4.193,4.049,8.545.37,8.625-1.058,15.558-4.36-.996-1.06-3.776-.788-5.1-.51-1.11.296-1.1-.376-1.061-1.093-.804.165-1.28.835-2.196.793.649-2.018,3.033-1.367,3.646-5.45-1.278,1.275-2.563,2.277-4.471,2.643,3.157-2.996,3.471-5.995,3.157-5.72-2.249,1.955-6.666,3.589-9.629,3.48-8.711-.16-9.665,7.546-9.396,7.682Zm42.954-6.178c1.117.213,38.341-18.712,88.785-22.052-4.483-2.253-16.342-3.568-17.312-4.3,5.71-2.213,12.191-1.274,18.009.2,1.794.516,3.616.857,5.52.699-5.452-3.123-11.259-7.985-17.639-8.487-29.871.729-59.555,10.466-85.324,25.542-3.296,1.667-4.897,4.79-7.055,7.643,5.031.676,9.992-.435,15.017.755Zm-50.541-18.527s10.046-4.08,11.544,4.226c.5-.059.606-.362.71-.671,3.58-11.388-11.642-11.153-17.405-4.83,5.915-1.887,6.032-1.603,8.222-1.758-.134.853-3.071,3.033-3.071,3.033Zm-105.977,10.129c-25.769-15.076-55.453-24.813-85.324-25.542-6.38.502-12.186,5.364-17.639,8.487,1.904.158,3.726-.183,5.52-.699,5.818-1.474,12.299-2.413,18.009-.2-.97.732-12.829,2.047-17.312,4.3,50.444,3.34,87.667,22.264,88.785,22.052,5.025-1.19,9.986-.078,15.017-.755-2.158-2.853-3.759-5.976-7.055-7.643Zm220.278-26.875c5.493-.534,10.446-1.26,15.762-3.077,4.537-1.33,9.094,1.523,12.04-1.252-5.866-.01-9.345-8.573-24.624-5.305-.509.083-1.481.65-1.725-.061,4.18-4.087,10.829-6.481,17.644-7.426-20.32-10.947-69.317,20.235-86.76,32.558-2.039,1.475-9.518,8.809-11.072,11.333,2.339-.459,4.516-.973,6.35-2.106,21.997-13.3,46.868-21.669,72.383-24.665Zm-194.776,43.986c-3.074-1.479-4.423-2.486-4.193-4.049,1.143-.12,3.337.313,6.252-.755-1.942-1.228-1.942-1.618-2.224-2.477,3.894-1.668,9.384,4.882,9.655,4.744.269-.136-.685-7.843-9.396-7.682-2.963.109-7.379-1.525-9.629-3.48-.314-.275,0,2.724,3.157,5.72-1.908-.366-3.193-1.368-4.471-2.643.614,4.083,2.997,3.433,3.646,5.45-.916.042-1.392-.627-2.196-.793.039.717.049,1.389-1.061,1.093-1.324-.278-4.104-.55-5.1.51,6.933,3.302,7.013,4.73,15.558,4.36Zm5.534-23.015c1.498-8.305,11.544-4.226,11.544-4.226,0,0-2.937-2.18-3.071-3.033,2.189.155,2.306-.129,8.222,1.758-5.763-6.323-20.985-6.558-17.405,4.83.104.308.21.612.71.671Zm206.957-117.781c.001-.428-22.95-12.851-42.611-6.466,2.718-6.322,14.351-13.023,14.351-13.023,0,0-20.043,4.372-32.621,11.696,3.667-7.144,6.512-11.063,12.005-17.617-.855-.483-21.122,15.551-27.428,26.116-2.413,3.627-5.518,12.391-5.146,12.577.336.169,7.103-11.151,12.35-15.956-1.729,3.976-2.092,10.473-2.092,10.473,0,0,9.805-11.421,21.877-15.629-1.806,2.702-5.391,10.07-6.366,11.324,12.114-5.985,39.166-6.527,55.681-3.495Zm-101.944-40.028c-13.353,3.416-17.785,10.142-22.583,17.65-.557-3.03.065-8.58,2.078-12.55-12.737,8.26-14.48,21.156-14.612,33.147.018.332,5.255-13.967,7.66-16.307-.01,4.015,2.844,16.942,3.862,18.77,1.728-29.17,24.414-40.92,23.595-40.711Zm85.709,14.72c-5.311-8.835-13.396-17.089-23.7-19.506-9.52-2.133-23.987,5.189-23.987,5.189,0,0,18.476-2.569,25.257.738-1.385.71-4.875.39-8.533,2.787,10.027,1.242,10.677.462,30.963,10.792Zm-40.307-25.766c-2.018-1.341-11.644-5.892-14.817-5.817,3.917-4.415,4.078-15.122,3.9-14.813-7.688,11.326-20.966,17.044-28.421,28.761,21.27-9.788,39.808-7.811,39.337-8.131Zm12.461-9.385c-.575.784-9.34,4.553-9.34,4.553,0,0,15.139-.039,21.78,1.934-10.665-.449-15.994.656-22.613,2.669,16.433,2.537,26.702,7.931,38.874,21.827.394.451-4.979-10.225-6.037-11.829,4.59,2.028,10.524,8.385,10.524,8.385,0,0-3.07-10.059-7.405-12.215,2.735-1.101,6.996-2.916,11.423-6.643-2.673.259-5.202.956-7.853.781,9.34-4.659,14.085-6.609,18.115-11.679,0,0-9.1,1.755-16.054,2.21,8.32-3.64,10.205-4.55,17.085-11.086,0,0-5.51.441-7.689.099,3.059-2.478,7.83-9.186,7.83-9.186,0,0-7.79,3.036-9.57,2.596,9.959-6.733,10.804-19.472,10.804-19.472,0,0-6.481,2.057-8.693,1.69,4.729-3.25,5.068-7.948,4.644-7.605-3.095,1.902-6.348,3.63-9.896,4.292-15.303,2.857-17.968,5.782-24.544,12.718.033-2.313,1.966-8.396,1.966-8.396,0,0-9.299,4.385-14.362,16.107-.266-1.908-.266-3.533-.685-4.73-6.49,6.599-13.56,14.063-14.725,23.652,2.145-.877,9.555-2.762,16.424-.675Zm15.884,81.114c8.473,3.058,17.228,9.825,22.942,16.604,10.248,13.552,22.988,13.181,21.959,13.005-8.093-3.154-15.092-11.845-19.381-19.262-2.09-3.958-8.504-10.15-8.45-10.265,6.88.539,12.068,6.057,18.936,6.798,1.056.059,4.488-.125,4.488-.125,0,0-6.81-4.812-9.604-7.405-12.692-13.928-32.091-14.648-45.577-5.534,0,0,12.981-4.183,24.764-.353-1.462.435-6.491,1.77-10.076,6.538Zm44.349,36.978c-10.944-1.42-17.105-10.926-23.868-18.547-7.773-8.949-18.75-8.462-18.75-8.462,0,0,9.468,5.553,12.666,8.687,7.604,6.835,18.642,20.953,29.952,18.321Zm-327.319,29.48c-.244.711-1.216.144-1.725.061-15.278-3.267-18.758,5.295-24.624,5.305,2.946,2.775,7.503-.078,12.04,1.252,5.316,1.817,10.269,2.542,15.762,3.077,25.515,2.996,50.386,11.364,72.383,24.665,1.834,1.133,4.011,1.647,6.35,2.106-1.554-2.524-9.033-9.858-11.072-11.333-17.442-12.323-66.44-43.505-86.76-32.558,6.815.945,13.464,3.339,17.644,7.426Zm227.587-108.833c0-12.564,6.149-20.447,6.149-20.447,0,0-15.253,6.19-22.331,17.302.527-3.057,3.502-11.683,3.502-11.683,0,0-25.819,23.253-20.35,47.248.177.749,3.252-17.699,12.121-28.498-1.153,4.819-1.343,8.359-.535,13.291,0,0,6.463-15.426,14.137-18.079-4.442,18.051-4.79,19.858-4.075,22.42,3.108-6.381,7.193-10.835,13.018-14.767-4.985,5.746-5.199,21.033-5.199,21.033,4.26-14.655,15.134-27.805,22.727-36.284,0,0-7.024.387-19.165,8.463Zm-137.749,167.525c-3.624-2.545-11.857-2.293-11.857-2.293,0,0,.602,8.454,10.071,8.8-3.814-3.308-3.849-4.193-4.648-5.805,2.19-.231,4.363.732,6.433-.703Zm-139.468-22.365c3.597,2.394,18.572,1.255,22.144-1.008-.972-.508-21.605.464-22.144,1.008Zm255.738,59.067s-15.624,12.365-24.787,12.829c8.992,2.616,24.997-2.58,30.066-13.08,0,0-5.754,4.126-8.105,5.645-.098-.102,2.274-2.836,2.827-5.394Zm-114.483,5.394c-2.351-1.519-8.105-5.645-8.105-5.645,5.069,10.5,21.074,15.696,30.066,13.08-9.163-.464-24.787-12.829-24.787-12.829.552,2.558,2.925,5.292,2.827,5.394Zm-71.338-68.158c-15.312-3.902-30.974-7.165-46.848-7.04-2.664.07-5.62,4.623-7.653,6.377,9.672-.372,20.613,2.35,20.66,2.688.048.342-5.551,2.061-8.127,6.841,29.213.601,58.477,5.231,86.601,13.615,1.009.295,1.802.295,2.703-.323l6.92-3.66c-17.125-8.482-35.889-13.344-54.257-18.498Zm345.501,1.225c2.885,3.382,11.802,2.823,11.802,2.823,0,0-2.615,12.312-22.065,16.166.066.626,2.33,3.982,13.342,7.186-8.116,5.739-16.395,5.038-24.726,3.856,2.193,1.86,8.008,8.526,8.179,13.807-8.006-5.962-14.88-8.897-22.009-8.223,7.222,3.891,13.065,10.522,13.576,19.04-5.451-4.855-15.313-8.284-23.764-8.603.085.729,5.707,2.215,6.105,8.607-9.145-2.168-18.577-4.337-28.03-3.348-.149.687,5.741,1.981,7.615,8.369-8.517-4.599-15.587-4.514-18.647-4.156.065.693,7.063,3.304,8.507,10.322.109.532-24.441-12.042-41.646-3.91-.748.354-1.363.611-1.824,1.289-3.293,4.965-2.264,13.234-9.695,16.539,2.065-6.712.605-8.313-.592-10.445-.745.007-8.586,14.807-8.586,14.807,0,0-2.385-3.237-2.237-8.763-.83,19.24-6.937,22.596-8.581,23.839.674-4.612-1.137-7.085-3.729-9.719-.864,1.821-1.194,3.57-1.461,5.318-1.237,7.265-4.525,19.238-10.519,23.557,1.074-4.112.077-5.54-.775-6.472-4.98,9.344-15.361,13.923-15.361,13.923,0,0,.569-4.146.204-5.766-7.369,12.003-15.867,15.614-15.867,15.614,0,0,.236-5.825-2.571-7.579-1.878,9.675-14.228,18.193-14.228,18.193,0,0,1.448-6.388-1.272-8.324-2.71,5.31-5.939,9.82-9.483,14.314-3.53-4.512-6.828-9.012-9.473-14.272-1.099,2.091-1.758,3.993-2.219,5.971-.146.562-.046,1.463-.678,1.71-.56.161-.763-.348-.984-.731-3.256-5.647-7.856-10.38-10.963-16.128-.144-.267-.286-.588-.765-.606-.315,2.72-1.503,5.138-2.561,7.6-.281,1.047-1.358,1.167-1.655.035-1.6-3.832-4.241-6.881-7.221-9.686-2.343-1.976-4.273-4.596-6.79-6.271-1.09,2.289.832,5.584-.009,5.977-.471.277-.848-.152-1.175-.444-4.971-4.211-9.786-8.631-14.036-13.533-1.285.485.749,7.792-1.422,6.287-5.214-4.846-8.579-15.44-9.778-22.483-.34-2.017-.642-4.056-1.642-6.219-2.17,2.328-3.723,4.686-3.814,7.828-.019.65.471,1.68-.304,1.895-.887.246-1.093-.894-1.46-1.506-4.007-6.371-4.008-14.01-6.207-21.003-.117-.347-.069-.788-.686-1.044-.304,2.087-.603,4.131-.9,6.174-.177.648.087,1.857-.794,1.95-.707.035-.711-.777-.874-1.304-1.569-5.059-4.997-8.905-7.852-13.36-2.187,3.228-2.699,7.211-.679,10.519-.84.394-1.029-.168-1.293-.452-4.379-4.218-5.194-10.365-8.194-15.418-.651-1.05-1.467-1.666-2.689-1.95-13.46-3.131-26.469-1.54-39.154,3.639-.613.25-1.356,1.05-1.897.392-.52-.632.342-1.266.727-1.805,2.244-3.143,4.566-6.222,8.398-8.423-6.021.175-11.339,2.423-17.137,3.683-.434.113-.931.327-1.257-.101-.934-1.332,4.56-5.694,5.643-6.663.38-.301.916-.459,1.118-1.138-9.327-1.166-18.61,1.144-27.657,3.14-2.009.869-2.992-.068-1.721-1.993,1.41-3.16,3.778-5.668,6.45-7.807-.598-1.38-8.579,1.188-9.923,1.78-4.322,1.679-8.589,3.481-12.745,5.543-.594.295-1.326.997-1.924.366-.582-.616.172-1.301.46-1.89,3.051-6.728,8.174-11.659,14.874-14.803-7.373-.852-14.357,2.247-21.024,4.964-.66.273-1.494,1.108-2.076.336-.515-.683.378-1.385.783-1.995,2.132-3.588,5.36-5.925,8.138-8.923-7.876.9-17.728.289-24.448-3.771-.044-.465.379-.651.731-.78,4.559-1.806,8.832-3.532,12.897-6.481-7.869-3.569-15.1-8.033-21.096-14.225-.544-.585-1.567-1.143-1.13-2.034.356-.726,1.406-.395,2.16-.435,2.955-.297,6.94-.382,9.247-2.39-11.961,1.464-22.026-6.297-30.66-13.547-.612-.334-1.665-1.595-.338-1.655,3.969.256,8.064.433,11.887-.787,6.486-2.312,13.071-6.066,16.499-12.159-5.001-.406-10.143-.662-14.786-2.782-1.816-.851-6.989-3.634-3.188-5.278,9.653-4.093,16.766-11.613,22.045-20.544-.916-.282-1.64-.08-2.37.019-2.85.386-5.658.318-8.352-.843-.689-.415-1.99-.552-2.032-1.525.039-.505.598-.631.981-.844,5.362-2.98,8.862-7.727,12.158-12.558-.251-.751-.787-.594-1.194-.692-5.258-1.266-9.756-4.092-13.137-8.321-2.705-3.3,6.765.23,16.088-6.897,4.359-3.117,8.51-6.485,12.035-10.553,2.082-2.403,2.057-2.432-.956-3.145-2.449-.579-4.858-1.276-7.1-2.447-1.562-.742-8.572-5.636-4.238-6.548,8.793-2.81,16.515-8.235,21.219-16.233-3.715-.549-7.062.776-10.071,2.724-.319.202-.701.544-1.054.302-.45-.309-.264-.809-.064-1.223,2.196-4.544,4.581-8.946,8.532-12.285,1.868-1.579,3.739-3.17,5.313-5.062,3.329-3.247-2.55-1.512-8.773-7.103-3.313-2.622.862-1.609,2.472-2.409,5.523-2.014,8.309-7.428,13.494-10.087-9.964-9.45-12.599-19.539-14.778-32.622-.915-4.549,1.918-.514,3.998-.153-1.324-4.603-2.818-8.552-2.608-13.287.174-3.805-.539-7.846.965-11.471.604-1.281.988-1.362,1.947-.345,1.236,1.312,2.519,2.561,4.108,3.7-.924-5.248-2.64-10.345-2.418-15.809.017-5.733-.206-11.472.443-17.179-.045-1.228.761-1.76,1.578-.69,1.065.932,2.189,1.762,3.668,2.336-.194-1.509-.374-2.841-.534-4.176-.306-1.054.01-9.003,2.009-6.882,10.689,10.52,29.131,7.207,41.995,15.019.184-1.978-2.136-3.008-1.733-3.767.269-.516.804-.277,1.222-.174,7.504,1.324,13.549,5.713,19.02,10.823.374.313.694.741,1.384.883-.046-1.325.374-7.005,2.388-4.436,2.265,3.102,5.389,4.931,8.932,6.131,2.129.721,4.242,1.48,6.418,2.371.453-.884-3.485-5.389-.932-4.727,7.742,4.521,16.422,4.379,25.029,5.208-.408-1.33-1.23-2.356-1.576-3.591-.238-.8-1.012-3.654.656-2.811,1.367.974,2.214,2.111,4.074,2.502-.977-2.408-2.131-4.635-1.904-7.24.318.025.567-.034.676.064,4.124,3.713,9.157,5.375,14.458,6.449,5.598,1.271,10.878.632,16.489,2.533-.619-1.505-1.508-2.477-2.295-3.511-.257-.338-.741-.665-.329-1.148.286-.335.728-.182,1.09-.07,7.674,2.392,15.518,4.306,22.755,7.936,1.112.558,2.132.66,3.315.358,7.409-1.896,14.808-1.691,22.141.369.908.255,1.751.375,2.617.368.867-.007,1.757-.14,2.658-.391,7.339-2.04,14.733-2.217,22.148-.349.864.218,1.691.418,2.609-.056,7.318-3.74,18.742-8.466,24.784-8.036-.779,1.501-2.164,2.647-2.829,4.227,8.198-2.896,23.476-1.3,31.501-8.662,1.001,3.403-1.321,5.565-1.694,7.122,1.593-.372,3.43-1.563,4.657-2.478.681,4.324-1.161,5.365-1.636,6.37,5.8-1.846,18.332-.525,25.731-5.059-.112,2.612-1.389,3.52-2.088,4.839,3.583-1.714,7.075-2.395,10.208-4.032,2.139-1.118,5.227-3.265,6.703-5.201,0,0,1.401,2.723.48,5.565,9.73-11.131,22.285-12.201,22.285-12.201,0,0-1.448,1.381-1.707,3.54.457.273,12.078-4.533,18.01-5.573,8.217-1.772,18.874-3.368,25.035-9.708,1.241,3.003,1.41,7.857,1.041,9.089-.093.695-.569,1.547-.363,2.349,1.349-.405,4.527-2.711,4.527-2.711,0,0,6.926,18.099-1.44,34.15,1.315-.844,5.883-4.661,5.883-4.661,2.319,6.201,1.311,18.351-1.048,24.629l3.712-1.788s1.1,26.149-14.724,35.793c-.003.664,7.166,7.061,11.027,9.252,1.516.893,3.088,1.603,4.898,1.581-3.507,8.057-6.574,7.035-9.299,7.802,5.438,4.73,13.117,10.987,14.286,19.694-3.894-1.467-6.961-2.915-11.317-2.955,4.853,8.117,12.716,13.737,21.763,16.387-4.035,6.566-10.276,8.293-14.357,9.619,2.572,12.193,24.843,18.017,29.519,18.234-2.588,6.224-8.529,9.09-13.916,10.135-.193.299,7.037,10.47,12.324,13.3-4.061,4.764-8.064,3.657-11.98,2.893,4.623,9.148,14.313,17.759,23.762,21.887-6.473,7.069-12.946,6.984-19.788,6.702,3.69,8.715,17.336,14.49,28.321,13.016-3.593,7.708-19.047,16.745-31.349,15.229ZM400.868,22.232c8.207-1.578,6.866.316,15.547.079s10.18-10.654,10.18-10.654c0,0-4.577,5.13-12.942,6.708s-12.785,3.867-12.785,3.867Zm-109.042,44.771c3.58-7.982,8.255-14.476,14.576-18.733-1.514,2.193-2.282,4.24-2.105,6.1,3.657-2.795,7.283-4.592,10.851-4.427-1.254,3.94-6.359,8.493-11.814,13.101,19.876-6.01,18.772-23.189,18.772-23.189-2.134,2.859-4.659,4.914-7.768,5.769,6.046-6.424,3.932-11.604,3.932-11.604-3.896,7.399-6.847,5.503-17.266,12.36-10.419,6.856-9.178,20.622-9.178,20.622Zm-20.373,11.456c-1.121-4.509-1.81-10.992-.573-14.534,1.188,4.751,4.373,6.37,8.206,10.166.639-10.063,5.048-19.413,13.471-28.006-4.153,1.116-8.567,4.588-13.183,9.868.546-2.933,2.902-6.622,5.715-10.501-6.06,3.342-10.15,8.478-12.096,15.567-1.761-3.378-2.314-7.126-1.777-11.208,0,0-12.962,13.821.237,28.648Zm-7.74,1.142c-4.952-11.143-5.653-21.034-1.73-29.564,0,0-13.93,15.111,1.73,29.564Zm-7.5,159.029c2.71-2.152,5.177-4.747,8.406-6.046,13.838-5.426,21.672,4.534,30.256-.791-4.925,1.326-9.755-1.163-13.93-3.449,3.48-.17,7.636.985,11.114-1.241-7.994-.643-15.305-2.807-22.903-.022-.36.118-.715.453-1.303.176,2.349-2.158,4.8-3.948,7.247-5.888-2.093-.534-17.46,5.548-18.886,17.263Zm35.273-23.11c-3.333-2.067-5.075-5.489-7.367-8.569-2.874,4.398,6.42,18.601,11.467,13.263,3.848-3.455,5.61-8.798,9.858-11.849,11.452-8.223,26.394-1.543,32.653-3.134-6.769-1.877-9.776-2.555-10.021-3.184,2.24-.405,8.045.084,9.942-1.471-11.993-1.189-26.677-1.9-36.56,6.093-2.28,2.082-8.276,6.629-12.194,1.807.119,2.538.871,4.872,2.221,7.043Zm53.662.227c3.76-2.036,7.292-1.785,13.309-1.743-8.637-5.913-20.076-2.171-24.321,7.172,10.298-2.88,9.482-2.981,19.069-2.319-1.725-1.56-5.836-2.587-8.057-3.111Zm-13.918-5.17c-5.868,15.012-15.2,17.664-31.504,14.799-.496,2.011,7.281,4.921,12.43,4.921s19.683-6.441,19.074-19.719Zm-3.279,15.818c-.528-.3-6.818,5.095-10.735,5.306.146.912,5.75,1.288,7.772.394,2.719-1.202,3.442-5.427,2.963-5.7Zm-3.456-11.923c1.955-1.818,2.182-2.965,2.835-4.286.603-1.221.417-1.738-.809-2.266-1.677-.722-7.432-1.403-10.054.385,5.427.864,6.6,3.617,8.028,6.167Zm-136.018,15.824c5.149,0,12.926-2.91,12.43-4.921-16.304,2.865-25.636.213-31.504-14.799-.609,13.278,13.925,19.719,19.074,19.719Zm-15.795-3.901c-.479.273.243,4.498,2.963,5.7,2.022.894,7.626.518,7.772-.394-3.917-.211-10.207-5.606-10.735-5.306Zm.621-16.209c.653,1.321.88,2.469,2.835,4.286,1.428-2.55,2.601-5.304,8.028-6.167-2.623-1.788-8.378-1.107-10.054-.385-1.226.528-1.412,1.045-.809,2.266Zm31.744,10.029c5.047,5.338,14.341-8.866,11.467-13.263-2.292,3.08-4.034,6.501-7.367,8.569,1.35-2.171,2.103-4.505,2.221-7.043-3.918,4.822-9.914.275-12.194-1.807-9.883-7.993-24.567-7.283-36.56-6.093,1.897,1.555,7.702,1.066,9.942,1.471-.245.629-3.252,1.307-10.021,3.184,6.259,1.591,21.201-5.089,32.653,3.134,4.248,3.05,6.01,8.393,9.858,11.849Zm-49.562-4.467c-2.221.524-6.332,1.55-8.057,3.111,9.587-.663,8.771-.561,19.069,2.319-4.244-9.344-15.683-13.086-24.321-7.172,6.016-.042,9.549-.293,13.309,1.743Zm50.273,16.045c8.584,5.325,16.418-4.635,30.256.791,3.229,1.299,5.695,3.893,8.406,6.046-1.427-11.714-16.793-17.796-18.886-17.263,2.448,1.94,4.898,3.73,7.247,5.888-.589.277-.944-.058-1.303-.176-7.599-2.784-14.91-.621-22.903.022,3.478,2.227,7.635,1.072,11.114,1.241-4.175,2.286-9.005,4.776-13.93,3.449Zm31.161-152.192c15.66-14.453,1.73-29.564,1.73-29.564,3.924,8.529,3.223,18.42-1.73,29.564Zm-15.66-23.647c-4.616-5.28-9.03-8.752-13.183-9.868,8.423,8.592,12.832,17.943,13.471,28.006,3.833-3.796,7.018-5.415,8.206-10.166,1.237,3.542.548,10.025-.573,14.534,13.199-14.826.237-28.648.237-28.648.537,4.082-.016,7.83-1.777,11.208-1.946-7.09-6.036-12.226-12.096-15.567,2.813,3.88,5.17,7.569,5.715,10.501Zm-23.961,7.091c-5.455-4.608-10.56-9.161-11.814-13.101,3.568-.165,7.194,1.631,10.851,4.427.176-1.861-.591-3.907-2.105-6.1,6.321,4.257,10.996,10.751,14.576,18.733,0,0,1.242-13.766-9.178-20.622-10.419-6.856-13.37-4.96-17.266-12.36,0,0-2.115,5.179,3.932,11.604-3.109-.855-5.635-2.91-7.768-5.769,0,0-1.103,17.179,18.772,23.189ZM74.038,11.657s1.499,10.417,10.18,10.654,7.339-1.657,15.547-.079c0,0-4.419-2.289-12.785-3.867s-12.942-6.708-12.942-6.708Zm16.088,267.334c-15.697,6.132-20.985,5.921-29.601,6.278,2.671,2.637,12.11,1.543,15.65.616-.948,1.568-5.362,2.847-7.154,3.603-.638.222-1.423.245-1.844,1.071,5.918,2.076,19.522-6.734,22.949-11.568Zm55.845,34.198c-6.308-1.914-12.688-2.288-19.2-1.925.268-.866,2.314-2.667.728-3.096-3.882-.968-8.139-.687-11.924-1.341.244-1.61,4.105-3.317,5.503-4.089.876-.282.543-1.287-.325-.901-4.569,1.446-9.719,3.609-12.167,7.81,4.549-.114,9.052.335,13.494,1.489.125.543-.41.688-.729.939-1.163.917-2.36,1.795-3.339,2.917-.32.366-.891.73-.608,1.297.328.657.924.192,1.375.105,6.942-1.296,13.829-3.206,20.948-3.115,2.015.026,3.955.463,5.92.781.426.069.87.317,1.326-.02.074-.746-.557-.734-1.003-.851Zm26.143,16.677c.007-6.595-5.987-14.39-15.34-16.919,1.995,1.658,4.226,3.915,7.483,7.31-4.261-2.113-5.37-1.178-5.37-1.178-.45,4.33,3.118,10.15,5.127,12.09.046-1.671-1.729-7.192-1.386-9.111,5.058,1.871,8.003,5.439,9.486,7.808Zm148.361-.256s-7.344,7.483-13.442,9.146c-1.128.291-1.379,2.078-1.732,3.118-.751,2.211-1.909,3.99-3.152,5.95-6.877,10.283-12.829,22.946-25.082,27.635-.259-1.897-.208-2.857-.208-2.857-4.971.765-8.033,2.173-12.472,4.989-.661-.941-.243-3.43-.243-3.43-4.093.704-4.692,3.159-8.052,5.653-1.893-3.141-3.839-3.685-5.777-3.681-1.938-.003-3.883.54-5.777,3.681-3.36-2.494-3.959-4.949-8.052-5.653,0,0,.418,2.489-.243,3.43-4.439-2.815-7.501-4.224-12.472-4.989,0,0,.052.96-.208,2.857-12.252-4.69-18.205-17.352-25.082-27.635-1.243-1.959-2.401-3.739-3.152-5.95-.353-1.04-.605-2.827-1.732-3.118-6.097-1.663-13.442-9.146-13.442-9.146,0,0,.919,1.793,1.331,4.049.193,9.6,7.919,17.014,7.919,17.014,0,0-.224-2.574.002-3.194,3.1,7.959,8.053,13.017,8.516,13.479.011.018.024.032.039.038,0,0-.016-.015-.039-.038-.214-.34.164-2.671.569-3.467,3.385,8.078,13.916,18.021,13.916,18.021,0,0-.035-1.213.293-2.117,2.686,2.845,4.733,3.801,7.078,4.374,5.239,1.45,12.688,7.235,12.688,7.235l.243-3.603c1.435,2.535,3.899,4.332,7.033,5.647,0,0,0-2.598,1.864-3.501.945,1.393,2.165,3.145,3.714,3.847.243-1.143.554-1.975,1.279-2.738.869,2.738,2.232,4.096,3.716,5.979,1.484-1.883,2.847-3.241,3.716-5.979.725.764,1.036,1.595,1.279,2.738,1.549-.702,2.768-2.454,3.714-3.847,1.864.903,1.864,3.501,1.864,3.501,3.134-1.315,5.597-3.111,7.033-5.647l.243,3.603s7.448-5.785,12.688-7.235c2.345-.573,4.391-1.529,7.078-4.374.328.905.293,2.117.293,2.117,0,0,10.532-9.943,13.916-18.021.405.796.782,3.127.569,3.467-.023.023-.039.038-.039.038.015-.006.027-.02.039-.038.463-.462,5.416-5.52,8.516-13.479.226.62.002,3.194.002,3.194,0,0,7.725-7.414,7.919-17.014.413-2.256,1.331-4.049,1.331-4.049Zm-102.545,31.385c5.081,5.878,17.415,11.232,32.387,11.232s27.306-5.354,32.387-11.232c-13.015,6.238-22.693,9.146-32.387,9.146s-19.372-2.909-32.387-9.146Zm32.387,2.599c9.084-.099,18.393-1.841,26.439-4.987-.676-2.365-1.375-3.699-3.984-5.335,0,0-4.6,3.464-6.269,3.779-1.911-3.062-4.505-5.407-4.505-5.407,0,0-2.113,4.608-4.542,5.99-.897-2.387-2.329-4.743-2.329-4.743,0,0-3.264,3.952-4.81,5.042-1.546-1.09-4.81-5.042-4.81-5.042,0,0-1.432,2.356-2.329,4.743-2.429-1.383-4.542-5.99-4.542-5.99,0,0-2.595,2.345-4.505,5.407-1.668-.315-6.269-3.779-6.269-3.779-2.609,1.636-3.308,2.97-3.984,5.335,8.046,3.147,17.355,4.888,26.439,4.987Zm34.251-15.824c.565-.938,3.296-4.601,1.101-4.737-13.31-.425-23.443-1.566-35.353-1.566s-22.043,1.142-35.353,1.566c-2.195.135.536,3.799,1.101,4.737,1.495,2.044,3.785,3.851,5.883,5.278.258-3.486.516-5.68,1.592-8.563,1.162,2.41,4.174,4.734,6.369,5.938,1.512-2.439,3.109-4.654,4.863-6.455,2.19,2.39,5.393,4.241,9.209,5.766,1.678-2.711,4.091-5.657,6.336-7.021,2.245,1.364,4.658,4.31,6.336,7.021,3.815-1.526,7.019-3.376,9.209-5.766,1.753,1.801,3.35,4.015,4.863,6.455,2.195-1.205,5.207-3.529,6.369-5.938,1.076,2.883,1.334,5.078,1.592,8.563,2.098-1.427,4.388-3.234,5.883-5.278Zm51.808-27.514c3.256-3.395,5.488-5.652,7.483-7.31-9.354,2.529-15.347,10.324-15.34,16.919,1.483-2.369,4.428-5.937,9.486-7.808.343,1.919-1.431,7.441-1.386,9.111,2.009-1.94,5.578-7.76,5.127-12.09,0,0-1.109-.935-5.37,1.178Zm55.671-10.61c-2.448-4.201-7.598-6.364-12.167-7.81-.868-.386-1.201.619-.325.901,1.398.772,5.259,2.479,5.503,4.089-3.785.654-8.042.373-11.924,1.341-1.586.429.46,2.23.728,3.096-6.511-.363-12.891.011-19.2,1.925-.447.117-1.077.105-1.003.851.457.337.901.089,1.326.02,1.966-.319,3.906-.756,5.92-.781,7.119-.091,14.006,1.819,20.948,3.115.451.088,1.047.552,1.375-.105.284-.568-.288-.931-.608-1.297-.979-1.122-2.176-2-3.339-2.917-.319-.252-.854-.396-.729-.939,4.442-1.153,8.945-1.603,13.494-1.489Zm48.06-24.378c-8.616-.357-13.904-.145-29.601-6.278,3.427,4.834,17.03,13.644,22.949,11.568-.421-.826-1.206-.849-1.844-1.071-1.791-.756-6.205-2.036-7.154-3.603,3.541.927,12.98,2.021,15.65-.616Zm30.236-39.716c-.09-.288-9.399-3.293-12.603-6.812-4.776-5.519-9.651-14.067-9.849-21.412,8.2,4.633,15.367,3.617,14.789,3.044-15.039-14.92-18.017-23.054-22.85-35.37,4.107.53,7.226,2.575,13.075,7.45-1.371-7.574-7.085-14.559-15.101-20.144,1.478.439,4.246.84,8.285,1.212-9.564-7.912-22.719-18.697-24.364-28.342,9.535,3.271,15.705-.808,15.705-.808-7.73-4.63-14.496-12.929-15.66-18.67.331-.211,10.464,3.38,10.464,3.38,0,0-4.42-10.985-17.368-15.139,3.594-.931,13.013.059,13.013.059-3.445-8.255-5.785-12.739-13.957-18.481,16.882-2.773,22.177-19.814,22.177-19.814,0,0-6.36,2.01-9.48,1.638,3.492-5.899,7.824-15.342,8.929-23.466-1.642.734-10.27,3.315-10.27,3.315,8.131-18.996,7.252-33.955,7.252-33.955-5.497,2.691-16.231,8.587-24.351,7.926-8.527-.59-18.324,1.849-26.206,5.774.633-1.218,2.222-5.363,2.222-5.363,0,0-12.344,5.273-18.389,14.958.13-2.665.26-3.575.325-5.46-10.462,2.709-14.624,8.19-18.037,16.456-.422-3.587.228-7.682,2.75-13.747-19.356,3.985-24.169,24.468-24.721,24.841-.137-.578.816-9.871-3.864-11.691-2.553,9.464-18.199,14.819-23.701,28.424-.428-2.21-3.273-7.56.084-13.32-12.839,5.469-19.566,16.363-21.296,29.928-2.73-8.568-8.657-11.26-8.657-11.26,0,0,1.475,4.693-.959,8.684-7.342,11.007-14.656,23.94-6.568,37.035.261.582.195-9.1,4.972-10.661-2.487,13.159,5.259,14.019-1.734,32.135,3.207-4.948,5.96-9.165,14.574-11.153-.054.757-.516,1.137-.825,1.585-3.468,4.378-2.877,9.407-2.862,14.627-.169,2.962-.565,5.871-1.897,8.608-2.053,4.586-3.631,9.593-3.769,14.624,6.077-13.274,13.989-17.841,15.284-17.453-1.955,4.362-3.181,8.893-3.492,13.692,1.749-3.123,2.202-6.242,5.78-9.001-1.089,4.172-2.398,8.252-3.331,12.666,1.791-5.356,6.595-10.579,7.595-10.505-2.185,5.031-5.191,9.507-6.379,14.888,3.509-6.941,9.103-14.958,13.129-16.231-2.525,4.412-3.149,6.759-4.699,10.172,4.221-3.108,8.038-6.605,11.149-10.947,2.249,5.835-5.387,18.067-5.146,18.787,10.67-11.962,20.938-12.406,24.695-21.501,1.22,4.63.849,9.306.008,14.079,1.915-1.189,3.365-2.747,4.801-4.343,1.773,2.122-1.853,8.438-1.853,8.438,0,0,1.627-.924,6.463-6.383,4.836-5.459,16.096-4.922,22.2-9.757-.989,10.268-11.837,12.008-10.99,16.948,8.944-5.725,18.605-12.209,29.839-11.809-3.941,4.003-10.958,12.698-4.545,17.028,7.475,4.689,19.353,2.414,23.711-5.547,1.482,4.598-2.389,8.809-4.401,12.676-2.248,5.857,5.96,3.003,8.765,2.276,4.881-1.31,10.031-1.931,14.939-.241-5.023,1.11-9.904,3.697-11.858,8.361-.374.893-1.066.997-1.815,1.181-7.826,1.93-15.487,4.372-22.948,7.429-18.125,7.424-34.775,17.374-50.179,29.43-5.61,4.934-20.189,8.141-20.482,8.12,1.063-3.271,11.383-8.918,10.735-11.692-8.677,2.912-12.451,1.841-17.225,4.344-.156.074.02-3.851-.574-5.673-.384-1.178-1.05-1.808-2.344-1.872-2.448-.122-8.561.035-9.617-.35,2.727-1.133,4.407-1.544,7.604-2.168-8.552-1.824-14.003,1.815-20.491,4.983.422-1.444,2.301-4.155,4.627-5.867-7.116,1.897-12.604,5.45-16.327,11.502-1.163-1.726.604-9.965.604-9.965,0,0-7.868,3.235-12.54,14.825-4.671-11.591-12.54-14.825-12.54-14.825,0,0,1.767,8.239.604,9.965-3.723-6.053-9.212-9.605-16.327-11.502,2.326,1.712,4.204,4.423,4.627,5.867-6.488-3.168-11.939-6.807-20.491-4.983,3.197.624,4.877,1.035,7.604,2.168-1.057.385-7.17.228-9.617.35-1.294.064-1.959.694-2.344,1.872-.594,1.821-.418,5.747-.574,5.673-4.774-2.503-8.548-1.432-17.225-4.344-.648,2.774,9.673,8.421,10.735,11.692-.293.022-14.872-3.185-20.482-8.12-15.403-12.056-32.054-22.006-50.179-29.43-7.461-3.056-15.122-5.498-22.948-7.429-.749-.185-1.441-.288-1.815-1.181-1.954-4.665-6.835-7.252-11.858-8.361,4.908-1.69,10.058-1.07,14.939.241,2.805.727,11.013,3.581,8.765-2.276-2.012-3.867-5.883-8.078-4.401-12.676,4.359,7.96,16.236,10.236,23.711,5.547,6.413-4.33-.604-13.025-4.545-17.028,11.234-.4,20.895,6.084,29.839,11.809.847-4.94-10.001-6.68-10.99-16.948,6.104,4.835,17.364,4.298,22.2,9.757,4.836,5.459,6.463,6.383,6.463,6.383,0,0-3.625-6.316-1.853-8.438,1.435,1.597,2.886,3.154,4.801,4.343-.841-4.773-1.211-9.449.008-14.079,3.756,9.096,14.024,9.539,24.695,21.501.241-.72-7.395-12.951-5.146-18.787,3.11,4.342,6.928,7.84,11.149,10.947-1.55-3.413-2.174-5.76-4.699-10.172,4.026,1.273,9.621,9.29,13.129,16.231-1.188-5.382-4.194-9.857-6.379-14.888.999-.074,5.804,5.15,7.595,10.505-.933-4.414-2.242-8.494-3.331-12.666,3.578,2.759,4.032,5.878,5.78,9.001-.311-4.799-1.537-9.33-3.492-13.692,1.295-.388,9.207,4.179,15.284,17.453-.138-5.031-1.716-10.038-3.769-14.624-1.332-2.737-1.729-5.646-1.897-8.608.015-5.22.605-10.25-2.862-14.627-.31-.448-.772-.828-.825-1.585,8.613,1.988,11.367,6.205,14.574,11.153-6.993-18.115.752-18.976-1.734-32.135,4.777,1.561,4.711,11.243,4.972,10.661,8.088-13.096.774-26.028-6.568-37.035-2.435-3.992-.959-8.684-.959-8.684,0,0-5.927,2.692-8.657,11.26-1.73-13.565-8.457-24.459-21.296-29.928,3.357,5.76.512,11.109.084,13.32-5.501-13.605-21.147-18.959-23.701-28.424-4.68,1.82-3.727,11.113-3.864,11.691-.553-.373-5.366-20.855-24.721-24.841,2.522,6.065,3.172,10.16,2.75,13.747-3.413-8.267-7.575-13.748-18.037-16.456.065,1.885.195,2.795.325,5.46-6.045-9.685-18.389-14.958-18.389-14.958,0,0,1.588,4.145,2.222,5.363-7.882-3.924-17.678-6.363-26.206-5.774-8.121.66-18.854-5.235-24.351-7.926,0,0-.879,14.959,7.252,33.955,0,0-8.627-2.58-10.27-3.315,1.105,8.125,5.437,17.567,8.929,23.466-3.12.372-9.48-1.638-9.48-1.638,0,0,5.295,17.04,22.177,19.814-8.173,5.741-10.513,10.226-13.957,18.481,0,0,9.419-.991,13.013-.059-12.948,4.154-17.368,15.139-17.368,15.139,0,0,10.133-3.591,10.464-3.38-1.163,5.741-7.93,14.039-15.66,18.67,0,0,6.17,4.079,15.705.808-1.645,9.645-14.8,20.43-24.364,28.342,4.039-.372,6.807-.773,8.285-1.212-8.016,5.585-13.73,12.57-15.101,20.144,5.85-4.875,8.968-6.92,13.075-7.45-4.833,12.316-7.811,20.45-22.85,35.37-.578.573,6.589,1.589,14.789-3.044-.198,7.345-5.073,15.893-9.849,21.412-3.204,3.519-12.513,6.524-12.603,6.812,7.752,4.943,16.532,4.33,23.147,2.847.279.491-5.236,14.592-10,16.005,7.085,3.9,9.62,3.77,16.433,3.15-1.808,3.024-1.808,3.674-10.334,6.634,10.475,6.01,39.097-2.365,41.151-4.71.567-.647,51.981,5.976,76.76,13.074-1.364.99-4.814,3.732-4.814,3.732,6.978,1.538,7.766,2.214,10.855,4.209-3.054.422-7.997.621-11.005.143,0,0-.188.638,1.688,2.289-8.686-.829-18.31-2.001-27.07-1.794-3.541.28-4.19-2.893-4.19-2.893,0,0-.852,1.704-.604,2.921-1.629.039-3.27.077-4.91.119-.76.02-1.098-.605-1.555-1.029-2.939-2.725-12.395-7.265-25.379-4.32,6.606.694,14.492,2.869,15.055,4.79-1.348,2.559-18.08,4.73-18.495,4.247-5.924-2.114-9.951-1.823-13.433-1.388.978-4.773,6.127-6.921,6.127-6.921-6.143.302-12.488,5.78-15.185,12.395,0,0,6.202-3.007,11.379-1.376-5.876,1.987-12.013,3.187-17.963,5.809,0,0,13.638-2.116,19.759-2.989.155,1.125,1.5,2.714,3.534,2.364,5.263-.988,9.654-1.207,14.081-1.815-2.74-1.497-5.817-1.138-8.723-2.302,6.604-1.247,13.246-2.261,19.928-2.999,1.127-.123,2.18-.043,3.234.274,2.726.82,8.56,4.352,9.477,3.892-1.176-1.859-3.065-3.011-4.496-4.66,2.543-1.143,4.353,1.062,6.451,2.048.535.413-1.329-1.439-1.214-2.247.161-.45,3.991-.367,4.351-.425,0,0,3.806,6.416,13.887,10.178-1.8.303-6.825-1.49-12.511.862.075.341,9.625.926,16.46,3.365.656.19,6.27,1.663,7.571,1.245-4.453-2.907-6.322-4.765-8.651-7.939,1.856.135,6.756,1.542,6.756,1.542,0,0-3.762-3.917-5.533-4.577-5.132-1.841-8.144-2.222-11.588-4.931,3.781.305,24.616-.589,25.223,2.503,1.668,3.145,6.869,9.041,6.848,9.62-5.074-.669-14.232-9.357-14.425-9.225-.173,4.348,8.901,11.577,13.418,15.996-1.477-.152-3.233-1.012-5.163-2.042,1.064,3.42,7.535,8.74,11.451,11.915,7.734,6.307,15.286,13.552,25.46,15.419,3.325.731,6.711.472,9.982-.245,9.51-1.86,27.243-1.886,36.801-3.32,9.557,1.434,27.291,1.46,36.801,3.32,3.271.717,6.657.976,9.982.245,10.173-1.867,17.726-9.112,25.46-15.419,3.916-3.174,10.388-8.494,11.451-11.915-1.93,1.03-3.686,1.891-5.163,2.042,4.517-4.418,13.592-11.647,13.418-15.996-.193-.132-9.35,8.555-14.425,9.225-.021-.579,5.18-6.476,6.848-9.62.607-3.092,21.442-2.198,25.223-2.503-3.444,2.709-6.456,3.09-11.588,4.931-1.771.66-5.533,4.577-5.533,4.577,0,0,4.9-1.407,6.756-1.542-2.329,3.175-4.198,5.032-8.651,7.939,1.3.418,6.915-1.055,7.571-1.245,6.835-2.439,16.385-3.024,16.46-3.365-5.686-2.351-10.71-.558-12.511-.862,10.08-3.762,13.887-10.178,13.887-10.178.36.058,4.191-.025,4.351.425.115.808-1.75,2.659-1.214,2.247,2.098-.986,3.908-3.191,6.451-2.048-1.431,1.649-3.319,2.801-4.496,4.66.918.46,6.751-3.072,9.477-3.892,1.053-.317,2.107-.397,3.234-.274,6.682.738,13.324,1.753,19.928,2.999-2.906,1.164-5.983.805-8.723,2.302,4.427.608,8.818.827,14.081,1.815,2.034.35,3.378-1.239,3.534-2.364,6.121.873,19.759,2.989,19.759,2.989-5.95-2.623-12.087-3.822-17.963-5.809,5.177-1.631,11.379,1.376,11.379,1.376-2.697-6.615-9.042-12.093-15.185-12.395,0,0,5.149,2.148,6.127,6.921-3.482-.435-7.509-.727-13.433,1.388-.415.482-17.147-1.688-18.495-4.247.564-1.921,8.45-4.096,15.055-4.79-12.984-2.945-22.44,1.595-25.379,4.32-.457.423-.795,1.048-1.555,1.029-1.64-.043-3.28-.08-4.91-.119.248-1.217-.604-2.921-.604-2.921,0,0-.649,3.173-4.19,2.893-8.759-.206-18.383.965-27.07,1.794,1.876-1.651,1.688-2.289,1.688-2.289-3.008.478-7.951.279-11.005-.143,3.089-1.996,3.877-2.671,10.855-4.209,0,0-3.449-2.742-4.814-3.732,24.779-7.098,76.193-13.721,76.76-13.074,2.054,2.344,30.675,10.72,41.151,4.71-8.525-2.959-8.525-3.609-10.334-6.634,6.813.62,9.348.75,16.433-3.15-4.763-1.413-10.279-15.514-10-16.005,6.615,1.483,15.395,2.096,23.147-2.847Zm-146.972,53.126c.936,4.903-3.454,15.333-9.067,17.703,2.011-3.121,2.72-4.516,2.848-6.881-1.001.722-3.238,2.784-6.276,3.566,1.538-2.02,2.076-2.904,2.738-3.937,6.654-12.726-16.509-4.4-21.377-2.385-9.847,3.705-8.156,11.57-15.028,17.131-3.019,2.132-6.126,4.884-9.853,5.508-3.657.294-8.207.921-17.039.921s-13.382-.627-17.039-.921c-3.727-.624-6.834-3.376-9.853-5.508-6.872-5.562-5.181-13.427-15.028-17.131-4.868-2.015-28.031-10.342-21.377,2.385.661,1.033,1.2,1.917,2.738,3.937-3.039-.782-5.275-2.844-6.276-3.566.128,2.364.837,3.76,2.848,6.881-5.613-2.371-10.002-12.8-9.067-17.703,0,0,2.588,4.505,3.762,4.651-.12-1.733.443-3.65,2.018-5.263.58,1.554,2.849,1.645,4.089,1.56,7.54-1.62,14.765.878,22.003,2.719,9.28,1.579,9.045-11.572,8.411-17.523-.041-.421-.268-.98.222-1.227,0,0,1.78,2.915,3.838,3.35.975-.547-.258-5.725-.258-5.725,0,0,3.039,2.326,5.515.788,2.476-1.538,1.316-5.503,1.449-5.32,5.154,3.557,10.406.931,10.113-4.356,0,0,6.07,7.163,7.951,3.349,1.515-2.501,3.034-9.104,3.94-9.104s2.425,6.603,3.94,9.104c1.881,3.814,7.951-3.349,7.951-3.349-.293,5.287,4.96,7.913,10.113,4.356.133-.183-1.027,3.782,1.449,5.32,2.476,1.538,5.515-.788,5.515-.788,0,0-1.233,5.179-.258,5.725,2.058-.435,3.838-3.35,3.838-3.35.489.247.263.806.222,1.227-.634,5.951-.868,19.102,8.411,17.523,7.238-1.841,14.463-4.339,22.003-2.719,1.239.085,3.509-.006,4.089-1.56,1.576,1.613,2.138,3.53,2.018,5.263,1.173-.146,3.762-4.651,3.762-4.651Zm-95.442-6.349c6.761-4.583,14.115-.086,22.387-.086s15.626-4.496,22.387.086c.086-2.582.387-4.303-3.854-6.461.454-.123,1.143-.338,2.218-.295-4.518-2.238-11.297-4.01-17.088,2.785,1.295.367,2.077-.899,3.166-.665-1.865,1.8-2.292,2.2-4.539,1.236-.537-.252-.839-.599-2.291-.599s-1.755.347-2.291.599c-2.247.963-2.674.563-4.539-1.236,1.089-.234,1.871,1.033,3.166.665-5.791-6.795-12.569-5.023-17.088-2.785,1.076-.043,1.764.172,2.218.295-4.241,2.158-3.94,3.879-3.854,6.461Zm39.346,2.024c-4.77-.69-11.08.884-16.959,1.536-5.88-.653-12.189-2.226-16.959-1.536-4.771.69-9.268,4.045-7.458,9.037,1.344,3.994,6.561,12.44,11.56,10.32,1.396-.546.438-1.708-.377-2.329-3.014-2.621-4.424-6.379-4.844-10.213-.111-2.949.207-3.291,3.144-3.525,1.35-.108,11.175-.669,14.935-.373,3.76-.296,13.586.266,14.935.373,2.937.234,3.254.577,3.144,3.525-.42,3.834-1.83,7.592-4.844,10.213-.815.621-1.773,1.784-.377,2.329,4.999,2.119,10.216-6.326,11.56-10.32,1.81-4.993-2.688-8.347-7.458-9.037Zm173.609-52.392c-1.216-.134-4.954-1.82-5.66-1.077,5.536,2.414,11.127,3.584,17.442,3.081-1.676-1.55-4.84-1.479-7.003-2.221-2.521-.958-2.454,1.05-4.779.216Zm-15.629,19.126c3.572,2.263,18.547,3.401,22.144,1.008-.539-.543-21.172-1.515-22.144-1.008Zm-13.932-.665c.047-.338,10.988-3.06,20.66-2.688-2.032-1.754-4.989-6.306-7.653-6.377-15.874-.125-31.536,3.138-46.848,7.04-18.368,5.154-37.133,10.017-54.257,18.498l6.92,3.66c.901.618,1.694.618,2.703.323,28.124-8.384,57.388-13.014,86.601-13.615-2.576-4.78-8.175-6.498-8.127-6.841Zm-199.181-121.087c1.018-1.829,3.872-14.755,3.862-18.77,2.405,2.34,7.642,16.639,7.66,16.307-.132-11.991-1.875-24.887-14.612-33.147,2.013,3.97,2.634,9.52,2.078,12.55-4.798-7.508-9.23-14.234-22.583-17.65-.818-.209,21.868,11.541,23.595,40.711Zm-48.108-42.848s6.149,7.883,6.149,20.447c-12.141-8.075-19.165-8.463-19.165-8.463,7.593,8.48,18.467,21.629,22.727,36.284,0,0-.214-15.287-5.199-21.033,5.826,3.932,9.91,8.386,13.018,14.767.715-2.562.367-4.369-4.075-22.42,7.674,2.652,14.137,18.079,14.137,18.079.807-4.932.618-8.472-.535-13.291,8.869,10.799,11.944,29.247,12.121,28.498,5.469-23.995-20.35-47.248-20.35-47.248,0,0,2.975,8.626,3.502,11.683-7.077-11.112-22.331-17.302-22.331-17.302Zm-13.509,2.541s-14.467-7.322-23.987-5.189c-10.304,2.417-18.389,10.67-23.7,19.506,20.286-10.329,20.936-9.549,30.963-10.792-3.658-2.397-7.148-2.078-8.533-2.787,6.781-3.307,25.257-.738,25.257-.738Zm31.957-3.318c-7.455-11.717-20.732-17.435-28.421-28.761-.177-.309-.016,10.397,3.9,14.813-3.173-.076-12.799,4.475-14.817,5.817-.471.321,18.067-1.657,39.337,8.131Zm-88.162,82.03c-6.764,7.62-12.924,17.127-23.868,18.547,11.31,2.632,22.348-11.486,29.952-18.321,3.199-3.135,12.666-8.687,12.666-8.687,0,0-10.977-.487-18.75,8.462Zm47.965-35.592c-.975-1.254-4.56-8.622-6.366-11.324,12.072,4.208,21.877,15.629,21.877,15.629,0,0-.363-6.497-2.092-10.473,5.247,4.805,12.014,16.124,12.35,15.956.372-.187-2.733-8.95-5.146-12.577-6.305-10.565-26.573-26.599-27.428-26.116,5.493,6.553,8.338,10.473,12.005,17.617-12.579-7.324-32.621-11.696-32.621-11.696,0,0,11.632,6.701,14.351,13.023-19.661-6.385-42.612,6.037-42.611,6.466,16.515-3.031,43.568-2.49,55.681,3.495Zm-50.427,33.764c5.714-6.779,14.469-13.546,22.942-16.604-3.585-4.769-8.614-6.103-10.076-6.538,11.783-3.83,24.764.353,24.764.353-13.486-9.114-32.885-8.394-45.577,5.534-2.794,2.594-9.604,7.405-9.604,7.405,0,0,3.432.185,4.488.125,6.868-.74,12.056-6.259,18.936-6.798.054.115-6.36,6.307-8.45,10.265-4.288,7.417-11.288,16.108-19.381,19.262-1.029.177,11.71.547,21.959-13.005Zm-32.109,66.049c-2.324.834-2.257-1.174-4.779-.216-2.163.742-5.327.671-7.003,2.221,6.315.502,11.905-.668,17.442-3.081-.706-.743-4.444.942-5.66,1.077Zm33.729-155.086c4.427,3.727,8.689,5.542,11.423,6.643-4.336,2.156-7.405,12.215-7.405,12.215,0,0,5.934-6.357,10.524-8.385-1.057,1.605-6.431,12.28-6.037,11.829,12.171-13.896,22.441-19.291,38.874-21.827-6.618-2.013-11.948-3.118-22.613-2.669,6.641-1.974,21.78-1.934,21.78-1.934,0,0-8.764-3.769-9.34-4.553,6.869-2.087,14.279-.202,16.424.675-1.166-9.59-8.235-17.053-14.725-23.652-.419,1.197-.419,2.822-.685,4.73-5.063-11.723-14.362-16.107-14.362-16.107,0,0,1.933,6.083,1.966,8.396-6.576-6.936-9.241-9.861-24.544-12.718-3.548-.662-6.801-2.391-9.896-4.292-.424-.343-.085,4.355,4.644,7.605-2.212.366-8.693-1.69-8.693-1.69,0,0,.845,12.739,10.804,19.472-1.781.439-9.57-2.596-9.57-2.596,0,0,4.771,6.708,7.83,9.186-2.179.342-7.689-.099-7.689-.099,6.88,6.536,8.765,7.446,17.085,11.086-6.955-.455-16.054-2.21-16.054-2.21,4.03,5.07,8.775,7.02,18.115,11.679-2.651.175-5.179-.523-7.853-.781Z" fill="#363436"/>
  </g>
</svg>