<?xml version="1.0" encoding="UTF-8"?>
<svg id="b" data-name="Layer 2" xmlns="http://www.w3.org/2000/svg" width="473.43" height="500" viewBox="0 0 473.43 500">
  <g id="c" data-name="bison">
    <path d="m181.685,60.559c-10.694-5.809-16.121-6.615-23.981-6.014,1.519-2.159,7.41-3.036,10.331-2.858,5.775.795,10.493,4.105,13.65,8.872Zm27.454,21.163c.12.261,12.092,9.889,20.807,30.521.144-.556-.762-10.047-4.9-14.668-.023-.026,5.996,5.666,6.141,5.589-2.355-7.323-10.117-18.109-22.048-21.443Zm-23.869,32.727c.12-1.505.443-9.726-10.734-16.551,1.342-.229,8.06,2.687,11.929,7.791-1.236-11.714-19.881-13.111-25.255-14.078-5.373-.967-6.018-1.29-12.188-4.028,2.623,3.437,5.422,5.383,22.934,12.787,5.804,2.454,7.63,5.158,13.313,14.079Zm53.663-67.424s3.514-1.71,4.883-2.161c-1.278,1.909-3.676,4.373-4.128,6.858,3.859-3.58,9.608-8.523,19.693-8.845-3.959-1.775-6.86-2.312-11.965-1.775,2.633-2.472,8.114-4.352,12.436-5.264-10.34-3.226-19.055.508-21.666,7.098,3.319-2.21,4.843-3.016,6.597-3.607-3.708,2.74-5.85,7.696-5.85,7.696Zm-64.299,36.278c5.547,2.303,9.788,4.755,14.145,8.787-1.132-4.831-1.332-7.319-1.841-9.084,6.24,3.173,9.897,5.651,15.593,14.141-1.979-13.903-15.244-25.926-29.273-25.614,3.696,2.723,5.2,4.496,6.872,8.193-4.594-1.928-8.174-3.589-15.959-4.693,1.362,1.613,2.485,2.941,3.913,4.632-8.003-4.603-17.755-1.127-19.942-.568,15.163.909,27.791,9.828,27.791,9.828,0,0,.752-2.794-1.299-5.622Zm32.465-12.786c15.421-2.387,20.16,14.018,20.264,13.893,2.034-8.435-8.073-18.66-7.994-18.747,6.105-.649,11.984,8.656,12.09,8.53.098-5.061-2.837-9.335-6.664-12.396,1.518-1.733,7.075.38,7.133.237-2.249-2.141-4.855-3.583-8.081-3.816-15.552-1.179-15.526,12.603-33.815,6.972.731,2.618,10.242,5.949,17.067,5.327Zm35.143,32.648c.144.077,6.164-5.615,6.141-5.589-4.137,4.621-5.044,14.111-4.9,14.668,8.715-20.632,20.687-30.26,20.807-30.521-11.931,3.334-19.693,14.12-22.048,21.443Zm44.721,2.524c3.869-5.105,10.587-8.021,11.929-7.791-11.177,6.824-10.854,15.045-10.734,16.551,5.683-8.92,7.509-11.625,13.313-14.079,17.512-7.404,20.311-9.35,22.934-12.787-6.17,2.739-6.814,3.061-12.188,4.028-5.373.967-24.019,2.364-25.255,14.078Zm-37.383-47.472c-3.226.233-5.833,1.675-8.081,3.816.058.143,5.615-1.971,7.133-.237-3.828,3.061-6.763,7.335-6.664,12.396.106.127,5.985-9.179,12.09-8.53.079.087-10.028,10.312-7.994,18.747.104.126,4.844-16.28,20.264-13.893,6.825.622,16.336-2.71,17.067-5.327-18.289,5.631-18.263-8.151-33.815-6.972ZM10.369,37.937s-.181.014-.181.014l-.151-.101c-1.624,21.515,13.578,53.189,31.81,64.896,9.553,6.239,25.793,16.063,37.215,15.645-3.872-1.605-8.232-3.299-12.302-7.506.806-.06,10.723,3.332,14.337,1.606-2.683-.949-4.963-1.756-7.244-2.564.022-.176,11.246.322,16.479-1.542-21.329-3.124-40.071-14.639-56.168-28.563-12.631-10.938-19.662-26.004-23.795-41.886Zm289.802,33.595c-14.029-.312-27.294,11.71-29.273,25.614,5.696-8.49,9.353-10.968,15.593-14.141-.509,1.765-.709,4.254-1.841,9.084,4.357-4.032,8.599-6.484,14.145-8.787-2.051,2.828-1.299,5.622-1.299,5.622,0,0,12.627-8.92,27.791-9.828-2.187-.56-11.939-4.035-19.942.568,1.428-1.691,2.551-3.019,3.913-4.632-7.785,1.104-11.365,2.765-15.959,4.693,1.672-3.697,3.176-5.47,6.872-8.193Zm15.555-16.987c-1.519-2.159-7.41-3.036-10.331-2.858-5.775.795-10.493,4.105-13.65,8.872,10.694-5.809,16.121-6.615,23.981-6.014Zm-101.678-11.669c10.084.321,15.834,5.265,19.693,8.845-.452-2.484-2.849-4.948-4.128-6.858,1.369.452,4.883,2.161,4.883,2.161,0,0-2.142-4.955-5.85-7.696,1.754.591,3.278,1.397,6.597,3.607-2.611-6.59-11.325-10.324-21.666-7.098,4.322.912,9.803,2.792,12.436,5.264-5.105-.537-8.006,0-11.965,1.775Zm6.839,420.906c.003.008.006.013.01.016-.003-.005-.006-.011-.01-.016Zm242.02-332.023c-3.918.145-5.635,0-6.61,3.055,1.765,1.261,2.838,3.064,3.191,5.139,2.022,8.132-.61,16.558-3.883,24.038-3.624,8.156-11.243,13.344-17.718,19.101-3.511,2.926-7.163,7.297-11.133,10.853-.115-3.708-1.236-4.559-1.387-4.57-4.659,3.167-11.524,7.17-14.127,12.727-1.044-.111-1.641-3.18-1.966-4.121-3.384,4.456-9.894,4.504-12.182,13.988-3.351-1.779-1.761-7.134-1.702-8.784-1.472,1.018-7.934,2.442-11.544,9.998-3.622-1.873-.092-7.555-6.168-7.203,2.091,9.042,3.23,18.284,2.413,27.554-.153,4.558-.159,8.916,2.904,15.096-2.075.517-4.29-.492-5.758-1.433-.912,5.624-1.586,11.355-1.651,17.067.119,2.531-.007,3.227,1.444,7.579-2.157-.193-4.729-1.021-5.278-3.519-2.185,5.131-1.735,10.789-1.059,16.181.265,2.115.91,3.781,3.113,7.113-2.151.134-4.398-.041-6.495-.95.532,3.354,3.271,47.162-12.94,56.831,1.38-4.887,2.401-6.445,1.585-12.847-3.795,6.525-7.927,13.244-9.746,20.632-1.639,4.871.212,9.325,1.676,14.148-4.656-1.887-5.896-4.334-7.895-6.973-4.982,16.961-13.848,10.352-21.916,33.119-.962-2.639-.781-5.2-1.023-7.813-3.504,5.291-3.268,19.813-10.381,24.403,1.074-6.138,2.49-12.368,1.045-17.443-4.188,20.281-13.369,39.211-25.459,55.986-5.355,7.43-5.85,14.676-15.852,18.644,2.755-4.03,2.251-5.905,2.125-5.978-4.698,7.744-7.719,6.608-10.757,13.845-.84-1.813.955-6.386.828-6.448-5.634,10.221-7.529,10.181-7.726,15.417-2.389-.412-2.229-4.566-2.737-6.421-2.553,9.778-8.476,9.15-11.424,20.229-2.949-11.079-8.872-10.451-11.424-20.229-.508,1.855-.349,6.009-2.737,6.421-.197-5.236-2.092-5.196-7.726-15.417-.127.063,1.667,4.635.828,6.448-3.037-7.238-6.059-6.101-10.757-13.845-.127.072-.631,1.948,2.125,5.978-10.002-3.968-10.497-11.215-15.852-18.644-12.09-16.776-21.271-35.705-25.459-55.986-1.445,5.074-.029,11.305,1.045,17.443-7.113-4.59-6.877-19.112-10.381-24.403-.242,2.614-.062,5.175-1.023,7.813-8.068-22.767-16.934-16.158-21.916-33.119-2,2.639-3.24,5.086-7.896,6.973,1.465-4.823,3.316-9.277,1.676-14.148-1.818-7.388-5.951-14.107-9.746-20.632-.816,6.402.205,7.961,1.585,12.847-16.211-9.669-13.472-53.476-12.94-56.831-2.098.909-4.344,1.084-6.495.95,2.203-3.332,2.848-4.997,3.113-7.113.676-5.392,1.126-11.05-1.059-16.181-.55,2.498-3.121,3.327-5.278,3.519,1.451-4.353,1.325-5.048,1.444-7.579-.064-5.711-.739-11.443-1.651-17.067-1.468.941-3.682,1.95-5.758,1.433,3.063-6.18,3.057-10.538,2.904-15.096-.817-9.269.322-18.512,2.413-27.554-6.076-.352-2.547,5.33-6.168,7.203-3.61-7.555-10.072-8.98-11.544-9.998.059,1.649,1.649,7.005-1.702,8.784-2.288-9.484-8.798-9.532-12.182-13.988-.324.941-.922,4.01-1.966,4.121-2.603-5.557-9.468-9.56-14.127-12.727-.151.011-1.272.862-1.387,4.57-3.97-3.557-7.622-7.928-11.133-10.853-6.475-5.757-14.095-10.945-17.718-19.101-3.273-7.479-5.905-15.905-3.883-24.038.353-2.075,1.426-3.878,3.191-5.139-.974-3.054-2.692-2.911-6.61-3.055-.289-.728,4.393-4.186,10.891-3.658-2.124-3.171-3.248-8.073-.741-11.306,6.284,3.648,15.35,2.559,19.709.983C8.712,97.617-2.012,75.3.303,38.152,1.848,25.61,1.389,9.517,11.801.705c2.528-1.124,4.393-1.067,5.549,1.381,3.019,7.452,2.678,15.808,4.357,23.603,5.445,22.972,26.755,37.07,48.459,42.748,11.264,3.268,22.788,5.798,34.472,6.949,4.183-2.097,8.172-4.481,11.832-7.551-1.502-1.16-4.248-.44-5.819-3.114,4.708-.912,9.476-3.403,13.589-5.796-4.504.405-6.754-.699-6.754-.699,11.602-8.036,27.051-13.468,40.497-17.396-.012-.144-7.3,1.01-10.49-.784,5.992-4.404,21.526-9.936,32.36-12.092-5.26-1.454-10.632-2.278-15.189-5.481,5.716.476,24.481,1.159,31.209.215,8.805-1.29,16.936-5.451,25.853-6.119,2.744.002,11.757.206,14.989,1.302,3.591-1.354,12.245-1.3,14.989-1.302,8.917.668,17.048,4.829,25.853,6.119,6.728.945,25.493.262,31.209-.215-4.556,3.203-9.928,4.028-15.188,5.481,10.834,2.156,26.368,7.688,32.36,12.092-3.19,1.794-10.477.64-10.49.784,13.446,3.929,28.895,9.36,40.497,17.396,0,0-2.25,1.104-6.754.699,4.113,2.393,8.881,4.884,13.589,5.796-1.571,2.674-4.317,1.954-5.819,3.114,3.66,3.07,7.649,5.454,11.832,7.551,11.683-1.151,23.208-3.681,34.471-6.949,21.704-5.677,43.014-19.776,48.459-42.748,1.679-7.795,1.338-16.151,4.357-23.603.867-1.836,2.132-2.327,3.778-1.983,1.043.218,1.991.757,2.761,1.493,9.394,8.974,9.014,24.426,10.508,36.557,2.315,37.149-8.41,59.465-40.078,79.628,4.359,1.576,13.425,2.665,19.709-.983,2.506,3.232,1.382,8.134-.741,11.306,6.499-.528,11.181,2.93,10.891,3.658Zm-109.642-1.826c1.968-2.488,6.877-2.667,7.136-2.916-11.032-3.569-20.94,2.087-27.397,7.861,2.973-.685,4.167-1.515,7.343-.611-6.065,3.502-11.504,8.335-14.584,14.658.248.313.496.627.744.94-1.859,3.384-6.257,10.28-8.413,13.088-.086-.239-.023-5.299,3.04-12.583-1.924,1.454-4.434,5.2-4.601,5.217-.071-3.643.24-6.913,1.378-9.925-7.159,6.801-10.345,31.46-1.966,44.966.149-.067-1.493-7.463-1.59-11.243,3.04,7.283,5.012,12.11,14.158,15.448-29.754-28.067,10.494-59.979,40.048-61.202,0-.146-4.141-3.435-15.296-3.698Zm15.231,40.605c3.319-3.185,15.977-13.93-2.62-25.934-.087.093,9.75,8.798,5.986,16.54-1.105,2.274-3.901,5.636-6.517,5.329,1.573-1.591,2.694-2.987,3.758-4.852-4.602,2.707-8.195,3.941-9.843,3.182,0,0,.823-1.621,3.177-3.691-1.915.481-3.774.812-6.618,2.327,2.443-2.313,4.396-4.113,6.785-6.259-.079-.146-3.739-.41-7.651,2.061,1.995-2.784,2.289-3.445,7.176-6.561-4.724-.578-26.152,5.713-29.682,24.431,3.814-5.083,9.738-8.832,11.945-9.093-4.268,3.283-6.48,7.032-7.849,11.011,3.412-3.551,5.644-4.687,9.039-5.42-4.004,4.669-5.059,6.089-6.17,10.657,5.018-4.54,10.523-9.969,17.695-10.319h0c19.818,1.206,18.625-8.568,18.532-8.59-1.374,2.761-4.066,4.613-7.143,5.179Zm-18.008,36.637c.806-1.195,2.174-.98,3.384-1.319,4.291-.759,7.056-3.617,8.548-7.657-.119-.057-3.228,4.188-7.018,4.334,3.39-2.114,5.134-4.462,5.922-7.437-.117-.069-1.803,1.642-3.84,2.01,5.937-5.689,4.05-13.974,3.991-14.048-.824.813-2.031,2.54-2.031,2.54.81-1.917.983-3.732,1.762-5.575-2.464.299-2.344,2.854-3.155,4.66-1.38,4.905-5.748,8.119-11.266,7.278-3.092-.472-4.712-3.83-5.271-6.484-1.254,9.045,7.107,8.784,11.482,7.607-3.104,2.179-11.363,4.344-11.989-1.239-.805.196-2.409,1.577-6.243,1.009,1.689,4.85,9.542,6.768,14.179,6.413,1.556.075,2.861-.33,4.376.335-3.348,3.245-7.057,4.29-11.38,3.58,1.207.653,2.413,1.307,3.974,2.151-3.56.511-5.942-.824-8.824-2.235-.053.088,1.911,3.845,6.325,4.747-1.712.144-3.345-.225-4.978-.72,4.354,5.321,16.819,4.191,19.836-.139-2.511.804-5.166.508-7.784.188Zm-14.037,23.99c.288.07,4.545,3.463,11.513,14.884.651-6.377-12.854-24.364-18.157-24.501,1.249,2.054,3.026,3.759,3.888,6.011-4.304-3.236-11.634-13.433-12.978-14.18.658,1.791,5.067,11.941,4.893,12.119-4.702-4.62-5.636-6.441-10.687-18.223,1.254,10.582,2.663,18.28,10.732,26.043,3.32,3.427,9.847,11.933,10.684,12.222-1.212-5.186-3.721-9.485-5.96-13.934,3.309,2.037,5.374,4.32,9.164,10.147.244-3.89-1.729-7.106-3.092-10.587Zm-12.892,29.611c4.876,3.126,6.848,3.697,14.771,11.855-.033-5.718-19.983-27.335-20.177-27.937,2.696,1.879,8.234,5.674,11.119,6.886-5.023-4.817-14.091-16.252-23.658-39.176-1.96,12.207,8.335,35.397,8.177,35.556-.073-.114-8.607-9.12-16.058-19.902,1.298,6.381,4.179,13.903,7.179,19.775-5.94-4.517-18.652-19.944-18.357-19.213,8.2,20.762,23.659,37.787,39.759,52.747-4.383-6.907-8.958-13.408-12.847-20.569,5.055,2.17,19.852,19.73,20.123,19.94-1.571-7.58-5.876-13.704-10.031-19.962Zm-37.42-2.099c2.709,2.716,5.395,5.01,9.765,8.565-2.278-7.189-3.269-7.905-7.839-16.548-4.569-8.643-10.856-15.339-10.965-15.284,1.68,3.857,2.872,8.623,7.662,18.477-3.291-3.308-5.891-6.881-9.328-11.134,1.529,5.627,4.812,10.727,6.465,16.364-.233-.053-8.584-9.656-10.587-15.234.567,7.471,2.219,17.05,16.037,27.73.116-.087-4.252-6.78-4.93-8.881,4.875,3.982,10.422,8.553,10.53,8.474-2.11-3.454-7.036-11.5-6.811-12.53Zm-15.369,8.345c6.175,5.088,15.503,9.78,15.571,9.665-5.481-5.843-10.332-8.211-14.461-15.698-4.129-7.487-4.404-12.916-6.084-17.811-1.183,4.213-.247,11.92,1.602,19.378-6.803-9.219-5.487-29.51-6.223-29.593-3.278,6.776-2.893,14.373-.891,25.586-5.305-9.837-6.263-29.601-6.489-29.757-.946,6.295-1.128,14.525.193,25.426-3.909-15.745-5.21-28.217-4.425-39.263-3.462,11.34-2.073,28.499-.861,35.43,2.52,12.031,10.328,23.258,21.853,27.812-1.882-2.962-5.116-6.638-5.623-10.546,4.194,3.248,7.494,7.151,12.41,9.435-1.126-1.669-4.305-6.739-6.572-10.065Zm6.8,54.904c-1.922.4-4.162-.124-4.988-2.147-3.281,3.281-9.532,3.911-12.925,3.911-5.487,0-7.579,2.422-9.934,3.182-2.191.234-5.982,1.391-13.007,1.391s-10.816-1.157-13.007-1.391c-2.355-.76-4.447-3.182-9.934-3.182-3.392,0-9.644-.63-12.925-3.911-.826,2.023-3.066,2.547-4.988,2.147-9.94-2.069-3.465-11.327-2.891-13.12-4.511,4.144-15.04,13.984-7.138,19.048,2.634,1.262,4.86,1.885,8.95,1.715,5.469-.228,7.668,2.613,15.388,4.328,7.72,1.715,6.18,10.212,26.546,10.212s18.826-8.497,26.546-10.212c7.72-1.715,9.919-4.556,15.388-4.328,4.089.17,6.315-.453,8.95-1.715,7.903-5.065-2.627-14.905-7.138-19.048.574,1.793,7.049,11.051-2.891,13.12Zm-90.407,54.953c12.47,6.606,26.563,12.843,36.875,12.843s8.6-1.121,12.677-1.121,2.366,1.121,12.677,1.121,24.405-6.237,36.875-12.843c-7.517,1.371-9.543,2.587-13.897,3.894-30.632,7.789-30.366-2.187-35.655-2.187s-5.022,9.976-35.655,2.187c-4.354-1.307-6.381-2.522-13.897-3.894Zm17.797-2.201c21.735-.21,23.716-14.259,23.716-16.78-7.978,12.246-27.647,12.833-34.856,12.384,2.571,3.15,5.453,4.396,11.14,4.396Zm63.51,0c5.687,0,8.569-1.246,11.14-4.396-7.209.448-26.878-.138-34.856-12.384,0,2.522,1.981,16.57,23.716,16.78Zm-72.128,19.038c-4.046-.111-15.145-10.37-15.143-10.373,8.704,14.899,15.641,20.663,40.767,24.31,5.085.738,9.588.529,14.749-.897,5.161,1.425,9.664,1.635,14.749.897,25.126-3.647,32.063-9.412,40.767-24.31.002.003-11.097,10.262-15.143,10.373.539-1.237,1.222-2.455.523-4.076-3.65,4.212-8.092,6.905-13.37,8.937,1.032-1.952,2.055-3.494,1.681-5.685-4.234,4.016-8.067,6.907-11.538,8.37,1.012-1.761,1.454-3.374,1.086-5.324-3.128,2.462-6.529,4.399-10.49,6.112.869-1.909,1.81-3.421,1.684-5.648-4.04,3.57-4.808,5.215-9.949,5.215s-5.909-1.645-9.949-5.215c-.125,2.226.816,3.739,1.684,5.648-3.961-1.713-7.362-3.65-10.49-6.112-.369,1.95.074,3.563,1.086,5.324-3.471-1.463-7.304-4.354-11.538-8.37-.375,2.191.648,3.734,1.681,5.685-5.278-2.032-9.72-4.725-13.37-8.937-.699,1.621-.016,2.838.523,4.076Zm40.373-126.215c.854,2.641.955,4.906,2.209,7.289.546,1.039.498,2.512,2.128,3.105.219-3.675.546-11.03,1.503-13.406,6.419,8.469,5.85,7.437,12.839,14.124-9.458-13.675-16.951-55.656-18.678-57.589-1.727,1.933-9.22,43.914-18.678,57.589,6.988-6.687,6.42-5.655,12.839-14.124.957,2.376,1.284,9.731,1.503,13.406,1.63-.593,1.582-2.066,2.128-3.105,1.253-2.383,1.355-4.648,2.209-7.289Zm-28.217.15c-.507,3.908-3.741,7.584-5.623,10.546,11.525-4.554,19.333-15.781,21.853-27.812,1.212-6.931,2.601-24.091-.861-35.43.785,11.046-.516,23.518-4.425,39.263,1.321-10.9,1.139-19.13.193-25.426-.225.156-1.184,19.92-6.489,29.757,2.002-11.213,2.387-18.81-.891-25.586-.736.083.581,20.374-6.223,29.593,1.849-7.458,2.785-15.165,1.602-19.378-1.68,4.895-1.955,10.324-6.084,17.811-4.129,7.487-8.98,9.855-14.461,15.698.068.115,9.396-4.578,15.571-9.665-2.266,3.326-5.446,8.396-6.572,10.065,4.916-2.284,8.215-6.187,12.41-9.435Zm-17.488-4.918c-.678,2.101-5.046,8.794-4.93,8.881,13.818-10.68,15.469-20.259,16.037-27.73-2.003,5.577-10.354,15.181-10.587,15.234,1.653-5.637,4.936-10.736,6.465-16.364-3.438,4.252-6.037,7.826-9.328,11.134,4.789-9.854,5.982-14.621,7.662-18.477-.109-.055-6.396,6.641-10.965,15.284-4.569,8.643-5.56,9.359-7.839,16.548,4.37-3.556,7.056-5.849,9.765-8.565.225,1.029-4.702,9.076-6.811,12.53.108.079,5.655-4.492,10.53-8.474Zm-31.047-1.936c-3.889,7.16-8.463,13.662-12.847,20.569,16.1-14.96,31.559-31.985,39.759-52.747.294-.731-12.417,14.696-18.357,19.213,3-5.872,5.88-13.394,7.179-19.775-7.452,10.783-15.986,19.789-16.058,19.902-.157-.159,10.138-23.349,8.177-35.556-9.567,22.924-18.636,34.359-23.658,39.176,2.885-1.211,8.423-5.007,11.119-6.886-.195.602-20.144,22.219-20.177,27.937,7.923-8.158,9.895-8.729,14.771-11.855-4.155,6.258-8.459,12.382-10.031,19.962.272-.211,15.069-17.77,20.123-19.94Zm-22.985-29.632c-1.363,3.481-3.336,6.698-3.092,10.587,3.79-5.827,5.855-8.11,9.164-10.147-2.239,4.449-4.748,8.749-5.96,13.934.837-.288,7.364-8.794,10.684-12.222,8.069-7.763,9.478-15.461,10.732-26.043-5.051,11.781-5.985,13.603-10.687,18.223-.173-.178,4.236-10.328,4.893-12.119-1.344.747-8.674,10.945-12.978,14.18.862-2.252,2.639-3.957,3.888-6.011-5.303.137-18.808,18.124-18.157,24.501,6.969-11.421,11.225-14.814,11.513-14.884Zm-14.037-23.99c-2.618.32-5.274.616-7.784-.188,3.016,4.33,15.481,5.46,19.836.139-1.633.494-3.266.863-4.978.72,4.414-.902,6.378-4.659,6.325-4.747-2.881,1.411-5.264,2.746-8.824,2.235,1.56-.845,2.767-1.498,3.974-2.151-4.323.71-8.032-.335-11.38-3.58,1.515-.665,2.82-.26,4.376-.335,4.636.354,12.489-1.563,14.179-6.413-3.835.568-5.438-.813-6.243-1.009-.626,5.583-8.885,3.418-11.989,1.239,4.375,1.177,12.736,1.437,11.482-7.607-.559,2.655-2.179,6.013-5.271,6.484-5.518.842-9.885-2.373-11.266-7.278-.811-1.806-.69-4.36-3.155-4.66.779,1.843.952,3.658,1.762,5.575,0,0-1.206-1.727-2.031-2.54-.058.074-1.945,8.359,3.991,14.048-2.037-.368-3.723-2.079-3.84-2.01.788,2.975,2.532,5.323,5.922,7.437-3.791-.146-6.899-4.391-7.018-4.334,1.491,4.039,4.256,6.898,8.548,7.657,1.21.339,2.579.124,3.384,1.319Zm-18.008-36.637c-3.076-.567-5.769-2.418-7.143-5.179-.093.021-1.286,9.795,18.532,8.59h0c7.173.35,12.677,5.779,17.695,10.319-1.111-4.568-2.166-5.989-6.17-10.657,3.396.732,5.628,1.869,9.039,5.42-1.37-3.979-3.582-7.728-7.849-11.011,2.207.262,8.131,4.011,11.945,9.093-3.53-18.719-24.958-25.009-29.682-24.431,4.887,3.115,5.181,3.777,7.176,6.561-3.913-2.471-7.572-2.207-7.651-2.061,2.389,2.146,4.342,3.947,6.785,6.259-2.843-1.516-4.703-1.846-6.618-2.327,2.354,2.07,3.177,3.691,3.177,3.691-1.648.759-5.241-.475-9.843-3.182,1.064,1.865,2.184,3.261,3.758,4.852-2.615.307-5.411-3.055-6.517-5.329-3.763-7.742,6.073-16.447,5.986-16.54-18.597,12.004-5.939,22.75-2.62,25.934Zm34.732,18.114c-1.782-.158-3.33-.295-5.336-.472,2.218,2.481,5.459,3.833,8.875,2.927,8.833-2.104,5.943-12.686,5.778-12.756-.941,2.088-3.031,5.772-3.788,6.717-2.209,2.902-4.575,2.118-7.711,1.099.873.994,1.412,1.608,2.183,2.485Zm-17.553-9.603c-1.704-.893-4.914-.357-6.084,1.547,3.465.441,5.787,2.973,8.773,4.591,1.045-2.508.317-4.563-2.689-6.138Zm-2.375,53.725c-.361,2.01-.206,5.618.684,7.161,2.821-10.357,5.899-12.703,8.004-15.684-2.577.811-6.966,4.268-7.158,4.339.853-2.089,1.863-3.354,3.766-4.793-5.264.309-9.179,6.808-7.461,11.861.723-1.205,1.235-2.018,2.165-2.885Zm-4.299-3.389c1.229-2.874,2.632-5.469,5.522-6.971-2.743-.462-6.233,3.11-5.522,6.971Zm4.465,57.892c2.957-14.119,7.233-19.472,13.392-25.569-3.519,1.118-8.893,3.816-10.774,6.994-.451-6.6,3.234-13.587,3.234-13.587,0,0-14.741,6.085-5.853,32.162Zm47.925-93.981c.099.067,6.211-4.827,9.391-13.615-1.091,5.575-4.358,11.519-7.15,18.618,14.358-15.666,14.717-26.235,10.04-37.841-.126,6.539.584,9.262-1.003,12.539-1.028-7.69-4.654-13.919-10.595-18.931,10.454,17.535,2.957,29.852-.683,39.23Zm27.845-26.621c-1.874-6.64-4.498-12.638-13.44-16.34,6.165,4.933,8.773,12.771,10.912,20.11,1.884,6.502,1.647,13.002,1.695,19.644,4.26-8.366,4.183-17.728,4.183-17.728,0,0,1.844,3.739,2.808,12.95,2.738-9.698,1.013-25.636-6.58-32.273.957,6.784.559,13.649.422,13.638Zm16.315,28.17c5.678-15.467,3.811-28.297,3.811-28.297-7.942,31.056-19.485,47.056-19.403,47.162,15.097-9.069,24.221-21.107,28.974-38.069,1.857,12.731,5.021,6.856,6.319,28.017,1.269-.822,1.479-15.867,1.721-27.498.473.321,1.38,5.507,3.303,12.436,1.923-6.929,2.83-12.115,3.303-12.436.243,11.631.452,26.676,1.721,27.498,1.298-21.162,4.462-15.286,6.319-28.017,4.753,16.962,13.877,29,28.974,38.069.082-.106-11.461-16.105-19.403-47.162,0,0-1.867,12.83,3.811,28.297-10.569-11.934-13.097-30.023-7.297-44.776-5.166,6.019-7.654,16.276-9.86,24.287-1.827-5.936-2.796-8.519-3.499-16.284,0,0-1.967,5.368-4.069,10.642-2.102-5.274-4.069-10.642-4.069-10.642-.703,7.765-1.672,10.348-3.499,16.284-2.206-8.011-4.694-18.268-9.86-24.287,5.8,14.753,3.272,32.842-7.297,44.776Zm66.186-41.808c-7.593,6.637-9.317,22.575-6.58,32.273.964-9.21,2.808-12.95,2.808-12.95,0,0-.077,9.362,4.183,17.728.049-6.642-.189-13.142,1.695-19.644,2.138-7.339,4.747-15.177,10.912-20.11-8.942,3.703-11.565,9.7-13.44,16.34-.137.011-.535-6.854.422-13.638Zm15.142,7.42c-4.677,11.607-4.318,22.175,10.04,37.841-2.792-7.098-6.058-13.042-7.15-18.618,3.18,8.788,9.292,13.682,9.391,13.615-3.641-9.379-11.138-21.695-.683-39.23-5.941,5.011-9.567,11.24-10.595,18.931-1.587-3.278-.877-6-1.003-12.539Zm-22.026,83.376l-.056-.037.059.044s-.002-.005-.003-.008Zm-69.154,0s-.002.005-.003.008l.059-.044-.056.037Zm131.626-55.182c.771-.877,1.31-1.492,2.183-2.485-3.136,1.019-5.502,1.803-7.711-1.099-.757-.945-2.847-4.629-3.788-6.717-.166.07-3.056,10.652,5.778,12.756,3.416.907,6.657-.446,8.875-2.927-2.006.178-3.555.314-5.336.472Zm18.398,39.939c-.192-.071-4.581-3.529-7.158-4.339,2.105,2.981,5.183,5.327,8.004,15.684.89-1.543,1.045-5.151.684-7.161.93.867,1.442,1.68,2.165,2.885,1.718-5.053-2.197-11.552-7.461-11.861,1.903,1.439,2.913,2.704,3.766,4.793Zm-1.256,40.112c-1.88-3.178-7.254-5.877-10.774-6.994,6.16,6.097,10.435,11.451,13.392,25.569,8.888-26.077-5.853-32.162-5.853-32.162,0,0,3.686,6.987,3.234,13.587Zm7.084-39.318c.711-3.861-2.78-7.433-5.522-6.971,2.89,1.502,4.294,4.097,5.522,6.971Zm-9.363-44.199c2.987-1.618,5.308-4.15,8.773-4.591-1.17-1.904-4.38-2.44-6.084-1.547-3.006,1.575-3.734,3.63-2.689,6.138Zm-8.215-67.949c-1.327-1.774-9.644-2.72-12.915,2.068,3.073-.364,8.464-1.326,12.915-2.068Zm-176.548-15.646c-.073.142-9.854-3.749-20.488-.854-10.634,2.895-15.779,9.306-17.473,12.839,8.655-3.859,12.979-4.694,19.018-3.305-.574.541-.792.746-1.075,1.013,7.45,1.832,11.909,8.347,17.778,12.884.178-10.582-8.513-17.928-8.408-18.078,6.189,1.333,9.115,7.201,12.154,12.169.724-2.78,1.311-8.746,4.059-9.886.195,8.511-.804,25.363,14.583,33.151-4.777-8.115-6.736-10.421-5.07-17.997,3.493,8.275,6.018,12.198,8.512,13.688-1.204-9.605-1.419-8.852-1.366-16.106,4.176,6.817,9.781,12.974,17.251,16.213.631.267-.54-7.186-4.099-12.721,6.075,3.12,9.753,8.053,12.508,13.813.347-9.083-14-16.713-13.194-34.284,3.074,3.519,2.257,14.132,16.911,23.291,3.609,2.367,7.092,4.992,9.726,8.446.122-6.965-18.9-24.751-13.586-36.659,4.681,17.657,20.209,15.991,23.326,41.663.925-.432,1.739-6.488,1.782-10.324.043,3.835.857,9.892,1.782,10.324,3.117-25.671,18.646-24.005,23.326-41.663,5.314,11.908-13.708,29.693-13.586,36.659,2.635-3.454,6.117-6.079,9.726-8.446,14.654-9.159,13.837-19.771,16.911-23.291.806,17.571-13.541,25.201-13.194,34.284,2.755-5.761,6.433-10.693,12.508-13.813-3.559,5.536-4.73,12.989-4.099,12.721,7.47-3.239,13.074-9.396,17.251-16.213.054,7.254-.161,6.502-1.366,16.106,2.494-1.491,5.019-5.413,8.512-13.688,1.666,7.576-.293,9.882-5.07,17.997,15.387-7.788,14.388-24.64,14.583-33.151,2.748,1.141,3.336,7.107,4.059,9.886,3.039-4.969,5.965-10.836,12.154-12.169.105.15-8.586,7.496-8.408,18.078,5.869-4.536,10.328-11.051,17.778-12.884-.284-.267-.501-.472-1.075-1.013,6.039-1.389,10.362-.554,19.018,3.305-1.694-3.533-6.839-9.945-17.473-12.839-10.634-2.895-20.415.997-20.488.854,2.78-3.021,6.827-4.831,10.552-6.275,7.961-3.244,15.911.745,17.751,1.337,2.023.651,5.623.759,7.074-2.034-4.79-1.704-8.681-4.724-13.192-7.104,4.111-1.602,7.335.708,11.145-2.458-4.613-.866-13.483-6.453-13.546-7.627,3.209.475,9.61,1.338,9.651,1.234-7.438-6.024-18.776-12.096-30.971-10.696,2.416-2.206,7.52-3.979,12.555-4.007-3.261-3.089-16.587-2.391-16.587-2.391,12.197-3.493,24.395-3.761,39.934,3.748-11.037-7.848-23.192-14.325-36.6-16.91-4.784-.594-9.243,1.616-10.904,2.714-16.61,10.986-23.649,8.568-25.739,8.372,4.506-1.884,8.902-4.083,12.586-7.261,4.872-4.203,4.549-5.6,15.675-9.234-11.877-2.438-30.772,4.87-35.647,10.074,1.847-7.945,18.646-13.99,18.605-14.146-7.193.237-15.989-.168-16.809-1.654,5.968-.985,11.681-1.402,17.017-4.376-4.383.096-8.782-.484-12.938-1.857-4.341-1.156-8.291-3.502-12.772-4.255-5.872-1.426-13.764.587-19.689.587s-13.817-2.013-19.689-.587c-4.481.753-8.431,3.099-12.772,4.255-4.156,1.373-8.555,1.953-12.938,1.857,5.336,2.974,11.05,3.391,17.017,4.376-.82,1.485-9.616,1.89-16.809,1.654-.041.157,16.758,6.201,18.605,14.146-4.875-5.204-23.77-12.513-35.647-10.074,11.125,3.634,10.803,5.031,15.675,9.234,3.684,3.178,8.08,5.377,12.586,7.261-2.09.196-9.129,2.614-25.739-8.372-1.66-1.098-6.119-3.307-10.904-2.714-13.409,2.585-25.563,9.063-36.6,16.91,15.539-7.509,27.736-7.241,39.934-3.748,0,0-13.326-.699-16.587,2.391,5.034.027,10.139,1.801,12.555,4.007-12.195-1.4-23.533,4.672-30.971,10.696.041.104,6.442-.759,9.651-1.234-.064,1.174-8.933,6.761-13.546,7.627,3.81,3.166,7.034.855,11.145,2.458-4.511,2.38-8.402,5.4-13.192,7.104,1.451,2.793,5.051,2.685,7.074,2.034,1.84-.592,9.79-4.581,17.751-1.337,3.725,1.444,7.772,3.253,10.552,6.275Zm-30.847,15.646c4.451.742,9.842,1.704,12.915,2.068-3.272-4.788-11.588-3.842-12.915-2.068Zm-19.988,9.778c.258.249,5.167.428,7.136,2.916-11.155.263-15.296,3.551-15.296,3.698,29.554,1.223,69.802,33.135,40.048,61.202,9.146-3.338,11.118-8.165,14.158-15.448-.097,3.78-1.739,11.176-1.59,11.243,8.379-13.506,5.193-38.165-1.966-44.966,1.138,3.012,1.45,6.282,1.378,9.925-.167-.017-2.678-3.763-4.601-5.217,3.063,7.284,3.126,12.344,3.04,12.583-2.157-2.808-6.554-9.704-8.413-13.088.248-.313.496-.627.744-.94-3.08-6.323-8.519-11.156-14.584-14.658,3.176-.904,4.37-.074,7.343.611-6.457-5.773-16.365-11.429-27.397-7.861Zm-77.638,48.824c-.432-1.467-1.637-2.515-2.49-3.747-3.677-4.73-5.729-10.116-6.588-16.014-.129-.884.13-2.066-1.247-2.693-.375,1.049-.711,1.992-1.067,2.988-3.824-4.081-3.284-8.416-2.948-16.329-2.138,2.638-7.667,27.209,14.34,35.795Zm35.651-42.573c-9.13-4.164-20.636-6.635-30.703-7.169-3.837-.459-7.747-.572-11.194-2.563-.464,1.775,1.289,3.726,1.945,4.453-1.389,1.205-6.116-1.273-6.116-1.273,0,0,.205,2.593,2.494,4.201-2.775.826-4.96,2.544-7.069,4.753,3.21-.354,3.893-.339,5.903-.093-1.986,3.001-.987,11,2.328,14.277.167-2.9.735-5.717,1.42-8.535,2.205,5.975,7.667,9.751,8.785,16.208.505,0,2.997-6.037,1.474-13.8.224.011,5.14,3.532,9.169,16.702,4.774-4.366-1.315-14.893,1.146-19.1,1.075,5.852,2.99,8.702,4.904,12.191,2.495,3.836,2.679,8.224,3.714,12.596,4.018-4.048,2.697-5.582,3.652-7.75,4.107,4.858,6.709,10.238,7.827,16.575,3.937-4.683,3.186-13.623-.288-19.335,4.698,2.778,12.083,11.155,13.105,23.26.81-.104,4.771-4.433.791-14.945,2.765,3.371,4.176,2.879,6.292,11.221,1.016-10.234-4.265-14.407-7.903-21.757,4.124,1.997,6.016,3.531,8.064,8.118,1.703-4.457-6.957-11.775-10.909-17.932,5.65,2.175,8.783,7.046,11.876,11.764.449-6.78-11.304-18.188-20.708-22.068Zm26.569-6.804c-.822-1.248-1.749-2.722-2.61-3.99,1.022-.573,10.223,1.647,15.973-5.701-4.094-.669-5.518-1.656-7.94-3.203,7.717-.16,12.8-4.365,17.321-10.267-4.297-1.407-7.791-3.742-11.338-6.451,3.235-.626,7.965-.074,9.797-2.808-5.109-1.46-8.083-3.086-10.656-5.967,4.156.134,6.876-.396,6.876-.396,0,0-1.581-1.292-2.446-2.313,2.244-.844,4.7-1.083,6.54-2.863-1.091-1.347-14.28-2.404-16.328-2.895-12.832-1.56-25.386-4.963-37.883-8.201C10.534,55.502,15.916,7.536,13.622,6.48c-4.771-.187-10.762,35.705-8.413,48.451,1.831,22.643,12.71,42.397,32.406,54.201,12.809,8.042,26.561,14.868,41.126,19.059,5.587,1.579,10.71,3.929,16.77,3.538-4.554-3.961-4.776-5.248-6.852-7.477,3.059.19,5.723,1.845,8.952,2.213Zm9.968,105.359c-.841,2.86-1.04,5.969-2.441,8.6.142-4.767-1.32-9.345-1.672-13.269-1.316,1.636-2.361,4.071-3.315,6.002-.243-1.982.255-7.745,2.96-14.364-5.515,2.351-5.908,11.411-5.052,16.687.338,1.723.126,5.66-.605,7.257,1.455-1.692,4.366-5.187,4.66-7.399.356,3.486.889,7.364.356,10.067-.103-.44-1.095-1.895-1.397-2.231.801,4.69.49,9.567-.901,14.118,6.779-6.04,8.186-16.804,7.408-25.467Zm8.289,20.129c-1.354,2.482-2.152,3.853-2.898,4.531.586-11.469-1.145-18.316-1.145-18.316-2.049,15.589-5.24,28.034-7.295,30.65,3.554-.62,5.699-5.879,5.923-5.866,1.354,8.066-.733,14.722-4.876,23.18,0,0,12.434-12.068,10.291-34.18Zm15.648,32.206s-11.475,10.726-13.37,24.681c-2.111-6.155-3.136-14.91-3.779-24.578,0,0-8.111,18.531,4.931,45.008l3.117-17.944c1.125,7.778,3.166,15.186,5.995,22.275,0,0,.012-9.387-.934-21.68-.946-12.293-.687-13.037,4.041-27.762Zm10.022,41.487s3.104,15.94,9.353,21.4c-.78-3.147-5.559-24.491,1.492-49.217,0,0-7.839,6.649-8.633,15.877,0,0-2.282-4.267-1.489-7.442,0,0-4.267,8.038-5.359,17.267,0,0,.893-14.786,2.679-20.74,1.786-5.954-.099-14.488-.099-14.488,0,0-1.488,8.038-4.664,19.053-3.175,11.015-3.076,15.282-1.687,22.923,1.389,7.641,1.29,17.267-.099,20.045,0,0,4.465-2.481,5.954-12.106,1.488-9.626,2.552-12.572,2.552-12.572Zm21.011,66.217c-1.51-11.689-2.113-21.082-2.365-21.434-.934,1.398-1.939,6.662-2.168,6.671-.89-1.737-1.956-6.47-3.006-8.519-.762.837-1.221,4.53-1.894,5.269-6.021-5.555-10.411-12.664-10.3-21.209-2.071,2.931-2.559,7.616-1.406,10.323,1.504,4.969,3.832,7.824,7.321,11.597,2.728,2.741,3.882,6.044,4.957,9.705,1.674-1.289,1.163-3.066,1.586-4.782,2.032,3.433,3.727,2.918,7.275,12.379Zm17.438-17.129c.094-.101-12.242-18.355-13.913-36.443-.255-6.706.64-13.291,2.477-19.858,5.624-20.105,43.502-25.342,66.149-27.651-1.293-1.747-28.39-4.662-51.779,7.288.812-1.741,11.273-8.583,11.234-8.712-6.929.114-11.416,2.897-16.326,6.152-.09-.112,3.603-7.401,9.882-12.124-15.821,3.473-24.049,22.132-24.263,22.114.226-2.135.093-9.383,3.671-21.708-19.879,22.492-11.157,65.267-10.761,65.96.673-2.564,1.162-23.589,4.897-29.882.249.02.646,7.954.867,11.886.851,17.239,9.115,36.215,17.864,42.978Zm-2.878,28.88c1.256,4.139,7.982,10.643,7.982,10.643.219-1.365-7.169-10.421-9.871-25.077-1.483.962-1.925,6.337-2.202,8.167-3.161-7.847-6.558-24.195-6.558-24.195,0,0,1.69,21.724,12.127,44.431.229.499-1.668-13.834-1.478-13.969Zm25.502,51.116s-10.054-20.887-10.941-28.573l-2.513,5.839-7.465-14.339s2.217,13.969,9.756,23.356l-.091-4.428s7.413,15.75,11.254,18.145Zm10.76-19.159c-.008-.286-3.076-6.384-1.886-8.945,2.801,4.409,5.962,7.916,9.495,11.421,3.17,3.197,4.926,7.149,6.866,11.122,1.665-6.16-2.118-11.444-2.761-14.804,1.47.957,3.096,2.361,4.582,5.77,1.84-7.547-4.406-8.606-5.108-12.204-.698-3.313-.796-8.348-1.922-11.53-.887,8.795-.094,11.73-1.774,15.078-2.776-3.938-7.539-8.795-11.826-20.178-1.216,2.834-3.04,6.441-3.316,9.642-3.499-4.198-6.145-6.242-9.99-14.687-1.846,13.472,16.207,29.823,17.638,29.316Zm55.033,9.459c-1.482,3.445-2.462,8.917-5.566,11.948-.849-1.895-.591-3.178-1.376-7.141-2.767,4.1-6.326,9.725-8.921,13.946.11-.33-1.287-5.6-3.599-7.84-6.356,5.395-5.765,17.073-12.229,26.156-6.464-9.082-5.872-20.76-12.229-26.156-2.312,2.24-3.709,7.51-3.599,7.84-2.594-4.22-6.154-9.845-8.92-13.946-.784,3.963-.526,5.246-1.376,7.141-3.104-3.03-4.084-8.503-5.566-11.948-.646,1.295-.051,10.765,6.711,18.674.599-1.618.291-4.267,1.737-5.766,4.435,9.017,9.617,15.955,9.617,15.955,0,0,1.12-6.494,2.275-8.195,2.544,10.796,8.203,13.995,11.35,22.055,3.146-8.059,8.806-11.259,11.35-22.055,1.155,1.701,2.275,8.195,2.275,8.195,0,0,5.182-6.938,9.617-15.955,1.446,1.499,1.139,4.148,1.737,5.766,6.763-7.909,7.358-17.379,6.711-18.674Zm9.292-38.775c-3.845,8.446-6.491,10.49-9.99,14.687-.276-3.2-2.1-6.808-3.316-9.642-4.287,11.382-9.05,16.24-11.826,20.178-1.68-3.347-.887-6.282-1.774-15.078-1.125,3.182-1.224,8.217-1.922,11.53-.701,3.598-6.948,4.656-5.108,12.204,1.486-3.408,3.112-4.813,4.582-5.77-.643,3.36-4.426,8.644-2.761,14.804,1.94-3.973,3.696-7.925,6.866-11.122,3.533-3.505,6.694-7.011,9.495-11.421,1.19,2.562-1.877,8.659-1.886,8.945,1.431.507,19.484-15.844,17.638-29.316Zm14.041,11.402l-7.465,14.339-2.513-5.839c-.887,7.687-10.941,28.573-10.941,28.573,3.841-2.395,11.254-18.145,11.254-18.145l-.091,4.428c7.539-9.387,9.756-23.356,9.756-23.356Zm15.231-44.505s-3.397,16.348-6.558,24.195c-.277-1.83-.718-7.205-2.202-8.167-2.702,14.656-10.09,23.712-9.871,25.077,0,0,6.726-6.504,7.982-10.643.189.135-1.708,14.468-1.478,13.969,10.437-22.708,12.127-44.431,12.127-44.431Zm4.337-41.397c.221-3.932.618-11.866.867-11.886,3.735,6.293,4.223,27.318,4.897,29.882.397-.693,9.118-43.468-10.761-65.96,3.578,12.325,3.446,19.573,3.671,21.708-.214.017-8.442-18.641-24.263-22.114,6.279,4.723,9.973,12.013,9.882,12.124-4.91-3.255-9.397-6.038-16.326-6.152-.039.129,10.422,6.971,11.234,8.712-23.389-11.949-50.486-9.035-51.779-7.288,22.647,2.308,60.525,7.546,66.149,27.651,1.837,6.567,2.732,13.152,2.477,19.858-1.671,18.088-14.007,36.342-13.913,36.443,8.749-6.763,17.013-25.739,17.864-42.978Zm19.307,20.885c.111,8.545-4.278,15.654-10.3,21.209-.673-.739-1.132-4.432-1.894-5.269-1.05,2.049-2.116,6.783-3.006,8.519-.229-.01-1.234-5.274-2.168-6.671-.253.352-.855,9.745-2.365,21.434,3.548-9.461,5.243-8.946,7.275-12.379.423,1.716-.089,3.493,1.586,4.782,1.075-3.662,2.229-6.964,4.957-9.705,3.489-3.773,5.817-6.628,7.321-11.597,1.153-2.706.665-7.391-1.406-10.323Zm9.685-22.362c1.389-7.641,1.489-11.908-1.687-22.923-3.175-11.015-4.664-19.053-4.664-19.053,0,0-1.885,8.534-.099,14.488,1.786,5.954,2.679,20.74,2.679,20.74-1.092-9.229-5.359-17.267-5.359-17.267.794,3.175-1.488,7.442-1.488,7.442-.794-9.229-8.633-15.877-8.633-15.877,7.051,24.725,2.272,46.069,1.492,49.217,6.249-5.461,9.353-21.4,9.353-21.4,0,0,1.063,2.946,2.552,12.572,1.488,9.626,5.954,12.106,5.954,12.106-1.389-2.779-1.488-12.404-.099-20.045Zm18.764-46.018c-.643,9.668-1.667,18.424-3.779,24.578-1.895-13.954-13.37-24.681-13.37-24.681,4.728,14.725,4.986,15.469,4.041,27.762-.946,12.293-.934,21.68-.934,21.68,2.829-7.09,4.87-14.497,5.995-22.275l3.117,17.944c13.042-26.477,4.931-45.008,4.931-45.008Zm3.914-21.309c.224-.013,2.369,5.246,5.923,5.866-2.055-2.616-5.246-15.061-7.295-30.65,0,0-1.73,6.846-1.145,18.316-.746-.678-1.544-2.049-2.898-4.531-2.143,22.111,10.291,34.18,10.291,34.18-4.143-8.458-6.23-15.114-4.876-23.18Zm12.999-20.216c-.731-1.597-.943-5.534-.605-7.257.855-5.276.462-14.336-5.052-16.687,2.704,6.62,3.202,12.383,2.96,14.364-.953-1.931-1.998-4.365-3.315-6.002-.352,3.924-1.814,8.502-1.672,13.269-1.401-2.631-1.6-5.74-2.441-8.6-.778,8.663.628,19.426,7.408,25.467-1.391-4.55-1.703-9.427-.901-14.118-.302.336-1.294,1.791-1.397,2.231-.534-2.704,0-6.581.356-10.067.294,2.212,3.206,5.707,4.66,7.399Zm18.713-114.545c14.565-4.191,28.316-11.017,41.126-19.059,19.696-11.804,30.575-31.559,32.406-54.201,2.349-12.745-3.642-48.638-8.413-48.451-2.294,1.056,3.087,49.022-51.294,64.93-12.497,3.238-25.051,6.64-37.883,8.201-2.048.491-15.237,1.548-16.328,2.895,1.84,1.781,4.296,2.019,6.54,2.863-.865,1.021-2.446,2.313-2.446,2.313,0,0,2.72.53,6.876.396-2.573,2.881-5.547,4.507-10.656,5.967,1.832,2.735,6.562,2.183,9.797,2.808-3.547,2.709-7.041,5.044-11.338,6.451,4.521,5.902,9.604,10.107,17.321,10.267-2.422,1.547-3.847,2.534-7.94,3.203,5.75,7.348,14.95,5.128,15.973,5.701-.861,1.268-1.788,2.742-2.61,3.99,3.229-.368,5.894-2.023,8.952-2.213-2.076,2.23-2.298,3.517-6.852,7.477,6.06.391,11.183-1.96,16.77-3.538Zm48.69,13.129c.685,2.817,1.253,5.634,1.42,8.535,3.314-3.277,4.314-11.276,2.328-14.277,2.01-.246,2.693-.261,5.903.093-2.11-2.209-4.294-3.927-7.069-4.753,2.289-1.607,2.494-4.201,2.494-4.201,0,0-4.727,2.479-6.116,1.273.656-.727,2.409-2.678,1.945-4.453-3.447,1.99-7.357,2.104-11.194,2.563-10.067.534-21.573,3.005-30.703,7.169-9.404,3.88-21.157,15.288-20.708,22.068,3.093-4.719,6.226-9.59,11.876-11.764-3.952,6.156-12.612,13.474-10.909,17.932,2.048-4.588,3.94-6.121,8.064-8.118-3.639,7.35-8.919,11.523-7.903,21.757,2.115-8.342,3.527-7.851,6.292-11.221-3.981,10.512-.019,14.842.791,14.945,1.022-12.105,8.407-20.483,13.105-23.26-3.474,5.712-4.225,14.653-.288,19.335,1.118-6.337,3.72-11.717,7.827-16.575.955,2.168-.366,3.703,3.652,7.75,1.036-4.372,1.219-8.76,3.714-12.596,1.914-3.489,3.829-6.339,4.904-12.191,2.462,4.206-3.628,14.734,1.146,19.1,4.03-13.17,8.945-16.692,9.169-16.702-1.523,7.763.969,13.8,1.474,13.8,1.118-6.456,6.581-10.233,8.785-16.208Zm8.999-1.273c.336,7.913.875,12.248-2.948,16.329-.355-.995-.692-1.939-1.067-2.988-1.377.627-1.119,1.809-1.247,2.693-.858,5.898-2.911,11.285-6.588,16.014-.853,1.231-2.058,2.279-2.49,3.747,22.007-8.586,16.478-33.157,14.34-35.795Zm-199.836,323.737c-.003.005-.006.011-.01.016.004-.002.007-.008.01-.016ZM394.368,118.391c11.422.418,27.662-9.405,37.215-15.645,18.232-11.707,33.435-43.38,31.81-64.896l-.151.101s-.181-.014-.181-.014c-4.133,15.883-11.164,30.948-23.795,41.886-16.097,13.923-34.84,25.438-56.168,28.563,5.233,1.864,16.457,1.366,16.479,1.542-2.281.807-4.561,1.614-7.244,2.564,3.613,1.726,13.53-1.667,14.337-1.606-4.07,4.206-8.43,5.901-12.302,7.506Z" fill="#363436"/>
  </g>
</svg>