<?xml version="1.0" encoding="UTF-8"?>
<svg id="b" data-name="Layer 2" xmlns="http://www.w3.org/2000/svg" width="368.352" height="500" viewBox="0 0 368.352 500">
  <g id="c" data-name="fox">
    <path d="m172.599,219.913c-.991-.324-11.153-16.936-22.292-23.732,6.234,7.409,22.866,27.567,11.704,55.507-.365.915-1.059-14.265-2.713-20.129-.458,6.904-2.22,12.959-6.266,16.904,1.67-16.284.903-29.578-8.879-39.79-8.613-8.992-19.343-13.284-32.142-17.269,5.678-.499,13.19.851,18.785,2.645-7.346-5.241-14.34-6.937-27.126-8.364,11.713-3.018,23.853-2.393,34.062,3.076-5.038-5.076-24.24-9.818-24.332-10.716,5.663-1.524,26.662,1.938,40.612,12.362,13.949,10.424,19.156,28.729,18.587,29.506Zm-22.208,34.416c-2.644,5.11-7.689,10.484-8.466,10.627.066-5.817.167-7.719-.834-9.82-4.003,6.306-7.674,10.125-12.861,13.111,1.662-3.409,2.11-5.899,2.583-8.72-3.198,2.005-6.775,4.661-8.834,5.365,1.545-1.734,2.683-3.469,2.677-6.384-6.308,6.167-7.527,7.658-13.001,11.153,5.393.488,6.422.596,12.115-.674-.978,2.552-1.628,4.386-4.047,8.367,5.027-1.216,10.873-4.225,16.665-9.458-1.251,5.004-.801,5.705-5.65,14.418,4.902-.801,23.016-15.269,19.654-27.986Zm15.342,129.476c.267-.327-10.818-8.073-16.533-21.351.258,9.055,7.537,20.001,16.533,21.351Zm-10.439-97.451c3.514-6.095,6.7-12.287,7.451-19.436-2.077,2.062-3.554,4.549-5.436,7.111,2.198-7.032,3.934-14.736,2.762-17.7-12.675,26.832-20.882,31.336-26.793,37.842,4.76-.15,8.536-2.237,9.801-2.759-2.648,5.26-6.24,9.857-9.98,14.531,2.38.839,10.745-4.969,13.897-7.217-2.095,8.94-5.255,13.061-10.605,22.296,6.402-3.229,8.403-5.03,10.834-8.499-1.088,6.004-3.842,11.614-7.682,16.305,14.089-6.666,21.649-30.26,21.219-30.605-1.855,1.054-2.495,1.778-4.094,1.859,3.49-3.958,5.007-7.154,6.392-10.964-1.402.87-3.669,2.592-5.551,3.762.644-1.315,5.351-10.317,6.102-14.421-2.486,2.321-5.829,5.504-8.316,7.898Zm-54.436-47.351c5.404,1.223,9.331,1.679,13.426,1.283-14.538-4.506-12.873-15.207-11.539-22.009-5.834-1.274-20.09-3.42-20.09-3.42,0,0,10.654-1.839,22.272.033-3.261-1.417-5.946-2.639-9.926-3.818,10.633-.91,18.881-.325,30.498,6.084,6.668,3.679,9.044,6.821,12.988,10.927-2.247-6.145-6.78-11.77-12.608-16.498,4.448.743,7.054,1.816,13.4,6.358-2.549-6.56-15.208-16.861-14.618-16.649,6.816,2.45,17.848,8.968,21.336,18.143,4.752,10.851-1.644,25.773-11.708,30.479,1.633-3.557,2.247-5.626,2.35-7.639-5.99-.987-11.096,1.642-16.679,3.008-7.016,1.698-14.605-.781-19.103-6.281Zm17.748-2.906c3.964.095,7.088-1.446,9.22-4.851.566-.903.798-1.67-.46-2.289-1.274-.627-1.866-1.048-3.323-1.915-5.386,6.672-13.873,1.61-11.706-4.858.208-.774-.002-1.103-.732-1.432-7.603-4.063-6.034,15.642,7,15.345Zm-39.088,130.382c2.934-16.14,8.068-16.981,7.563-28.848-.781,2.759-4.294,7.804-6.245,9.89-3.191,3.412-5.454,6.521-6.542,14.147,1.362-1.705,2.706-3.388,4.051-5.071.146,3.434-.122,6.707,1.174,9.882Zm-32.489-107.739c4.704-3.671,14.803-8.552,19.252-9.467.299.775-8.208,9.566-8.825,17.158,4.925-5.703,15.991-12.877,23.646-16.677-3.195-.071-5.85-.183-8.885.135,1.633-3.159,4.764-5.593,10.235-9.716-8.837,0-15.906,2.777-18.623,4.063,2.632-6.335,15.318-10.286,23.851-13.406-17.584-6.025-40.745,15.655-40.652,27.911Zm37.541,123.269c.111.292,1.416-9.115,3.352-16.857.396,2.773-1.262,12.54,4.014,17.918.194-3.022,1.457-7.903,2.719-11.27-.874,13.761,6.649,23.397,9.588,25.804-.667-3.922-1.003-6.279.848-11.749,3.98-8.475,10.84-13.298,10.28-23.349-1.736,3.823-5.139,8.941-8.176,11.903.875-3.505,3.198-7.322,4.516-12.087-2.607,1.853-3.489,5.168-6.581,6.464.718-2.372,1.812-8.095,1.812-8.095,0,0-3.787,5.47-4.985,8.353-.21-5.467,2.201-10.474,2.519-15.891-3.346,3.382-4.121,7.322-6.31,11.72-.854-5.644-.144-12.907-1.156-18.236-1.094,2.104-3.654,10.715-5.05,12.792.377-4.941,2.188-18.01,2.105-21.586-2.61,4.08-5.276,10.307-7.236,15.801-4.16,8.893-6.073,18.983-2.261,28.365Zm-26.534-148.173c5.623-6.597,21.071-8.923,21.071-8.923,0,0-4.839-1.334-8.049-1.198,1.783-2.121,3.892-3.207,9.286-5.736-20.3.634-31.665,15.109-31.391,15.837,4.884-3.093,10.392-5.456,12.806-6.301-3.279,2.796-4.169,5.918-3.722,6.321Zm14.232,54.225c.454-3.691,2.068-10.221,3.03-13.382-2.525,1.431-7.059,6.211-8.164,7.154.41-3.719,2.403-8.579,4.208-12.54-9.177,7.626-19.525,25.417-19.46,35.445,5.321-6.494,9.483-11.892,13.737-14.826-1.609,3.184-2.525,8.248-3.588,13.331,3.42-2.643,4.851-3.905,7.46-5.757-1.094,4.713-1.936,10.352-1.667,14.057,1.634-.911,9.747-23.399,18.331-33.919-5.29.886-10.647,7.171-13.887,10.436Zm162.805,6.11c-5.911-6.506-14.118-11.01-26.793-37.842-1.171,2.964.565,10.668,2.762,17.7-1.882-2.562-3.359-5.048-5.436-7.111.751,7.149,3.936,13.341,7.451,19.436-2.487-2.394-5.831-5.577-8.316-7.898.751,4.104,5.457,13.106,6.102,14.421-1.883-1.17-4.15-2.891-5.551-3.762,1.386,3.81,2.903,7.006,6.392,10.964-1.599-.081-2.239-.805-4.094-1.859-.43.345,7.129,23.939,21.219,30.605-3.84-4.691-6.594-10.301-7.682-16.305,2.431,3.468,4.432,5.27,10.834,8.499-5.351-9.234-8.511-13.355-10.605-22.296,3.152,2.248,11.517,8.056,13.897,7.217-3.74-4.674-7.332-9.271-9.98-14.531,1.265.522,5.041,2.609,9.801,2.759Zm61.935-24.877c1.806,3.961,3.798,8.821,4.208,12.54-1.104-.943-5.639-5.723-8.164-7.154.962,3.16,2.576,9.69,3.03,13.382-3.239-3.265-8.597-9.55-13.887-10.436,8.584,10.52,16.697,33.008,18.331,33.919.268-3.705-.573-9.344-1.667-14.057,2.609,1.852,4.04,3.114,7.46,5.757-1.063-5.083-1.979-10.147-3.588-13.331,4.253,2.934,8.416,8.332,13.737,14.826.066-10.029-10.283-27.819-19.46-35.445Zm-16.338-38.463c8.533,3.12,21.219,7.071,23.851,13.406-2.716-1.286-9.786-4.063-18.623-4.063,5.47,4.124,8.602,6.557,10.235,9.716-3.035-.318-5.69-.206-8.885-.135,7.656,3.8,18.722,10.974,23.646,16.677-.617-7.592-9.124-16.383-8.825-17.158,4.449.915,14.548,5.796,19.252,9.467.093-12.256-23.067-33.935-40.652-27.911Zm69.285,12.531c6.219,10.662,11.68,21.172,11.962,33.455-4.444-8.189-7.114-11.751-12.872-15.807,2.621,5.383,6.314,10.289,8.448,16.01,2.73,7.085,4.101,14.675,2.348,22.171-2.635-7.721-8.423-12.414-14.113-17.213,2.103,6.687,8.735,25.299,3.501,37.034-3.878-6.809-9.301-11.91-15.083-16.967,3.427,13.121,2.084,38.596-4.623,46.547-2.142-7.243-6.683-12.796-11.719-18.116,7.833,26.03,4.642,64.926-21.917,79.079,2.229-6.847,2.414-9.027,2.535-13.509-3.846,7.189-10.701,22.481-22.737,32.215,1.19-8.002-2.049-7.625-2.506-13.047-3.238,5.292-6.198,10.571-9.856,15.595-3.982,5.853-7.79,11.575-8.096,19.113-4.623-1.661-5.981-5.394-7.203-9.647-5.46,5.795-10.947,11.229-14.519,18.583-1.117-3.749-2.136-7.168-3.213-10.785-4.293,3.537-3.585,9.096-3.585,9.096,0,0-2.039-2.858-2.674-2.991-.49,8.942-4.633,8.716-12.036,24.309-.789-1.467-.765-1.465-.639-3.925.073-4.607-.041-9.862-3.331-13.457-.636,7.961-7.229,12.756-8.696,20.31-1.844-2.735-2.378-5.763-2.455-8.914-1.829-.226-12.7,27.501-12.7,27.501,0,0-10.871-27.727-12.7-27.501-.077,3.151-.611,6.179-2.455,8.914-1.467-7.554-8.06-12.349-8.696-20.31-3.29,3.595-3.404,8.85-3.331,13.457.125,2.46.149,2.459-.639,3.925-7.403-15.593-11.546-15.367-12.036-24.309-.635.133-2.674,2.991-2.674,2.991,0,0,.708-5.559-3.585-9.096-1.077,3.616-2.096,7.036-3.213,10.785-3.572-7.354-9.059-12.788-14.519-18.583-1.222,4.253-2.581,7.986-7.203,9.647-.306-7.537-4.114-13.26-8.096-19.113-3.658-5.024-6.618-10.303-9.856-15.595-.456,5.422-3.695,5.046-2.506,13.047-12.037-9.734-18.891-25.025-22.737-32.215.12,4.482.306,6.662,2.535,13.509-26.559-14.153-29.75-53.049-21.917-79.079-5.036,5.32-9.577,10.873-11.719,18.116-6.707-7.952-8.05-33.426-4.623-46.547-5.783,5.058-11.206,10.158-15.083,16.967-5.234-11.735,1.399-30.347,3.501-37.034-5.69,4.798-11.478,9.492-14.113,17.213-1.753-7.496-.382-15.086,2.348-22.171,2.135-5.721,5.828-10.627,8.448-16.01-5.757,4.056-8.428,7.618-12.872,15.807.282-12.283,5.743-22.792,11.962-33.455-4.279,3.271-11.811,7.263-18.396,6.613.379-.99,28.354-22.4,26.848-36.577-2.54.867-5.049,1.724-7.731,2.64,1.041-3.639,7.641-8.335,11.195-11.228-2.033.694-5.197,1.673-9.699.98,5.998-5.649,13.23-9.589,18.093-16.627-3.641.327-6.875-.633-10.606.229,3.419-6.411,16.87-14.921,16.87-14.921,0,0-9.158,1.429-13.712-2.196,0,0,10.731-4.209,15.327-9.329-4.972-.153-8.211-4.521-8.211-4.521,2.736-.429,4.588-.523,5.574-2.335-4.501-1.993-8.286-5.649-8.437-9.792,0,0,5.99,3.047,9.569,3.304-6.104-4.66-9.457-9.131-11.076-16.034,3.327,2.064,6.691,3.86,9.485,5.649-15.135-15.216-12.829-30.44-12.829-30.44,0,0,6.228,7.845,6.169,7.552C28.969,79.933,41.665,20.031,76.026.403c10.831-2.749,18.073,9.181,22.456,17.366,13.189,22.615,25.947,45.976,38.589,68.619-.213-3.128-.81-6.292.995-8.488,1.902,5.305,4.904,12.411,12.255,14.56-3.146-3.55-4.423-6.512-3.983-9.522,5.29,5.422,8.321,6.164,13.732,7.807-2.086-1.284-3.426-3.616-4.105-6.053,1.103.102,3.871,3.518,10.549,4.419,4.829.651,9.732.419,14.392,1.916.898.285,2.352.471,3.269.523.917-.052,2.371-.238,3.269-.523,4.66-1.496,9.563-1.264,14.392-1.916,6.678-.901,9.445-4.317,10.549-4.419-.68,2.437-2.019,4.769-4.105,6.053,5.411-1.643,8.442-2.385,13.732-7.807.441,3.01-.836,5.973-3.983,9.522,7.35-2.149,10.353-9.255,12.255-14.56,1.805,2.196,1.208,5.36.995,8.488,12.642-22.643,25.4-46.004,38.589-68.619,4.384-8.185,11.625-20.115,22.456-17.366,34.362,19.628,47.057,79.53,39.198,115.925-.059.293,6.169-7.552,6.169-7.552,0,0,2.305,15.224-12.829,30.44,2.794-1.789,6.158-3.585,9.485-5.649-1.619,6.902-4.972,11.374-11.076,16.034,3.579-.257,9.569-3.304,9.569-3.304-.151,4.143-3.936,7.799-8.437,9.792.986,1.812,2.838,1.906,5.574,2.335,0,0-3.239,4.369-8.211,4.521,4.596,5.12,15.327,9.329,15.327,9.329-4.555,3.625-13.712,2.196-13.712,2.196,0,0,13.451,8.51,16.87,14.921-3.731-.862-6.966.099-10.606-.229,4.863,7.038,12.095,10.978,18.093,16.627-4.502.693-7.666-.286-9.699-.98,3.554,2.893,10.154,7.589,11.195,11.228-2.682-.916-5.191-1.773-7.731-2.64-1.506,14.177,26.469,35.586,26.848,36.577-6.584.65-14.117-3.343-18.396-6.613Zm-43.079-41.156c12.203,10.332,18.72,16.22,30.761,26.889-2.16-4.531-5.646-8.466-8.711-12.457-4.599-5.394-14.906-14.641-22.05-14.432Zm-24.458-28.779c-.162.493,24.466,10.773,40.041,22.715-6.553-15.202-28.66-24.142-40.041-22.715Zm-5.645-22.413c-3.995.441-7.081,1.763-9.491,3.736,17.198-.334,41.656,19.082,41.656,19.082,0,0-5.442-14.111-20.455-20.316,5.431.944,9.208,2.102,17.52,4.681-13.216-14.489-35.059-14.718-44.048-10.082,4.808.947,10.313,1.473,14.818,2.899Zm34.033-38.083c-.207,3.779-1.372,16.581-4.147,28.135,5.291-3.378,9.759-9.434,11.587-13.797,3.771-8.988,6.625-22.742,4.393-30.456-3.256,14.06-4.328,16.952-7.639,24.522-.612-2.077-2.25-5.488-4.194-8.403Zm-50.673-4.976c-4.452-19.238,3.159-47.886,17.05-66.517-4.632,17.506-14.648,34.837-12.778,53.946,1.005,24.465,23.94,37.404,24.442,37.037-2.557-4.65-5.145-9.256-5.954-14.648,3.672,5.278,4.873,6.765,11.474,10.472-4.657-12.169-5.061-17.183-7.597-26.023,4.34,5.287,8.604,10.574,14.033,14.838-5.433-10.246-9.092-24.94-9.092-24.94,0,0,7.833,12.121,13.426,14.744-6.794-16.23-10.711-29.196-9.599-29.907,3.377,4.986,7.763,9.067,13.163,11.369-6.184-9.413-8.585-13.301-12.591-26.49,2.295.544,8.286,5.716,10.21,6.392-2.144-10.013-8.179-20.958-10.026-24.743,2.107,1.008,3.822,2.151,7.553,4.02-1.958-6.157-6.705-11.888-6.705-11.888,0,0,4.387,1.826,8.226,5.868-2.316-7.838-11.196-25.262-15.933-25.262-22.34,0-42.424,75.821-29.3,91.732Zm-128.494.913c8.021-1.271,15.824-1.211,23.593.71-22.319,3.403-36.515,8.346-48.96,19.407,11.033-4.318,28.043-10.899,55.966-10.799-3.777-1.265-11.209-3.103-16.575-3.105,7.537-3.028,19.251-2.367,27.384-2.6-1.144-1.11-12.511-5.605-12.511-5.605,0,0,13.311-3.003,23.64.2,10.329-3.202,23.64-.2,23.64-.2,0,0-11.367,4.494-12.511,5.605,8.133.233,19.846-.428,27.384,2.6-5.365.002-12.798,1.84-16.575,3.105,27.924-.1,44.933,6.481,55.966,10.799-12.445-11.061-26.641-16.004-48.96-19.407,7.769-1.922,15.571-1.982,23.593-.71-.758-.967-7.695-2.863-17.035-4.605,2.631-2.187,4.87-4.847,6.567-7.818-5.339,2.621-11.381,3.794-17.314,3.36.669-.781,1.088-1.773,1.181-2.798-3.46,1.601-7.207,2.58-11.007,2.877.903-.695,1.627-1.62,2.086-2.662-1.208.592-4.228,1.601-6.767,2.385-2.26.698-4.619,1.021-6.984.955-1.107-.031-2.197-.047-3.265-.047s-2.158.016-3.265.047c-2.364.066-4.724-.258-6.984-.955-2.539-.784-5.559-1.793-6.767-2.385.459,1.043,1.184,1.967,2.086,2.662-3.801-.297-7.547-1.276-11.007-2.877.093,1.024.511,2.017,1.181,2.798-5.932.434-11.974-.739-17.314-3.36,1.697,2.972,3.936,5.631,6.567,7.818-9.34,1.742-16.277,3.638-17.035,4.605Zm58.862,30.536c-.188-.452,18.115-7.106,60.793,1.518-9.75-6.522-35.602-8.13-35.772-9.325,1.147-.054,14.299.328,15.646.264-14.912-5.08-33.274-8.618-46.993-.064-13.719-8.554-32.081-5.015-46.993.064,1.348.064,14.5-.318,15.646-.264-.171,1.195-26.022,2.802-35.772,9.325,42.678-8.624,60.982-1.97,60.793-1.518-11.617-1.345-21.241-1.248-25.814,2.3,21.71.102,30.678,5.07,32.139,5.015,1.461.055,10.429-4.912,32.139-5.015-4.573-3.548-14.196-3.645-25.814-2.3Zm-98.923,11.61c4.505-1.427,10.01-1.952,14.818-2.899-8.989-4.636-30.831-4.407-44.048,10.082,8.312-2.579,12.089-3.737,17.52-4.681-15.013,6.205-20.455,20.316-20.455,20.316,0,0,24.458-19.415,41.656-19.082-2.411-1.973-5.496-3.295-9.491-3.736Zm-19.335-89.179c-4.006,13.189-6.407,17.077-12.591,26.49,5.399-2.301,9.786-6.383,13.163-11.369,1.112.711-2.805,13.677-9.599,29.907,5.594-2.623,13.426-14.744,13.426-14.744,0,0-3.659,14.694-9.092,24.94,5.43-4.264,9.693-9.551,14.033-14.838-2.537,8.841-2.94,13.854-7.597,26.023,6.601-3.707,7.802-5.194,11.474-10.472-.809,5.392-3.397,9.998-5.954,14.648.502.367,23.437-12.571,24.442-37.037,1.87-19.108-8.146-36.44-12.778-53.946,13.89,18.631,21.502,47.28,17.05,66.517,13.124-15.911-6.96-91.732-29.3-91.732-4.737,0-13.617,17.424-15.933,25.262,3.84-4.042,8.226-5.868,8.226-5.868,0,0-4.747,5.731-6.705,11.888,3.731-1.869,5.446-3.012,7.553-4.02-1.847,3.785-7.882,14.73-10.026,24.743,1.924-.676,7.915-5.849,10.21-6.392Zm-22.137,65.433c1.828,4.363,6.296,10.419,11.587,13.797-2.775-11.554-3.94-24.356-4.147-28.135-1.944,2.916-3.582,6.327-4.194,8.403-3.311-7.57-4.383-10.462-7.639-24.522-2.233,7.714.622,21.469,4.393,30.456Zm-4.214,68.872c15.576-11.942,40.203-22.221,40.041-22.715-11.381-1.428-33.489,7.513-40.041,22.715Zm-15.178,32.953c12.041-10.669,18.558-16.557,30.761-26.889-7.144-.209-17.451,9.038-22.05,14.432-3.065,3.991-6.551,7.926-8.711,12.457Zm105.876,175.232c1.366,5.364,1.324,12.755.062,17.468-5.016-5.527-8.079-11.278-4.965-21.629-3.336,2.391-7.488,5.479-10.136,8.724-.692-4.445-.384-7.378,1.093-13.403-8.727,8.335-8.456,24.686-.495,33.08,3.956,4.313,8.293,8.32,10.862,13.793,2.3-10.361-12.113-18.387-7.07-27.889,2.013,10.069,12.231,12.052,12.564,25.755,1.342-4.262,6.565-26.006-1.914-35.899Zm-11.105-48.726c.167,8.559.804,25.743,10.649,28.736-5.017-9.494-7.599-19.767-9.853-30.323-.94.643-.797,1.156-.796,1.587Zm48.626,72.108c-7.329,5.952-8.558,18.005-9.143,17.978-1.854-.354-.543-10.764,2.463-23.443-4.557,4.288-8.055,9.305-11.039,15.031-.989-1.669-2.655-7.907-2.022-21.546-2.971,4.614-2.637,10.052-4.304,15.261-3.547-6.297.143-12.996-.302-19.546-8.315,9.171-7.84,25.452-.921,35.374,2.202,3.183,4.208,8.195,4.809,12.006,4.292-5.975,1.767-12.708,6.228-17.169-2.667,8.003,5.47,16.411,8.439,19.113-.81-11.591,2.215-22.361,5.791-33.06Zm16.231,7.57c-.289,8.584.381,17.245-2.281,25.81-1.398-12.952-3.884-22.231-3.884-22.231,0,0-2.486,9.279-3.884,22.231-2.662-8.565-1.992-17.226-2.281-25.81-.966.03-4.091,15.349-2.257,22.588,1.272,7.503,6.492,13.479,8.422,20.739,1.93-7.26,7.15-13.236,8.422-20.739,1.834-7.238-1.291-22.557-2.257-22.588Zm28.247-23.834c-.445,6.55,3.245,13.248-.302,19.546-1.667-5.209-1.333-10.647-4.304-15.261.633,13.639-1.033,19.876-2.022,21.546-2.984-5.726-6.482-10.744-11.039-15.031,3.006,12.679,4.316,23.089,2.463,23.443-.585.026-1.814-12.026-9.143-17.978,3.576,10.699,6.602,21.469,5.791,33.06,2.969-2.702,11.106-11.11,8.439-19.113,4.461,4.461,1.936,11.193,6.228,17.169.601-3.811,2.607-8.823,4.809-12.006,6.919-9.922,7.394-26.203-.921-35.374Zm7.685-17.059c-3.947,1.733-5.141,2.525-6.291,2.832,1.392-2.894,1.392-3.37,1.728-5.431-13.854,1.731-25.801,6.756-37.534,6.756s-23.68-5.025-37.534-6.756c.336,2.061.336,2.537,1.728,5.431-1.15-.307-2.345-1.099-6.291-2.832,3.165,3.74,6.667,6.96,10.724,9.39-.554-1.87-.864-2.567-1.255-4.873,2.757,3.957,3.453,5.386,9.058,7.401-1.429-1.942-2.088-3.517-2.101-4.904,4.068,4.32,7.884,6.287,11.053,8.191-1.178-2.441-2.453-3.231-2.47-4.834,2.66,1.696,5.984,4.204,8.782,5.507-.673-1.852-.523-4.189-.435-5.709,3.699,1.941,6.41,4.83,8.74,6.634,2.33-1.805,5.041-4.694,8.74-6.634.088,1.52.238,3.857-.435,5.709,2.798-1.303,6.122-3.811,8.782-5.507-.016,1.603-1.292,2.393-2.47,4.834,3.17-1.904,6.985-3.871,11.053-8.191-.013,1.387-.672,2.962-2.101,4.904,5.605-2.015,6.301-3.444,9.058-7.401-.391,2.306-.701,3.003-1.255,4.873,4.056-2.43,7.559-5.65,10.724-9.39Zm-52.284-23.004c-2.258,3.607-6.185-.263-9.107.381,1.897,2.544,6.368,4.017,9.105,3.017,8.201-3.814.472-13.337-6.842-12.054,3.559,2.171,8.143,5.227,6.844,8.656Zm10.188-21.797c10.103,0,16.247-3.207,17.985-1.667-1.262,1.552-3.3,2.146-5.317,3.548,10.705,1.654,11.985-3.85,9.041-6.41-2.944-2.56-13.284-3.587-21.709-3.598-8.425.011-18.764,1.038-21.709,3.598-2.944,2.56-1.664,8.064,9.041,6.41-2.018-1.402-4.055-1.996-5.317-3.548,1.738-1.54,7.882,1.667,17.985,1.667Zm17.032,13.14c-7.313-1.283-15.042,8.24-6.842,12.054,2.736,1.001,7.207-.473,9.105-3.017-2.922-.644-6.849,3.226-9.107-.381-1.299-3.43,3.286-6.486,6.844-8.656Zm44.501,32.76c1.477,6.026,1.785,8.959,1.093,13.403-2.648-3.246-6.801-6.333-10.136-8.724,3.114,10.352.05,16.102-4.965,21.629-1.262-4.713-1.304-12.103.062-17.468-8.478,9.893-3.256,31.637-1.914,35.899.333-13.703,10.551-15.686,12.564-25.755,5.042,9.502-9.37,17.528-7.07,27.889,2.569-5.473,6.907-9.48,10.862-13.793,7.96-8.394,8.232-24.745-.495-33.08Zm-2.842-39.885c.001-.432.144-.945-.796-1.587-2.254,10.556-4.836,20.829-9.853,30.323,9.845-2.993,10.482-20.177,10.649-28.736Zm98.884-87.652c-6.584-10.02-13.602-18.432-25.985-27.544,6.155-.061,14.417-.241,20.409,1.922-8.057-10.257-20.312-19.135-31.547-25.628,1.15-1.38,4.002-1.818,4.002-1.818-6.224-3.777-22.64-7.818-22.64-7.818,0,0,4.076-.788,8.752-.635-5.612-3.03-17.628-6.438-24.265-7.471,9.871-1.419,19.441-1.41,29.167,1.334-.925-1.99-22.494-12.686-22.494-12.686,0,0,4.339-1.047,8.764-1.436-29.744-19.788-59.757-16.534-87.355,4.947,4.755-8.976,18.323-17.291,29.732-22.08-7.497.649-14.67,2.49-22.044,5.549,12.714-12.591,36.576-17.997,54.816-13.314-.668-.963-15.714-12.961-35.13-14.462-19.416-1.501-30.968,9.65-34.1,13.832,7.621-4.322,22.75-9.551,45.054-5.215-37.806-.227-52.709,22.185-52.709,22.185,0,0-14.903-22.412-52.709-22.185,22.304-4.336,37.432.894,45.054,5.215-3.132-4.183-14.683-15.334-34.1-13.832-19.416,1.501-34.462,13.5-35.13,14.462,18.241-4.683,42.102.722,54.816,13.314-7.374-3.06-14.547-4.901-22.044-5.549,11.409,4.788,24.977,13.104,29.732,22.08-27.598-21.481-57.611-24.735-87.355-4.947,4.425.388,8.764,1.436,8.764,1.436,0,0-21.569,10.695-22.494,12.686,9.726-2.744,19.296-2.753,29.167-1.334-6.637,1.032-18.653,4.441-24.265,7.471,4.675-.153,8.752.635,8.752.635,0,0-16.416,4.04-22.64,7.818,0,0,2.852.438,4.002,1.818-11.235,6.493-23.489,15.37-31.547,25.628,5.993-2.163,14.254-1.983,20.409-1.922-12.383,9.112-19.401,17.523-25.985,27.544,10.488-3.956,22.018-2.189,22.018-2.189,0,0-15.822,7.911-20.322,28.147,7.613-6.097,15.945-10.473,23.94-13.587-4.592,12.54-10.282,29.895-10.629,43.368,2.382-6.842,7.829-14.321,7.829-14.321,0,0-1.343,10.613-.917,11.338,3.295-1.91,8.493-5.041,13.564-6.974-4.176,16.222-9.009,33.934-6.41,50.798,1.008-5.675,1.788-11.838,4.39-17.218,1.416,10.85,1.55,22.007,3.121,32.786.954.124.969-.627,1.202-1.045,1.181-2.122,7.133-11.937,9.382-11.522.579.315.347.997.334,1.523-.047,9.533,1.444,18.528,6.514,26.943.615-3.095.151-5.978,1.645-9.073,1.702,4.381,2.178,8.629,3.85,12.996,1.552-4.451,2.651-7.582,3.764-13.393,5.957,9.514,10.279,16.527,14.085,24.929.691-2.861.405-5.616,1.726-7.988,2.181,9.489,3.023,10.751,5.463,14.875,1.98,3.346,2.4,8.314,2.137,15.122,3.081-7.548,2.338-14.372-.033-19.078-3.634-6.925-4.881-17.505,8.118-34.049-3.781,1.491-6.458,4.102-9.124,7.145-.209-.73,2.503-7.903,3.853-10.953,6.978-16.323,2.98-36.283-1.976-52.448-.609,11.208-.872,19.524-2.688,33.187-3.317-9.033-3.907-19.385-4.243-27.885-.888-.002-3.535,10.352-5.896,19.009-2.015-11.939-1.789-18.457-2.115-26.682-2.124.43-4.781,6.326-8.916,14.485-1.252-6.223-1.315-10.205-1.316-12.303-4.329,6.154-5.866,12.611-9.594,18.942-.264-5.704-.5-13.174.989-18.838-7.574,11.867-9.174,19.694-15.279,40.616-.9-.087-.711-21.764,1.826-32.647,4.718-16.149,14.277-30.13,20.571-45.565.962,3.091,1.972,6.036,3.319,14.368,2.188-8.079,1.515-12.877,1.599-18.431,6.48,8.921,7.794,14.543,11.698,23.565-2.272-21.124-7.238-24.322-17.401-42.938,5.955,2.794,10.172,6.699,15.129,12.472-4.545-10.015-7.991-17.734-15.086-24.942,6.839,3.312,12.804,8.905,15.171,11.897,12.119,15.317,14.688,45.717,21.571,68.699,1.489-11.47,1.657-26.114,1.262-39.205,5.529,14.774,3.464,50.988,10.23,75.323.36-5.194.176-10.14,1.343-14.958,2.627,11.134-.28,25.491,10.842,32.646,8.405,4.304,16.986,3.078,26.165,3.639,3.112.031,5.883-1.546,6.621-4.297-23.983-1.43-38.237-40.112-13.369-47.373,2.403-.702,13.799-1.086,17.619-1.184,3.819.098,15.215.483,17.619,1.184,24.869,7.262,10.615,45.943-13.369,47.373.738,2.751,3.509,4.328,6.621,4.297,9.179-.561,17.76.665,26.165-3.639,11.122-7.155,8.215-21.512,10.842-32.646,1.166,4.818.982,9.764,1.343,14.958,6.766-24.335,4.701-60.549,10.23-75.323-.395,13.091-.227,27.735,1.262,39.205,6.883-22.982,9.452-53.382,21.571-68.699,2.367-2.991,8.332-8.584,15.171-11.897-7.095,7.208-10.542,14.926-15.086,24.942,4.957-5.773,9.174-9.678,15.129-12.472-10.163,18.616-15.129,21.814-17.401,42.938,3.905-9.022,5.218-14.644,11.698-23.565.084,5.555-.589,10.352,1.599,18.431,1.347-8.332,2.357-11.278,3.319-14.368,6.294,15.436,15.853,29.416,20.571,45.565,2.537,10.884,2.725,32.561,1.826,32.647-6.106-20.922-7.705-28.749-15.279-40.616,1.489,5.664,1.253,13.133.989,18.838-3.728-6.331-5.265-12.788-9.594-18.942,0,2.098-.064,6.08-1.316,12.303-4.135-8.159-6.792-14.056-8.916-14.485-.326,8.225-.1,14.742-2.115,26.682-2.361-8.657-5.008-19.011-5.896-19.009-.337,8.5-.926,18.852-4.243,27.885-1.816-13.662-2.079-21.978-2.688-33.187-4.956,16.165-8.954,36.125-1.976,52.448,1.35,3.05,4.063,10.223,3.853,10.953-2.665-3.043-5.343-5.654-9.124-7.145,12.999,16.543,11.752,27.123,8.118,34.049-2.371,4.706-3.114,11.53-.033,19.078-.263-6.808.157-11.776,2.137-15.122,2.441-4.124,3.282-5.386,5.463-14.875,1.321,2.371,1.035,5.127,1.726,7.988,3.806-8.402,8.128-15.415,14.085-24.929,1.113,5.811,2.211,8.942,3.764,13.393,1.672-4.367,2.148-8.616,3.85-12.996,1.494,3.095,1.03,5.977,1.645,9.073,5.07-8.415,6.561-17.41,6.514-26.943-.013-.526-.244-1.208.334-1.523,2.249-.415,8.201,9.4,9.382,11.522.233.418.248,1.169,1.202,1.045,1.572-10.779,1.706-21.935,3.121-32.786,2.602,5.38,3.381,11.543,4.39,17.218,2.6-16.863-2.234-34.575-6.41-50.798,5.071,1.932,10.269,5.063,13.564,6.974.426-.725-.917-11.338-.917-11.338,0,0,5.447,7.478,7.829,14.321-.347-13.473-6.038-30.828-10.629-43.368,7.995,3.114,16.327,7.49,23.94,13.587-4.499-20.236-20.322-28.147-20.322-28.147,0,0,11.53-1.767,22.018,2.189Zm-95.377-3.054c-2.059-.705-5.636-3.36-8.834-5.365.472,2.821.921,5.311,2.583,8.72-5.187-2.986-8.858-6.806-12.861-13.111-1.001,2.102-.901,4.003-.834,9.82-.777-.143-5.822-5.517-8.466-10.627-3.361,12.717,14.752,27.184,19.654,27.986-4.85-8.713-4.399-9.414-5.65-14.418,5.791,5.233,11.638,8.242,16.665,9.458-2.419-3.981-3.069-5.815-4.047-8.367,5.693,1.27,6.722,1.161,12.115.674-5.474-3.496-6.693-4.986-13.001-11.153-.006,2.916,1.132,4.65,2.677,6.384Zm27.91,72.951c-.083,3.575,1.728,16.645,2.105,21.586-1.396-2.077-3.956-10.688-5.05-12.792-1.012,5.329-.302,12.592-1.156,18.236-2.189-4.398-2.964-8.338-6.31-11.72.318,5.418,2.729,10.424,2.519,15.891-1.197-2.882-4.985-8.353-4.985-8.353,0,0,1.094,5.723,1.812,8.095-3.092-1.295-3.974-4.611-6.581-6.464,1.318,4.765,3.641,8.582,4.516,12.087-3.037-2.962-6.44-8.079-8.176-11.903-.56,10.05,6.3,14.874,10.28,23.349,1.852,5.47,1.515,7.827.848,11.749,2.939-2.407,10.461-12.043,9.588-25.804,1.262,3.366,2.525,8.248,2.719,11.27,5.276-5.378,3.618-15.146,4.014-17.918,1.936,7.743,3.241,17.15,3.352,16.857,3.812-9.382,1.899-19.472-2.261-28.365-1.961-5.494-4.626-11.721-7.236-15.801Zm11.413-122.986s-14.256,2.146-20.09,3.42c1.334,6.802,2.999,17.504-11.539,22.009,4.096.396,8.023-.06,13.426-1.283-4.498,5.5-12.086,7.979-19.103,6.281-5.582-1.366-10.689-3.994-16.679-3.008.103,2.012.716,4.082,2.35,7.639-10.064-4.707-16.46-19.628-11.708-30.479,3.488-9.175,14.52-15.692,21.336-18.143.59-.212-12.069,10.089-14.618,16.649,6.346-4.542,8.952-5.615,13.4-6.358-5.828,4.729-10.361,10.353-12.608,16.498,3.944-4.105,6.32-7.248,12.988-10.927,11.617-6.409,19.865-6.995,30.498-6.084-3.979,1.179-6.665,2.402-9.926,3.818,11.618-1.873,22.272-.033,22.272-.033Zm-28.951,5.896c-.73.329-.94.659-.732,1.432,2.167,6.468-6.319,11.531-11.706,4.858-1.456.867-2.049,1.288-3.323,1.915-1.258.619-1.026,1.385-.46,2.289,2.132,3.405,5.256,4.946,9.22,4.851,13.034.297,14.603-19.408,7-15.345Zm-54.127,163.053c8.996-1.35,16.275-12.296,16.533-21.351-5.716,13.278-16.8,21.024-16.533,21.351Zm94.674-160.091c-3.21-.136-8.049,1.198-8.049,1.198,0,0,15.448,2.326,21.071,8.923.447-.404-.443-3.526-3.722-6.321,2.414.844,7.922,3.208,12.806,6.301.274-.727-11.092-15.203-31.391-15.837,5.394,2.529,7.503,3.615,9.286,5.736Zm-90.952,27.974c.365.915,1.059-14.265,2.713-20.129.458,6.904,2.22,12.959,6.266,16.904-1.67-16.284-.903-29.578,8.879-39.79,8.613-8.992,19.343-13.284,32.142-17.269-5.678-.499-13.19.851-18.785,2.645,7.346-5.241,14.34-6.937,27.126-8.364-11.713-3.018-23.853-2.393-34.062,3.076,5.038-5.076,24.24-9.818,24.332-10.716-5.663-1.524-26.662,1.938-40.612,12.362-13.949,10.424-19.156,28.729-18.587,29.506.991-.324,11.153-16.936,22.292-23.732-6.234,7.409-22.866,27.567-11.704,55.507Zm74.93,85.943c-.505,11.867,4.629,12.708,7.563,28.848,1.295-3.175,1.027-6.448,1.174-9.882,1.344,1.683,2.688,3.366,4.051,5.071-1.089-7.626-3.351-10.734-6.542-14.147-1.951-2.086-5.464-7.131-6.245-9.89Z" fill="#363436"/>
  </g>
</svg>