<?xml version="1.0" encoding="UTF-8"?>
<svg id="b" data-name="Layer 2" xmlns="http://www.w3.org/2000/svg" width="443.318" height="500" viewBox="0 0 443.318 500">
  <g id="c" data-name="hippo">
    <path d="m331.772,171.256c-6.681,3.78-8.967,5.714-15.999,11.077,3.428-7.56,12.987-11.065,15.999-11.077Zm32.575,59.002c-25.995,12.317-45.859,11.577-46.436,12.426,11.373,5.547,39.731-1.926,46.436-12.426Zm-59.212-40.013c-4.308,13.977-6.747,22.021-4.419,30.352.639-7.408,3.1-12.858,6.498-16.607-1.49,6.343-2.43,13.771-2.375,19.389,1.31-5.654,2.149-7.493,4.9-10.68-.628,3.315-.878,6.236-.693,8.354,7.612-15.738,14.712-35.434,32.069-42.759,1.763-.704,3.548-1.379,6.636-1.087-.68.976-2.212,3.38-.851,5.119,21.344,20.348-.99,53.578-29.39,45.649-6.483-1.034-8.223,6.796-10.246,11.487,0,0-1.796-3.74-2.393-4.295-21.663-20.144-.533-44.999.264-44.921Zm18.909,31.882c4.25.67,8.843,1.022,12.888-.728,7.464-3.714,12.472-13.363,11.298-21.64-.813-5.732-4.516-8.804-7.6-13.875-9.451,7.108-14.665,14.971-20.48,25.088-1.984,3.853-1.215,10.452,3.893,11.155Zm-9.975,1.344c1.433-.199,2.598-.36,3.982-.552-.656-1.347-.951-2.673-2.058-3.754-.87,1.401-1.61,2.638-1.925,4.307Zm-41.298,140.282c1.566-.234,3.192-2.183,2.726-4.633-1.802.761-4.451,3.07-6.653,2.379.838,1.814,2.148,2.52,3.928,2.254Zm-147.366-121.069c-.578-.85-20.441-.109-46.436-12.426,6.705,10.5,35.063,17.973,46.436,12.426Zm-13.861-71.428c6.681,3.78,8.967,5.714,15.999,11.077-3.428-7.56-12.987-11.065-15.999-11.077Zm129.037,241.446c-2.887.949-5.741,1.998-8.608,3.005-3.373,1.185-6.871,1.576-10.315,1.523-3.444.053-6.942-.338-10.315-1.523-2.867-1.008-5.721-2.057-8.608-3.005-1.01-.332-2.484-.958-3.027.163-.638,1.318,14.711,9.846,21.95,9.846s22.588-8.528,21.95-9.846c-.543-1.121-2.017-.495-3.027-.163Zm-102.137-177.536c-.597.555-2.393,4.295-2.393,4.295-2.024-4.691-3.764-12.521-10.246-11.487-28.4,7.929-50.734-25.3-29.39-45.649,1.361-1.739-.17-4.142-.851-5.119,3.088-.292,4.874.383,6.636,1.087,17.357,7.325,24.457,27.02,32.069,42.759.185-2.118-.066-5.038-.693-8.354,2.752,3.187,3.59,5.026,4.9,10.68.055-5.618-.886-13.046-2.375-19.389,3.397,3.75,5.859,9.2,6.498,16.607,2.328-8.331-.111-16.374-4.419-30.352.797-.078,21.927,24.777.264,44.921Zm-15.28-24.195c-5.815-10.117-11.029-17.98-20.48-25.088-3.084,5.071-6.787,8.144-7.6,13.875-1.173,8.277,3.834,17.925,11.298,21.64,4.045,1.751,8.638,1.398,12.888.728,5.107-.703,5.877-7.303,3.893-11.155Zm6.082,12.5c-.315-1.669-1.055-2.906-1.925-4.307-1.106,1.082-1.402,2.407-2.058,3.754,1.385.192,2.55.354,3.982.552Zm148.077,107.907c1.67-.868,1.795-5.924.637-6.139-.966-.18-3.645,4.367-5.829,5.059,1.648,2.009,3.52,1.95,5.192,1.081Zm159.582-24.947c2.016,4.653-.247,20.994-2.295,27.541-2.243,7.169-6.771,19.528-10.355,25.912-1.128-1.544-1.482-2.677-1.644-3.087-2.477,8.74-4.197,18.357-12.554,23.241.014-1.763-.241-2.4-.623-3.738-2.293,10.445-14.252,18.844-14.839,19.234,0,0,.663-4.291.191-5.987-10.063,15.731-19.455,28.977-44.581,39.677,0,0,1.358-4.367,1.241-4.608-4.022,3.239-12.768,9.512-20.793,14.48,0,0,2.964-6.037,2.534-7.607-.941-.197-33.164,23.411-35.779,25.503-.191-1.656-.828-3.439-1.615-4.495-1.888,5.769-9.212,12.838-14.363,14.606,0,0,.502-2.914-.277-5.73-2.915,4.153-8.074,11.349-21.512,16.381,0,0,1.019-2.611.782-4.142-3.585,3.378-8.616,7.136-15.431,9.62,0,0,1.214-1.922.828-4.968-5.504,3.388-9.039,2.776-15.731,9.362-2.167,2.132-4.247,3.832-8.432,12.374-4.185-8.543-6.266-10.242-8.432-12.374-6.692-6.586-10.227-5.974-15.731-9.362-.386,3.045.828,4.968.828,4.968-6.815-2.484-11.846-6.241-15.431-9.62-.237,1.531.782,4.142.782,4.142-13.438-5.031-18.597-12.228-21.512-16.381-.779,2.815-.277,5.73-.277,5.73-5.151-1.768-12.475-8.837-14.363-14.606-.787,1.056-1.424,2.839-1.615,4.495-2.615-2.092-34.839-25.7-35.779-25.503-.43,1.57,2.534,7.607,2.534,7.607-8.025-4.968-16.771-11.241-20.793-14.48-.118.242,1.241,4.608,1.241,4.608-25.126-10.7-34.519-23.946-44.581-39.677-.471,1.695.191,5.987.191,5.987-.587-.389-12.546-8.789-14.839-19.234-.382,1.337-.637,1.974-.623,3.738-8.357-4.884-10.077-14.501-12.554-23.241-.162.41-.516,1.543-1.644,3.087-3.585-6.384-8.113-18.743-10.355-25.912-2.048-6.547-4.311-22.888-2.295-27.541-1.66.309-2.78,1.214-6.411.259,6.688-9.935,11.783-20.635,14.999-30.417-1.653.271-3.471,1.184-6.189.312,6.985-10.655,9.342-13.839,12.803-23.066-.532-.031-2.124.693-4.544-.899,4.132-6.269,12.355-15.667,16.271-25.736-1.496-.121-2.833-.567-3.979-1.714,5.796-6.56,8.47-10.381,11.553-20.064-2-1.144-2.446-1.654-5.185-4.456,2.293-.573,4.403-1.639,5.297-3.047-1.114-.448-3.004-1.284-5.297-3.385,1.422-1.301,6.114-4.14,7.642-7.006-2.42-1.019-4.713-2.42-6.623-5.859,1.332-.926,5.604-3.121,6.815-5.35-2.229-2.293-4.331-3.949-4.821-10.623,3.292.943,5.967.879,7.269.479-2.703-3.167-5.17-8.889-4.339-9.65,2.782,1.197,4.183,1.834,6.04,2.238C29.189,76.279,66.706,18.846,86.893,3.4c4.458-3.554,13.145-5.647,16.278.574,9.045,18.237,22.318,58.747,23.959,63.912,3.93,1.584,8.743,3.751,12.467,5.952.997-1.129.826-3.846.214-6.27,4.774-.367,10.741,3.315,12.646,3.985,1.063-.704,1.406-3.764-.381-5.968,10.258-1.787,15.742.588,18.521,1.68,2.092-1.509.427-4.74.427-4.74,9.499-2.889,19.221,2.056,19.831,1.824.71-.27,2.08-2.558,1.615-5.937,6.514-.511,14.982,2.52,14.982,2.52,0,0,.76-2.177,1.053-4.503,5.655-.098,9.842,3.307,13.152,3.307s7.497-3.404,13.152-3.307c.294,2.326,1.053,4.503,1.053,4.503,0,0,8.468-3.031,14.982-2.52-.465,3.378.905,5.667,1.615,5.937.611.232,10.332-4.713,19.831-1.824,0,0-1.665,3.232.427,4.74,2.78-1.093,8.264-3.467,18.521-1.68-1.787,2.203-1.444,5.264-.381,5.968,1.905-.67,7.873-4.352,12.646-3.985-.612,2.424-.783,5.141.214,6.27,3.725-2.201,8.537-4.368,12.467-5.952,1.64-5.166,14.913-45.676,23.959-63.912,3.133-6.221,11.82-4.127,16.278-.574,20.187,15.446,57.704,72.879,39.18,155.047,1.857-.404,3.258-1.041,6.04-2.238.831.761-1.636,6.483-4.339,9.65,1.302.4,3.977.463,7.269-.479-.49,6.675-2.592,8.33-4.821,10.623,1.21,2.229,5.483,4.424,6.815,5.35-1.911,3.439-4.203,4.84-6.623,5.859,1.528,2.866,6.22,5.705,7.642,7.006-2.293,2.102-4.183,2.937-5.297,3.385.894,1.408,3.004,2.474,5.297,3.047-2.739,2.802-3.184,3.312-5.185,4.456,3.083,9.683,5.758,13.504,11.553,20.064-1.146,1.146-2.484,1.592-3.979,1.714,3.916,10.069,12.139,19.466,16.271,25.736-2.42,1.592-4.012.868-4.544.899,3.462,9.227,5.818,12.411,12.803,23.066-2.718.873-4.535-.041-6.189-.312,3.216,9.782,8.311,20.482,14.999,30.417-3.631.955-4.751.05-6.411-.259Zm-62.8-46.141c7.528-15.244,19.952-21.926,20.867-24.059-6.496,3.195-12.617,6.841-16.25,11.024-2.862,3.295-5.616,6.683-8.479,9.977-2.39,2.75-4.887,5.403-8.012,7.456,5.212-6.677,7.804-13.406,12.503-20.366,3.368-4.989,5.341-7.9,13.991-15.758-12.378,3.407-29.235,30.417-32.896,34.642-2.731,3.151-5.248,6.729-8.981,8.636-12.673,6.474-27.798,2.168-32.48.132,3.412-.214,6.839.235,10.193-.24,15.957-2.263,20.407-7.104,25.149-11.065-12.586,4.128-21.129,7.505-31.381,6.552-9.596-.892-19.169-2.048-28.736-3.22-8.395-1.029-23.128-.983-27.7.918,9.757-.145,18.932.886,27.93,3.232,6.241,1.627,23.224,8.193,26.19,10.173-8.356-1.417-16.368-3.744-24.827-4.207,19.176,5.536,25.014,8.363,29.53,9.544,7.63,1.994,11.56,2.383,22.249.109-.334,5.23-2.615,8.346-7.659,18.167,12.833-6.372,24.697-25.399,31.239-31.332,6.464-5.863,14.293-6.153,20.977-5.326,6.792.841,13.277,2.766,19.687,5.088,2.962,1.073,9.865,4.39,15.863,14.033-2.62-10.654-10.004-21.16-18.906-25.444,4.618-.223,6.231,1.113,10.905,3.505-4.054-5.937-9.965-13.043-14.238-19.302-1.768,3.177-3.518,5.698-5.617,8.309,3.475.739,6.224,1.813,9.371,3.588-5.022.229-9.389,1.292-13.373,3.913,6.466.37,11.88,2.682,16.072,7.591-12.189-7.048-27.01-7.581-33.181-6.269Zm-118.869-51.26c.759,21.564,19.508,34.903,20.439,34.354-4.297-7.234-8.559-14.269-9.289-22.941,7.667,13.536,17.878,23.559,32.426,28.63-3.276-4.786-7.933-8.597-9.842-14.202,14.013,14.122,37.185,26.045,57.229,14.699-2.931.378-4.361.768-5.687.04,11.895-7.733,33.294-8.738,40.473-43.364-3.176,4.917-7.461,10.096-11.812,14.11,1.093-3.565,3.751-7.362,4.303-11.358-3.452,3.511-5.91,7.671-14.396,15.541,10.094-13.164,12.478-32.143,10.304-40.259-1.722,6.956-4.086,13.858-7.221,18.88,3.02-14.285-6.435-43.451-23.915-42.432-15.443.243-26.766,10.946-26.766,10.946,0,0,1.108-3.53,1.525-5.389-17.277,7.519-30.287,34.859-28.96,57.78-10.206-31.184,12.779-55.894,12.258-57.197-20.881,11.332-22.815,23.463-28.179,40.376-2.165-21.669,9.844-41.121,22.353-57.308-14.759,7.73-23.734,24.212-31.055,38.462-.686-.639-1.231-1.846-2.024-3.122-10.137,18.157-17.661,48.788,1.16,64.172-4.33-12.904-7.224-26.9-3.323-40.418Zm129.739-18.629c.679-2.637,1.885-5.138,3.527-7.31-3.682,1.591-6.949,4.129-9.402,7.303-1.225,1.584-2.463,4.192-1.7,6.202.845-1.959,1.682-3.427,4.582-5.852-2.393,2.919-.924,7.035-.181,10.484,2.141-5.394,5.576-10.269,9.933-14.101-2.44.629-4.753,1.749-6.759,3.275Zm-47.102-155.907l.855-.342s6.697-7.181,16.654-2.9c-2.242,2.871-4.816,7.62-4.644,14.17l5.432-3.745s-9.195,20.208-8.36,32.763c0,0,8.36-14.123,14.174-16.517,0,0-12.826,15.562-10.261,41.726,0,0,7.011-23.599,16.588-32.321,0,0-11.287,21.547-10.774,32.663,0,0,5.985-10.09,7.182-11.458,0,0-9.063,32.15,5.643,68.404,0,0-7.182-44.292,7.353-62.761,0,0-1.996,18.944,1.824,36.492l2.623-11.524,3.775,15.019c6.34-41.927-9.419-90.776-12.155-96.762-2.736-5.985-11.8-25.138-21.889-22.744-10.09,2.394-14.023,19.837-14.023,19.837Zm.684,78.835s4.617-9.406,1.71-27.704l-3.078,12.655s-8.037-26.678-.342-52.671c0,0-21.376,26.335,1.71,67.72Zm-21.376-13.51l-6.327-6.84c8.721,27.02,20.863,24.454,20.863,24.454-11.116-16.588-15.22-39.161-15.22-39.161-1.539,8.208.684,21.547.684,21.547Zm-15.411,45.873c4.74-2.529,9.401-4.273,13.756-5.465-7.932,3.366-12.669,9.235-12.669,9.235,20.001-10.672,38.616-7.395,38.616-7.395-4.618-2.571-8.966-3.777-12.96-4.07,7.191-.525,11.874.299,11.874.299-22.526-12.542-38.616,7.395-38.616,7.395Zm-4.084-15.433s-36.937,9.587-56.86,43.527c1.736-10.175,5.359-21.169,10.346-32.754,0,0-34.373,37.622-20.692,82.94,0,0,18.811-65.668,67.207-93.713Zm-23.865-3.459l6.11-11.021c-2.51,6.953-2.445,12.853-2.445,12.853l16.819-30.335c-3.671,2.048-6.539,4.621-8.783,7.397l5.117-9.23c-17.052,9.513-16.819,30.335-16.819,30.335Zm-9.677-3.416c5.267-14.414,12.712-27.852,23.055-39.99-26.897,7.827-23.055,39.99-23.055,39.99Zm-16.651,2.562c4.518-17.854,15.229-31.172,29.744-42.552-36.432,12.666-29.744,42.552-29.744,42.552Zm-17.018,10.134c.061-5.357.408-10.332,1.648-14.119.244,2.129,1.033,3.877,2.135,5.408,0,0,4.533-21.695,18.359-32.732-8.236,3.782-14.739,6.469-19.833,16.347l9.159-25.598s-24.073,18.703-11.467,50.694Zm-12.383,137.987c-5.296-2.584-11-4.539-18.431-6.464,4.824,4.206,15.548,7.155,15.548,26.9-2.371-5.453-11.331-21.989-41.824-19.332.996.258,15.912,2.963,18.6,8.258.508,1.001-8.332,1.066-10.549.873-8.736-.763-30.67-.628-41.593,6.281,3.071-.51,17.114-3.243,23.668-1.13-24.72,3.833-33.229,15.764-33.487,16.199,9.338-2.265,13.861.661,13.861.661-17.068,3.102-31.26,15.984-33.048,26.58-.01.06,12.126-12.762,21.42-12.761-7.93,4.995-18.11,17.233-14.647,30.761,2.4-6.107,5.839-12.544,11.514-16.297-5.093,12.52-7.001,19.916-5.287,29.273,1.151,6.284,6.69,11.418,11.803,14.562-.769-1.372-6.666-6.454-8.49-13.547-1.29-5.017,2.631-13.788,4.626-15.489.826,1.422-3.614,16.289,14.965,24.583,8.17,3.647,16.121,4.872,24.656,4.859.18,0-.607,2.464-5.658,4.18,2.524,1.186,7.55,3.283,22.636-.258-3.215,2.457-7.096,3.308-10.87,4.32,6.254,1.855,16.117,3.611,26.612-5.064-1.778,4.265-5.331,6.06-8.72,8.373,9.372,1.518,13.397-6.332,15.486-8.849-.507,3.287-2.526,5.835-4.271,8.845,3.357-.366,5.889-1.628,7.463-4.355,2.389-4.138,3.509-9.826,3.461-14.591-16.145,0-28.126-12.155-32.765-20.504-6.738-12.127-7.982-25.152-5.291-38.636.316-1.585,1.288-5.604,1.696-5.758,2.017-.761,3.323-2.556,3.798-4.142.76-2.534,2.204-9.407,3.481-9.89-.981,11.647,4.219,17.055,9.781,20.925,5.528,3.847,10.45,6.331,23.421,6.331s17.892-2.485,23.421-6.331c5.562-3.87,10.762-9.279,9.781-20.925,1.277.483,2.721,7.357,3.481,9.89.476,1.586,1.781,3.381,3.798,4.142.408.154,1.38,4.173,1.696,5.758,2.691,13.484,1.447,26.508-5.291,38.636-4.639,8.349-16.62,20.504-32.765,20.504-.048,4.766,1.073,10.454,3.461,14.591,1.574,2.727,4.107,3.989,7.463,4.355-1.746-3.01-3.764-5.557-4.271-8.845,2.089,2.516,6.114,10.367,15.486,8.849-3.389-2.313-6.942-4.108-8.72-8.373,10.495,8.676,20.358,6.919,26.612,5.064-3.773-1.013-7.655-1.863-10.87-4.32,15.086,3.541,20.112,1.444,22.636.258-5.051-1.716-5.838-4.18-5.658-4.18,8.536.013,16.486-1.212,24.656-4.859,18.579-8.294,14.139-23.161,14.965-24.583,1.995,1.702,5.916,10.472,4.626,15.489-1.824,7.093-7.721,12.175-8.49,13.547,5.113-3.144,10.652-8.278,11.803-14.562,1.714-9.357-.194-16.754-5.287-29.273,5.674,3.754,9.114,10.19,11.514,16.297,3.463-13.528-6.716-25.766-14.647-30.761,9.293-.002,21.43,12.82,21.42,12.761-1.788-10.597-15.98-23.478-33.048-26.58,0,0,4.523-2.926,13.861-.661-.258-.435-8.768-12.366-33.487-16.199,6.554-2.113,20.598.62,23.668,1.13-10.923-6.909-32.857-7.044-41.593-6.281-2.217.194-11.057.128-10.549-.873,2.688-5.295,17.603-8,18.6-8.258-30.493-2.658-39.453,13.879-41.824,19.332,0-19.745,10.724-22.694,15.548-26.9-7.431,1.925-13.135,3.881-18.431,6.464-1.41.688-2.197.982-3.566.877-1.368.106-2.156-.189-3.566-.877Zm58.319,125.796s-.597,3.964-3.177,6.801c14.295-2.589,20.161-19.705,19.33-20.382-4.143,2.699-39.481,17.062-70.906,17.062s-66.763-14.363-70.906-17.062c-.831.677,5.035,17.793,19.33,20.382-2.579-2.837-3.177-6.801-3.177-6.801,0,0,14.607,16.182,21.512,17.617-1.772-2.621-3.845-4.937-5.428-8.1,5.474,5.308,13.897,10.469,20.206,14.022,3.391,1.91,9.324,3.277,18.464,3.277s15.073-1.367,18.464-3.277c6.309-3.554,14.731-8.714,20.206-14.022-1.583,3.164-3.656,5.48-5.428,8.1,6.904-1.435,21.512-17.617,21.512-17.617Zm-80.219-71.612c1.202-.008,7.023,10.341,25.466,10.341s24.264-10.349,25.466-10.341c1.201.008.709,2.892.709,4.378,2.773-2.521,8.492-10.505,7.99-21.586-1.93,10.54-13.551,14.377-18.83,16.078-6.971,2.246-12.431.646-15.335.646s-8.364,1.6-15.335-.646c-5.279-1.701-16.9-5.538-18.83-16.078-.502,11.081,5.217,19.065,7.99,21.586,0-1.486-.492-4.37.709-4.378Zm-11.435-78.804c18.821-15.384,11.297-46.015,1.16-64.172-.793,1.276-1.338,2.483-2.024,3.122-7.321-14.25-16.296-30.732-31.055-38.462,12.509,16.188,24.518,35.64,22.353,57.308-5.364-16.913-7.298-29.044-28.179-40.376-.522,1.303,22.464,26.013,12.258,57.197,1.327-22.921-11.683-50.26-28.96-57.78.417,1.858,1.525,5.389,1.525,5.389,0,0-11.324-10.704-26.766-10.946-17.48-1.019-26.935,28.147-23.915,42.432-3.134-5.022-5.498-11.923-7.22-18.88-2.175,8.116.21,27.095,10.304,40.259-8.487-7.87-10.945-12.03-14.397-15.541.551,3.996,3.21,7.793,4.303,11.358-4.351-4.014-8.635-9.192-11.812-14.11,7.179,34.626,28.578,35.631,40.473,43.364-1.326.727-2.756.338-5.687-.04,20.044,11.345,43.216-.577,57.229-14.699-1.909,5.605-6.566,9.416-9.842,14.202,14.548-5.071,24.759-15.094,32.426-28.63-.73,8.671-4.992,15.706-9.289,22.941.932.549,19.681-12.79,20.439-34.354,3.9,13.518,1.007,27.514-3.323,40.418Zm5.943-154.811c13.825,11.037,18.359,32.732,18.359,32.732,1.101-1.531,1.891-3.279,2.135-5.408,1.24,3.787,1.587,8.763,1.648,14.119,12.606-31.99-11.467-50.694-11.467-50.694l9.159,25.598c-5.094-9.879-11.596-12.566-19.833-16.347Zm-24.62-11.243c14.514,11.38,25.226,24.698,29.744,42.552,0,0,6.689-29.886-29.744-42.552Zm-9.962,0c10.343,12.138,17.788,25.576,23.055,39.99,0,0,3.842-32.163-23.055-39.99Zm-7.107,14.904l16.819,30.335s.066-5.9-2.445-12.853l6.11,11.021s.233-20.821-16.819-30.335l5.117,9.23c-2.244-2.776-5.112-5.349-8.783-7.397Zm-3.38,31.961c48.396,28.046,67.207,93.713,67.207,93.713,13.681-45.318-20.692-82.94-20.692-82.94,4.986,11.585,8.609,22.578,10.346,32.754-19.923-33.94-56.86-43.527-56.86-43.527Zm-42.7,8.038s4.683-.824,11.874-.299c-3.994.293-8.342,1.498-12.96,4.07,0,0,18.615-3.277,38.616,7.395,0,0-4.738-5.869-12.669-9.235,4.355,1.192,9.016,2.936,13.756,5.465,0,0-16.091-19.937-38.616-7.395Zm23.889-60.025s-4.104,22.573-15.22,39.161c0,0,12.142,2.565,20.863-24.454l-6.327,6.84s2.223-13.339.684-21.547Zm-20.692,20.008l-3.078-12.655c-2.907,18.298,1.71,27.704,1.71,27.704,23.086-41.384,1.71-67.72,1.71-67.72,7.695,25.993-.342,52.671-.342,52.671Zm-48.751,35.882l3.775-15.019,2.623,11.524c3.82-17.547,1.824-36.492,1.824-36.492,14.536,18.469,7.353,62.761,7.353,62.761,14.707-36.254,5.643-68.404,5.643-68.404,1.197,1.368,7.182,11.458,7.182,11.458.513-11.116-10.774-32.663-10.774-32.663,9.577,8.721,16.588,32.321,16.588,32.321,2.565-26.164-10.261-41.726-10.261-41.726,5.814,2.394,14.174,16.517,14.174,16.517.835-12.555-8.36-32.763-8.36-32.763l5.432,3.745c.172-6.55-2.402-11.299-4.644-14.17,9.957-4.281,16.654,2.9,16.654,2.9l.855.342s-3.933-17.443-14.023-19.837-19.153,16.759-21.889,22.744c-2.736,5.985-18.495,54.834-12.155,96.762Zm.965,56.238c-2.006-1.526-4.318-2.646-6.759-3.275,4.358,3.832,7.792,8.708,9.933,14.101.742-3.449,2.212-7.565-.181-10.484,2.901,2.426,3.738,3.893,4.582,5.852.763-2.009-.476-4.617-1.7-6.202-2.453-3.174-5.721-5.712-9.402-7.303,1.642,2.172,2.848,4.673,3.527,7.31Zm-38.097,93.998c5.998-9.643,12.901-12.96,15.863-14.033,6.41-2.322,12.895-4.247,19.687-5.088,6.684-.827,14.513-.537,20.977,5.326,6.542,5.934,18.406,24.96,31.239,31.332-5.044-9.822-7.325-12.937-7.659-18.167,10.689,2.274,14.619,1.885,22.249-.109,4.517-1.18,10.354-4.008,29.53-9.544-8.459.463-16.472,2.79-24.827,4.207,2.966-1.98,19.95-8.547,26.19-10.173,8.999-2.346,18.174-3.377,27.93-3.232-4.572-1.902-19.305-1.947-27.7-.918-9.567,1.173-19.14,2.328-28.736,3.22-10.253.953-18.795-2.423-31.381-6.552,4.742,3.961,9.193,8.802,25.149,11.065,3.354.476,6.781.027,10.193.24-4.683,2.036-19.807,6.343-32.48-.132-3.733-1.907-6.25-5.485-8.981-8.636-3.662-4.225-20.519-31.235-32.896-34.642,8.65,7.858,10.623,10.769,13.991,15.758,4.698,6.96,7.291,13.688,12.503,20.366-3.125-2.053-5.623-4.706-8.012-7.456-2.863-3.294-5.617-6.682-8.479-9.977-3.632-4.183-9.754-7.829-16.25-11.024.915,2.133,13.339,8.815,20.867,24.059-6.171-1.312-20.992-.779-33.181,6.269,4.192-4.909,9.606-7.222,16.072-7.591-3.984-2.621-8.351-3.684-13.373-3.913,3.148-1.775,5.896-2.848,9.371-3.588-2.099-2.611-3.849-5.132-5.617-8.309-4.274,6.259-10.184,13.365-14.238,19.302,4.674-2.392,6.287-3.728,10.905-3.505-8.902,4.284-16.286,14.79-18.906,25.444Zm42.405,107.596c-1.248-2.748-2.574-5.464-3.728-8.251-3.706-8.948-4.214-18.294-3.421-27.816.541-6.492,2.116-12.805,3.1-19.217.389-2.537,1.04-5.082.775-8.082-6.662,7.299-11.509,15.059-12.45,24.767-1.186-.293-3.84-21.915,8.309-32.031,5.664-4.716,30.385-6.428,39.875,10.097-1.588-18.378-19.243-36.28-52.098-31.898.189-1.398,22.668-17.841,48.978,7.499-2.727-9.166-6.493-19.475-29.54-26.108,3.806-.705,10.625-1.782,21.249,3.422-1.531-1.929-10.224-10.753-23.437-11.553-14.527-.88-20.071,5.192-23.354,8.882,3.391-1.16,6.88-2.876,13.058-1.789-28.199,6.807-31.134,38.223-30.539,40.779,3.547-7.582,8.545-14.079,14.128-20.176.505.557-18.081,31.22-4.139,52.257.39-3.46-2.445-24.469,14.842-35.838.839.714-25.333,35.731,18.392,75.056Zm23.095,16.889c-4.57-16.226-7.402-28.575-5.807-42.632,1.073-9.455,5.928-30.759-5.576-39.427,2.819,6.56,1.989,13.203.141,19.523-2.836,9.702-3.774,18.921-3.774,18.921,0,0-3.761-4.964-1.655-21.565.927-7.305-3.678-14.703-4.503-14.791-.436,9.729-2.641,15.687-3.433,19.248-2.962,13.328-.433,25.774,6.023,37.569,2.542,4.644,11.791,17.486,18.583,23.155Zm53.547,31.193c-13.218-22.055-14.474-33.376-18.879-46.344-3.59-10.568-9.392-27.227-13.948-34.017-3.617-5.39-6.044-9.747-12.995-16.493,3.582,8.704,9.072,16.71,10.238,30.915-4.24-9.646-9.512-22.351-14.996-30.563-.056,11.801.044,13.414-.8,19.227-4.769,32.855,10.707,47.059,22.937,57.981-5.231-10.528-10.343-27.555-10.64-39.437,5.542,16.542,10.706,25.864,23.779,43.899,5.684,7.841,15.145,14.952,15.304,14.832Zm18.282,7.214c-7.092-22.51-17.628-42.795-31.183-61.798,6.678,16.978,10.732,28.448,15.321,39.942,1.516,3.796,5.556,12.717,15.862,21.856Zm129.707-27.627c-7.765,5.343-22.393,14.43-29.922,21.879,6.517-7.739,9.286-12.463,15.654-18.991-17.609,6.772-34.15,28.465-38.218,32.269,1.172-4.811,4.297-12.685,9.764-19.356-6.416,2.054-15.228,14.26-16.117,14.224,0,0-1.679-2.62-2.368-3.014-.318.613-3.383,11.691-4.415,11.651-1.032.04-4.098-11.038-4.415-11.651-.689.394-2.368,3.014-2.368,3.014-.889.037-9.701-12.169-16.117-14.224,5.467,6.67,8.591,14.545,9.764,19.356-4.068-3.804-20.609-25.497-38.218-32.269,6.367,6.528,9.137,11.253,15.654,18.991-7.529-7.45-22.157-16.536-29.922-21.879,3.285,27.255,28.044,43.073,32.252,45.012-3.078-5.569-5.644-11.181-5.522-17.637,5.473,9.9,13.619,18.453,24.046,26.681,3.273,2.582,12.626,6.191,14.848,12.545,2.221-6.354,11.575-9.962,14.848-12.545,10.427-8.227,18.573-16.781,24.046-26.681.122,6.456-2.444,12.068-5.522,17.637,4.208-1.939,28.967-17.756,32.252-45.012Zm14.323,5.771c4.589-11.495,8.642-22.964,15.321-39.942-13.555,19.003-24.091,39.288-31.183,61.798,10.306-9.139,14.346-18.06,15.862-21.856Zm53.8-62.633c-.844-5.813-.743-7.426-.8-19.227-5.483,8.212-10.756,20.917-14.996,30.563,1.166-14.204,6.655-22.211,10.238-30.915-6.952,6.746-9.378,11.103-12.995,16.493-4.556,6.789-10.359,23.449-13.948,34.017-4.405,12.968-5.66,24.289-18.879,46.344.159.12,9.62-6.99,15.304-14.832,13.073-18.035,18.237-27.357,23.779-43.899-.297,11.882-5.409,28.909-10.64,39.437,12.23-10.922,27.706-25.126,22.937-57.981Zm26.773-14.641c-.792-3.562-2.997-9.519-3.433-19.248-.825.088-5.43,7.487-4.503,14.791,2.106,16.601-1.654,21.565-1.654,21.565,0,0-.938-9.218-3.774-18.921-1.847-6.319-2.678-12.962.141-19.523-11.504,8.668-6.65,29.972-5.576,39.427,1.596,14.056-1.236,26.406-5.807,42.632,6.793-5.669,16.041-18.511,18.584-23.155,6.456-11.794,8.985-24.24,6.023-37.569Zm11.174-68.243c6.178-1.087,9.667.629,13.058,1.789-3.283-3.69-8.827-9.762-23.354-8.882-13.213.801-21.906,9.624-23.437,11.553,10.624-5.204,17.443-4.127,21.249-3.422-23.047,6.633-26.813,16.942-29.54,26.108,26.309-25.34,48.789-8.897,48.978-7.499-32.854-4.383-50.51,13.52-52.098,31.898,9.49-16.526,34.211-14.813,39.875-10.097,12.149,10.116,9.495,31.738,8.309,32.031-.941-9.708-5.788-17.469-12.45-24.767-.265,3,.386,5.545.775,8.082.984,6.413,2.559,12.725,3.1,19.217.793,9.522.286,18.868-3.421,27.816-1.154,2.787-2.48,5.502-3.728,8.251,43.725-39.325,17.553-74.342,18.392-75.056,17.287,11.369,14.451,32.378,14.842,35.838,13.942-21.037-4.644-51.7-4.139-52.257,5.584,6.097,10.581,12.594,14.128,20.176.596-2.556-2.339-33.972-30.539-40.779Zm-225.532,79.202c-.467,2.451,1.16,4.399,2.725,4.633,1.78.266,3.09-.44,3.928-2.254-2.202.691-4.852-1.618-6.653-2.379Zm-1.826-27.742c1.672.869,3.544.928,5.192-1.081-2.185-.691-4.863-5.239-5.829-5.059-1.158.216-1.033,5.272.637,6.139Zm4.434,14.337c-2.061.68-3.461.219-4.652-1.095-.512-.565-1.222-1.191-2.101-.732-.984.513-.866,1.502-.748,2.396.23,1.749,1.708,3.167,3.387,3.318,1.772.16,2.967-.86,4.115-3.887Zm107.115-1.095c-1.192,1.314-2.591,1.775-4.652,1.095,1.148,3.026,2.343,4.047,4.115,3.887,1.679-.151,3.157-1.569,3.387-3.318.117-.894.236-1.883-.748-2.396-.879-.459-1.589.167-2.101.732Zm-95.109,31.838c1.969.212,3.251-.798,4.479-3.933-2.495.742-4.277.15-5.832-1.368-.472-.461-1.222-.785-1.916-.195-.527.449-.483,1.075-.429,1.675.172,1.929,1.817,3.618,3.698,3.821Zm81.72-5.496c-.693-.59-1.444-.266-1.916.195-1.555,1.518-3.337,2.11-5.832,1.368,1.228,3.135,2.509,4.146,4.479,3.933,1.882-.203,3.527-1.892,3.698-3.821.053-.6.098-1.226-.429-1.675Z" fill="#363436"/>
  </g>
</svg>