<?xml version="1.0" encoding="UTF-8"?>
<svg id="b" data-name="Layer 2" xmlns="http://www.w3.org/2000/svg" width="500" height="361.013" viewBox="0 0 500 361.013">
  <g id="c" data-name="goat">
    <path d="m207.152,257.56c.061,1.278,1.909,5.808.514,6.272-1.138.486-1.344-1.029-1.911-1.722-1.382-3.371-3.548-6.191-5.994-8.863-4.38-4.827-7.512-10.388-9.206-16.709-1.58-5.168-3.676-22.971.685-26.414-.36,4.638-1.385,10.468-.077,14.653.668-4.537,2.417-13.627,5.39-15.532-1.641,4.793-1.411,9.583-1.502,14.379,1.385-2.523,2.081-5.382,4.151-7.48-.827,5.801-2.621,11.357-2.282,17.269,1.118-2.415,1.955-4.952,4.106-7.145-.123,5.299-1.851,10.095-1.707,15.515,2.927-6.03,3.423-6.724,5.564-7.651-1.419,5.276-3.68,10.312-1.887,16.103.767-2.769,1.163-7.413,3.723-8.714.668.129.351.958.285,1.428-.82,4.879-.897,9.738.146,14.611Zm9.532,63.559c-2.259-3.079-2.897-6.572-3.107-10.489-1.762,1.561-1.403,3.469-1.922,5.477-2.992-5.296.824-9.637,1.989-14.813.13-.429.092-1.414-.373-2.078-1.804,3.668-4.358,6.811-5.37,10.755-1.288,6.324,1.711,12.93,6.623,16.914,7.249,5.534,17.424,10.429,26.219,5.684.845-.398,1.638-1.03,1.23-2.321-3.471,2.377-7.396,1.233-11.054.484-6.344-1.644-8.259-8.981-8.259-8.981,0,0-.479,2.288-.562,3.925-2.369-2.225-3.78-4.676-3.689-8.023-1.395.889-1.065,2.35-1.724,3.465Zm59.412,4.558c-.082-1.637-.562-3.925-.562-3.925,0,0-1.915,7.336-8.259,8.981-3.658.749-7.583,1.893-11.054-.484-.408,1.291.386,1.923,1.23,2.321,8.795,4.745,18.97-.15,26.219-5.684,4.912-3.985,7.91-10.59,6.623-16.914-1.013-3.944-3.566-7.087-5.37-10.755-.466.665-.504,1.649-.373,2.078,1.165,5.175,4.98,9.516,1.989,14.813-.518-2.008-.159-3.916-1.922-5.477-.21,3.917-.848,7.41-3.107,10.489-.659-1.115-.33-2.576-1.724-3.465.091,3.346-1.321,5.798-3.689,8.023Zm14.432-61.845c1.138.486,1.344-1.029,1.911-1.722,1.382-3.371,3.548-6.191,5.994-8.863,4.38-4.827,7.512-10.388,9.206-16.709,1.58-5.168,3.676-22.971-.685-26.414.36,4.638,1.385,10.468.077,14.653-.668-4.537-2.417-13.627-5.39-15.532,1.641,4.793,1.411,9.583,1.502,14.379-1.385-2.523-2.081-5.382-4.151-7.48.827,5.801,2.621,11.357,2.282,17.269-1.118-2.415-1.955-4.952-4.106-7.145.123,5.299,1.851,10.095,1.707,15.515-2.927-6.03-3.423-6.724-5.564-7.651,1.419,5.276,3.68,10.312,1.887,16.103-.767-2.769-1.163-7.413-3.723-8.714-.668.129-.351.958-.285,1.428.82,4.879.897,9.738-.146,14.611-.061,1.278-1.909,5.808-.514,6.272Zm167.626-31.955c-12.149,12.302-30.016,20.053-47.385,16.25-18.205-3.53-28.305-21.564-30.347-38.776-1.941-13.766,2.597-26.137,9.578-37.877-9.375,3.162-18.844.483-27.403-3.5-.933-.457-1.522-.199-2.06.651-3.59,5.668-6.534,11.504-6.261,18.522,5.186,47.657-16.24,41.016-17.444,72.558.517,11.693-3.02,23.745-11.891,31.761-6.579,6.133-13.973,11.388-22.148,15.077-2.86,2.474,2.893,6.903-3.722,14.406-1.535,1.774-2.844,3.752-4.729,5.196-.912.699-.905,1.65-.915,2.611-2.134,26.663-17.176,33.409-41.91,32.105-13.654.06-31.594,1.216-39.211-12.605-3.485-6.106-5.788-12.533-5.909-19.62-.022-1.291-.454-2.166-1.44-2.994-4.362-4.084-8.951-9.603-7.209-15.947.445-2.361.049-3.171-2.264-4.035-7.494-3.065-13.881-8.334-19.941-13.598-12.252-10.119-12.533-25.555-13.049-40.172-.589-6.591-4.171-12.068-7.858-17.34-7.277-10.947-10.788-24.091-9.544-37.213.787-10.529,1.287-18.023-4.854-27.285-2.011-3.148-1.573-2.689-4.465-1.426-8.014,3.726-16.99,5.402-25.602,3.184,26.92,41.447-6.461,98.148-55.813,69.932C10.698,211.763-7.297,140.453,2.684,90.292,10.516,44.936,51.757,17.208,93.269,5.04c48.611-14.992,109.904,4.263,134.384,50.206,3.051,2.392,6.094,4.794,9.921,5.823,3.968,1.18,7.925,2.434,11.613,4.371.564.296,1.006.244,1.543-.034,7.466-3.759,16.309-4.563,22.283-10.916,8.84-19.854,27.415-33.143,46.49-42.379,31.914-15.86,70.099-15.908,102.551-1.527,31.758,11.944,62.077,34.407,71.993,68.185,15.368,52.102.14,112.884-35.892,153.107Zm-179.242-158.649c.423.337.384.924.049,1.323-.699.835-.391,1.679-.157,2.549,4.855,17.602,21.799,29.231,39.118,32.455-18.008-9.464-32.444-22.109-40.077-41.406.115,1.761-.717,3.658,1.067,5.079Zm-58.563-5.079c-7.633,19.297-22.069,31.942-40.077,41.406,17.319-3.224,34.262-14.852,39.118-32.455.234-.87.542-1.714-.157-2.549-.334-.399-.373-.987.049-1.323,1.783-1.421.951-3.318,1.067-5.079Zm-110.993,146.413c-16.338,35.226-56.249,19.486-77.074-2.495,19.07,28.131,64.149,43.88,78.909,3.294.634-2.431-.75-3.03-1.835-.799Zm-75.698-28.033c1.743,1.698,5.086,5.317,5.086,5.317,6.612,3.496,40.281,9.728,42.64-29.076,5.774,10.487.787,26.759-10.091,32.651-6.719,3.781-14.968,3.866-22.48,3.045,2.441,2.837,14.868,9.048,18.706,9.348.172-1.764.518-5.312.518-5.312,0,0,1.058,5.737,1.744,5.881,3.807.796,8.993,1.258,13.86-.158-.557-2.591-.658-5.277-1.014-7.862.995,2.354,3.063,7.522,4.596,6.982,3.162-1.115,6.666-3.257,9.224-5.414,1.007-.849-3.791-5.348-5.874-9.082,3.337,1.909,7.114,5.326,8.44,6.385,2.69-2.446,4.032-5.922,5.102-9.306.307-1.024-6.081-5.691-8.269-7.795,3.451.673,5.475,2.686,8.022,3.632-4.146-32.347-38.581-48.968-66.698-57.536-1.869-.551-2.192-.572-4.23-.243,14.382,10.549,26.852,23.652,33.426,40.465,1.773-2.38-.621-14.323-2.428-21.445.76-.382,1.175.524,1.541,1.028,17.491,29.243,1.586,55.293-31.82,38.494Zm36.367-69.704c3.672-16.567,20.564-23.662,36.059-24.518,10.151-.829,19.832,1.989,29.34,5.149.386.123.765.344,1.259.059-22.465-14.959-62.7-12.875-67.035,19.297.126.005.251.009.377.014Zm71.135,32.25c-2.602-5.279-.287-5.93-6.073-3.727,2.072,1.454,4.178,2.392,6.073,3.727Zm.952-21.005c-6.212-.248-12.063,2.235-18.212,2.902-7.615,1.191-15.139.727-22.66-.722-6.892-1.162-13.674-4.003-20.738-3.617-3.376.518-5.308,2.701-6.557,5.676.008,3.743,3.267,8.102,6.476,10.252,7.044,4.582,13.221,10.215,18.651,16.641,4.087,4.229,10.132,6.004,15.788,7.07,5.702.874,11.248-1.429,16.165-4.088,3.186-1.432,4.836-5.509,2.665-8.476-.296-.409-.623-.541-1.036-.243-5.209,4.294-12.417,8.566-19.211,5.301,4.188-.269,7.734-1.815,11.007-4.855-3.09-.636-5.982-.626-8.898-1.495,1.168-1.25,2.809-.736,4.032-1.774-3.215-.918-6.37-1.431-9.668-2.937,2.381-.839,4.447-.462,6.376-1.201-10.845-2.682-21.483-5.73-29.689-14.181,1.045-.498,1.534.183,2.104.466,7.175,3.548,14.687,5.942,22.67,6.817,12.516,1.597,23.795.367,30.734-11.534Zm-4.077-20.553c-16.668-7.887-37.552-11.416-53.957-1.03-5.494,3.532-10.142,8.635-10.834,15.448,6.758-2.76,13.331-1.469,19.893.012,16.416,4.145,35.756,6.201,50.362-4.107,2.962-1.955-2.669-9.565-5.464-10.322Zm38.813-64.803c.16,3.522-1.707,7.021-2.963,10.276-6.049,12.885-14.176,25.864-27.549,32.021,1.117,1.356,2.186,2.657,3.26,3.954.498.602,1.116.373,1.721.236,12.379-2.741,21.958-11.594,30.926-20.029-4.943,11.591-15.38,20.538-26.953,25.803-.494.268-1.374.283-.959,1.226.324.736.545,1.625,1.747,1.232,17.451-5.065,32.949-14.991,46.098-27.432-8.163,16.065-24.167,26.483-39.889,33.889,20.051-3.769,41.752-14.255,49.842-34.145,1.888-4.705,5.674-13.406,3.868-18.233-1.413-2.543-2.996-4.97-4.802-7.25-.243-.307-.418-.726-1.002-.759-4.93,8.928-11.154,16.965-17.874,24.82-.299-.766.152-1.093.36-1.484,4.777-8.758,8.802-17.832,11.354-27.504.973-1.637.406-2.742-1.007-3.802-1.634-1.226-3.018-2.781-4.962-3.956-2.698,7.484-6.23,14.274-10.92,20.621,2.184-7.674,4.852-15.29,5.251-23.331.063-1.187-.289-1.888-1.285-2.531-4.243-2.738-8.59-5.285-13.126-7.505-1.318-.645-1.283-.603-1.808.787-3.986,10.18-8.292,20.337-14.328,29.476-.302-.956.27-1.545.57-2.178,4.742-9.566,7.671-19.938,7.923-30.637.846-2.059-14.859-5.735-16.94-6.527-1.025-.308-1.406-.065-1.688,1.036-2.221,8.661-5.483,16.939-9.41,24.961-.785,1.603-.809,1.591-1.964,2.13-.533-.933.038-1.755.336-2.546,3.318-8.273,4.502-17.071,5.376-25.875,1.832-3.244-23.366-3.175-25.697-2.958-2.158.082-2.146.092-2.152,2.185-.311,9.02-1.621,18.584-5.534,26.601.434-8.777.795-17.795-.832-26.624-.193-1.325-.281-1.365-1.614-1.175-7.886,1.124-15.581,3.031-23.134,5.555-1.208.404-1.544,1.023-1.551,2.239-.283,7.556,1.291,15.019.552,22.527-3.078-6.872-4.369-17.724-4.801-22.598-14.069,5.446-27.262,13.446-39.351,22.459,3.892,4.117,7.322,9.511,8.831,13.869-6.306-7.135-8.227-7.502-11.391-10.785-.483-.501-.863-.529-1.408-.12-5.181,3.885-9.719,8.388-13.431,13.717-.688.987.011,1.317.569,1.801,4.74,4.537,10.435,8.245,14.617,13.227-7.971-3.934-12.233-6.572-17.299-9.399-.823-.459-1.292-.47-1.815.422-3.38,6.22-7.593,12.449-9.377,19.284,8.229,1.431,13.389,2.792,14.799,3.903-.693,1.248-15.877-.933-16.122-.217-3.827,11.615-5.047,9.552,5.38,14.534-2.426,1.283-9.659,1.865-9.659,1.865,0,0-1.185,9.329-.724,12.939.08.628,27.631,4.629,27.996,5.43-9.191.52-18.289-.041-27.345.498-.174,4.412,3.076,19.491,4.95,22.904,5.362-2.806,11.097-6.186,17.202-6.528-8.496,4.328-11.694,7.106-15.025,9.661-.659.506-.972.845-.614,1.655,1.338,3.028,2.742,6.021,4.48,9.166,5.194-4.035,10.663-7.339,16.957-9.446-.119.868-9.769,8.484-14.087,12.148-.735.624-.823,1.129-.3,1.914,1.068,1.602,2.07,3.247,3.033,4.769,5.723-5.335,13.142-9.093,13.142-9.093,0,0-6.722,7.189-9.547,10.886-.621.812-.592,1.945.065,2.728,2.474,2.952,5.302,6.15,8.378,8.24.667-.368,2.549-6.824,6.338-9.47.535-.374-2.108,5.518-2.524,9.861-.125,1.306.49,2.569,1.598,3.273,2.776,1.764,6.016,3.287,9.326,3.434-.205-3.823.316-7.561,1.169-11.511.656,3.219,1.14,6.49,1.738,9.368.417,2.005,2.427,3.295,4.405,2.764,4.202-1.129,6.677-4.76,6.932-6.575-1.586-12.031-7.758-23.241-15.382-32.717-5.131-6.663-12.428-11.253-17.793-17.601-3.15-7.98,20.237-.249,23.538.467.407-.504-.025-.829-.188-1.139-1.619-3.078-2.792-6.325-3.518-9.712-.514-3.693-18.327-9.462-24.215-12.315,7.693-1.17,15.652,2.308,22.904,4.902.092-2.534-.076-4.864.291-7.158.129-.806-.577-1.016-1.11-1.302-6.221-3.652-12.756-6.263-19.104-9.667,4.575-1.041,13.981,2.963,19.718,5.412,1.423.608,1.409.572,1.997-.881.57-1.407,1.135-2.823,1.824-4.172.441-.863.277-1.326-.49-1.87-6.235-4.677-12.868-8.822-19.305-13.093,7.546.689,14.467,4.799,20.917,8.599,1.889,1.178,1.875,1.186,3.295-.64.551-.709,1.063-1.472,1.723-2.066.953-.857.754-1.515.053-2.443-5.221-7.281-10.662-14.4-15.18-22.132,1.045-.034,12.592,11.213,17.244,16.891q1.832,2.236,4.17.502c.834-.615,1.694-1.194,2.537-1.797,1.157-.827,1.181-.845.438-2.101-6.023-10.771-10.629-35.535-10.629-35.535,0,0,11.545,27.974,14.956,32.753.991,1.388.918,1.472,2.388.756,3.108-1.515,4.632-2.21,8.244-3.311-5.891-8.922-8.347-18.96-10.507-29.301,3.618,9.754,15.655,28.058,16.69,27.863,1.761-.332,4.696-.825,6.476-1.054,1.315-.169,1.349-.16,1.153-1.535-1.28-9.093-2.313-29.208-1.529-29.47.51-.119,5.189,19.676,6.815,29.274.236,1.478.262,1.517,1.858,1.6,2.695.14,5.378.38,8.024.913,1.077.217,1.593-.09,1.952-1.175,3.655-9.777,5.993-20.314,10.425-29.648.802.808.5,1.751.427,2.586-.806,9.236-2.16,18.38-4.679,27.326-.821,2.917-1.177,2.319,1.757,3.343,2.191.597,4.27,2.31,6.257.327,11.366-8.332,20.223-19.188,29.381-29.607.454.985-.113,1.709-.443,2.421-5.579,12.437-13.896,22.855-24.004,31.888,2.162,1.575,4.286,2.992,6.215,4.659.55.475,1.13.359,1.754.197,17.688-3.985,28.322-20.531,36.331-35.308Zm-21.635,176.61c-4.261-9.651-6.387-23.504-.525-32.816-2.622-.041-4.655,3.629-4.815,5.896-.282,5.514-.484,11.027.092,16.55.494,4.739,2.507,8.68,5.762,12.241.207-.802-.254-1.328-.513-1.871Zm126.546,119.023c-3.248,1.58-7.793,4.483-12.724,5.217-7.028,1.026-12.847,1.258-19.938,1.154-7.092.104-12.91-.128-19.938-1.154-4.93-.734-9.476-3.637-12.724-5.217.45,2.385,2.269,17.08,21.92,17.08,3.532.026,7.626-.146,10.743-1.5,3.117,1.354,7.21,1.526,10.743,1.5,19.651,0,21.469-14.696,21.92-17.08Zm-48.4-22.215c-.269.033-.555-.025-.928.333,2.162,1.334,4.491,1.913,7.338,2.469-1.941-3.107-2.743-6.399-5.335-8.569-.119.073,2.775,5.392-1.075,5.767Zm9.788,1.452c1.519,2.083,3.783,2.983,5.949,2.671,2.166.311,4.43-.588,5.949-2.671,1.739-2.384,2.575-5.261,4.184-7.738-3.716,1.848-5.559,9.901-10.133,8.717-4.574,1.185-6.417-6.869-10.133-8.717,1.609,2.476,2.445,5.354,4.184,7.738Zm20.612-7.219c-2.592,2.17-3.394,5.463-5.335,8.569,2.846-.556,5.176-1.135,7.338-2.469-.373-.358-.659-.3-.928-.333-3.85-.376-.955-5.694-1.075-5.767Zm-14.663,28.297c-.786.012-1.636.372-2.534,1.084.62.092,1.596.141,2.534.144.937-.003,1.914-.052,2.534-.144-.898-.711-1.747-1.072-2.534-1.084Zm99.224-146.257c-.16-2.267-2.193-5.937-4.815-5.896,5.862,9.312,3.736,23.165-.525,32.816-.259.543-.721,1.069-.513,1.871,3.255-3.561,5.268-7.502,5.762-12.241.576-5.523.373-11.037.092-16.55Zm-10.609-66.675c-6.688-2.703-23.565,4.805-31.628,6.112-7.915,2.26-15.182.764-22.551-2.326-4.037-.587-8.074-1.118-12.171-.915-.38.019-.842.195-1.203-.504,5.197-3.634,11.276-3.824,17.309-4.367-.258-.752-.888-.795-1.344-1.017-2.175-1.062-4.376-2.114-6.324-3.534-1.802-1.312-3.685-1.381-5.705-1.061-5.203.857-8.618,5.401-11.944,9.093-.266.317-.409.912-1.195.678,3.481-13.069,8.137-17.25,21.811-16.204-7.522-7.008-19.554-4.105-24.113,4.743-1.62,3.125-2.835,6.447-4.181,9.696-.16.392-.216.868-.889,1.066.917-11.257,5-25.732,18.536-26.173.278-.016.681.161.873-.448-5.8-2.492-11.658-2.273-17.603-.684,6.405-4.763,13.552-5.397,21.194-3.672-.367-1.047-1.369-1.463-1.395-2.305-.055-1.76-1.115-3.091-1.714-4.618-.389-.991-.942-1.325-2.046-1.13-6.117.87-11.96,2.39-18.191,2.569,3.894-5.328,10.521-7.611,16.705-9.049,1.051-.196,1.248-.676,1.025-1.784-.193-.957-.803-.992-1.555-.801-4.954,1.254-10.036,1.925-14.968,3.281-.392.108-.829.485-1.384-.014,1.495-1.797,3.61-2.755,5.467-4.452-2.059-.396-3.828-.646-5.545-1.097-1.215-.319-1.829.035-2.144,1.187-.122.445-.194.999-.838,1.032-.556.028-.775-.282-.906-.667-.131.385-.35.696-.906.667-.643-.033-.716-.587-.838-1.032-.315-1.152-.929-1.506-2.144-1.187-1.716.45-3.485.701-5.545,1.097,1.857,1.697,3.972,2.655,5.467,4.452-.555.499-.992.122-1.384.014-4.932-1.356-10.014-2.028-14.968-3.281-.752-.19-1.362-.156-1.555.801-.223,1.108-.026,1.588,1.025,1.784,6.185,1.438,12.812,3.721,16.705,9.049-6.231-.179-12.074-1.699-18.191-2.569-1.104-.195-1.656.138-2.046,1.13-.6,1.527-1.659,2.858-1.714,4.618-.027.842-1.028,1.258-1.395,2.305,7.642-1.725,14.79-1.091,21.194,3.672-5.944-1.59-11.803-1.808-17.603.684.192.609.595.432.873.448,13.536.441,17.619,14.916,18.536,26.173-.673-.198-.73-.674-.889-1.066-1.345-3.25-2.561-6.571-4.181-9.696-4.559-8.848-16.591-11.751-24.113-4.743,13.675-1.046,18.33,3.135,21.811,16.204-.786.235-.929-.361-1.195-.678-3.326-3.692-6.742-8.236-11.944-9.093-2.02-.32-3.903-.251-5.705,1.061-1.948,1.419-4.149,2.472-6.324,3.534-.456.223-1.086.266-1.344,1.017,6.032.543,12.112.733,17.309,4.367-.361.699-.822.523-1.203.504-4.096-.202-8.134.328-12.171.915-7.37,3.09-14.637,4.586-22.551,2.326-8.062-1.307-24.94-8.815-31.628-6.112-8.043,2.788-18.529,9.57-13.456,19.343.178-4.077.615-8.023,3.645-11.173.374.449.226.773.14,1.092-1.403,5.697.402,12.111,5.062,15.622,11.954,5.448,23.033,12.973,35.86,16.291-1.853-3.214-4.286-5.559-6.083-8.441,1.788.144,3.074,1.281,4.485,2.108,1.483.868,2.903,1.845,4.757,3.035-1.677-4.043-4.02-7.242-5.631-10.845,4.319,2.269,7.324,5.892,10.308,9.636-.129-7.183-5.825-12.399-11.592-15.85-4.121-2.433-8.544-4.196-13.016-5.847-.64-.33-1.467-.3-1.815-1.022,9.432.743,18.307,4.068,25.786,9.818,3.624,2.877,6.279,6.388,7.438,10.933.077.303.007.713.533.899.626-7.009-5.343-12.008-9.953-16.388-8.869-7.624-5.815-5.786-16.24-9.427-5.391-1.807-11.067-3.401-16.811-3.016-1.009.186-1.124-.826-.265-1.135,13.372-4.98,26.596,3.4,39.333,6.806,5.433,1.643,12.504,1.32,16.059-3.745.154-.219.315-.443.772-.466-.984,5.507-4.348,8.741-9.896,10.336,8.545,2.533,13.811-5.303,19.723-9.778,2.821-.893-3.059,9.651-3.964,10.815,3.44-1.54,6.454-2.889,9.708-4.345-1.061,3.368-3.928,4.565-6.504,6.388-8.387,5.324-12.925,26.234-9.345,35.118,3.478-8.417,5.312-17.462,10.151-25.834.274,7.653-1.034,14.895-3.203,22.18-2.787,8.787-3.695,17.992-5.727,26.938-3.113,14.783,5.713,18.978-5.589,37.983.793-7.763,3.579-15.454.873-23.171-2.635-7.133-3.807-14.421-2.736-21.978.126-1.061.257-2.133.016-3.744-2.692,3.705-5.135,6.972-7.896,10,.42-3.853,2.233-7.2,3.484-10.853-2.119,1.497-4.337,2.693-7.245,3.525,3.38-4.929,6.022-9.846,6.959-15.645-1.304.082-2.095,1.231-3.588,1.224.809-2.819,3.125-4.737,3.738-7.675-4.057,3.341-8.518,5.512-13.692,3.491-8.406-1.204-17.107.341-25.486-2.024-5.901-1.248-11.332-4.791-12.877-10.912-.685-2.41-1.622-3.96-3.364-5.742-3.246,3.441-2.745,9.005-2.235,13.352.666,3.708,3.746,5.425,7.127,7.083-2.323-3.362-4.572-6.341-4.525-10.267.712-.103.846.48,1.136.804,5.628,7.038,12.154,13.337,21.135,15.529,3.574,1.199,7.239.586,10.846-.178.495-.077,1.071-.053,1.239.481-.135,2.149-10.938,3.993-13.181,4.51,8.937,1.963,17.597-.439,25.844-4.117-7.063,7.054-17.056,9.67-26.784,10-6.777.395-12.552-2.496-17.377-7.319-3.476,4.218-1.819,20.698,1.236,24.86-.488-5.049-1.611-10.107,1.091-14.918,1.818,4.253,1.462,8.971,3.07,13.587.937-3.448,1.375-6.735,3.298-9.543.393,1.86.228,3.751.678,5.96,1.223-2.02,1.963-3.895,3.642-5.572-.79,2.901-1.551,5.456-1.616,8.05,3.864-3.087,6.425-7.53,11.354-9.187-1.599,2.835-3.687,5.041-4.844,7.881,4.112-3.394,8.346-6.564,13.566-8.138.183.779-.39.952-.698,1.25-7.99,7.101-15.867,15.388-17.214,26.492-.967,12.029-3.222,24.04-2.561,36.144.711,9.26,6.967,17.798,14.646,22.562-10.106-9.958-12.429-19.622-11.752-33.404-.095-8.632,4.589-26.802,10.676-32.914-3.454,7.145-4.715,18.346-4.51,20.139.945-1.496,1.428-1.904,3.133-3.388-1.897,4.938-4.577,9.151-4.61,14.758,2.45-3.173,3.502-5.856,6.362-8.76-.211,2-6.202,11.843-5.035,20.822.1-.483,2.986-10.973,5.558-13.69-1.485,6.432-2.433,12.362-1.398,18.847.982-4.612,2.813-8.846,5.398-12.795-.987,5.318-2.37,10.532-1.398,16,1.395-3.262,3.263-6.207,5.261-9.13-1.277,5.521-2.188,11.059-1.498,16.757,1.212-4.52,2.071-9.358,5.558-12.806-1.959,5.024-2.701,10.48-.575,15.601.347-4.168,1.522-8.19,3.618-11.828.516.478.186.882.094,1.283-1.388,4.78-1.896,10.576,2.031,14.32-.853-4.5-.1-8.702,1.979-12.767-.064,4.135.171,8.156,2.585,11.704.326-3.166-.099-6.434,1.805-9.606.765,2.259.455,4.421,1.502,6.497,1.029-1.916,1.356-3.832,2.131-5.674.628.776.026,1.727.804,2.519,3.102-7.283,3.792-14.863,3.896-22.585,1.53,2.104,1.256,4.655,1.951,7.272,2.377-5.302,3.116-10.16,4.088-15.727,3.102,6.648.2,14.584-.337,20.959-.602,5.433-2.706,10.45-5.487,15.091-4.169,6.958-6.481,14.616-8.929,22.237-2.299,6.934-1.03,10.463,4.349,15.23,8.652,9.728,18.431,17.077,31.869,10.954,7.529-4.55,1.11-11.416-5.147-12.625-10.824-2.267-22.629-19.24-11.985-28.01,2.16-1.613,4.276-3.271,6.315-5.031.514-.3,1.14-1.127,1.776-.82.363.25.348,1.697.193,2.014-1.399,2.38-3.95,2.967-4.751,5.718-1.387,3.95,10.331,5.212,21.367,5.042,11.036.17,22.754-1.091,21.367-5.042-.801-2.751-3.352-3.338-4.751-5.718-.155-.317-.169-1.764.193-2.014.636-.307,1.262.521,1.776.82,2.039,1.761,4.155,3.418,6.315,5.031,10.644,8.77-1.161,25.743-11.985,28.01-6.257,1.209-12.675,8.075-5.147,12.625,13.438,6.123,23.217-1.226,31.869-10.954,5.379-4.767,6.648-8.296,4.349-15.23-2.448-7.621-4.76-15.279-8.929-22.237-2.781-4.641-4.884-9.658-5.487-15.091-.537-6.375-3.439-14.311-.337-20.959.972,5.567,1.711,10.425,4.088,15.727.695-2.617.421-5.168,1.951-7.272.104,7.722.793,15.302,3.896,22.585.778-.792.176-1.743.804-2.519.775,1.842,1.102,3.758,2.131,5.674,1.047-2.076.737-4.238,1.502-6.497,1.904,3.172,1.478,6.44,1.805,9.606,2.414-3.548,2.65-7.569,2.585-11.704,2.079,4.065,2.832,8.267,1.979,12.767,3.927-3.745,3.418-9.541,2.031-14.32-.092-.401-.422-.805.094-1.283,2.096,3.638,3.271,7.66,3.618,11.828,2.126-5.121,1.384-10.577-.575-15.601,3.487,3.448,4.346,8.286,5.558,12.806.69-5.698-.221-11.236-1.498-16.757,1.998,2.923,3.866,5.867,5.261,9.13.972-5.468-.411-10.682-1.398-16,2.585,3.949,4.416,8.183,5.398,12.795,1.035-6.486.086-12.416-1.398-18.847,2.572,2.717,5.458,13.207,5.558,13.69,1.167-8.979-4.824-18.822-5.035-20.822,2.86,2.904,3.912,5.587,6.362,8.76-.034-5.607-2.713-9.82-4.61-14.758,1.705,1.484,2.187,1.892,3.133,3.388.204-1.793-1.057-12.994-4.51-20.139,6.087,6.112,10.771,24.282,10.676,32.914.678,13.782-1.645,23.446-11.752,33.404,7.679-4.764,13.935-13.302,14.646-22.562.66-12.104-1.594-24.116-2.561-36.144-1.347-11.104-9.224-19.391-17.214-26.492-.308-.298-.881-.471-.698-1.25,5.221,1.574,9.455,4.744,13.566,8.138-1.157-2.839-3.244-5.046-4.844-7.881,4.929,1.657,7.49,6.1,11.354,9.187-.064-2.594-.826-5.149-1.616-8.05,1.678,1.677,2.419,3.552,3.642,5.572.45-2.209.285-4.1.678-5.96,1.923,2.808,2.361,6.094,3.298,9.543,1.608-4.616,1.251-9.334,3.07-13.587,2.702,4.81,1.579,9.869,1.091,14.918,3.055-4.161,4.712-20.642,1.236-24.86-4.825,4.823-10.6,7.714-17.377,7.319-9.728-.33-19.721-2.946-26.784-10,8.247,3.678,16.907,6.08,25.844,4.117-2.243-.517-13.046-2.361-13.181-4.51.168-.534.744-.558,1.239-.481,3.607.764,7.272,1.377,10.846.178,8.981-2.191,15.507-8.491,21.135-15.529.29-.324.424-.906,1.136-.804.047,3.926-2.202,6.904-4.525,10.267,3.382-1.658,6.461-3.375,7.127-7.083.51-4.347,1.011-9.912-2.235-13.352-1.742,1.782-2.679,3.332-3.364,5.742-1.545,6.121-6.976,9.664-12.877,10.912-8.379,2.365-17.08.82-25.486,2.024-5.173,2.022-9.634-.15-13.692-3.491.613,2.938,2.928,4.856,3.738,7.675-1.493.007-2.285-1.142-3.588-1.224.937,5.798,3.578,10.716,6.959,15.645-2.908-.832-5.126-2.028-7.245-3.525,1.251,3.653,3.065,6.999,3.484,10.853-2.762-3.027-5.205-6.295-7.896-10-.241,1.612-.11,2.683.016,3.744,1.071,7.557-.1,14.845-2.736,21.978-2.706,7.718.08,15.409.873,23.171-11.302-19.005-2.476-23.2-5.589-37.983-2.032-8.946-2.94-18.151-5.727-26.938-2.169-7.286-3.477-14.527-3.203-22.18,4.839,8.372,6.674,17.417,10.151,25.834,3.58-8.883-.957-29.793-9.345-35.118-2.576-1.822-5.443-3.019-6.504-6.388,3.254,1.456,6.268,2.806,9.708,4.345-.904-1.163-6.785-11.708-3.964-10.815,5.912,4.475,11.178,12.311,19.723,9.778-5.548-1.595-8.912-4.83-9.896-10.336.457.023.618.246.772.466,3.556,5.066,10.626,5.389,16.059,3.745,12.737-3.405,25.961-11.786,39.333-6.806.859.309.744,1.321-.265,1.135-5.744-.385-11.42,1.209-16.811,3.016-10.426,3.641-7.371,1.803-16.24,9.427-4.61,4.381-10.579,9.379-9.953,16.388.526-.185.456-.595.533-.899,1.159-4.545,3.815-8.056,7.438-10.933,7.478-5.75,16.353-9.075,25.786-9.818-.347.722-1.175.692-1.815,1.022-4.473,1.651-8.895,3.414-13.016,5.847-5.767,3.451-11.463,8.667-11.592,15.85,2.984-3.744,5.989-7.367,10.308-9.636-1.61,3.604-3.954,6.802-5.631,10.845,1.853-1.19,3.273-2.166,4.757-3.035,1.412-.827,2.697-1.964,4.485-2.108-1.798,2.882-4.23,5.227-6.083,8.441,12.827-3.318,23.906-10.843,35.86-16.291,4.66-3.511,6.465-9.925,5.062-15.622-.085-.319-.234-.644.14-1.092,3.029,3.15,3.466,7.097,3.645,11.173,5.072-9.773-5.413-16.555-13.456-19.343Zm-5.112,36.58c-7.16,3.282-13.728,7.571-20.184,12.216,8.613-.487,21.617,1.989,24.965-8.46.996-2.718-2.04-5.1-4.781-3.756Zm-171.787,3.756c3.349,10.448,16.353,7.973,24.965,8.46-6.456-4.645-13.024-8.934-20.184-12.216-2.741-1.343-5.777,1.039-4.781,3.756Zm193.882-48.226c14.606,10.308,33.946,8.252,50.362,4.107,6.563-1.481,13.136-2.772,19.893-.012-.692-6.812-5.34-11.915-10.834-15.448-16.406-10.385-37.29-6.857-53.957,1.03-2.794.757-8.426,8.367-5.464,10.322Zm79.562,29.168c-1.807,7.122-4.201,19.065-2.428,21.445,6.573-16.813,19.044-29.916,33.426-40.465-2.038-.329-2.361-.308-4.23.243-28.118,8.568-62.552,25.189-66.698,57.536,2.547-.946,4.571-2.959,8.022-3.632-2.188,2.104-8.576,6.771-8.269,7.795,1.071,3.383,2.412,6.86,5.102,9.306,1.326-1.059,5.103-4.476,8.44-6.385-2.083,3.733-6.881,8.233-5.874,9.082,2.558,2.157,6.062,4.299,9.224,5.414,1.533.54,3.601-4.628,4.596-6.982-.356,2.584-.457,5.271-1.014,7.862,4.867,1.416,10.053.954,13.86.158.686-.143,1.744-5.881,1.744-5.881,0,0,.346,3.548.518,5.312,3.839-.301,16.265-6.511,18.706-9.348-7.511.821-15.761.736-22.48-3.045-10.879-5.893-15.865-22.164-10.091-32.651,2.358,38.804,36.028,32.572,42.64,29.076,0,0,3.343-3.619,5.086-5.317-33.407,16.8-49.312-9.25-31.82-38.494.367-.505.782-1.41,1.542-1.028Zm-5.711-30.196c-4.335-32.172-44.57-34.256-67.035-19.297.494.285.873.064,1.259-.059,9.508-3.16,19.19-5.978,29.34-5.149,15.495.856,32.387,7.951,36.059,24.518.126-.005.251-.009.377-.014Zm-65.439,28.537c-5.786-2.203-3.471-1.552-6.073,3.727,1.895-1.335,4.001-2.273,6.073-3.727Zm36.015,13.854c5.43-6.425,11.606-12.059,18.651-16.641,3.209-2.15,6.467-6.509,6.476-10.252-1.249-2.975-3.181-5.158-6.557-5.676-7.064-.386-13.846,2.455-20.738,3.617-7.521,1.449-15.045,1.914-22.66.722-6.149-.667-12-3.15-18.212-2.902,6.939,11.902,18.219,13.131,30.734,11.534,7.983-.875,15.495-3.269,22.67-6.817.57-.282,1.059-.963,2.104-.466-8.206,8.452-18.844,11.499-29.689,14.181,1.929.739,3.995.361,6.376,1.201-3.298,1.505-6.453,2.019-9.668,2.937,1.223,1.038,2.864.524,4.032,1.774-2.915.869-5.808.859-8.898,1.495,3.272,3.04,6.819,4.586,11.007,4.855-6.794,3.265-14.002-1.008-19.211-5.301-.412-.297-.74-.166-1.036.243-2.171,2.968-.521,7.045,2.665,8.476,4.917,2.659,10.463,4.963,16.165,4.088,5.657-1.065,11.701-2.841,15.788-7.07Zm66.79,52.865c-20.825,21.982-60.736,37.721-77.074,2.495-1.085-2.231-2.469-1.633-1.835.799,14.76,40.586,59.838,24.837,78.909-3.294Zm26.648-112.294s-7.233-.582-9.659-1.865c10.427-4.982,9.207-2.919,5.38-14.534-.245-.716-15.429,1.466-16.122.217,1.409-1.11,6.57-2.471,14.799-3.903-1.784-6.835-5.997-13.064-9.377-19.284-.523-.893-.992-.882-1.815-.422-5.065,2.827-9.328,5.464-17.299,9.399,4.182-4.982,9.877-8.691,14.617-13.227.558-.485,1.256-.814.569-1.801-3.712-5.329-8.25-9.832-13.431-13.717-.545-.409-.925-.381-1.408.12-3.164,3.283-5.085,3.649-11.391,10.785,1.508-4.358,4.938-9.752,8.831-13.869-12.088-9.013-25.282-17.013-39.351-22.459-.432,4.874-1.723,15.726-4.801,22.598-.738-7.507.835-14.97.552-22.527-.007-1.217-.342-1.835-1.551-2.239-7.553-2.524-15.248-4.431-23.134-5.555-1.333-.19-1.421-.15-1.614,1.175-1.627,8.829-1.266,17.847-.832,26.624-3.913-8.018-5.222-17.581-5.534-26.601-.007-2.092.006-2.103-2.152-2.185-2.331-.217-27.528-.287-25.697,2.958.875,8.804,2.058,17.602,5.376,25.875.297.79.868,1.612.336,2.546-1.155-.538-1.18-.527-1.964-2.13-3.927-8.022-7.189-16.3-9.41-24.961-.282-1.101-.663-1.344-1.688-1.036-2.08.792-17.785,4.469-16.94,6.527.252,10.699,3.181,21.071,7.923,30.637.301.633.872,1.221.57,2.178-6.036-9.139-10.342-19.296-14.328-29.476-.525-1.39-.49-1.432-1.808-.787-4.536,2.22-8.883,4.767-13.126,7.505-.995.642-1.348,1.343-1.285,2.531.399,8.041,3.067,15.656,5.251,23.331-4.689-6.346-8.221-13.136-10.92-20.621-1.944,1.175-3.328,2.731-4.962,3.956-1.413,1.06-1.98,2.165-1.007,3.802,2.552,9.672,6.577,18.747,11.354,27.504.208.391.659.718.36,1.484-6.72-7.855-12.945-15.892-17.874-24.82-.584.033-.759.453-1.002.759-1.806,2.28-3.388,4.706-4.802,7.25-1.806,4.826,1.98,13.528,3.868,18.233,8.09,19.889,29.791,30.376,49.842,34.145-15.722-7.406-31.725-17.824-39.889-33.889,13.149,12.441,28.647,22.366,46.098,27.432,1.202.393,1.423-.497,1.747-1.232.415-.943-.465-.958-.959-1.226-11.573-5.266-22.01-14.212-26.953-25.803,8.968,8.435,18.547,17.288,30.926,20.029.606.138,1.223.367,1.721-.236,1.074-1.297,2.143-2.598,3.26-3.954-13.374-6.156-21.501-19.136-27.549-32.021-1.256-3.255-3.123-6.754-2.963-10.276,8.008,14.777,18.643,31.323,36.331,35.308.624.162,1.205.278,1.754-.197,1.93-1.667,4.053-3.083,6.215-4.659-10.107-9.033-18.425-19.451-24.004-31.888-.33-.712-.897-1.436-.443-2.421,9.158,10.419,18.014,21.275,29.381,29.607,1.987,1.983,4.066.27,6.257-.327,2.934-1.024,2.579-.426,1.757-3.343-2.519-8.947-3.873-18.09-4.679-27.326-.073-.835-.375-1.778.427-2.586,4.431,9.334,6.769,19.871,10.425,29.648.359,1.086.875,1.392,1.952,1.175,2.646-.532,5.329-.773,8.024-.913,1.596-.083,1.622-.121,1.858-1.6,1.626-9.598,6.305-29.393,6.815-29.274.784.263-.249,20.377-1.529,29.47-.196,1.375-.162,1.367,1.153,1.535,1.78.228,4.715.722,6.476,1.054,1.035.195,13.073-18.11,16.69-27.863-2.16,10.341-4.616,20.379-10.507,29.301,3.612,1.101,5.136,1.796,8.244,3.311,1.47.716,1.397.632,2.388-.756,3.411-4.779,14.956-32.753,14.956-32.753,0,0-4.606,24.765-10.629,35.535-.743,1.256-.719,1.275.438,2.101.843.603,1.703,1.182,2.537,1.797q2.34,1.727,4.17-.502c4.652-5.678,16.199-16.925,17.244-16.891-4.518,7.732-9.959,14.851-15.18,22.132-.7.928-.9,1.586.053,2.443.66.594,1.172,1.357,1.723,2.066,1.42,1.826,1.407,1.819,3.295.64,6.45-3.801,13.371-7.91,20.917-8.599-6.437,4.271-13.071,8.416-19.305,13.093-.766.544-.93,1.006-.49,1.87.689,1.35,1.254,2.765,1.824,4.172.588,1.453.574,1.488,1.997.881,5.737-2.449,15.143-6.453,19.718-5.412-6.348,3.403-12.883,6.015-19.104,9.667-.533.286-1.239.497-1.11,1.302.367,2.294.199,4.625.291,7.158,7.253-2.594,15.211-6.072,22.904-4.902-5.888,2.853-23.701,8.622-24.215,12.315-.726,3.387-1.899,6.634-3.518,9.712-.163.31-.596.635-.188,1.139,3.301-.716,26.688-8.448,23.538-.467-5.366,6.348-12.662,10.938-17.793,17.601-7.624,9.476-13.796,20.686-15.382,32.717.255,1.816,2.73,5.446,6.932,6.575,1.978.532,3.988-.758,4.405-2.764.598-2.878,1.082-6.149,1.738-9.368.854,3.95,1.374,7.688,1.169,11.511,3.31-.146,6.549-1.669,9.326-3.434,1.108-.704,1.723-1.966,1.598-3.273-.415-4.343-3.059-10.235-2.524-9.861,3.788,2.645,5.67,9.102,6.338,9.47,3.075-2.09,5.903-5.288,8.378-8.24.657-.783.685-1.916.065-2.728-2.824-3.697-9.547-10.886-9.547-10.886,0,0,7.419,3.758,13.142,9.093.963-1.522,1.965-3.168,3.033-4.769.524-.785.435-1.29-.3-1.914-4.319-3.664-13.968-11.28-14.087-12.148,6.294,2.108,11.763,5.412,16.957,9.446,1.738-3.144,3.142-6.137,4.48-9.166.357-.809.045-1.149-.614-1.655-3.331-2.556-6.529-5.333-15.025-9.661,6.106.341,11.84,3.722,17.202,6.528,1.874-3.413,5.124-18.492,4.95-22.904-9.056-.539-18.154.022-27.345-.498.365-.801,27.916-4.802,27.996-5.43.461-3.61-.724-12.939-.724-12.939Z" fill="#363436"/>
  </g>
</svg>