<?xml version="1.0" encoding="UTF-8"?>
<svg id="b" data-name="Layer 2" xmlns="http://www.w3.org/2000/svg" width="452.904" height="500" viewBox="0 0 452.904 500">
  <g id="c" data-name="beaver">
    <path d="m369.197,173.822c19.757,6.18,34.266,30.926,32.983,31.801-5.236-4.237-9.855-9.009-15.482-10.206,4.172,9.605,8.388,23.362,8.135,26.447-6.878-11.783-13.634-18.363-22.142-25.174,6.452,2.052,9.467,4.147,11.857,5.401-1.064-4.246-4.935-10.457-10.457-16.038,3.819,1.351,5.287,1.704,8.305,3.651-3.546-9.173-11.863-13.914-13.199-15.882Zm36.262,26.434c.075-.558-1.504-8.118-2.814-11.548-.393-1.028-.614-2.07-.683-3.177-.227-3.668-1.465-6.985-3.618-9.967-4.681-6.422-8.92-9.075-19.773-15.025.457,1.035,9.796,8.652,12.419,13.786-5.204-3.139-10.489-5.79-16.262-7.417,13.102,8.38,23.635,19.084,30.732,33.347Zm-90.8-82.744c6.061-5.819,12.429-11.068,20.729-13.382-7.493,5.108-14.294,10.834-18.21,19.352,11.874-6.653,25.351-12.46,39.231-11.217-4.556,2.078-9.505,3.07-13.961,5.259,9.146,19.467-3.81,40.287-25.478,40.028-5.585-.097-11.375-3.59-12.317-9.42-.064-.359.029-.799-.566-1.061-1.741,2.529-2.667,4.261-5.231,9.462-1.372-5.437-2.385-14.86-1.063-21.674,2.359-10.651,7.66-21.469,15.902-28.25-1.934,4.95-2.346,5.537-2.974,7.663,4.013-5.029,7.814-10.036,13.466-13.158-4.025,5.157-7.818,12.371-9.527,16.395Zm13.203,32.09c11.162-2.972,15.78-18.386,10.619-25.804-.209,9.209-1.263,18.83-9.528,24.466-.446.329-1.077.59-1.091,1.338Zm-17.114-5.732c1.458-1.137,9.216-13.846,9.879-16.601-5.564,2.613-12.68,10.046-9.879,16.601Zm-156.123,12.666c-2.564-5.202-3.49-6.934-5.231-9.462-.595.262-.501.702-.566,1.061-.943,5.831-6.732,9.323-12.317,9.42-21.668.258-34.624-20.561-25.478-40.028-4.457-2.189-9.406-3.182-13.961-5.259,13.88-1.243,27.356,4.564,39.231,11.217-3.916-8.518-10.717-14.245-18.21-19.352,8.301,2.313,14.668,7.563,20.729,13.382-1.709-4.024-5.502-11.238-9.527-16.395,5.652,3.122,9.453,8.129,13.466,13.158-.628-2.125-1.04-2.713-2.974-7.663,8.242,6.781,13.543,17.598,15.902,28.25,1.321,6.813.308,16.237-1.063,21.674Zm-29.006-6.933c-.014-.748-.645-1.009-1.091-1.338-8.265-5.636-9.318-15.257-9.528-24.466-5.161,7.418-.543,22.832,10.619,25.804Zm7.236-22.333c.662,2.755,8.421,15.464,9.879,16.601,2.801-6.555-4.314-13.988-9.879-16.601Zm-15.525,28.845c-13.618-6.367-18.142-18.351-19.264-30.872-4.224,13.755.262,26.475,8.484,35.029-5.776-.242-11.239-.242-17.114,2.284,5.64.176,9.616.483,14.265,1.648-3.382,1.428-6.492,2.472-8.7,5.504,14.291-3.158,27.04-5.625,36.615-1.336,2.391,1.071,4.641,3.466,8.342,8.46,0-2.82-.235-6.051-2.514-9.845,2.69.505,4.218,2.091,8.8,6.438-1.41-13.825-19.301-13.19-28.915-17.308Zm41.301-92.416c9.976,2.481,25.764,19.641,26.432,19.44-1.534-8.87-8.954-15.808-15.713-21.305-8.62-5.455-18.771-7.264-31.345-5.555,8.14,1.909,14.383,8.91,17.636,14.839-13.905-7.13-28.238-8.408-43.342-4.816.329,1.583,4.625,1.489,5.959,1.628,33.196,1.692,38.277,12.75,54.972,23.663-.89-7.211-8.766-21.505-14.6-27.895Zm-38.032,113.226c-14.41.927-24.802,14.295-27.121,27.781-.95,3.554-4.177,9.097-5.805,12.485,7.226-8.401,11.832-13.128,16.39-17.154,8.398-8.213,18.553-10.268,26.527-19.146-8.668,2.168-14.895,4.283-22.533,8.337,4.054-6.227,8.877-9.349,12.541-12.302Zm43.946,22.843c.966.25,1.303-.221,1.627-.646,7.347-9.531,13.931-19.979,15.689-32.156.456-1.425-1.023-2.124-1.762-.753-.856.826-2.196,3.955-3.257,3.899,1.316-7.317,1.385-14.899-2.565-21.473-.46-1.272-1.762-1.556-1.553.124,1.89,17.303-6.855,33.714-17.319,46.903-.437.551-1.451,1.235-.785,1.915.678.693,1.373-.283,1.929-.743,5.668-4.395,9.568-10.179,14.193-15.501-1.156,6.74-4.258,12.101-6.196,18.43Zm38.719-68.26c-1.398-4.118-2.066-8.272-2.576-12.518-1.4-9.335-2.324-18.751-5.013-27.806.469,12.604.599,24.676-.207,36.859-2.912-7.972-6.87-15.101-11.023-22.554.747,6.251,1.915,13.28,1.94,18.753-5.538-10.275-12.044-19.758-21.022-27.413,3.239,8.22,8.079,20.317,7.863,23.789-7.43-10.852-16.628-19.243-29.856-25.122,23.394,19.72,34.663,47.646,34.663,47.646,0,0,2.817-5.634.739-13.517,3.306,3.852,6.655,8.963,9.736,16.635,1.442-2.914,1.724-5.911,1.984-7.757,10.503,10.366,6.449,27.99,4.183,38.056,11.85-11.624,13.992-29.914,8.588-45.05Zm-124.511,35.403c-5.774,1.628-11.058,4.279-16.262,7.417,2.623-5.134,11.961-12.75,12.419-13.786-10.853,5.95-15.093,8.603-19.773,15.025-2.153,2.982-3.391,6.299-3.618,9.967-.069,1.106-.29,2.149-.683,3.177-1.31,3.43-2.889,10.99-2.814,11.548,7.097-14.263,17.63-24.968,30.732-33.347Zm64.566,88.111c.36.862,1.077.966,1.557.184,4.048-9.298,7.875-18.783,13.617-27.219-9.555,5.138-18.411,15.557-15.174,27.035Zm126.215,46.74c6.659-.317,13.871-.861,19.651-3.993-19.053-3.439-36.328.321-53.644-9.4-1.886-1.059-5.827-4.243-8.801-4.243s-6.915,3.184-8.801,4.243c-17.316,9.72-34.591,5.961-53.644,9.4,5.78,3.133,12.991,3.676,19.651,3.993-1.401.257-3.986,1.07-5.386,1.326.008.155,18.479,5.605,34.343.994-1.678,1.338-4.143,2.087-6.977,3.378,6.612-.157,13.593-1.732,17.292-2.514.805-.216,2.744-.332,3.522-.351.778.019,2.717.135,3.522.351,3.7.781,10.681,2.356,17.292,2.514-2.834-1.291-5.299-2.04-6.977-3.378,15.864,4.611,34.335-.839,34.343-.994-1.401-.257-3.986-1.07-5.386-1.326Zm-113.137-18.055c-6.204-4.382-9.434-10.632-9.59-18.329,6.331,8.432,7.855,9.795,13.981,12.962-2.046-4.399-4.986-8.391-4.979-13.473,4.492,4.123,9.039,8.011,14.159,11.297-.248-2.535-.294-4.574.703-5.752,1.589,2.169,9.898,9.315,12.334,8.958-1.235-3.34-.963-5.923-.145-8.115,3.848,4.005,9.094,7.458,12.563,8.721-.52-1.784-.849-6.806.481-8.25,5.742,6.886,18.613,6.639,22.407-1.853-19.987,0-46.587-16.304-39.38-41.257,0,0,.248,2.467.65,3.47,1.31,3.276,8.483,8.997,16.375,5.165-5.099-.51-13.125-2.316-14.088-10.06,5.115,2.417,12.494,4.576,17.666,1.076,2.157-2.561-3.968-6.905-5.31-7.977-3.237-2.452-8.813-5.536-12.356-7.505,5.367-10.76,9.339-14.984,14.715-19.798.293,3.054.789,6.458,2.332,9.24.671-1.89,3.381-7.144,7.181-8.764.958,2.247,3.04,5.883,4.358,7.649,1.359-2.295,3.97-5.369,5.259-6.36,1.079,1.884,3.04,4.329,4.395,6.18,4.066-4.674,5.519-6.213,6.63-7.278,1.111,1.065,2.564,2.604,6.63,7.278,1.355-1.851,3.316-4.296,4.395-6.18,1.289.991,3.9,4.065,5.259,6.36,1.317-1.767,3.399-5.402,4.358-7.649,3.8,1.619,6.51,6.874,7.181,8.764,1.543-2.782,2.039-6.186,2.332-9.24,5.375,4.814,9.347,9.038,14.715,19.798-3.543,1.969-9.119,5.053-12.356,7.505-1.341,1.072-7.467,5.416-5.31,7.977,5.172,3.5,12.551,1.341,17.666-1.076-.963,7.745-8.989,9.55-14.088,10.06,7.892,3.832,15.064-1.889,16.375-5.165.401-1.003.65-3.47.65-3.47,7.207,24.953-19.393,41.257-39.38,41.257,3.794,8.492,16.665,8.739,22.407,1.853,1.33,1.444,1.001,6.466.481,8.25,3.469-1.264,8.715-4.716,12.563-8.721.818,2.193,1.09,4.775-.145,8.115,2.437.357,10.745-6.789,12.334-8.958.997,1.178.951,3.216.703,5.752,5.119-3.286,9.666-7.174,14.159-11.297.007,5.082-2.933,9.075-4.979,13.473,6.126-3.167,7.649-4.53,13.981-12.962-.156,7.696-3.386,13.947-9.59,18.329-20.368,14.817-47.458,6.255-68.098-3.718-.587-.317-1.746-.406-2.244-.335-.498-.071-1.657.018-2.244.335-20.64,9.973-47.73,18.535-68.098,3.718Zm70.342-66.485c7.678-.031,14.943-.629,19.938-1.377,3.643-.748,12.76-1.803,14.778-4.839h-69.431c2.017,3.037,11.135,4.091,14.778,4.839,4.995.748,12.26,1.346,19.938,1.377Zm218.426,92.962c-.292.913.222,1.658.438,2.398,1.888,5.978,3.284,12.541.684,18.489-4.422,11.339-17.438,26.421-23.908,28.306,1.071-4.524,1.038-8.397.621-11.554-.886.022-.967.782-1.272,1.245-.76,1.099-5.372,6.892-6.469,6.476-.266-4.59-.433-6.871-1.713-7.231-3.904,10.004,2.486,17.905-7.43,29.393-1.32-3.959-1.601-5.465-2.936-7.233-1.95,5.021.008,11.832,2.097,16.59-5.398.54-8.696-3.096-9.707-3.966-1.343,3.399-.561,6.686.368,9.943,1.097,3.638.102,8.898-1.901,11.425-5.134-9.664-8.995-7.338-12.915-10.718-4.875,8.672-11.233,12.751-19.725,18.299-3.817,2.494-5.304,7.768-10.317,11.311.455-9.241-1.132-9.808-2.05-13.799-4.315,3.355-9.611,11.216-11.004,21.23-3.826-.237-4.48-4.67-5.414-4.768-4.56,11.54-4.53,12.448-4.929,19.397-2.48-1.491-13.397-11.328-14.678-15.746-.845.027-11.281,21.521-24.151,26.131-.24-6.478-.833-9.957-2.135-13.379-4.468,3.915-8.722,15.838-7.258,23.448-4.882-1.731-9.098-8.887-10.581-14.327-2.759,13.916-15.255,22.051-20.934,32.51-3.059-5.098-3.734-7.111-4.649-10.023-2.789,9.46-12.654,13.573-16.846,25.973-4.192-12.4-14.058-16.513-16.846-25.973-.915,2.913-1.59,4.925-4.649,10.023-5.678-10.459-18.174-18.594-20.934-32.51-1.483,5.441-5.698,12.596-10.581,14.327,1.463-7.609-2.79-19.533-7.258-23.448-1.302,3.422-1.895,6.901-2.135,13.379-12.87-4.61-23.306-26.105-24.151-26.131-1.282,4.418-12.198,14.255-14.678,15.746-.399-6.949-.369-7.858-4.929-19.397-.935.098-1.588,4.531-5.414,4.768-1.392-10.014-6.689-17.875-11.004-21.23-.918,3.992-2.505,4.558-2.05,13.799-5.014-3.543-6.5-8.817-10.317-11.311-8.492-5.548-14.85-9.627-19.725-18.299-3.92,3.381-7.781,1.054-12.915,10.718-2.003-2.526-2.998-7.787-1.901-11.425.93-3.257,1.711-6.543.368-9.943-1.012.869-4.309,4.506-9.707,3.966,2.089-4.758,4.047-11.569,2.097-16.59-1.335,1.768-1.617,3.274-2.936,7.233-9.916-11.487-3.527-19.388-7.43-29.393-1.28.36-1.447,2.641-1.713,7.231-1.097.415-5.709-5.377-6.469-6.476-.306-.463-.387-1.224-1.272-1.245-.417,3.157-.45,7.03.621,11.554-6.47-1.885-19.486-16.967-23.908-28.306-2.6-5.948-1.203-12.511.684-18.489.216-.74.73-1.485.438-2.398-2.638.642-3.298,2.081-5.278,5.68-7.677-22.536,4.708-26.207,8.723-43.846-2.125.779-2.365.959-5.005,2.579-.432-6.302.286-14.831,4.452-20.121-2.973-1.565-9.971-7.11-9.971-7.11,0,0,.428-.077,2.134-1.137,5.099-3.857,7.818-10.269,8.423-16.592.188-3.023.839-6.624,2.868-11.266-3.62-.148-5.928-.096-11.49,1.752,2.083-9.645,9.526-10.653,12.903-15.897-1.69.492-2.362,1.214-5.062.254,3.313-2.606,6.958-7.433,8.161-11.391,1.163-3.828,2.907-7.381,4.915-10.821.297-.509.823-.926.767-1.732-1.56.163-2.027.551-4.966.131,3.959-3.899,6.456-11.877,11.802-15.349.241-.157-.087-3.178-1.185-4.025-2.699-2.579-4.499-2.159-5.218-6.478,6.058,1.02,13.542-4.83,14.659-8.425-1.599-.516-3.292.742-4.909.936.866-7.206,5.509-12.729,6.409-13.858,1.067-1.437,1.043-1.571-.651-2.234-6.934-2.715-12.5-7.214-17.078-13.016-1.777-2.252-3.827-5.79-6.228-7.549,2.039-.78,3.15-.169,3.977-.557-3.888-6.749-6.576-15.778-5.537-23.676,0,0,.647-.435,3.094.297-.163-3.883-.912-7.703-.378-11.632.406-3.448,1.092-6.974-.912-10.278,1.93-.867,3.1.759,4.577.881,1.623-11.047,3.145-16.661,5.102-18.854.848.092.864,1.321,1.709,1.314,8.044-11.162,18.957-13.214,31.49-10.214.245-.7-.055-1.359.005-2.619,6.118,1.739,13.471,4.672,18.066,8.782.638.584,1.305.709,2.135.636,7.438-.549,10.682-10.194,18.576-9.655.485-.005,1.066.289,1.509-.379-.81-1.169-3.097-4.003-4.057-7.182,4.563,1.309,10.56-.488,14.481-2.783,5.236-3.119,11.277-4.17,17.305-3.768,2.178-.011,2.178.012,2.763-2.153.284-1.052.364-4.703.66-5.752,1.56.6,2.638,1.516,4.918,1.739,6.291,1.234,11.869-2.043,18.13-1.842.489.034,1.066.312,1.486-.229-.721-1.648-3.061-3.087-5.433-3.905.054-1.925,8.473-3.141,10.26-3.288,7.306-.769,13.948,1.87,20.877,3.491-.959-3.139-1.653-4.545-3.487-6.967,9.601-1.804,18.792,2.476,27.36,6.096.217-.954-.024-1.866-.15-2.774-.364-3.779,1.375-5.398,1.375-5.398,2.342,2.477,6.228,4.228,9.287,5.383,10.621,4.287,7.833,5.72,10.349,4.029,2.516,1.691-.273.258,10.349-4.029,3.059-1.154,6.945-2.906,9.287-5.383,0,0,1.739,1.619,1.375,5.398-.125.908-.366,1.82-.15,2.774,8.568-3.62,17.759-7.9,27.36-6.096-1.834,2.422-2.529,3.828-3.487,6.967,6.929-1.622,13.571-4.26,20.877-3.491,1.787.147,10.206,1.362,10.26,3.288-2.372.818-4.711,2.257-5.433,3.905.42.541.997.263,1.486.229,6.261-.201,11.839,3.077,18.13,1.842,2.281-.223,3.359-1.14,4.918-1.739.296,1.049.376,4.7.66,5.752.585,2.165.585,2.143,2.763,2.153,6.028-.402,12.069.649,17.305,3.768,3.921,2.295,9.918,4.091,14.481,2.783-.96,3.179-3.247,6.012-4.057,7.182.443.668,1.024.374,1.509.379,7.893-.539,11.138,9.106,18.576,9.655.829.073,1.497-.052,2.135-.636,4.596-4.11,11.948-7.042,18.066-8.782.06,1.26-.24,1.919.005,2.619,12.532-3,23.446-.948,31.49,10.214.845.007.862-1.222,1.709-1.314,1.956,2.193,3.478,7.807,5.102,18.854,1.476-.122,2.647-1.748,4.577-.881-2.004,3.304-1.318,6.83-.912,10.278.533,3.929-.215,7.749-.378,11.632,2.447-.732,3.094-.297,3.094-.297,1.039,7.898-1.649,16.926-5.537,23.676.827.388,1.938-.223,3.977.557-2.401,1.76-4.451,5.298-6.228,7.549-4.578,5.802-10.144,10.301-17.078,13.016-1.693.663-1.718.796-.651,2.234.9,1.129,5.543,6.651,6.409,13.858-1.617-.193-3.31-1.451-4.909-.936,1.117,3.595,8.601,9.444,14.659,8.425-.72,4.319-2.519,3.899-5.218,6.478-1.098.848-1.426,3.869-1.185,4.025,5.346,3.472,7.843,11.45,11.802,15.349-2.939.42-3.406.032-4.966-.131-.056.806.47,1.223.767,1.732,2.008,3.44,3.752,6.993,4.915,10.821,1.203,3.958,4.848,8.784,8.161,11.391-2.699.96-3.372.238-5.062-.254,3.377,5.244,10.82,6.252,12.903,15.897-5.562-1.848-7.87-1.9-11.49-1.752,2.029,4.643,2.68,8.244,2.868,11.266.606,6.323,3.325,12.735,8.423,16.592,1.706,1.059,2.134,1.137,2.134,1.137,0,0-6.997,5.545-9.971,7.11,4.166,5.29,4.884,13.819,4.452,20.121-2.639-1.62-2.879-1.799-5.005-2.579,4.016,17.639,16.4,21.31,8.723,43.846-1.979-3.599-2.639-5.038-5.278-5.68Zm-18.528-88.78c.313,10.175,6.925,18.267,15.764,26.043-4.824-10.423-5.389-9.658-11.742-19.349-.168.011-3.853-6.704-4.021-6.693Zm-3.636,15.173c4.73,7.68,5.298,8.391,8.495,16.811,1.175,2.77,4.021,9.322,6.172,11.475,3.509,2.739,5.885,4.489,5.207,3.182-3.633-8.737-11.756-26.44-19.874-31.468Zm-41.381-180.509c1.384.085,3.791-.472,7.184-1.263,0,3.845-.695,11.181-.677,13.516,2.295-1.903,5.709-4.309,9.386-5.147-.291,3.116.76,9.862.298,13.069,3.762-2.7,5.819-6.132,9.057-12.014,2.551,3.921-.791,16.427-1.336,21.441,1.712-1.15,4.981-3.638,6.94-7.164.598,9.402-.616,9.346-5.041,21.436,4.929-2.743,5.881-4.422,7.596-9.019-.237,9.181-3.253,17.958-8.209,25.693-.743,1.121-.633,2.192.048,2.696,5.91.699,11.511-3.314,12.49-4.931,0,0-.636-.082-1.238-.175,6.337-4.764,7.687-9.854,8.599-14.495-1.406.573-1.869.342-1.869.342,3.178-13.184,2.725-29.065-4.9-40.684-5.341-8.455-15.819-16.005-26.143-13.469-4.967,1.391-8.394,3.137-12.186,10.169ZM46.612,119.311c.681-.504.791-1.575.048-2.696-4.956-7.736-7.972-16.513-8.209-25.693,1.716,4.598,2.667,6.277,7.596,9.019-4.426-12.089-5.639-12.033-5.041-21.436,1.959,3.526,5.228,6.013,6.94,7.164-.545-5.014-3.887-17.52-1.336-21.441,3.239,5.883,5.296,9.315,9.057,12.014-.462-3.207.589-9.953.298-13.069,3.677.837,7.091,3.244,9.386,5.147.018-2.335-.677-9.671-.677-13.516,3.393.792,5.801,1.349,7.184,1.263-3.791-7.032-7.219-8.778-12.186-10.169-10.323-2.536-20.802,5.014-26.143,13.469-7.625,11.62-8.078,27.5-4.9,40.684,0,0-.463.231-1.869-.342.912,4.641,2.262,9.731,8.599,14.495-.601.093-1.238.175-1.238.175.979,1.617,6.58,5.63,12.49,4.931ZM11.078,247.445c8.838-7.775,15.45-15.867,15.764-26.043-.168-.011-3.854,6.704-4.021,6.693-6.353,9.691-6.919,8.926-11.742,19.349Zm4.733,17.417c2.151-2.154,4.996-8.706,6.172-11.475,3.197-8.419,3.765-9.131,8.495-16.811-8.118,5.028-16.241,22.731-19.874,31.468-.678,1.307,1.699-.443,5.207-3.182Zm33.366,20.154c-5.661,1.263-17.064,15.372-17.813,16.373.448-9.333,3.092-18.252,7.866-26.269-5.289.831-13.879,7.834-15.189,7.857.122-6.396,1.028-11.076,5.205-20.767-5.623,4.387-17.388,16.056-19.129,38.88,7.624-5.852,10.517-6.624,14.278-8.263-4.812,2.224-11.283,32.787-.805,51.685,0,0,3.618-16.464,7.699-22.839.049,10.981,6.559,18.418,6.159,17.069-3.222-20.226-.021-36.653,11.73-53.725Zm10.436,2.15c-13.433,9.009-21.877,24.647-17.236,40.499,4.678,15.982,2.648,30.945,3.136,32.954,3.558-8.302,4.675-18.758,3.403-27.273-4.265-18.663,11.154-46.53,10.697-46.18Zm7.37,62.517c2.381-11.367,7.551-21.809,10.14-33.004-5.951,8.39-9.108,17.156-13.761,26.04.119-9.506,3.328-17.646,5.367-27.006-7.07,8.681-9.014,19.477-11.586,30.064-4.398-10.45-3.113-28.635,7.345-43.85-11.829,12.274-16.796,31.454-11.866,47.949,1.308,4.971,6.294,13.637,3.304,27.62,8.486-12.729,9.209-20.309,11.056-27.812Zm20.146,16.329c1.802-17.182,16.734-31.263,28.518-45.238-12.083,3.684-22.476,19.172-22.605,19.088,2.852-6.918,5.703-13.837,8.555-20.755-5.744,6.029-10.148,12.939-14.402,19.994,4.873-14.482,9.796-28.926,18.405-41.72-5.218,3.355-14.028,12.341-14.958,13.48-18.793,23.864-14.47,48.125-25.139,75.502,5.463-6.155,8.685-13.448,11.93-21.023.658,1.173.769,24.885,16.802,36.412.584-.624-8.897-18.663-7.106-35.739Zm21.117,31.094c-6.27-18.758-10.496-34.4.889-52.521-12.12,8.321-15.499,25.642-9.852,38.875,1.36,3.157,5.912,12.68,8.963,13.646Zm17.866-33.181c.989-7.204,4.89-13.261,7.945-19.582-18.728,10.876-14.191,34.185-14.483,36.752-7.274-18.521-6.513-25.838,1.055-43.981-4.336,3.29-7.403,10.319-9.689,15.247-4.236,10.459-1.121,21.761,2.894,31.758,2.516,6.099,2.372,23.128,2.675,25.332,10.199-15.756,7.399-35.507,9.603-45.527Zm49.264,27.402c1.296-2.004,5.296-6.547,5.113-8.75-10.382,8.361-20.219,16.875-25.9,29.298-.423-9.666,1.116-19.199,3.672-28.49-8.174,11.518-12.415,24.09-10.041,38.454-8.342-14.639-3.589-33.173,1.734-48.224,1.075-3.086,4.192-10.39,3.56-11.468-6.965,10.895-14.19,21.414-16.414,34.52-6.675-11.339,3.171-35.99,2.501-35.38-10.449,10.57-14.349,24.965-9.51,39.356,4.243,10.211,5.373,20.924.469,31.148,5.535-4.384,7.705-10.625,8.722-17.016.446,4.657,10.622,20.457,17.161,25.162,0,0-.132-22.615,18.932-48.61Zm-4.354-25.076c-3.559,11.33-7.532,21.92-11.833,32.344,8.507-5.179,14.718-21.223,11.833-32.344Zm3.159,37.765c-.805,7.296.724,14.224.24,21.268-.909-.346-5.636-6.28-7.693-7.962,2.893,13.404,6.461,17.165,10.78,28.809,5.899-13.455,4.127-29.693-3.327-42.115Zm29.075-21.29c.751,18.412-3.479,36.075-8.832,53.524-3.717-13.967-8.883-42.339-9.039-42.353-1.89,14.063-.493,28.161,2.449,41.964,2.982,11.903,9.069,25.459,14.836,31.627.852.803-5.952-14.582-1.733-30.299,4.739-17.653,6.773-37.185,2.319-54.463Zm35.203,36.875c1.748,9.237,3.617,21.817,1.429,31.087-2.199,7.724-5.569,12.767-9.594,19.531-.434-10.002-1.923-19.795-3.553-29.518-1.63,9.723-3.118,19.516-3.553,29.518-4.026-6.765-7.395-11.808-9.594-19.531-2.188-9.27-.319-21.85,1.429-31.087-7.005,12.371-11.013,28.775-2.775,41.525,4.751,7.501,13.669,18.812,14.493,28.038.824-9.226,9.742-20.537,14.493-28.038,8.239-12.75,4.23-29.154-2.775-41.525Zm29.637-25.703c-.156.014-5.322,28.386-9.039,42.353-5.354-17.45-9.583-35.113-8.832-53.524-4.454,17.278-2.419,36.81,2.319,54.463,4.219,15.717-2.585,31.102-1.733,30.299,5.767-6.167,11.854-19.724,14.836-31.627,2.942-13.803,4.339-27.901,2.449-41.964Zm3.326-62.394c4.375-4.616,6.752-10.694,8.374-16.78.25-.546,2.871,15.76,3.235,16.113,2.793-1.029,5.23-9.136,5.968-15.967,2.435,3.13,3.64,6.096,4.285,7.665,1.91-4.829,1.692-8.634,1.571-13.044-.309-1.347,6.948,7.013,7.605,7.256,1.763-4.254,2.464-8.761,2.312-13.355,2.406,1.096,5.301,4.466,5.842,5.632,2.224-5.176,2.564-11.103,1.831-16.653,2.781.661,4.779,3.305,6.149,5.001,2.021-7.988,1.391-11.155-1.204-26.457,3.066,2.495,4.647,4.376,6.26,6.716,2.777-5.584,1.681-16.91-2.728-31.395,1.941.62,3.763,2.03,5.021,3.235-5.062-16.605-22.029-23.782-34.246-34.251,16.538,2.792,25.35,9.254,31.774,15.156-2.553-7.116-12.561-21.49-12.561-21.49,0,0,4.257.548,6.958,2.868-2.583-8.43-7.093-12.43-6.768-12.769,3.48,1.167,5.418,1.872,8.003,3.517-.94-1.821-2.228-5.907-2.996-7.872,3.319,2.987,5.64,5.346,8.915,10.583-2.717-6.351-3.569-11.053-9.598-20.445,10.963,6.162,21.731,16.306,30.409,28.956,5.228,7.931,8.882,20.694,11.044,28.904,0,0-7.416-9.585-8.175-9.335.188.784,1.066,1.404,2.535,4.988,3.381,10.018,7.813,20.679,7.276,29.402-4.28-5.316-7.335-7.019-11.184-8.352,5.669,7.754,12.72,14.962,13.14,26.55-3.71-1.719-6.619-3.271-9.002-2.354,6.983,5.234,12.925,10.499,17.186,18.247,2.852-13.735-6.108-26.897-6.15-28.639,3.771,2.103,11.428,9.462,18.435,22.264.104-8.772-2.338-17.871-5.359-26.234-2.092-5.286-7.034-17.415-6.587-18.541,3.864,4.591,7.862,8.911,11.178,13.937-1.836-11.551-6.857-20.28-11.475-32.712,9.684,15.185,11.416,16.449,19.719,32.542-1.504-8.599-2.431-18.487-14.675-35.497,8.15,4.341,19.2,26.058,23.266,38.338,1.519-16.546-9.299-32.424-17.955-45.654,11.665,6.715,26.488,30.574,35.356,37.667-1.524-7.62-3.167-15.35-2.738-23.275-.275-6.233.201-12.384-1.66-18.418-.897-2.442-2.638-10.249-1.502-12.37,3.032,5.023,5.522,10.115,9.081,14.685.308-.793-3.38-21.741-7.207-31.253,2.618,1.5,5.006,6.356,6.721,8.963,2.336,3.682,4.296,7.945,7.602,10.823-4.284-15.055-4.81-32.692-18.62-43.051-11.276-6.47-15.425-8.786-31.419-24.496,6.809,3.905,13.742,7.33,21.056,10.066-7.732-6.633-24.579-28.175-25.503-33.697,8.376,7.822,19.736,18.014,27.51,24.64-6.54-8.623-14.647-21.312-17.122-25.915,7.155,4.638,14.342,12.945,20.748,17.057-20.135-25.158-40.634-48.153-75.632-46.068,6.961-4.797,20.233-4.828,28.497-3.027,11.464,2.172,20.616,8.404,30.11,14.673-6.486-10.277-13.876-19.169-22.992-26.657,3.15.411,5.697,2.279,8.497,3.583,6.755,3.53,13.103,7.844,18.68,13.05-5.198-10.97-10.45-21.764-23.573-29.853.837-1.55,5.699-.972,5.699-.972-14.065-11.298-35.444-5.671-41.338-5.394,5.036-4.369,10.76-3.982,19.103-7.803-2.648-.579-11.816-2.176-14.112-.703-6.221,2.036-15.78,2.442-23.299,1.47-14.568-2.426-23.924,1.805-37.368,6.849,16.5-9.193,26.303-13.66,40.848-13.119,5.525.279,17.133,3.459,26.059-3.25-5.484.467-9.347-1.191-11.921-2.067-13.335-4.079-27.1,2.803-39.911,4.77,8.718-9.47,15.019-11.104,20.936-14.471-20.154-1.093-42.152,18.438-55.683,32.035,6.662-13.399,19.078-29.31,32.819-37.007-32.177,1.221-46.75,29.766-47.549,29.595-.227-8.406,8.317-23.181,8.221-23.273-5.374.617-9.974,2.773-14.259,6.2,2.557-5.452,6.827-8.9,11.289-12.229-5.133.504-13.39,2.036-17.733,5.886-4.343-3.851-12.6-5.383-17.733-5.886,4.462,3.328,8.732,6.776,11.289,12.229-4.285-3.427-8.885-5.583-14.259-6.2-.096.091,8.448,14.867,8.221,23.273-.799.171-15.372-28.374-47.549-29.595,13.741,7.697,26.158,23.608,32.819,37.007-13.532-13.597-35.529-33.128-55.683-32.035,5.918,3.367,12.219,5,20.936,14.471-12.811-1.967-26.577-8.848-39.911-4.77-2.574.876-6.437,2.534-11.921,2.067,8.926,6.709,20.534,3.529,26.059,3.25,14.545-.54,24.348,3.926,40.848,13.119-13.443-5.044-22.8-9.275-37.368-6.849-7.519.971-17.078.566-23.299-1.47-2.296-1.473-11.463.124-14.112.703,8.343,3.821,14.067,3.434,19.103,7.803-5.894-.278-27.273-5.905-41.338,5.394,0,0,4.862-.578,5.699.972-13.123,8.089-18.375,18.883-23.573,29.853,5.577-5.206,11.925-9.52,18.68-13.05,2.8-1.304,5.348-3.171,8.497-3.583-9.116,7.488-16.507,16.38-22.992,26.657,9.494-6.269,18.646-12.5,30.11-14.673,8.265-1.8,21.536-1.77,28.497,3.027-34.998-2.085-55.497,20.911-75.632,46.068,6.406-4.112,13.593-12.419,20.748-17.057-2.475,4.603-10.582,17.292-17.122,25.915,7.773-6.625,19.134-16.818,27.51-24.64-.924,5.521-17.772,27.064-25.503,33.697,7.314-2.736,14.247-6.161,21.056-10.066-15.994,15.709-20.143,18.026-31.419,24.496-13.81,10.359-14.337,27.996-18.62,43.051,3.306-2.878,5.265-7.141,7.602-10.823,1.715-2.607,4.103-7.463,6.721-8.963-3.827,9.512-7.515,30.46-7.207,31.253,3.559-4.57,6.049-9.662,9.081-14.685,1.136,2.122-.605,9.929-1.502,12.37-1.861,6.034-1.385,12.185-1.66,18.418.429,7.925-1.214,15.656-2.738,23.275,8.868-7.094,23.69-30.952,35.356-37.667-8.655,13.23-19.474,29.108-17.955,45.654,4.067-12.281,15.117-33.998,23.266-38.338-12.244,17.01-13.171,26.898-14.675,35.497,8.302-16.092,10.035-17.357,19.719-32.542-4.618,12.432-9.639,21.162-11.475,32.712,3.316-5.026,7.314-9.346,11.178-13.937.447,1.127-4.495,13.255-6.587,18.541-3.021,8.363-5.463,17.462-5.359,26.234,7.007-12.802,14.664-20.161,18.435-22.264-.042,1.742-9.002,14.904-6.15,28.639,4.261-7.748,10.203-13.013,17.186-18.247-2.384-.917-5.292.635-9.002,2.354.42-11.589,7.471-18.797,13.14-26.55-3.849,1.332-6.904,3.036-11.184,8.352-.537-8.723,3.896-19.384,7.276-29.402,1.469-3.584,2.347-4.204,2.535-4.988-.759-.25-8.175,9.335-8.175,9.335,2.163-8.209,5.816-20.973,11.044-28.904,8.677-12.65,19.445-22.794,30.409-28.956-6.029,9.393-6.881,14.094-9.598,20.445,3.276-5.237,5.596-7.596,8.915-10.583-.769,1.966-2.056,6.051-2.996,7.872,2.585-1.645,4.524-2.35,8.003-3.517.325.339-4.185,4.34-6.768,12.769,2.701-2.32,6.958-2.868,6.958-2.868,0,0-10.008,14.374-12.561,21.49,6.424-5.903,15.236-12.365,31.774-15.156-12.217,10.469-29.184,17.646-34.246,34.251,1.258-1.205,3.08-2.615,5.021-3.235-4.409,14.485-5.504,25.81-2.728,31.395,1.613-2.34,3.195-4.221,6.26-6.716-2.596,15.302-3.225,18.468-1.204,26.457,1.37-1.696,3.367-4.34,6.149-5.001-.733,5.551-.393,11.477,1.831,16.653.541-1.166,3.436-4.536,5.842-5.632-.151,4.595.549,9.102,2.312,13.355.657-.244,7.914-8.603,7.605-7.256-.12,4.41-.339,8.215,1.571,13.044.644-1.569,1.85-4.535,4.285-7.665.737,6.831,3.175,14.938,5.968,15.967.364-.353,2.985-16.659,3.235-16.113,1.622,6.086,3.999,12.164,8.374,16.78-.344-4.105-.794-8.029-.331-12.446,2.291,6.403,3.829,7.437,6.105,10.821.995-3.377,2.648-6.239,5.019-11.036.566,9.966,2.901,15.514,5.641,21.943,1.564-6.278,2.681-9.92,7.17-15.418,1.209,7.848,3.671,13.349,5.968,18.378,2.254-7.9,4.188-13.974,7.565-19.88.492,7.166,4.946,15.129,7.545,18.748,2.599-3.619,7.053-11.582,7.545-18.748,3.377,5.906,5.311,11.98,7.565,19.88,2.297-5.029,4.759-10.53,5.968-18.378,4.489,5.498,5.605,9.14,7.17,15.418,2.74-6.429,5.074-11.976,5.641-21.943,2.371,4.796,4.024,7.658,5.019,11.036,2.277-3.384,3.814-4.418,6.105-10.821.463,4.417.013,8.342-.331,12.446Zm11.037,34.747c-2.885,11.121,3.326,27.165,11.833,32.344-4.301-10.424-8.274-21.014-11.833-32.344Zm4.295,51.071c-2.058,1.681-6.785,7.616-7.693,7.962-.485-7.044,1.045-13.972.24-21.268-7.453,12.422-9.226,28.66-3.327,42.115,4.319-11.644,7.887-15.405,10.78-28.809Zm27.125-56.036c-.67-.61,9.176,24.041,2.501,35.38-2.224-13.106-9.449-23.625-16.414-34.52-.632,1.077,2.485,8.382,3.56,11.468,5.323,15.051,10.076,33.585,1.734,48.224,2.375-14.364-1.866-26.936-10.041-38.454,2.556,9.291,4.095,18.825,3.672,28.49-5.681-12.423-15.517-20.937-25.9-29.298-.183,2.203,3.817,6.746,5.113,8.75,19.063,25.996,18.932,48.61,18.932,48.61,6.539-4.705,16.715-20.506,17.161-25.162,1.017,6.391,3.186,12.633,8.722,17.016-4.904-10.224-3.774-20.936.469-31.148,4.839-14.391.94-28.787-9.51-39.356Zm28.663-8.925c-2.286-4.929-5.353-11.957-9.689-15.247,7.568,18.143,8.329,25.46,1.055,43.981-.291-2.567,4.246-25.875-14.483-36.752,3.056,6.321,6.956,12.378,7.945,19.582,2.204,10.02-.596,29.771,9.603,45.527.303-2.204.159-19.233,2.675-25.332,4.015-9.997,7.13-21.299,2.894-31.758Zm1.804-7.777c11.386,18.122,7.16,33.764.889,52.521,3.051-.965,7.602-10.488,8.963-13.646,5.647-13.234,2.268-30.555-9.852-38.875Zm43.633,41.778c-10.669-27.378-6.346-51.638-25.139-75.502-.93-1.139-9.74-10.125-14.958-13.48,8.608,12.794,13.532,27.238,18.405,41.72-4.254-7.055-8.658-13.965-14.402-19.994,2.852,6.918,5.703,13.837,8.555,20.755-.13.084-10.522-15.404-22.605-19.088,11.784,13.975,26.716,28.057,28.518,45.238,1.791,17.076-7.69,35.115-7.106,35.739,16.033-11.527,16.144-35.238,16.802-36.412,3.245,7.575,6.468,14.869,11.93,21.023Zm1.015-84.436c10.458,15.215,11.742,33.399,7.345,43.85-2.571-10.587-4.515-21.383-11.586-30.064,2.04,9.36,5.248,17.5,5.367,27.006-4.653-8.885-7.81-17.65-13.761-26.04,2.589,11.195,7.759,21.637,10.14,33.004,1.848,7.502,2.57,15.083,11.056,27.812-2.989-13.983,1.996-22.649,3.304-27.62,4.93-16.494-.037-35.675-11.866-47.949Zm4.875-14.761c-.457-.35,14.962,27.518,10.697,46.18-1.272,8.515-.154,18.971,3.403,27.273.488-2.009-1.543-16.972,3.136-32.954,4.641-15.852-3.803-31.49-17.236-40.499Zm35.219,5.661c3.761,1.639,6.654,2.411,14.278,8.263-1.742-22.824-13.506-34.493-19.129-38.88,4.177,9.691,5.083,14.371,5.205,20.767-1.31-.022-9.9-7.025-15.189-7.857,4.774,8.017,7.417,16.936,7.866,26.269-.749-1.001-12.152-15.11-17.813-16.373,11.751,17.072,14.952,33.499,11.73,53.725-.4,1.349,6.11-6.088,6.159-17.069,4.081,6.376,7.699,22.839,7.699,22.839,10.478-18.898,4.008-49.461-.805-51.685Zm-118.927-37.808c3.237-11.479-5.62-21.897-15.174-27.035,5.742,8.436,9.569,17.921,13.617,27.219.479.782,1.197.678,1.557-.184Zm-45.19-108.762c3.082-7.672,6.43-12.783,9.736-16.635-2.078,7.883.739,13.517.739,13.517,0,0,11.268-27.926,34.663-47.646-13.228,5.879-22.425,14.27-29.856,25.122-.216-3.472,4.624-15.568,7.863-23.789-8.978,7.655-15.484,17.137-21.022,27.413.025-5.473,1.193-12.502,1.94-18.753-4.153,7.453-8.11,14.582-11.023,22.554-.805-12.183-.675-24.254-.207-36.859-2.689,9.056-3.613,18.471-5.013,27.806-.511,4.245-1.178,8.4-2.576,12.518-5.404,15.136-3.262,33.426,8.588,45.05-2.266-10.066-6.32-27.69,4.183-38.056.26,1.847.542,4.844,1.984,7.757Zm15.786,2.504c.209-1.68-1.093-1.397-1.553-.124-3.95,6.574-3.881,14.156-2.565,21.473-1.062.056-2.401-3.074-3.257-3.899-.74-1.371-2.218-.672-1.762.753,1.758,12.177,8.342,22.625,15.689,32.156.324.425.661.896,1.627.646-1.938-6.329-5.04-11.691-6.196-18.43,4.624,5.322,8.525,11.106,14.193,15.501.556.461,1.251,1.437,1.929.743.665-.681-.348-1.365-.785-1.915-10.465-13.188-19.21-29.599-17.319-46.903Zm-229.455,56.862c5.236-4.237,9.855-9.009,15.482-10.206-4.172,9.605-8.387,23.362-8.135,26.447,6.878-11.783,13.634-18.363,22.142-25.174-6.452,2.052-9.467,4.147-11.857,5.401,1.064-4.246,4.935-10.457,10.457-16.038-3.819,1.351-5.287,1.704-8.305,3.651,3.546-9.173,11.863-13.914,13.199-15.882-19.757,6.18-34.266,30.926-32.983,31.801Zm159.372-81.135c7.254-8.592,7.745-46.137,2.996-56.381-.138,9.542-1.176,18.571-3.302,27.522-3.73-12.122-9.953-22.433-20.517-29.703,7.209,13.148,9.698,18.885,12.151,29.028,2.403,9.969,5.505,19.837,8.672,29.533Zm122.208,52.435c3.664,2.953,8.487,6.075,12.541,12.302-7.637-4.054-13.864-6.168-22.533-8.337,7.974,8.878,18.13,10.933,26.527,19.146,4.559,4.026,9.165,8.753,16.39,17.154-1.627-3.388-4.855-8.931-5.805-12.485-2.318-13.486-12.71-26.854-27.121-27.781Zm-52.631-85.331c16.696-10.913,21.776-21.971,54.972-23.663,1.334-.14,5.63-.045,5.959-1.628-15.104-3.592-29.436-2.314-43.342,4.816,3.253-5.93,9.496-12.931,17.636-14.839-12.574-1.708-22.726.1-31.345,5.555-6.758,5.496-14.179,12.435-15.713,21.305.668.2,16.456-16.959,26.432-19.44-5.834,6.39-13.71,20.684-14.6,27.895Zm-28.771,3.362c2.453-10.143,4.941-15.88,12.151-29.028-10.564,7.269-16.786,17.581-20.517,29.703-2.126-8.951-3.164-17.98-3.302-27.522-4.749,10.244-4.258,47.788,2.996,56.381,3.167-9.696,6.269-19.564,8.672-29.533Zm103.936,30.287c-1.122,12.521-5.645,24.506-19.264,30.872-9.614,4.118-27.504,3.484-28.915,17.308,4.582-4.347,6.11-5.933,8.8-6.438-2.279,3.794-2.514,7.025-2.514,9.845,3.701-4.994,5.951-7.389,8.342-8.46,9.576-4.289,22.324-1.821,36.615,1.336-2.208-3.033-5.317-4.077-8.7-5.504,4.649-1.165,8.625-1.472,14.265-1.648-5.875-2.526-11.338-2.526-17.114-2.284,8.221-8.554,12.708-21.274,8.484-35.029Z" fill="#363436"/>
  </g>
</svg>